<svg id="Layer_1" data-name="Layer 1" xmlns="http://www.w3.org/2000/svg" viewBox="0 0 67.38 2.73"><defs><style>.cls-1{fill:#fff;}</style></defs><path class="cls-1" d="M.39,0V.2h.2V0Zm1,.2h-.2V.39H1v.78h.58V.59H1.37Zm-1,0H.2V.39H0v.78H.59V.59H.39Zm1-.2V.2h.19V0Z"/><path class="cls-1" d="M2.93,2.73h.39V.39H4.1V0H2.15V.39h.78Z"/><path class="cls-1" d="M4.88,1h.2V.78h.19V.59h.39V.78h.2V1h.19v.58H4.88Zm0,1H6.05v.78h.4V.78h-.2V.59h-.2V.39H5.86V.2h-.2V0H5.27V.2H5.08V.39h-.2v.2H4.69V.78h-.2v2h.39Z"/><path class="cls-1" d="M7.42,1.56v.2h.2V2h.19v.2H8v.19H8.2v.2h.2v.19h.39V2.34h-.2V2.15H8.4V2H8.2V1.76H8v-.2h-.2V1.17H8V1H8.2V.78h.2V.59h.19V.39h.2V0H8.4V.2H8.2V.39H8v.2h-.2V.78H7.62V1h-.2v.19H7.23V0H6.84V2.73h.39V1.56Z"/><path class="cls-1" d="M9.18,0V2.73h2V2.34H9.57V1.56h1.17V1.17H9.57V.39h1.56V0Z"/><path class="cls-1" d="M14.26,1h.19v.19h.2v.39H15V1.17h.19V1h.2V2.73h.39V0h-.39V.39h-.2v.2H15V.78h-.39V.59h-.2V.39h-.19V0h-.39V2.73h.39Z"/><path class="cls-1" d="M17.38,1.76h.2v-.2h.19V1.37H18v-.2h.19V0h-.39V1h-.19v.19h-.2v.2H17v-.2H16.8V1h-.2V0h-.39V1.17h.2v.2h.19v.19h.2v.2H17v1h.39Z"/><path class="cls-1" d="M22.27.39v.2h.19V1h-.19v.19h-1V.39Zm.19,1.17V1.37h.2v-.2h.19V.39h-.19V.2h-.2V0H20.9V2.73h.39V1.56Z"/><path class="cls-1" d="M24.8,1.56V2.73h.4V0h-.4V1.17H23.63V0h-.39V2.73h.39V1.56Z"/><path class="cls-1" d="M27,.59h.2V2.15H27v.19h-.78V2.15H26V.59h.19V.39H27ZM25.78.2V.39h-.19V2.34h.19v.2H26v.19h1.17V2.54h.19v-.2h.2V.39h-.2V.2h-.19V0H26V.2Z"/><path class="cls-1" d="M28.52,1.17v.2h.19v.19h.2v.2h.19V2h.2v.2h.19v.58h.39V0h-.39V1.56H29.3V1.37h-.2v-.2h-.19V1h-.2V.78h-.19V.59h-.2V0h-.39V2.73h.39V1.17Z"/><path class="cls-1" d="M30.27,0V2.73h2V2.34H30.66V1.56h1.18V1.17H30.66V.39h1.57V0Z"/><path class="cls-1" d="M34,1.17V1h-.19v.19ZM33,1h.19V.78h.2V0h-.59V.59H33Zm1,0h.2V.78h.19V0h-.58V.59H34Zm-1,.19V1h-.2v.19Z"/><path class="cls-1" d="M37.5,1.17v.39h1.56V1.17Z"/><path class="cls-1" d="M42.38,1h.2V.78h.19V.59h.39V.78h.2V1h.19v.58H42.38Zm0,1h1.17v.78H44V.78h-.2V.59h-.2V.39h-.19V.2h-.2V0h-.39V.2h-.19V.39h-.2v.2h-.19V.78H42v2h.39Z"/><path class="cls-1" d="M44.53,2.54h.2v.19H45.9V2.54h.19v-.2h.2V0H45.9V2.15h-.2v.19h-.78V2.15h-.19V0h-.39V2.34h.19Z"/><path class="cls-1" d="M48.44.2h-.2V0H47.07V.2h-.2V.39h-.19V2.34h.19v.2h.2v.19h1.17V2.54h.2v-.2h.19V1.17h-1v.39h.58v.59h-.19v.19h-.78V2.15h-.2V.59h.2V.39h.78v.2h.19V.78h.39V.39h-.19Z"/><path class="cls-1" d="M49.22,2.54h.19v.19h1.18V2.54h.19v-.2H51V0h-.39V2.15h-.2v.19h-.78V2.15h-.2V0H49V2.34h.2Z"/><path class="cls-1" d="M53.12.2h-.19V0H51.76V.2h-.2V.39h-.19v.78h.19v.2h.2v.19h1v.2h.2v.39h-.2v.19H52V2.15h-.19V2h-.39v.39h.19v.2h.2v.19h1.17V2.54h.19v-.2h.2V1.56h-.2V1.37h-.19v-.2H52V1h-.19V.59H52V.39h.78v.2h.2V.78h.39V.39h-.2Z"/><path class="cls-1" d="M54.49,2.73h.39V.39h.78V0H53.71V.39h.78Z"/><path class="cls-1" d="M59.57,0h-.39V.2H59V.39h-.19V.78h.39V2.34h-.39v.39H60V2.34h-.39Z"/><path class="cls-1" d="M61.91,0h-.39V.2h-.19V.39h-.2V.78h.39V2.34h-.39v.39H62.3V2.34h-.39Z"/><path class="cls-1" d="M63.87,2.73h.39V.39H65V0h-2V.39h.78Z"/><path class="cls-1" d="M67,1.56V2.73h.39V0H67V1.17H65.82V0h-.39V2.73h.39V1.56Z"/></svg>