<svg id="Apple" xmlns="http://www.w3.org/2000/svg" viewBox="0 0 47.6 79.77"><defs><style>.cls-1{fill:#157a3d;}.cls-2{fill:#137b3e;}</style></defs><rect class="cls-1" x="34.91" y="56.84" width="1.59" height="1.96"/><rect class="cls-1" x="33.32" y="56.84" width="1.59" height="1.96"/><rect class="cls-1" x="15.87" y="56.84" width="1.59" height="1.96"/><rect class="cls-1" x="14.28" y="56.84" width="1.59" height="1.96"/><rect class="cls-1" x="38.08" y="54.88" width="1.59" height="1.96"/><rect class="cls-1" x="36.49" y="54.88" width="1.59" height="1.96"/><rect class="cls-1" x="34.91" y="54.88" width="1.59" height="1.96"/><rect class="cls-1" x="33.32" y="54.88" width="1.59" height="1.96"/><rect class="cls-1" x="31.73" y="54.88" width="1.59" height="1.96"/><rect class="cls-1" x="30.15" y="54.88" width="1.59" height="1.96"/><rect class="cls-1" x="28.56" y="54.88" width="1.59" height="1.96"/><rect class="cls-1" x="26.97" y="54.88" width="1.59" height="1.96"/><rect class="cls-1" x="22.21" y="54.88" width="1.59" height="1.96"/><rect class="cls-1" x="20.63" y="54.88" width="1.59" height="1.96"/><rect class="cls-1" x="19.04" y="54.88" width="1.59" height="1.96"/><rect class="cls-1" x="17.45" y="54.88" width="1.59" height="1.96"/><rect class="cls-1" x="15.87" y="54.88" width="1.59" height="1.96"/><rect class="cls-1" x="14.28" y="54.88" width="1.59" height="1.96"/><rect class="cls-1" x="12.69" y="54.88" width="1.59" height="1.96"/><rect class="cls-1" x="11.11" y="54.88" width="1.59" height="1.96"/><rect class="cls-1" x="9.52" y="54.88" width="1.59" height="1.96"/><rect class="cls-1" x="41.25" y="52.92" width="1.59" height="1.96"/><rect class="cls-1" x="39.67" y="52.92" width="1.59" height="1.96"/><rect class="cls-1" x="38.08" y="52.92" width="1.59" height="1.96"/><rect class="cls-1" x="36.49" y="52.92" width="1.59" height="1.96"/><rect class="cls-1" x="34.91" y="52.92" width="1.59" height="1.96"/><rect class="cls-1" x="33.32" y="52.92" width="1.59" height="1.96"/><rect class="cls-1" x="31.73" y="52.92" width="1.59" height="1.96"/><rect class="cls-1" x="30.15" y="52.92" width="1.59" height="1.96"/><rect class="cls-1" x="28.56" y="52.92" width="1.59" height="1.96"/><rect class="cls-1" x="26.97" y="52.92" width="1.59" height="1.96"/><rect class="cls-1" x="25.39" y="52.92" width="1.59" height="1.96"/><rect class="cls-1" x="23.8" y="52.92" width="1.59" height="1.96"/><rect class="cls-1" x="22.21" y="52.92" width="1.59" height="1.96"/><rect class="cls-1" x="20.63" y="52.92" width="1.59" height="1.96"/><rect class="cls-1" x="19.04" y="52.92" width="1.59" height="1.96"/><rect class="cls-1" x="17.45" y="52.92" width="1.59" height="1.96"/><rect class="cls-1" x="15.87" y="52.92" width="1.59" height="1.96"/><rect class="cls-1" x="14.28" y="52.92" width="1.59" height="1.96"/><rect class="cls-1" x="12.69" y="52.92" width="1.59" height="1.96"/><rect class="cls-1" x="11.11" y="52.92" width="1.59" height="1.96"/><rect class="cls-1" x="9.52" y="52.92" width="1.59" height="1.96"/><rect class="cls-1" x="7.93" y="52.92" width="1.59" height="1.96"/><rect class="cls-1" x="41.25" y="50.96" width="1.59" height="1.96"/><rect class="cls-1" x="39.67" y="50.96" width="1.59" height="1.96"/><rect class="cls-1" x="38.08" y="50.96" width="1.59" height="1.96"/><rect class="cls-1" x="36.49" y="50.96" width="1.59" height="1.96"/><rect class="cls-1" x="34.91" y="50.96" width="1.59" height="1.96"/><rect class="cls-1" x="33.32" y="50.96" width="1.59" height="1.96"/><rect class="cls-1" x="31.73" y="50.96" width="1.59" height="1.96"/><rect class="cls-1" x="30.15" y="50.96" width="1.59" height="1.96"/><rect class="cls-1" x="28.56" y="50.96" width="1.59" height="1.96"/><rect class="cls-1" x="26.97" y="50.96" width="1.59" height="1.96"/><rect class="cls-1" x="25.39" y="50.96" width="1.59" height="1.96"/><rect class="cls-1" x="23.8" y="50.96" width="1.59" height="1.96"/><rect class="cls-1" x="22.21" y="50.96" width="1.59" height="1.96"/><rect class="cls-1" x="20.63" y="50.96" width="1.59" height="1.96"/><rect class="cls-1" x="19.04" y="50.96" width="1.59" height="1.96"/><rect class="cls-1" x="17.45" y="50.96" width="1.59" height="1.96"/><rect class="cls-1" x="15.87" y="50.96" width="1.59" height="1.96"/><rect class="cls-1" x="14.28" y="50.96" width="1.59" height="1.96"/><rect class="cls-1" x="12.69" y="50.96" width="1.59" height="1.96"/><rect class="cls-1" x="11.11" y="50.96" width="1.59" height="1.96"/><rect class="cls-1" x="9.52" y="50.96" width="1.59" height="1.96"/><rect class="cls-1" x="7.93" y="50.96" width="1.59" height="1.96"/><rect class="cls-1" x="6.35" y="50.96" width="1.59" height="1.96"/><rect class="cls-1" x="42.84" y="49" width="1.59" height="1.96"/><rect class="cls-1" x="41.25" y="49" width="1.59" height="1.96"/><rect class="cls-1" x="39.67" y="49" width="1.59" height="1.96"/><rect class="cls-1" x="38.08" y="49" width="1.59" height="1.96"/><rect class="cls-1" x="36.49" y="49" width="1.59" height="1.96"/><rect class="cls-1" x="34.91" y="49" width="1.59" height="1.96"/><rect class="cls-1" x="33.32" y="49" width="1.59" height="1.96"/><rect class="cls-1" x="31.73" y="49" width="1.59" height="1.96"/><rect class="cls-1" x="30.15" y="49" width="1.59" height="1.96"/><rect class="cls-1" x="28.56" y="49" width="1.59" height="1.96"/><rect class="cls-1" x="26.97" y="49" width="1.59" height="1.96"/><rect class="cls-1" x="25.39" y="49" width="1.59" height="1.96"/><rect class="cls-1" x="23.8" y="49" width="1.59" height="1.96"/><rect class="cls-1" x="22.21" y="49" width="1.59" height="1.96"/><rect class="cls-1" x="20.63" y="49" width="1.59" height="1.96"/><rect class="cls-1" x="19.04" y="49" width="1.59" height="1.96"/><rect class="cls-1" x="17.45" y="49" width="1.59" height="1.96"/><rect class="cls-1" x="15.87" y="49" width="1.59" height="1.96"/><rect class="cls-1" x="14.28" y="49" width="1.59" height="1.96"/><rect class="cls-1" x="12.69" y="49" width="1.59" height="1.96"/><rect class="cls-1" x="11.11" y="49" width="1.59" height="1.96"/><rect class="cls-1" x="9.52" y="49" width="1.59" height="1.96"/><rect class="cls-1" x="7.93" y="49" width="1.59" height="1.96"/><rect class="cls-1" x="6.35" y="49" width="1.59" height="1.96"/><rect class="cls-1" x="4.76" y="49" width="1.59" height="1.96"/><rect class="cls-1" x="44.43" y="47.04" width="1.59" height="1.96"/><rect class="cls-1" x="42.84" y="47.04" width="1.59" height="1.96"/><rect class="cls-1" x="41.25" y="47.04" width="1.59" height="1.96"/><rect class="cls-1" x="39.67" y="47.04" width="1.59" height="1.96"/><rect class="cls-1" x="38.08" y="47.04" width="1.59" height="1.96"/><rect class="cls-1" x="36.49" y="47.04" width="1.59" height="1.96"/><rect class="cls-1" x="34.91" y="47.04" width="1.59" height="1.96"/><rect class="cls-1" x="33.32" y="47.04" width="1.59" height="1.96"/><rect class="cls-1" x="31.73" y="47.04" width="1.59" height="1.96"/><rect class="cls-1" x="30.15" y="47.04" width="1.59" height="1.96"/><rect class="cls-1" x="28.56" y="47.04" width="1.59" height="1.96"/><rect class="cls-1" x="26.97" y="47.04" width="1.59" height="1.96"/><rect class="cls-1" x="25.39" y="47.04" width="1.59" height="1.96"/><rect class="cls-1" x="23.8" y="47.04" width="1.59" height="1.96"/><rect class="cls-1" x="22.21" y="47.04" width="1.59" height="1.96"/><rect class="cls-1" x="20.63" y="47.04" width="1.59" height="1.96"/><rect class="cls-1" x="19.04" y="47.04" width="1.59" height="1.96"/><rect class="cls-1" x="17.45" y="47.04" width="1.59" height="1.96"/><rect class="cls-1" x="15.87" y="47.04" width="1.59" height="1.96"/><rect class="cls-1" x="14.28" y="47.04" width="1.59" height="1.96"/><rect class="cls-1" x="12.69" y="47.04" width="1.59" height="1.96"/><rect class="cls-1" x="11.11" y="47.04" width="1.59" height="1.96"/><rect class="cls-1" x="9.52" y="47.04" width="1.59" height="1.96"/><rect class="cls-1" x="7.93" y="47.04" width="1.59" height="1.96"/><rect class="cls-1" x="6.35" y="47.04" width="1.59" height="1.96"/><rect class="cls-1" x="4.76" y="47.04" width="1.59" height="1.96"/><rect class="cls-1" x="46.01" y="45.08" width="1.59" height="1.96"/><rect class="cls-1" x="44.43" y="45.08" width="1.59" height="1.96"/><rect class="cls-1" x="42.84" y="45.08" width="1.59" height="1.96"/><rect class="cls-1" x="41.25" y="45.08" width="1.59" height="1.96"/><rect class="cls-1" x="39.67" y="45.08" width="1.59" height="1.96"/><rect class="cls-1" x="38.08" y="45.08" width="1.59" height="1.96"/><rect class="cls-1" x="36.49" y="45.08" width="1.59" height="1.96"/><rect class="cls-1" x="34.91" y="45.08" width="1.59" height="1.96"/><rect class="cls-1" x="33.32" y="45.08" width="1.59" height="1.96"/><rect class="cls-1" x="31.73" y="45.08" width="1.59" height="1.96"/><rect class="cls-1" x="30.15" y="45.08" width="1.59" height="1.96"/><rect class="cls-1" x="28.56" y="45.08" width="1.59" height="1.96"/><rect class="cls-1" x="26.97" y="45.08" width="1.59" height="1.96"/><rect class="cls-1" x="25.39" y="45.08" width="1.59" height="1.96"/><rect class="cls-1" x="23.8" y="45.08" width="1.59" height="1.96"/><rect class="cls-1" x="22.21" y="45.08" width="1.59" height="1.96"/><rect class="cls-1" x="20.63" y="45.08" width="1.59" height="1.96"/><rect class="cls-1" x="19.04" y="45.08" width="1.59" height="1.96"/><rect class="cls-1" x="17.45" y="45.08" width="1.59" height="1.96"/><rect class="cls-1" x="15.87" y="45.08" width="1.59" height="1.96"/><rect class="cls-1" x="14.28" y="45.08" width="1.59" height="1.96"/><rect class="cls-1" x="12.69" y="45.08" width="1.59" height="1.96"/><rect class="cls-1" x="11.11" y="45.08" width="1.59" height="1.96"/><rect class="cls-1" x="9.52" y="45.08" width="1.59" height="1.96"/><rect class="cls-1" x="7.93" y="45.08" width="1.59" height="1.96"/><rect class="cls-1" x="6.35" y="45.08" width="1.59" height="1.96"/><rect class="cls-1" x="4.76" y="45.08" width="1.59" height="1.96"/><rect class="cls-1" x="3.17" y="45.08" width="1.59" height="1.96"/><rect class="cls-1" x="46.01" y="43.12" width="1.59" height="1.96"/><rect class="cls-1" x="44.43" y="43.12" width="1.59" height="1.96"/><rect class="cls-1" x="42.84" y="43.12" width="1.59" height="1.96"/><rect class="cls-1" x="41.25" y="43.12" width="1.59" height="1.96"/><rect class="cls-1" x="39.67" y="43.12" width="1.59" height="1.96"/><rect class="cls-1" x="38.08" y="43.12" width="1.59" height="1.96"/><rect class="cls-1" x="36.49" y="43.12" width="1.59" height="1.96"/><rect class="cls-1" x="34.91" y="43.12" width="1.59" height="1.96"/><rect class="cls-1" x="33.32" y="43.12" width="1.59" height="1.96"/><rect class="cls-1" x="31.73" y="43.12" width="1.59" height="1.96"/><rect class="cls-1" x="30.15" y="43.12" width="1.59" height="1.96"/><rect class="cls-1" x="28.56" y="43.12" width="1.59" height="1.96"/><rect class="cls-1" x="26.97" y="43.12" width="1.59" height="1.96"/><rect class="cls-1" x="25.39" y="43.12" width="1.59" height="1.96"/><rect class="cls-1" x="23.8" y="43.12" width="1.59" height="1.96"/><rect class="cls-1" x="22.21" y="43.12" width="1.59" height="1.96"/><rect class="cls-1" x="20.63" y="43.12" width="1.59" height="1.96"/><rect class="cls-1" x="19.04" y="43.12" width="1.59" height="1.96"/><rect class="cls-1" x="17.45" y="43.12" width="1.59" height="1.96"/><rect class="cls-1" x="15.87" y="43.12" width="1.59" height="1.96"/><rect class="cls-1" x="14.28" y="43.12" width="1.59" height="1.96"/><rect class="cls-1" x="12.69" y="43.12" width="1.59" height="1.96"/><rect class="cls-1" x="11.11" y="43.12" width="1.59" height="1.96"/><rect class="cls-1" x="9.52" y="43.12" width="1.59" height="1.96"/><rect class="cls-1" x="7.93" y="43.12" width="1.59" height="1.96"/><rect class="cls-1" x="6.35" y="43.12" width="1.59" height="1.96"/><rect class="cls-1" x="4.76" y="43.12" width="1.59" height="1.96"/><rect class="cls-1" x="3.17" y="43.12" width="1.59" height="1.96"/><rect class="cls-1" x="1.59" y="43.12" width="1.59" height="1.96"/><rect class="cls-1" x="46.01" y="41.16" width="1.59" height="1.96"/><rect class="cls-1" x="44.43" y="41.16" width="1.59" height="1.96"/><rect class="cls-1" x="42.84" y="41.16" width="1.59" height="1.96"/><rect class="cls-1" x="41.25" y="41.16" width="1.59" height="1.96"/><rect class="cls-1" x="39.67" y="41.16" width="1.59" height="1.96"/><rect class="cls-1" x="38.08" y="41.16" width="1.59" height="1.96"/><rect class="cls-1" x="36.49" y="41.16" width="1.59" height="1.96"/><rect class="cls-1" x="34.91" y="41.16" width="1.59" height="1.96"/><rect class="cls-1" x="33.32" y="41.16" width="1.59" height="1.96"/><rect class="cls-1" x="31.73" y="41.16" width="1.59" height="1.96"/><rect class="cls-1" x="30.15" y="41.16" width="1.59" height="1.96"/><rect class="cls-1" x="28.56" y="41.16" width="1.59" height="1.96"/><rect class="cls-1" x="26.97" y="41.16" width="1.59" height="1.96"/><rect class="cls-1" x="25.39" y="41.16" width="1.59" height="1.96"/><rect class="cls-1" x="23.8" y="41.16" width="1.59" height="1.96"/><rect class="cls-1" x="22.21" y="41.16" width="1.59" height="1.96"/><rect class="cls-1" x="20.63" y="41.16" width="1.59" height="1.96"/><rect class="cls-1" x="19.04" y="41.16" width="1.59" height="1.96"/><rect class="cls-1" x="17.45" y="41.16" width="1.59" height="1.96"/><rect class="cls-1" x="15.87" y="41.16" width="1.59" height="1.96"/><rect class="cls-1" x="14.28" y="41.16" width="1.59" height="1.96"/><rect class="cls-1" x="12.69" y="41.16" width="1.59" height="1.96"/><rect class="cls-1" x="11.11" y="41.16" width="1.59" height="1.96"/><rect class="cls-1" x="9.52" y="41.16" width="1.59" height="1.96"/><rect class="cls-1" x="7.93" y="41.16" width="1.59" height="1.96"/><rect class="cls-1" x="6.35" y="41.16" width="1.59" height="1.96"/><rect class="cls-1" x="4.76" y="41.16" width="1.59" height="1.96"/><rect class="cls-1" x="3.17" y="41.16" width="1.59" height="1.96"/><rect class="cls-1" x="1.59" y="41.16" width="1.59" height="1.96"/><rect class="cls-1" x="42.84" y="39.2" width="1.59" height="1.96"/><rect class="cls-1" x="41.25" y="39.2" width="1.59" height="1.96"/><rect class="cls-1" x="39.67" y="39.2" width="1.59" height="1.96"/><rect class="cls-1" x="38.08" y="39.2" width="1.59" height="1.96"/><rect class="cls-1" x="36.49" y="39.2" width="1.59" height="1.96"/><rect class="cls-1" x="34.91" y="39.2" width="1.59" height="1.96"/><rect class="cls-1" x="33.32" y="39.2" width="1.59" height="1.96"/><rect class="cls-1" x="31.73" y="39.2" width="1.59" height="1.96"/><rect class="cls-1" x="30.15" y="39.2" width="1.59" height="1.96"/><rect class="cls-1" x="28.56" y="39.2" width="1.59" height="1.96"/><rect class="cls-1" x="26.97" y="39.2" width="1.59" height="1.96"/><rect class="cls-1" x="25.39" y="39.2" width="1.59" height="1.96"/><rect class="cls-1" x="23.8" y="39.2" width="1.59" height="1.96"/><rect class="cls-1" x="22.21" y="39.2" width="1.59" height="1.96"/><rect class="cls-1" x="20.63" y="39.2" width="1.59" height="1.96"/><rect class="cls-1" x="19.04" y="39.2" width="1.59" height="1.96"/><rect class="cls-1" x="17.45" y="39.2" width="1.59" height="1.96"/><rect class="cls-1" x="15.87" y="39.2" width="1.59" height="1.96"/><rect class="cls-1" x="14.28" y="39.2" width="1.59" height="1.96"/><rect class="cls-1" x="12.69" y="39.2" width="1.59" height="1.96"/><rect class="cls-1" x="11.11" y="39.2" width="1.59" height="1.96"/><rect class="cls-1" x="9.52" y="39.2" width="1.59" height="1.96"/><rect class="cls-1" x="7.93" y="39.2" width="1.59" height="1.96"/><rect class="cls-1" x="6.35" y="39.2" width="1.59" height="1.96"/><rect class="cls-1" x="4.76" y="39.2" width="1.59" height="1.96"/><rect class="cls-1" x="3.17" y="39.2" width="1.59" height="1.96"/><rect class="cls-1" x="1.59" y="39.2" width="1.59" height="1.96"/><rect class="cls-1" x="41.25" y="37.24" width="1.59" height="1.96"/><rect class="cls-1" x="39.67" y="37.24" width="1.59" height="1.96"/><rect class="cls-1" x="38.08" y="37.24" width="1.59" height="1.96"/><rect class="cls-1" x="36.49" y="37.24" width="1.59" height="1.96"/><rect class="cls-1" x="34.91" y="37.24" width="1.59" height="1.96"/><rect class="cls-1" x="33.32" y="37.24" width="1.59" height="1.96"/><rect class="cls-1" x="31.73" y="37.24" width="1.59" height="1.96"/><rect class="cls-1" x="30.15" y="37.24" width="1.59" height="1.96"/><rect class="cls-1" x="28.56" y="37.24" width="1.59" height="1.96"/><rect class="cls-1" x="26.97" y="37.24" width="1.59" height="1.96"/><rect class="cls-1" x="25.39" y="37.24" width="1.59" height="1.96"/><rect class="cls-1" x="23.8" y="37.24" width="1.59" height="1.96"/><rect class="cls-1" x="22.21" y="37.24" width="1.59" height="1.96"/><rect class="cls-1" x="20.63" y="37.24" width="1.59" height="1.96"/><rect class="cls-1" x="19.04" y="37.24" width="1.59" height="1.96"/><rect class="cls-1" x="17.45" y="37.24" width="1.59" height="1.96"/><rect class="cls-1" x="15.87" y="37.24" width="1.59" height="1.96"/><rect class="cls-1" x="14.28" y="37.24" width="1.59" height="1.96"/><rect class="cls-1" x="12.69" y="37.24" width="1.59" height="1.96"/><rect class="cls-1" x="11.11" y="37.24" width="1.59" height="1.96"/><rect class="cls-1" x="9.52" y="37.24" width="1.59" height="1.96"/><rect class="cls-1" x="7.93" y="37.24" width="1.59" height="1.96"/><rect class="cls-1" x="6.35" y="37.24" width="1.59" height="1.96"/><rect class="cls-1" x="4.76" y="37.24" width="1.59" height="1.96"/><rect class="cls-1" x="3.17" y="37.24" width="1.59" height="1.96"/><rect class="cls-1" x="1.59" y="37.24" width="1.59" height="1.96"/><rect class="cls-1" y="37.24" width="1.59" height="1.96"/><rect class="cls-1" x="39.67" y="35.28" width="1.59" height="1.96"/><rect class="cls-1" x="38.08" y="35.28" width="1.59" height="1.96"/><rect class="cls-1" x="36.49" y="35.28" width="1.59" height="1.96"/><rect class="cls-1" x="34.91" y="35.28" width="1.59" height="1.96"/><rect class="cls-1" x="33.32" y="35.28" width="1.59" height="1.96"/><rect class="cls-1" x="31.73" y="35.28" width="1.59" height="1.96"/><rect class="cls-1" x="30.15" y="35.28" width="1.59" height="1.96"/><rect class="cls-1" x="28.56" y="35.28" width="1.59" height="1.96"/><rect class="cls-1" x="26.97" y="35.28" width="1.59" height="1.96"/><rect class="cls-1" x="25.39" y="35.28" width="1.59" height="1.96"/><rect class="cls-1" x="23.8" y="35.28" width="1.59" height="1.96"/><rect class="cls-1" x="22.21" y="35.28" width="1.59" height="1.96"/><rect class="cls-1" x="20.63" y="35.28" width="1.59" height="1.96"/><rect class="cls-1" x="19.04" y="35.28" width="1.59" height="1.96"/><rect class="cls-1" x="17.45" y="35.28" width="1.59" height="1.96"/><rect class="cls-1" x="15.87" y="35.28" width="1.59" height="1.96"/><rect class="cls-1" x="14.28" y="35.28" width="1.59" height="1.96"/><rect class="cls-1" x="12.69" y="35.28" width="1.59" height="1.96"/><rect class="cls-1" x="11.11" y="35.28" width="1.59" height="1.96"/><rect class="cls-1" x="9.52" y="35.28" width="1.59" height="1.96"/><rect class="cls-1" x="7.93" y="35.28" width="1.59" height="1.96"/><rect class="cls-1" x="6.35" y="35.28" width="1.59" height="1.96"/><rect class="cls-1" x="4.76" y="35.28" width="1.59" height="1.96"/><rect class="cls-1" x="3.17" y="35.28" width="1.59" height="1.96"/><rect class="cls-1" x="1.59" y="35.28" width="1.59" height="1.96"/><rect class="cls-1" y="35.28" width="1.59" height="1.96"/><rect class="cls-1" x="38.08" y="33.32" width="1.59" height="1.96"/><rect class="cls-1" x="36.49" y="33.32" width="1.59" height="1.96"/><rect class="cls-1" x="34.91" y="33.32" width="1.59" height="1.96"/><rect class="cls-1" x="33.32" y="33.32" width="1.59" height="1.96"/><rect class="cls-1" x="31.73" y="33.32" width="1.59" height="1.96"/><rect class="cls-1" x="30.15" y="33.32" width="1.59" height="1.96"/><rect class="cls-1" x="28.56" y="33.32" width="1.59" height="1.96"/><rect class="cls-1" x="26.97" y="33.32" width="1.59" height="1.96"/><rect class="cls-1" x="25.39" y="33.32" width="1.59" height="1.96"/><rect class="cls-1" x="23.8" y="33.32" width="1.59" height="1.96"/><rect class="cls-1" x="22.21" y="33.32" width="1.59" height="1.96"/><rect class="cls-1" x="20.63" y="33.32" width="1.59" height="1.96"/><rect class="cls-1" x="19.04" y="33.32" width="1.59" height="1.96"/><rect class="cls-1" x="17.45" y="33.32" width="1.59" height="1.96"/><rect class="cls-1" x="15.87" y="33.32" width="1.59" height="1.96"/><rect class="cls-1" x="14.28" y="33.32" width="1.59" height="1.96"/><rect class="cls-1" x="12.69" y="33.32" width="1.59" height="1.96"/><rect class="cls-1" x="11.11" y="33.32" width="1.59" height="1.96"/><rect class="cls-1" x="9.52" y="33.32" width="1.59" height="1.96"/><rect class="cls-1" x="7.93" y="33.32" width="1.59" height="1.96"/><rect class="cls-1" x="6.35" y="33.32" width="1.59" height="1.96"/><rect class="cls-1" x="4.76" y="33.32" width="1.59" height="1.96"/><rect class="cls-1" x="3.17" y="33.32" width="1.59" height="1.96"/><rect class="cls-1" x="1.59" y="33.32" width="1.59" height="1.96"/><rect class="cls-1" y="33.32" width="1.59" height="1.96"/><rect class="cls-1" x="38.08" y="31.36" width="1.59" height="1.96"/><rect class="cls-1" x="36.49" y="31.36" width="1.59" height="1.96"/><rect class="cls-1" x="34.91" y="31.36" width="1.59" height="1.96"/><rect class="cls-1" x="33.32" y="31.36" width="1.59" height="1.96"/><rect class="cls-1" x="31.73" y="31.36" width="1.59" height="1.96"/><rect class="cls-1" x="30.15" y="31.36" width="1.59" height="1.96"/><rect class="cls-1" x="28.56" y="31.36" width="1.59" height="1.96"/><rect class="cls-1" x="26.97" y="31.36" width="1.59" height="1.96"/><rect class="cls-1" x="25.39" y="31.36" width="1.59" height="1.96"/><rect class="cls-1" x="23.8" y="31.36" width="1.59" height="1.96"/><rect class="cls-1" x="22.21" y="31.36" width="1.59" height="1.96"/><rect class="cls-1" x="20.63" y="31.36" width="1.59" height="1.96"/><rect class="cls-1" x="19.04" y="31.36" width="1.59" height="1.96"/><rect class="cls-1" x="17.45" y="31.36" width="1.59" height="1.96"/><rect class="cls-1" x="15.87" y="31.36" width="1.59" height="1.96"/><rect class="cls-1" x="14.28" y="31.36" width="1.59" height="1.96"/><rect class="cls-1" x="12.69" y="31.36" width="1.59" height="1.96"/><rect class="cls-1" x="11.11" y="31.36" width="1.59" height="1.96"/><rect class="cls-1" x="9.52" y="31.36" width="1.59" height="1.96"/><rect class="cls-1" x="7.93" y="31.36" width="1.59" height="1.96"/><rect class="cls-1" x="6.35" y="31.36" width="1.59" height="1.96"/><rect class="cls-1" x="4.76" y="31.36" width="1.59" height="1.96"/><rect class="cls-1" x="3.17" y="31.36" width="1.59" height="1.96"/><rect class="cls-1" x="1.59" y="31.36" width="1.59" height="1.96"/><rect class="cls-1" y="31.36" width="1.59" height="1.96"/><rect class="cls-1" x="38.08" y="29.4" width="1.59" height="1.96"/><rect class="cls-1" x="36.49" y="29.4" width="1.59" height="1.96"/><rect class="cls-1" x="34.91" y="29.4" width="1.59" height="1.96"/><rect class="cls-1" x="33.32" y="29.4" width="1.59" height="1.96"/><rect class="cls-1" x="31.73" y="29.4" width="1.59" height="1.96"/><rect class="cls-1" x="30.15" y="29.4" width="1.59" height="1.96"/><rect class="cls-1" x="28.56" y="29.4" width="1.59" height="1.96"/><rect class="cls-1" x="26.97" y="29.4" width="1.59" height="1.96"/><rect class="cls-1" x="25.39" y="29.4" width="1.59" height="1.96"/><rect class="cls-1" x="23.8" y="29.4" width="1.59" height="1.96"/><rect class="cls-1" x="22.21" y="29.4" width="1.59" height="1.96"/><rect class="cls-1" x="20.63" y="29.4" width="1.59" height="1.96"/><rect class="cls-1" x="19.04" y="29.4" width="1.59" height="1.96"/><rect class="cls-1" x="17.45" y="29.4" width="1.59" height="1.96"/><rect class="cls-1" x="15.87" y="29.4" width="1.59" height="1.96"/><rect class="cls-1" x="14.28" y="29.4" width="1.59" height="1.96"/><rect class="cls-1" x="12.69" y="29.4" width="1.59" height="1.96"/><rect class="cls-1" x="11.11" y="29.4" width="1.59" height="1.96"/><rect class="cls-1" x="9.52" y="29.4" width="1.59" height="1.96"/><rect class="cls-1" x="7.93" y="29.4" width="1.59" height="1.96"/><rect class="cls-1" x="6.35" y="29.4" width="1.59" height="1.96"/><rect class="cls-1" x="4.76" y="29.4" width="1.59" height="1.96"/><rect class="cls-1" x="3.17" y="29.4" width="1.59" height="1.96"/><rect class="cls-1" x="1.59" y="29.4" width="1.59" height="1.96"/><rect class="cls-1" y="29.4" width="1.59" height="1.96"/><rect class="cls-1" x="39.67" y="27.44" width="1.59" height="1.96"/><rect class="cls-1" x="38.08" y="27.44" width="1.59" height="1.96"/><rect class="cls-1" x="36.49" y="27.44" width="1.59" height="1.96"/><rect class="cls-1" x="34.91" y="27.44" width="1.59" height="1.96"/><rect class="cls-1" x="33.32" y="27.44" width="1.59" height="1.96"/><rect class="cls-1" x="31.73" y="27.44" width="1.59" height="1.96"/><rect class="cls-1" x="30.15" y="27.44" width="1.59" height="1.96"/><rect class="cls-1" x="28.56" y="27.44" width="1.59" height="1.96"/><rect class="cls-1" x="26.97" y="27.44" width="1.59" height="1.96"/><rect class="cls-1" x="25.39" y="27.44" width="1.59" height="1.96"/><rect class="cls-1" x="23.8" y="27.44" width="1.59" height="1.96"/><rect class="cls-1" x="22.21" y="27.44" width="1.59" height="1.96"/><rect class="cls-1" x="20.63" y="27.44" width="1.59" height="1.96"/><rect class="cls-1" x="19.04" y="27.44" width="1.59" height="1.96"/><rect class="cls-1" x="17.45" y="27.44" width="1.59" height="1.96"/><rect class="cls-1" x="15.87" y="27.44" width="1.59" height="1.96"/><rect class="cls-1" x="14.28" y="27.44" width="1.59" height="1.96"/><rect class="cls-1" x="12.69" y="27.44" width="1.59" height="1.96"/><rect class="cls-1" x="11.11" y="27.44" width="1.59" height="1.96"/><rect class="cls-1" x="9.52" y="27.44" width="1.59" height="1.96"/><rect class="cls-1" x="7.93" y="27.44" width="1.59" height="1.96"/><rect class="cls-1" x="6.35" y="27.44" width="1.59" height="1.96"/><rect class="cls-1" x="4.76" y="27.44" width="1.59" height="1.96"/><rect class="cls-1" x="3.17" y="27.44" width="1.59" height="1.96"/><rect class="cls-1" x="1.59" y="27.44" width="1.59" height="1.96"/><rect class="cls-1" y="27.44" width="1.59" height="1.96"/><rect class="cls-1" x="39.67" y="25.48" width="1.59" height="1.96"/><rect class="cls-1" x="38.08" y="25.48" width="1.59" height="1.96"/><rect class="cls-1" x="36.49" y="25.48" width="1.59" height="1.96"/><rect class="cls-1" x="34.91" y="25.48" width="1.59" height="1.96"/><rect class="cls-1" x="33.32" y="25.48" width="1.59" height="1.96"/><rect class="cls-1" x="31.73" y="25.48" width="1.59" height="1.96"/><rect class="cls-1" x="30.15" y="25.48" width="1.59" height="1.96"/><rect class="cls-1" x="28.56" y="25.48" width="1.59" height="1.96"/><rect class="cls-1" x="26.97" y="25.48" width="1.59" height="1.96"/><rect class="cls-1" x="25.39" y="25.48" width="1.59" height="1.96"/><rect class="cls-1" x="23.8" y="25.48" width="1.59" height="1.96"/><rect class="cls-1" x="22.21" y="25.48" width="1.59" height="1.96"/><rect class="cls-1" x="20.63" y="25.48" width="1.59" height="1.96"/><rect class="cls-1" x="19.04" y="25.48" width="1.59" height="1.96"/><rect class="cls-1" x="17.45" y="25.48" width="1.59" height="1.96"/><rect class="cls-1" x="15.87" y="25.48" width="1.59" height="1.96"/><rect class="cls-1" x="14.28" y="25.48" width="1.59" height="1.96"/><rect class="cls-1" x="12.69" y="25.48" width="1.59" height="1.96"/><rect class="cls-1" x="11.11" y="25.48" width="1.59" height="1.96"/><rect class="cls-1" x="9.52" y="25.48" width="1.59" height="1.96"/><rect class="cls-1" x="7.93" y="25.48" width="1.59" height="1.96"/><rect class="cls-1" x="6.35" y="25.48" width="1.59" height="1.96"/><rect class="cls-1" x="4.76" y="25.48" width="1.59" height="1.96"/><rect class="cls-1" x="3.17" y="25.48" width="1.59" height="1.96"/><rect class="cls-1" x="1.59" y="25.48" width="1.59" height="1.96"/><rect class="cls-1" y="25.48" width="1.59" height="1.96"/><rect class="cls-1" x="39.67" y="23.52" width="1.59" height="1.96"/><rect class="cls-1" x="38.08" y="23.52" width="1.59" height="1.96"/><rect class="cls-1" x="36.49" y="23.52" width="1.59" height="1.96"/><rect class="cls-1" x="34.91" y="23.52" width="1.59" height="1.96"/><rect class="cls-1" x="33.32" y="23.52" width="1.59" height="1.96"/><rect class="cls-1" x="31.73" y="23.52" width="1.59" height="1.96"/><rect class="cls-1" x="30.15" y="23.52" width="1.59" height="1.96"/><rect class="cls-1" x="28.56" y="23.52" width="1.59" height="1.96"/><rect class="cls-1" x="26.97" y="23.52" width="1.59" height="1.96"/><rect class="cls-1" x="25.39" y="23.52" width="1.59" height="1.96"/><rect class="cls-1" x="23.8" y="23.52" width="1.59" height="1.96"/><rect class="cls-1" x="22.21" y="23.52" width="1.59" height="1.96"/><rect class="cls-1" x="20.63" y="23.52" width="1.59" height="1.96"/><rect class="cls-1" x="19.04" y="23.52" width="1.59" height="1.96"/><rect class="cls-1" x="17.45" y="23.52" width="1.59" height="1.96"/><rect class="cls-1" x="15.87" y="23.52" width="1.59" height="1.96"/><rect class="cls-1" x="14.28" y="23.52" width="1.59" height="1.96"/><rect class="cls-1" x="12.69" y="23.52" width="1.59" height="1.96"/><rect class="cls-1" x="11.11" y="23.52" width="1.59" height="1.96"/><rect class="cls-1" x="9.52" y="23.52" width="1.59" height="1.96"/><rect class="cls-1" x="7.93" y="23.52" width="1.59" height="1.96"/><rect class="cls-1" x="6.35" y="23.52" width="1.59" height="1.96"/><rect class="cls-1" x="4.76" y="23.52" width="1.59" height="1.96"/><rect class="cls-1" x="3.17" y="23.52" width="1.59" height="1.96"/><rect class="cls-1" x="1.59" y="23.52" width="1.59" height="1.96"/><rect class="cls-1" x="41.25" y="21.56" width="1.59" height="1.96"/><rect class="cls-1" x="39.67" y="21.56" width="1.59" height="1.96"/><rect class="cls-1" x="38.08" y="21.56" width="1.59" height="1.96"/><rect class="cls-1" x="36.49" y="21.56" width="1.59" height="1.96"/><rect class="cls-1" x="34.91" y="21.56" width="1.59" height="1.96"/><rect class="cls-1" x="33.32" y="21.56" width="1.59" height="1.96"/><rect class="cls-1" x="31.73" y="21.56" width="1.59" height="1.96"/><rect class="cls-1" x="30.15" y="21.56" width="1.59" height="1.96"/><rect class="cls-1" x="28.56" y="21.56" width="1.59" height="1.96"/><rect class="cls-1" x="26.97" y="21.56" width="1.59" height="1.96"/><rect class="cls-1" x="25.39" y="21.56" width="1.59" height="1.96"/><rect class="cls-1" x="23.8" y="21.56" width="1.59" height="1.96"/><rect class="cls-1" x="22.21" y="21.56" width="1.59" height="1.96"/><rect class="cls-1" x="20.63" y="21.56" width="1.59" height="1.96"/><rect class="cls-1" x="19.04" y="21.56" width="1.59" height="1.96"/><rect class="cls-1" x="17.45" y="21.56" width="1.59" height="1.96"/><rect class="cls-1" x="15.87" y="21.56" width="1.59" height="1.96"/><rect class="cls-1" x="14.28" y="21.56" width="1.59" height="1.96"/><rect class="cls-1" x="12.69" y="21.56" width="1.59" height="1.96"/><rect class="cls-1" x="11.11" y="21.56" width="1.59" height="1.96"/><rect class="cls-1" x="9.52" y="21.56" width="1.59" height="1.96"/><rect class="cls-1" x="7.93" y="21.56" width="1.59" height="1.96"/><rect class="cls-1" x="6.35" y="21.56" width="1.59" height="1.96"/><rect class="cls-1" x="4.76" y="21.56" width="1.59" height="1.96"/><rect class="cls-1" x="3.17" y="21.56" width="1.59" height="1.96"/><rect class="cls-1" x="1.59" y="21.56" width="1.59" height="1.96"/><rect class="cls-1" x="42.84" y="19.6" width="1.59" height="1.96"/><rect class="cls-1" x="41.25" y="19.6" width="1.59" height="1.96"/><rect class="cls-1" x="39.67" y="19.6" width="1.59" height="1.96"/><rect class="cls-1" x="38.08" y="19.6" width="1.59" height="1.96"/><rect class="cls-1" x="36.49" y="19.6" width="1.59" height="1.96"/><rect class="cls-1" x="34.91" y="19.6" width="1.59" height="1.96"/><rect class="cls-1" x="33.32" y="19.6" width="1.59" height="1.96"/><rect class="cls-1" x="31.73" y="19.6" width="1.59" height="1.96"/><rect class="cls-1" x="30.15" y="19.6" width="1.59" height="1.96"/><rect class="cls-1" x="28.56" y="19.6" width="1.59" height="1.96"/><rect class="cls-1" x="26.97" y="19.6" width="1.59" height="1.96"/><rect class="cls-1" x="25.39" y="19.6" width="1.59" height="1.96"/><rect class="cls-1" x="23.8" y="19.6" width="1.59" height="1.96"/><rect class="cls-1" x="22.21" y="19.6" width="1.59" height="1.96"/><rect class="cls-1" x="20.63" y="19.6" width="1.59" height="1.96"/><rect class="cls-1" x="19.04" y="19.6" width="1.59" height="1.96"/><rect class="cls-1" x="17.45" y="19.6" width="1.59" height="1.96"/><rect class="cls-1" x="15.87" y="19.6" width="1.59" height="1.96"/><rect class="cls-1" x="14.28" y="19.6" width="1.59" height="1.96"/><rect class="cls-1" x="12.69" y="19.6" width="1.59" height="1.96"/><rect class="cls-1" x="11.11" y="19.6" width="1.59" height="1.96"/><rect class="cls-1" x="9.52" y="19.6" width="1.59" height="1.96"/><rect class="cls-1" x="7.93" y="19.6" width="1.59" height="1.96"/><rect class="cls-1" x="6.35" y="19.6" width="1.59" height="1.96"/><rect class="cls-1" x="4.76" y="19.6" width="1.59" height="1.96"/><rect class="cls-1" x="3.17" y="19.6" width="1.59" height="1.96"/><rect class="cls-1" x="44.43" y="17.64" width="1.59" height="1.96"/><rect class="cls-1" x="42.84" y="17.64" width="1.59" height="1.96"/><rect class="cls-1" x="41.25" y="17.64" width="1.59" height="1.96"/><rect class="cls-1" x="39.67" y="17.64" width="1.59" height="1.96"/><rect class="cls-1" x="38.08" y="17.64" width="1.59" height="1.96"/><rect class="cls-1" x="36.49" y="17.64" width="1.59" height="1.96"/><rect class="cls-1" x="34.91" y="17.64" width="1.59" height="1.96"/><rect class="cls-1" x="33.32" y="17.64" width="1.59" height="1.96"/><rect class="cls-1" x="31.73" y="17.64" width="1.59" height="1.96"/><rect class="cls-1" x="30.15" y="17.64" width="1.59" height="1.96"/><rect class="cls-1" x="28.56" y="17.64" width="1.59" height="1.96"/><rect class="cls-1" x="26.97" y="17.64" width="1.59" height="1.96"/><rect class="cls-1" x="25.39" y="17.64" width="1.59" height="1.96"/><rect class="cls-1" x="23.8" y="17.64" width="1.59" height="1.96"/><rect class="cls-1" x="22.21" y="17.64" width="1.59" height="1.96"/><rect class="cls-1" x="20.63" y="17.64" width="1.59" height="1.96"/><rect class="cls-1" x="19.04" y="17.64" width="1.59" height="1.96"/><rect class="cls-1" x="17.45" y="17.64" width="1.59" height="1.96"/><rect class="cls-1" x="15.87" y="17.64" width="1.59" height="1.96"/><rect class="cls-1" x="14.28" y="17.64" width="1.59" height="1.96"/><rect class="cls-1" x="12.69" y="17.64" width="1.59" height="1.96"/><rect class="cls-1" x="11.11" y="17.64" width="1.59" height="1.96"/><rect class="cls-1" x="9.52" y="17.64" width="1.59" height="1.96"/><rect class="cls-1" x="7.93" y="17.64" width="1.59" height="1.96"/><rect class="cls-1" x="6.35" y="17.64" width="1.59" height="1.96"/><rect class="cls-1" x="4.76" y="17.64" width="1.59" height="1.96"/><rect class="cls-1" x="41.25" y="15.68" width="1.59" height="1.96"/><rect class="cls-1" x="39.67" y="15.68" width="1.59" height="1.96"/><rect class="cls-1" x="38.08" y="15.68" width="1.59" height="1.96"/><rect class="cls-1" x="36.49" y="15.68" width="1.59" height="1.96"/><rect class="cls-1" x="34.91" y="15.68" width="1.59" height="1.96"/><rect class="cls-1" x="33.32" y="15.68" width="1.59" height="1.96"/><rect class="cls-1" x="31.73" y="15.68" width="1.59" height="1.96"/><rect class="cls-1" x="30.15" y="15.68" width="1.59" height="1.96"/><rect class="cls-1" x="28.56" y="15.68" width="1.59" height="1.96"/><rect class="cls-1" x="26.97" y="15.68" width="1.59" height="1.96"/><rect class="cls-1" x="20.63" y="15.68" width="1.59" height="1.96"/><rect class="cls-1" x="19.04" y="15.68" width="1.59" height="1.96"/><rect class="cls-1" x="17.45" y="15.68" width="1.59" height="1.96"/><rect class="cls-1" x="15.87" y="15.68" width="1.59" height="1.96"/><rect class="cls-1" x="14.28" y="15.68" width="1.59" height="1.96"/><rect class="cls-1" x="12.69" y="15.68" width="1.59" height="1.96"/><rect class="cls-1" x="11.11" y="15.68" width="1.59" height="1.96"/><rect class="cls-1" x="9.52" y="15.68" width="1.59" height="1.96"/><rect class="cls-1" x="7.93" y="15.68" width="1.59" height="1.96"/><rect class="cls-1" x="38.08" y="13.72" width="1.59" height="1.96"/><rect class="cls-1" x="36.49" y="13.72" width="1.59" height="1.96"/><rect class="cls-1" x="34.91" y="13.72" width="1.59" height="1.96"/><rect class="cls-1" x="33.32" y="13.72" width="1.59" height="1.96"/><rect class="cls-1" x="31.73" y="13.72" width="1.59" height="1.96"/><rect class="cls-1" x="30.15" y="13.72" width="1.59" height="1.96"/><rect class="cls-1" x="15.87" y="13.72" width="1.59" height="1.96"/><rect class="cls-1" x="14.28" y="13.72" width="1.59" height="1.96"/><rect class="cls-1" x="12.69" y="13.72" width="1.59" height="1.96"/><rect class="cls-1" x="11.11" y="13.72" width="1.59" height="1.96"/><rect class="cls-1" x="9.52" y="13.72" width="1.59" height="1.96"/><rect class="cls-1" x="26.97" y="11.76" width="1.59" height="1.96"/><rect class="cls-1" x="25.39" y="11.76" width="1.59" height="1.96"/><rect class="cls-1" x="23.8" y="11.76" width="1.59" height="1.96"/><rect class="cls-1" x="30.15" y="9.8" width="1.59" height="1.96"/><rect class="cls-1" x="28.56" y="9.8" width="1.59" height="1.96"/><rect class="cls-1" x="26.97" y="9.8" width="1.59" height="1.96"/><rect class="cls-1" x="25.39" y="9.8" width="1.59" height="1.96"/><rect class="cls-1" x="23.8" y="9.8" width="1.59" height="1.96"/><rect class="cls-1" x="31.73" y="7.84" width="1.59" height="1.96"/><rect class="cls-1" x="30.15" y="7.84" width="1.59" height="1.96"/><rect class="cls-1" x="28.56" y="7.84" width="1.59" height="1.96"/><rect class="cls-1" x="26.97" y="7.84" width="1.59" height="1.96"/><rect class="cls-1" x="25.39" y="7.84" width="1.59" height="1.96"/><rect class="cls-1" x="23.8" y="7.84" width="1.59" height="1.96"/><rect class="cls-1" x="33.32" y="5.88" width="1.59" height="1.96"/><rect class="cls-1" x="31.73" y="5.88" width="1.59" height="1.96"/><rect class="cls-1" x="30.15" y="5.88" width="1.59" height="1.96"/><rect class="cls-1" x="28.56" y="5.88" width="1.59" height="1.96"/><rect class="cls-1" x="26.97" y="5.88" width="1.59" height="1.96"/><rect class="cls-1" x="25.39" y="5.88" width="1.59" height="1.96"/><rect class="cls-1" x="33.32" y="3.92" width="1.59" height="1.96"/><rect class="cls-1" x="31.73" y="3.92" width="1.59" height="1.96"/><rect class="cls-1" x="30.15" y="3.92" width="1.59" height="1.96"/><rect class="cls-1" x="28.56" y="3.92" width="1.59" height="1.96"/><rect class="cls-1" x="26.97" y="3.92" width="1.59" height="1.96"/><rect class="cls-1" x="34.91" y="1.96" width="1.59" height="1.96"/><rect class="cls-1" x="33.32" y="1.96" width="1.59" height="1.96"/><rect class="cls-1" x="31.73" y="1.96" width="1.59" height="1.96"/><rect class="cls-1" x="30.15" y="1.96" width="1.59" height="1.96"/><rect class="cls-1" x="28.56" y="1.96" width="1.59" height="1.96"/><rect class="cls-1" x="34.91" width="1.59" height="1.96"/><rect class="cls-1" x="33.32" width="1.59" height="1.96"/><rect class="cls-1" x="31.73" width="1.59" height="1.96"/><rect class="cls-1" x="17.45" y="56.84" width="1.59" height="1.96"/><rect class="cls-1" x="19.04" y="56.84" width="1.59" height="1.96"/><polyline class="cls-1" points="30.3 56.84 30.3 58.8 31.89 58.8 31.89 56.84"/><polyline class="cls-1" points="28.71 56.84 28.71 58.8 30.3 58.8 30.3 56.84"/><polyline class="cls-1" points="31.89 56.84 31.89 58.8 33.48 58.8 33.48 56.84"/><polyline class="cls-1" points="33.48 56.84 33.48 58.8 35.06 58.8 35.06 56.84"/><polyline class="cls-1" points="34.91 56.84 34.91 58.8 36.49 58.8 36.49 56.84"/><polyline class="cls-1" points="33.32 56.84 33.32 58.8 34.91 58.8 34.91 56.84"/><polyline class="cls-1" points="36.49 56.84 36.49 58.8 38.08 58.8 38.08 56.84"/><polyline class="cls-1" points="38.08 56.84 38.08 58.8 39.67 58.8 39.67 56.84"/><rect class="cls-1" x="4.53" y="32.32" width="1.59" height="1.96"/><rect class="cls-1" x="4.53" y="32.32" width="1.59" height="1.96"/><path class="cls-2" d="M15.48,79.77V78.59h.92v1.18Zm1.06,0V78.59h.92v1.18Zm-1.06-1.32V77.27h.92v1.18Zm1.06,0V77.27h.92v1.18Zm-1.06-1.32V76h.92v1.17Zm1.06,0V76h.92v1.17Zm1.05,0V76h.92v1.17Zm1.06,0V76h.92v1.17Zm-3.17-1.32V74.64h.92v1.17Zm1.06,0V74.64h.92v1.17Zm2.11,0V74.64h.92v1.17Zm1.05,0V74.64h.92v1.17ZM15.48,74.5V73.32h.92V74.5Zm1.06,0V73.32h.92V74.5Zm2.11,0V73.32h.92V74.5Zm1.05,0V73.32h.92V74.5Zm-4.22-1.32V72h.92v1.18Zm1.06,0V72h.92v1.18Zm2.11,0V72h.92v1.18Zm1.05,0V72h.92v1.18Zm-4.22-1.32V70.69h.92v1.17Zm1.06,0V70.69h.92v1.17Zm1.05,0V70.69h.92v1.17Zm1.06,0V70.69h.92v1.17Z" transform="translate(-14.97)"/><path class="cls-2" d="M21.92,79.77V78.59h.92v1.18Zm1,0V78.59h.92v1.18Zm-1-1.32V77.27h.92v1.18Zm1,0V77.27h.92v1.18Zm-1-1.32V76h.92v1.17Zm1,0V76h.92v1.17Zm-1-1.32V74.64h.92v1.17Zm1,0V74.64h.92v1.17Zm1.05,0V74.64h.92v1.17Zm1.06,0V74.64H26v1.17ZM21.92,74.5V73.32h.92V74.5Zm1,0V73.32h.92V74.5Zm2.11,0V73.32H26V74.5Z" transform="translate(-14.97)"/><path class="cls-2" d="M28.31,79.77V78.59h.92v1.18Zm1.05,0V78.59h.92v1.18Zm1.06,0V78.59h.92v1.18Zm1,0V78.59h.92v1.18Zm-4.22-1.32V77.27h.92v1.18Zm1.06,0V77.27h.92v1.18Zm-1.06-1.32V76h.92v1.17Zm1.06,0V76h.92v1.17Zm1.05,0V76h.92v1.17Zm1.06,0V76h.92v1.17Zm1,0V76h.92v1.17Zm-4.22-1.32V74.64h.92v1.17Zm1.06,0V74.64h.92v1.17Zm2.11,0V74.64h.92v1.17Zm1,0V74.64h.92v1.17ZM28.31,74.5V73.32h.92V74.5Zm1.05,0V73.32h.92V74.5Zm1.06,0V73.32h.92V74.5Z" transform="translate(-14.97)"/><path class="cls-2" d="M34,75.81V74.64h.92v1.17Zm1.05,0V74.64h.92v1.17Zm1.06,0V74.64H37v1.17Zm1.05,0V74.64h.92v1.17Z" transform="translate(-14.97)"/><path class="cls-2" d="M38.61,79.77V78.59h.92v1.18Zm1.06,0V78.59h.92v1.18Zm1,0V78.59h.92v1.18Zm0-1.32V77.27h.92v1.18Zm1.05,0V77.27h.92v1.18Zm-1.05-1.32V76h.92v1.17Zm1.05,0V76h.92v1.17Zm-2.1-1.32V74.64h.92v1.17Zm1,0V74.64h.92v1.17ZM38.61,74.5V73.32h.92V74.5Zm1.06,0V73.32h.92V74.5Zm-1.06-1.32V72h.92v1.18Zm1.06,0V72h.92v1.18Zm0-1.32V70.69h.92v1.17Zm1,0V70.69h.92v1.17Zm1.05,0V70.69h.92v1.17Z" transform="translate(-14.97)"/><path class="cls-2" d="M45,79.77V78.59H46v1.18Zm1.06,0V78.59H47v1.18Zm1,0V78.59h.92v1.18Zm1,0V78.59h.92v1.18ZM44,78.45V77.27h.92v1.18Zm1.05,0V77.27H46v1.18Zm2.11,0V77.27h.92v1.18Zm1,0V77.27h.92v1.18ZM45,77.13V76H46v1.17Zm1.06,0V76H47v1.17Zm1,0V76h.92v1.17Zm1,0V76h.92v1.17Zm-1-1.32V74.64h.92v1.17Zm1,0V74.64h.92v1.17ZM45,74.5V73.32H46V74.5Zm1.06,0V73.32H47V74.5Zm1,0V73.32h.92V74.5Z" transform="translate(-14.97)"/><path class="cls-2" d="M52.61,79.77V78.59h.92v1.18Zm-1.06-1.32V77.27h.92v1.18Zm1.06,0V77.27h.92v1.18Zm1,0V77.27h.92v1.18Zm-2.11-1.32V76h.92v1.17Zm1.06,0V76h.92v1.17Zm1,0V76h.92v1.17ZM50.5,75.81V74.64h.92v1.17Zm1,0V74.64h.92v1.17Zm2.11,0V74.64h.92v1.17Zm1.06,0V74.64h.92v1.17ZM50.5,74.5V73.32h.92V74.5Zm1,0V73.32h.92V74.5Zm2.11,0V73.32h.92V74.5Zm1.06,0V73.32h.92V74.5Z" transform="translate(-14.97)"/><path class="cls-2" d="M58,79.77V78.59h.92v1.18Zm1.05,0V78.59h.92v1.18Zm1,0V78.59H61v1.18Zm1.06,0V78.59h.92v1.18Zm-4.22-1.32V77.27h.92v1.18Zm1.06,0V77.27h.92v1.18Zm-1.06-1.32V76h.92v1.17Zm1.06,0V76h.92v1.17Zm1.05,0V76h.92v1.17Zm1,0V76H61v1.17Zm1.06,0V76h.92v1.17Zm-4.22-1.32V74.64h.92v1.17Zm1.06,0V74.64h.92v1.17Zm2.1,0V74.64H61v1.17Zm1.06,0V74.64h.92v1.17ZM58,74.5V73.32h.92V74.5Zm1.05,0V73.32h.92V74.5Zm1,0V73.32H61V74.5Z" transform="translate(-14.97)"/></svg>