<svg id="Apple" xmlns="http://www.w3.org/2000/svg" viewBox="0 0 58.61 79.43"><defs><style>.cls-1{fill:#157a3d;}.cls-2{fill:#137b3e;}</style></defs><rect class="cls-1" x="40.41" y="56.84" width="1.59" height="1.96"/><rect class="cls-1" x="38.83" y="56.84" width="1.59" height="1.96"/><rect class="cls-1" x="21.37" y="56.84" width="1.59" height="1.96"/><rect class="cls-1" x="19.79" y="56.84" width="1.59" height="1.96"/><rect class="cls-1" x="43.59" y="54.88" width="1.59" height="1.96"/><rect class="cls-1" x="42" y="54.88" width="1.59" height="1.96"/><rect class="cls-1" x="40.41" y="54.88" width="1.59" height="1.96"/><rect class="cls-1" x="38.83" y="54.88" width="1.59" height="1.96"/><rect class="cls-1" x="37.24" y="54.88" width="1.59" height="1.96"/><rect class="cls-1" x="35.65" y="54.88" width="1.59" height="1.96"/><rect class="cls-1" x="34.07" y="54.88" width="1.59" height="1.96"/><rect class="cls-1" x="32.48" y="54.88" width="1.59" height="1.96"/><rect class="cls-1" x="27.72" y="54.88" width="1.59" height="1.96"/><rect class="cls-1" x="26.13" y="54.88" width="1.59" height="1.96"/><rect class="cls-1" x="24.55" y="54.88" width="1.59" height="1.96"/><rect class="cls-1" x="22.96" y="54.88" width="1.59" height="1.96"/><rect class="cls-1" x="21.37" y="54.88" width="1.59" height="1.96"/><rect class="cls-1" x="19.79" y="54.88" width="1.59" height="1.96"/><rect class="cls-1" x="18.2" y="54.88" width="1.59" height="1.96"/><rect class="cls-1" x="16.61" y="54.88" width="1.59" height="1.96"/><rect class="cls-1" x="15.03" y="54.88" width="1.59" height="1.96"/><rect class="cls-1" x="46.76" y="52.92" width="1.59" height="1.96"/><rect class="cls-1" x="45.17" y="52.92" width="1.59" height="1.96"/><rect class="cls-1" x="43.59" y="52.92" width="1.59" height="1.96"/><rect class="cls-1" x="42" y="52.92" width="1.59" height="1.96"/><rect class="cls-1" x="40.41" y="52.92" width="1.59" height="1.96"/><rect class="cls-1" x="38.83" y="52.92" width="1.59" height="1.96"/><rect class="cls-1" x="37.24" y="52.92" width="1.59" height="1.96"/><rect class="cls-1" x="35.65" y="52.92" width="1.59" height="1.96"/><rect class="cls-1" x="34.07" y="52.92" width="1.59" height="1.96"/><rect class="cls-1" x="32.48" y="52.92" width="1.59" height="1.96"/><rect class="cls-1" x="30.89" y="52.92" width="1.59" height="1.96"/><rect class="cls-1" x="29.31" y="52.92" width="1.59" height="1.96"/><rect class="cls-1" x="27.72" y="52.92" width="1.59" height="1.96"/><rect class="cls-1" x="26.13" y="52.92" width="1.59" height="1.96"/><rect class="cls-1" x="24.55" y="52.92" width="1.59" height="1.96"/><rect class="cls-1" x="22.96" y="52.92" width="1.59" height="1.96"/><rect class="cls-1" x="21.37" y="52.92" width="1.59" height="1.96"/><rect class="cls-1" x="19.79" y="52.92" width="1.59" height="1.96"/><rect class="cls-1" x="18.2" y="52.92" width="1.59" height="1.96"/><rect class="cls-1" x="16.61" y="52.92" width="1.59" height="1.96"/><rect class="cls-1" x="15.03" y="52.92" width="1.59" height="1.96"/><rect class="cls-1" x="13.44" y="52.92" width="1.59" height="1.96"/><rect class="cls-1" x="46.76" y="50.96" width="1.59" height="1.96"/><rect class="cls-1" x="45.17" y="50.96" width="1.59" height="1.96"/><rect class="cls-1" x="43.59" y="50.96" width="1.59" height="1.96"/><rect class="cls-1" x="42" y="50.96" width="1.59" height="1.96"/><rect class="cls-1" x="40.41" y="50.96" width="1.59" height="1.96"/><rect class="cls-1" x="38.83" y="50.96" width="1.59" height="1.96"/><rect class="cls-1" x="37.24" y="50.96" width="1.59" height="1.96"/><rect class="cls-1" x="35.65" y="50.96" width="1.59" height="1.96"/><rect class="cls-1" x="34.07" y="50.96" width="1.59" height="1.96"/><rect class="cls-1" x="32.48" y="50.96" width="1.59" height="1.96"/><rect class="cls-1" x="30.89" y="50.96" width="1.59" height="1.96"/><rect class="cls-1" x="29.31" y="50.96" width="1.59" height="1.96"/><rect class="cls-1" x="27.72" y="50.96" width="1.59" height="1.96"/><rect class="cls-1" x="26.13" y="50.96" width="1.59" height="1.96"/><rect class="cls-1" x="24.55" y="50.96" width="1.59" height="1.96"/><rect class="cls-1" x="22.96" y="50.96" width="1.59" height="1.96"/><rect class="cls-1" x="21.37" y="50.96" width="1.59" height="1.96"/><rect class="cls-1" x="19.79" y="50.96" width="1.59" height="1.96"/><rect class="cls-1" x="18.2" y="50.96" width="1.59" height="1.96"/><rect class="cls-1" x="16.61" y="50.96" width="1.59" height="1.96"/><rect class="cls-1" x="15.03" y="50.96" width="1.59" height="1.96"/><rect class="cls-1" x="13.44" y="50.96" width="1.59" height="1.96"/><rect class="cls-1" x="11.85" y="50.96" width="1.59" height="1.96"/><rect class="cls-1" x="48.35" y="49" width="1.59" height="1.96"/><rect class="cls-1" x="46.76" y="49" width="1.59" height="1.96"/><rect class="cls-1" x="45.17" y="49" width="1.59" height="1.96"/><rect class="cls-1" x="43.59" y="49" width="1.59" height="1.96"/><rect class="cls-1" x="42" y="49" width="1.59" height="1.96"/><rect class="cls-1" x="40.41" y="49" width="1.59" height="1.96"/><rect class="cls-1" x="38.83" y="49" width="1.59" height="1.96"/><rect class="cls-1" x="37.24" y="49" width="1.59" height="1.96"/><rect class="cls-1" x="35.65" y="49" width="1.59" height="1.96"/><rect class="cls-1" x="34.07" y="49" width="1.59" height="1.96"/><rect class="cls-1" x="32.48" y="49" width="1.59" height="1.96"/><rect class="cls-1" x="30.89" y="49" width="1.59" height="1.96"/><rect class="cls-1" x="29.31" y="49" width="1.59" height="1.96"/><rect class="cls-1" x="27.72" y="49" width="1.59" height="1.96"/><rect class="cls-1" x="26.13" y="49" width="1.59" height="1.96"/><rect class="cls-1" x="24.55" y="49" width="1.59" height="1.96"/><rect class="cls-1" x="22.96" y="49" width="1.59" height="1.96"/><rect class="cls-1" x="21.37" y="49" width="1.59" height="1.96"/><rect class="cls-1" x="19.79" y="49" width="1.59" height="1.96"/><rect class="cls-1" x="18.2" y="49" width="1.59" height="1.96"/><rect class="cls-1" x="16.61" y="49" width="1.59" height="1.96"/><rect class="cls-1" x="15.03" y="49" width="1.59" height="1.96"/><rect class="cls-1" x="13.44" y="49" width="1.59" height="1.96"/><rect class="cls-1" x="11.85" y="49" width="1.59" height="1.96"/><rect class="cls-1" x="10.27" y="49" width="1.59" height="1.96"/><rect class="cls-1" x="49.93" y="47.04" width="1.59" height="1.96"/><rect class="cls-1" x="48.35" y="47.04" width="1.59" height="1.96"/><rect class="cls-1" x="46.76" y="47.04" width="1.59" height="1.96"/><rect class="cls-1" x="45.17" y="47.04" width="1.59" height="1.96"/><rect class="cls-1" x="43.59" y="47.04" width="1.59" height="1.96"/><rect class="cls-1" x="42" y="47.04" width="1.59" height="1.96"/><rect class="cls-1" x="40.41" y="47.04" width="1.59" height="1.96"/><rect class="cls-1" x="38.83" y="47.04" width="1.59" height="1.96"/><rect class="cls-1" x="37.24" y="47.04" width="1.59" height="1.96"/><rect class="cls-1" x="35.65" y="47.04" width="1.59" height="1.96"/><rect class="cls-1" x="34.07" y="47.04" width="1.59" height="1.96"/><rect class="cls-1" x="32.48" y="47.04" width="1.59" height="1.96"/><rect class="cls-1" x="30.89" y="47.04" width="1.59" height="1.96"/><rect class="cls-1" x="29.31" y="47.04" width="1.59" height="1.96"/><rect class="cls-1" x="27.72" y="47.04" width="1.59" height="1.96"/><rect class="cls-1" x="26.13" y="47.04" width="1.59" height="1.96"/><rect class="cls-1" x="24.55" y="47.04" width="1.59" height="1.96"/><rect class="cls-1" x="22.96" y="47.04" width="1.59" height="1.96"/><rect class="cls-1" x="21.37" y="47.04" width="1.59" height="1.96"/><rect class="cls-1" x="19.79" y="47.04" width="1.59" height="1.96"/><rect class="cls-1" x="18.2" y="47.04" width="1.59" height="1.96"/><rect class="cls-1" x="16.61" y="47.04" width="1.59" height="1.96"/><rect class="cls-1" x="15.03" y="47.04" width="1.59" height="1.96"/><rect class="cls-1" x="13.44" y="47.04" width="1.59" height="1.96"/><rect class="cls-1" x="11.85" y="47.04" width="1.59" height="1.96"/><rect class="cls-1" x="10.27" y="47.04" width="1.59" height="1.96"/><rect class="cls-1" x="51.52" y="45.08" width="1.59" height="1.96"/><rect class="cls-1" x="49.93" y="45.08" width="1.59" height="1.96"/><rect class="cls-1" x="48.35" y="45.08" width="1.59" height="1.96"/><rect class="cls-1" x="46.76" y="45.08" width="1.59" height="1.96"/><rect class="cls-1" x="45.17" y="45.08" width="1.59" height="1.96"/><rect class="cls-1" x="43.59" y="45.08" width="1.59" height="1.96"/><rect class="cls-1" x="42" y="45.08" width="1.59" height="1.96"/><rect class="cls-1" x="40.41" y="45.08" width="1.59" height="1.96"/><rect class="cls-1" x="38.83" y="45.08" width="1.59" height="1.96"/><rect class="cls-1" x="37.24" y="45.08" width="1.59" height="1.96"/><rect class="cls-1" x="35.65" y="45.08" width="1.59" height="1.96"/><rect class="cls-1" x="34.07" y="45.08" width="1.59" height="1.96"/><rect class="cls-1" x="32.48" y="45.08" width="1.59" height="1.96"/><rect class="cls-1" x="30.89" y="45.08" width="1.59" height="1.96"/><rect class="cls-1" x="29.31" y="45.08" width="1.59" height="1.96"/><rect class="cls-1" x="27.72" y="45.08" width="1.59" height="1.96"/><rect class="cls-1" x="26.13" y="45.08" width="1.59" height="1.96"/><rect class="cls-1" x="24.55" y="45.08" width="1.59" height="1.96"/><rect class="cls-1" x="22.96" y="45.08" width="1.59" height="1.96"/><rect class="cls-1" x="21.37" y="45.08" width="1.59" height="1.96"/><rect class="cls-1" x="19.79" y="45.08" width="1.59" height="1.96"/><rect class="cls-1" x="18.2" y="45.08" width="1.59" height="1.96"/><rect class="cls-1" x="16.61" y="45.08" width="1.59" height="1.96"/><rect class="cls-1" x="15.03" y="45.08" width="1.59" height="1.96"/><rect class="cls-1" x="13.44" y="45.08" width="1.59" height="1.96"/><rect class="cls-1" x="11.85" y="45.08" width="1.59" height="1.96"/><rect class="cls-1" x="10.27" y="45.08" width="1.59" height="1.96"/><rect class="cls-1" x="8.68" y="45.08" width="1.59" height="1.96"/><rect class="cls-1" x="51.52" y="43.12" width="1.59" height="1.96"/><rect class="cls-1" x="49.93" y="43.12" width="1.59" height="1.96"/><rect class="cls-1" x="48.35" y="43.12" width="1.59" height="1.96"/><rect class="cls-1" x="46.76" y="43.12" width="1.59" height="1.96"/><rect class="cls-1" x="45.17" y="43.12" width="1.59" height="1.96"/><rect class="cls-1" x="43.59" y="43.12" width="1.59" height="1.96"/><rect class="cls-1" x="42" y="43.12" width="1.59" height="1.96"/><rect class="cls-1" x="40.41" y="43.12" width="1.59" height="1.96"/><rect class="cls-1" x="38.83" y="43.12" width="1.59" height="1.96"/><rect class="cls-1" x="37.24" y="43.12" width="1.59" height="1.96"/><rect class="cls-1" x="35.65" y="43.12" width="1.59" height="1.96"/><rect class="cls-1" x="34.07" y="43.12" width="1.59" height="1.96"/><rect class="cls-1" x="32.48" y="43.12" width="1.59" height="1.96"/><rect class="cls-1" x="30.89" y="43.12" width="1.59" height="1.96"/><rect class="cls-1" x="29.31" y="43.12" width="1.59" height="1.96"/><rect class="cls-1" x="27.72" y="43.12" width="1.59" height="1.96"/><rect class="cls-1" x="26.13" y="43.12" width="1.59" height="1.96"/><rect class="cls-1" x="24.55" y="43.12" width="1.59" height="1.96"/><rect class="cls-1" x="22.96" y="43.12" width="1.59" height="1.96"/><rect class="cls-1" x="21.37" y="43.12" width="1.59" height="1.96"/><rect class="cls-1" x="19.79" y="43.12" width="1.59" height="1.96"/><rect class="cls-1" x="18.2" y="43.12" width="1.59" height="1.96"/><rect class="cls-1" x="16.61" y="43.12" width="1.59" height="1.96"/><rect class="cls-1" x="15.03" y="43.12" width="1.59" height="1.96"/><rect class="cls-1" x="13.44" y="43.12" width="1.59" height="1.96"/><rect class="cls-1" x="11.85" y="43.12" width="1.59" height="1.96"/><rect class="cls-1" x="10.27" y="43.12" width="1.59" height="1.96"/><rect class="cls-1" x="8.68" y="43.12" width="1.59" height="1.96"/><rect class="cls-1" x="7.09" y="43.12" width="1.59" height="1.96"/><rect class="cls-1" x="51.52" y="41.16" width="1.59" height="1.96"/><rect class="cls-1" x="49.93" y="41.16" width="1.59" height="1.96"/><rect class="cls-1" x="48.35" y="41.16" width="1.59" height="1.96"/><rect class="cls-1" x="46.76" y="41.16" width="1.59" height="1.96"/><rect class="cls-1" x="45.17" y="41.16" width="1.59" height="1.96"/><rect class="cls-1" x="43.59" y="41.16" width="1.59" height="1.96"/><rect class="cls-1" x="42" y="41.16" width="1.59" height="1.96"/><rect class="cls-1" x="40.41" y="41.16" width="1.59" height="1.96"/><rect class="cls-1" x="38.83" y="41.16" width="1.59" height="1.96"/><rect class="cls-1" x="37.24" y="41.16" width="1.59" height="1.96"/><rect class="cls-1" x="35.65" y="41.16" width="1.59" height="1.96"/><rect class="cls-1" x="34.07" y="41.16" width="1.59" height="1.96"/><rect class="cls-1" x="32.48" y="41.16" width="1.59" height="1.96"/><rect class="cls-1" x="30.89" y="41.16" width="1.59" height="1.96"/><rect class="cls-1" x="29.31" y="41.16" width="1.59" height="1.96"/><rect class="cls-1" x="27.72" y="41.16" width="1.59" height="1.96"/><rect class="cls-1" x="26.13" y="41.16" width="1.59" height="1.96"/><rect class="cls-1" x="24.55" y="41.16" width="1.59" height="1.96"/><rect class="cls-1" x="22.96" y="41.16" width="1.59" height="1.96"/><rect class="cls-1" x="21.37" y="41.16" width="1.59" height="1.96"/><rect class="cls-1" x="19.79" y="41.16" width="1.59" height="1.96"/><rect class="cls-1" x="18.2" y="41.16" width="1.59" height="1.96"/><rect class="cls-1" x="16.61" y="41.16" width="1.59" height="1.96"/><rect class="cls-1" x="15.03" y="41.16" width="1.59" height="1.96"/><rect class="cls-1" x="13.44" y="41.16" width="1.59" height="1.96"/><rect class="cls-1" x="11.85" y="41.16" width="1.59" height="1.96"/><rect class="cls-1" x="10.27" y="41.16" width="1.59" height="1.96"/><rect class="cls-1" x="8.68" y="41.16" width="1.59" height="1.96"/><rect class="cls-1" x="7.09" y="41.16" width="1.59" height="1.96"/><rect class="cls-1" x="48.35" y="39.2" width="1.59" height="1.96"/><rect class="cls-1" x="46.76" y="39.2" width="1.59" height="1.96"/><rect class="cls-1" x="45.17" y="39.2" width="1.59" height="1.96"/><rect class="cls-1" x="43.59" y="39.2" width="1.59" height="1.96"/><rect class="cls-1" x="42" y="39.2" width="1.59" height="1.96"/><rect class="cls-1" x="40.41" y="39.2" width="1.59" height="1.96"/><rect class="cls-1" x="38.83" y="39.2" width="1.59" height="1.96"/><rect class="cls-1" x="37.24" y="39.2" width="1.59" height="1.96"/><rect class="cls-1" x="35.65" y="39.2" width="1.59" height="1.96"/><rect class="cls-1" x="34.07" y="39.2" width="1.59" height="1.96"/><rect class="cls-1" x="32.48" y="39.2" width="1.59" height="1.96"/><rect class="cls-1" x="30.89" y="39.2" width="1.59" height="1.96"/><rect class="cls-1" x="29.31" y="39.2" width="1.59" height="1.96"/><rect class="cls-1" x="27.72" y="39.2" width="1.59" height="1.96"/><rect class="cls-1" x="26.13" y="39.2" width="1.59" height="1.96"/><rect class="cls-1" x="24.55" y="39.2" width="1.59" height="1.96"/><rect class="cls-1" x="22.96" y="39.2" width="1.59" height="1.96"/><rect class="cls-1" x="21.37" y="39.2" width="1.59" height="1.96"/><rect class="cls-1" x="19.79" y="39.2" width="1.59" height="1.96"/><rect class="cls-1" x="18.2" y="39.2" width="1.59" height="1.96"/><rect class="cls-1" x="16.61" y="39.2" width="1.59" height="1.96"/><rect class="cls-1" x="15.03" y="39.2" width="1.59" height="1.96"/><rect class="cls-1" x="13.44" y="39.2" width="1.59" height="1.96"/><rect class="cls-1" x="11.85" y="39.2" width="1.59" height="1.96"/><rect class="cls-1" x="10.27" y="39.2" width="1.59" height="1.96"/><rect class="cls-1" x="8.68" y="39.2" width="1.59" height="1.96"/><rect class="cls-1" x="7.09" y="39.2" width="1.59" height="1.96"/><rect class="cls-1" x="46.76" y="37.24" width="1.59" height="1.96"/><rect class="cls-1" x="45.17" y="37.24" width="1.59" height="1.96"/><rect class="cls-1" x="43.59" y="37.24" width="1.59" height="1.96"/><rect class="cls-1" x="42" y="37.24" width="1.59" height="1.96"/><rect class="cls-1" x="40.41" y="37.24" width="1.59" height="1.96"/><rect class="cls-1" x="38.83" y="37.24" width="1.59" height="1.96"/><rect class="cls-1" x="37.24" y="37.24" width="1.59" height="1.96"/><rect class="cls-1" x="35.65" y="37.24" width="1.59" height="1.96"/><rect class="cls-1" x="34.07" y="37.24" width="1.59" height="1.96"/><rect class="cls-1" x="32.48" y="37.24" width="1.59" height="1.96"/><rect class="cls-1" x="30.89" y="37.24" width="1.59" height="1.96"/><rect class="cls-1" x="29.31" y="37.24" width="1.59" height="1.96"/><rect class="cls-1" x="27.72" y="37.24" width="1.59" height="1.96"/><rect class="cls-1" x="26.13" y="37.24" width="1.59" height="1.96"/><rect class="cls-1" x="24.55" y="37.24" width="1.59" height="1.96"/><rect class="cls-1" x="22.96" y="37.24" width="1.59" height="1.96"/><rect class="cls-1" x="21.37" y="37.24" width="1.59" height="1.96"/><rect class="cls-1" x="19.79" y="37.24" width="1.59" height="1.96"/><rect class="cls-1" x="18.2" y="37.24" width="1.59" height="1.96"/><rect class="cls-1" x="16.61" y="37.24" width="1.59" height="1.96"/><rect class="cls-1" x="15.03" y="37.24" width="1.59" height="1.96"/><rect class="cls-1" x="13.44" y="37.24" width="1.59" height="1.96"/><rect class="cls-1" x="11.85" y="37.24" width="1.59" height="1.96"/><rect class="cls-1" x="10.27" y="37.24" width="1.59" height="1.96"/><rect class="cls-1" x="8.68" y="37.24" width="1.59" height="1.96"/><rect class="cls-1" x="7.09" y="37.24" width="1.59" height="1.96"/><rect class="cls-1" x="5.51" y="37.24" width="1.59" height="1.96"/><rect class="cls-1" x="45.17" y="35.28" width="1.59" height="1.96"/><rect class="cls-1" x="43.59" y="35.28" width="1.59" height="1.96"/><rect class="cls-1" x="42" y="35.28" width="1.59" height="1.96"/><rect class="cls-1" x="40.41" y="35.28" width="1.59" height="1.96"/><rect class="cls-1" x="38.83" y="35.28" width="1.59" height="1.96"/><rect class="cls-1" x="37.24" y="35.28" width="1.59" height="1.96"/><rect class="cls-1" x="35.65" y="35.28" width="1.59" height="1.96"/><rect class="cls-1" x="34.07" y="35.28" width="1.59" height="1.96"/><rect class="cls-1" x="32.48" y="35.28" width="1.59" height="1.96"/><rect class="cls-1" x="30.89" y="35.28" width="1.59" height="1.96"/><rect class="cls-1" x="29.31" y="35.28" width="1.59" height="1.96"/><rect class="cls-1" x="27.72" y="35.28" width="1.59" height="1.96"/><rect class="cls-1" x="26.13" y="35.28" width="1.59" height="1.96"/><rect class="cls-1" x="24.55" y="35.28" width="1.59" height="1.96"/><rect class="cls-1" x="22.96" y="35.28" width="1.59" height="1.96"/><rect class="cls-1" x="21.37" y="35.28" width="1.59" height="1.96"/><rect class="cls-1" x="19.79" y="35.28" width="1.59" height="1.96"/><rect class="cls-1" x="18.2" y="35.28" width="1.59" height="1.96"/><rect class="cls-1" x="16.61" y="35.28" width="1.59" height="1.96"/><rect class="cls-1" x="15.03" y="35.28" width="1.59" height="1.96"/><rect class="cls-1" x="13.44" y="35.28" width="1.59" height="1.96"/><rect class="cls-1" x="11.85" y="35.28" width="1.59" height="1.96"/><rect class="cls-1" x="10.27" y="35.28" width="1.59" height="1.96"/><rect class="cls-1" x="8.68" y="35.28" width="1.59" height="1.96"/><rect class="cls-1" x="7.09" y="35.28" width="1.59" height="1.96"/><rect class="cls-1" x="5.51" y="35.28" width="1.59" height="1.96"/><rect class="cls-1" x="43.59" y="33.32" width="1.59" height="1.96"/><rect class="cls-1" x="42" y="33.32" width="1.59" height="1.96"/><rect class="cls-1" x="40.41" y="33.32" width="1.59" height="1.96"/><rect class="cls-1" x="38.83" y="33.32" width="1.59" height="1.96"/><rect class="cls-1" x="37.24" y="33.32" width="1.59" height="1.96"/><rect class="cls-1" x="35.65" y="33.32" width="1.59" height="1.96"/><rect class="cls-1" x="34.07" y="33.32" width="1.59" height="1.96"/><rect class="cls-1" x="32.48" y="33.32" width="1.59" height="1.96"/><rect class="cls-1" x="30.89" y="33.32" width="1.59" height="1.96"/><rect class="cls-1" x="29.31" y="33.32" width="1.59" height="1.96"/><rect class="cls-1" x="27.72" y="33.32" width="1.59" height="1.96"/><rect class="cls-1" x="26.13" y="33.32" width="1.59" height="1.96"/><rect class="cls-1" x="24.55" y="33.32" width="1.59" height="1.96"/><rect class="cls-1" x="22.96" y="33.32" width="1.59" height="1.96"/><rect class="cls-1" x="21.37" y="33.32" width="1.59" height="1.96"/><rect class="cls-1" x="19.79" y="33.32" width="1.59" height="1.96"/><rect class="cls-1" x="18.2" y="33.32" width="1.59" height="1.96"/><rect class="cls-1" x="16.61" y="33.32" width="1.59" height="1.96"/><rect class="cls-1" x="15.03" y="33.32" width="1.59" height="1.96"/><rect class="cls-1" x="13.44" y="33.32" width="1.59" height="1.96"/><rect class="cls-1" x="11.85" y="33.32" width="1.59" height="1.96"/><rect class="cls-1" x="10.27" y="33.32" width="1.59" height="1.96"/><rect class="cls-1" x="8.68" y="33.32" width="1.59" height="1.96"/><rect class="cls-1" x="7.09" y="33.32" width="1.59" height="1.96"/><rect class="cls-1" x="5.51" y="33.32" width="1.59" height="1.96"/><rect class="cls-1" x="43.59" y="31.36" width="1.59" height="1.96"/><rect class="cls-1" x="42" y="31.36" width="1.59" height="1.96"/><rect class="cls-1" x="40.41" y="31.36" width="1.59" height="1.96"/><rect class="cls-1" x="38.83" y="31.36" width="1.59" height="1.96"/><rect class="cls-1" x="37.24" y="31.36" width="1.59" height="1.96"/><rect class="cls-1" x="35.65" y="31.36" width="1.59" height="1.96"/><rect class="cls-1" x="34.07" y="31.36" width="1.59" height="1.96"/><rect class="cls-1" x="32.48" y="31.36" width="1.59" height="1.96"/><rect class="cls-1" x="30.89" y="31.36" width="1.59" height="1.96"/><rect class="cls-1" x="29.31" y="31.36" width="1.59" height="1.96"/><rect class="cls-1" x="27.72" y="31.36" width="1.59" height="1.96"/><rect class="cls-1" x="26.13" y="31.36" width="1.59" height="1.96"/><rect class="cls-1" x="24.55" y="31.36" width="1.59" height="1.96"/><rect class="cls-1" x="22.96" y="31.36" width="1.59" height="1.96"/><rect class="cls-1" x="21.37" y="31.36" width="1.59" height="1.96"/><rect class="cls-1" x="19.79" y="31.36" width="1.59" height="1.96"/><rect class="cls-1" x="18.2" y="31.36" width="1.59" height="1.96"/><rect class="cls-1" x="16.61" y="31.36" width="1.59" height="1.96"/><rect class="cls-1" x="15.03" y="31.36" width="1.59" height="1.96"/><rect class="cls-1" x="13.44" y="31.36" width="1.59" height="1.96"/><rect class="cls-1" x="11.85" y="31.36" width="1.59" height="1.96"/><rect class="cls-1" x="10.27" y="31.36" width="1.59" height="1.96"/><rect class="cls-1" x="8.68" y="31.36" width="1.59" height="1.96"/><rect class="cls-1" x="7.09" y="31.36" width="1.59" height="1.96"/><rect class="cls-1" x="5.51" y="31.36" width="1.59" height="1.96"/><rect class="cls-1" x="43.59" y="29.4" width="1.59" height="1.96"/><rect class="cls-1" x="42" y="29.4" width="1.59" height="1.96"/><rect class="cls-1" x="40.41" y="29.4" width="1.59" height="1.96"/><rect class="cls-1" x="38.83" y="29.4" width="1.59" height="1.96"/><rect class="cls-1" x="37.24" y="29.4" width="1.59" height="1.96"/><rect class="cls-1" x="35.65" y="29.4" width="1.59" height="1.96"/><rect class="cls-1" x="34.07" y="29.4" width="1.59" height="1.96"/><rect class="cls-1" x="32.48" y="29.4" width="1.59" height="1.96"/><rect class="cls-1" x="30.89" y="29.4" width="1.59" height="1.96"/><rect class="cls-1" x="29.31" y="29.4" width="1.59" height="1.96"/><rect class="cls-1" x="27.72" y="29.4" width="1.59" height="1.96"/><rect class="cls-1" x="26.13" y="29.4" width="1.59" height="1.96"/><rect class="cls-1" x="24.55" y="29.4" width="1.59" height="1.96"/><rect class="cls-1" x="22.96" y="29.4" width="1.59" height="1.96"/><rect class="cls-1" x="21.37" y="29.4" width="1.59" height="1.96"/><rect class="cls-1" x="19.79" y="29.4" width="1.59" height="1.96"/><rect class="cls-1" x="18.2" y="29.4" width="1.59" height="1.96"/><rect class="cls-1" x="16.61" y="29.4" width="1.59" height="1.96"/><rect class="cls-1" x="15.03" y="29.4" width="1.59" height="1.96"/><rect class="cls-1" x="13.44" y="29.4" width="1.59" height="1.96"/><rect class="cls-1" x="11.85" y="29.4" width="1.59" height="1.96"/><rect class="cls-1" x="10.27" y="29.4" width="1.59" height="1.96"/><rect class="cls-1" x="8.68" y="29.4" width="1.59" height="1.96"/><rect class="cls-1" x="7.09" y="29.4" width="1.59" height="1.96"/><rect class="cls-1" x="5.51" y="29.4" width="1.59" height="1.96"/><rect class="cls-1" x="45.17" y="27.44" width="1.59" height="1.96"/><rect class="cls-1" x="43.59" y="27.44" width="1.59" height="1.96"/><rect class="cls-1" x="42" y="27.44" width="1.59" height="1.96"/><rect class="cls-1" x="40.41" y="27.44" width="1.59" height="1.96"/><rect class="cls-1" x="38.83" y="27.44" width="1.59" height="1.96"/><rect class="cls-1" x="37.24" y="27.44" width="1.59" height="1.96"/><rect class="cls-1" x="35.65" y="27.44" width="1.59" height="1.96"/><rect class="cls-1" x="34.07" y="27.44" width="1.59" height="1.96"/><rect class="cls-1" x="32.48" y="27.44" width="1.59" height="1.96"/><rect class="cls-1" x="30.89" y="27.44" width="1.59" height="1.96"/><rect class="cls-1" x="29.31" y="27.44" width="1.59" height="1.96"/><rect class="cls-1" x="27.72" y="27.44" width="1.59" height="1.96"/><rect class="cls-1" x="26.13" y="27.44" width="1.59" height="1.96"/><rect class="cls-1" x="24.55" y="27.44" width="1.59" height="1.96"/><rect class="cls-1" x="22.96" y="27.44" width="1.59" height="1.96"/><rect class="cls-1" x="21.37" y="27.44" width="1.59" height="1.96"/><rect class="cls-1" x="19.79" y="27.44" width="1.59" height="1.96"/><rect class="cls-1" x="18.2" y="27.44" width="1.59" height="1.96"/><rect class="cls-1" x="16.61" y="27.44" width="1.59" height="1.96"/><rect class="cls-1" x="15.03" y="27.44" width="1.59" height="1.96"/><rect class="cls-1" x="13.44" y="27.44" width="1.59" height="1.96"/><rect class="cls-1" x="11.85" y="27.44" width="1.59" height="1.96"/><rect class="cls-1" x="10.27" y="27.44" width="1.59" height="1.96"/><rect class="cls-1" x="8.68" y="27.44" width="1.59" height="1.96"/><rect class="cls-1" x="7.09" y="27.44" width="1.59" height="1.96"/><rect class="cls-1" x="5.51" y="27.44" width="1.59" height="1.96"/><rect class="cls-1" x="45.17" y="25.48" width="1.59" height="1.96"/><rect class="cls-1" x="43.59" y="25.48" width="1.59" height="1.96"/><rect class="cls-1" x="42" y="25.48" width="1.59" height="1.96"/><rect class="cls-1" x="40.41" y="25.48" width="1.59" height="1.96"/><rect class="cls-1" x="38.83" y="25.48" width="1.59" height="1.96"/><rect class="cls-1" x="37.24" y="25.48" width="1.59" height="1.96"/><rect class="cls-1" x="35.65" y="25.48" width="1.59" height="1.96"/><rect class="cls-1" x="34.07" y="25.48" width="1.59" height="1.96"/><rect class="cls-1" x="32.48" y="25.48" width="1.59" height="1.96"/><rect class="cls-1" x="30.89" y="25.48" width="1.59" height="1.96"/><rect class="cls-1" x="29.31" y="25.48" width="1.59" height="1.96"/><rect class="cls-1" x="27.72" y="25.48" width="1.59" height="1.96"/><rect class="cls-1" x="26.13" y="25.48" width="1.59" height="1.96"/><rect class="cls-1" x="24.55" y="25.48" width="1.59" height="1.96"/><rect class="cls-1" x="22.96" y="25.48" width="1.59" height="1.96"/><rect class="cls-1" x="21.37" y="25.48" width="1.59" height="1.96"/><rect class="cls-1" x="19.79" y="25.48" width="1.59" height="1.96"/><rect class="cls-1" x="18.2" y="25.48" width="1.59" height="1.96"/><rect class="cls-1" x="16.61" y="25.48" width="1.59" height="1.96"/><rect class="cls-1" x="15.03" y="25.48" width="1.59" height="1.96"/><rect class="cls-1" x="13.44" y="25.48" width="1.59" height="1.96"/><rect class="cls-1" x="11.85" y="25.48" width="1.59" height="1.96"/><rect class="cls-1" x="10.27" y="25.48" width="1.59" height="1.96"/><rect class="cls-1" x="8.68" y="25.48" width="1.59" height="1.96"/><rect class="cls-1" x="7.09" y="25.48" width="1.59" height="1.96"/><rect class="cls-1" x="5.51" y="25.48" width="1.59" height="1.96"/><rect class="cls-1" x="45.17" y="23.52" width="1.59" height="1.96"/><rect class="cls-1" x="43.59" y="23.52" width="1.59" height="1.96"/><rect class="cls-1" x="42" y="23.52" width="1.59" height="1.96"/><rect class="cls-1" x="40.41" y="23.52" width="1.59" height="1.96"/><rect class="cls-1" x="38.83" y="23.52" width="1.59" height="1.96"/><rect class="cls-1" x="37.24" y="23.52" width="1.59" height="1.96"/><rect class="cls-1" x="35.65" y="23.52" width="1.59" height="1.96"/><rect class="cls-1" x="34.07" y="23.52" width="1.59" height="1.96"/><rect class="cls-1" x="32.48" y="23.52" width="1.59" height="1.96"/><rect class="cls-1" x="30.89" y="23.52" width="1.59" height="1.96"/><rect class="cls-1" x="29.31" y="23.52" width="1.59" height="1.96"/><rect class="cls-1" x="27.72" y="23.52" width="1.59" height="1.96"/><rect class="cls-1" x="26.13" y="23.52" width="1.59" height="1.96"/><rect class="cls-1" x="24.55" y="23.52" width="1.59" height="1.96"/><rect class="cls-1" x="22.96" y="23.52" width="1.59" height="1.96"/><rect class="cls-1" x="21.37" y="23.52" width="1.59" height="1.96"/><rect class="cls-1" x="19.79" y="23.52" width="1.59" height="1.96"/><rect class="cls-1" x="18.2" y="23.52" width="1.59" height="1.96"/><rect class="cls-1" x="16.61" y="23.52" width="1.59" height="1.96"/><rect class="cls-1" x="15.03" y="23.52" width="1.59" height="1.96"/><rect class="cls-1" x="13.44" y="23.52" width="1.59" height="1.96"/><rect class="cls-1" x="11.85" y="23.52" width="1.59" height="1.96"/><rect class="cls-1" x="10.27" y="23.52" width="1.59" height="1.96"/><rect class="cls-1" x="8.68" y="23.52" width="1.59" height="1.96"/><rect class="cls-1" x="7.09" y="23.52" width="1.59" height="1.96"/><rect class="cls-1" x="46.76" y="21.56" width="1.59" height="1.96"/><rect class="cls-1" x="45.17" y="21.56" width="1.59" height="1.96"/><rect class="cls-1" x="43.59" y="21.56" width="1.59" height="1.96"/><rect class="cls-1" x="42" y="21.56" width="1.59" height="1.96"/><rect class="cls-1" x="40.41" y="21.56" width="1.59" height="1.96"/><rect class="cls-1" x="38.83" y="21.56" width="1.59" height="1.96"/><rect class="cls-1" x="37.24" y="21.56" width="1.59" height="1.96"/><rect class="cls-1" x="35.65" y="21.56" width="1.59" height="1.96"/><rect class="cls-1" x="34.07" y="21.56" width="1.59" height="1.96"/><rect class="cls-1" x="32.48" y="21.56" width="1.59" height="1.96"/><rect class="cls-1" x="30.89" y="21.56" width="1.59" height="1.96"/><rect class="cls-1" x="29.31" y="21.56" width="1.59" height="1.96"/><rect class="cls-1" x="27.72" y="21.56" width="1.59" height="1.96"/><rect class="cls-1" x="26.13" y="21.56" width="1.59" height="1.96"/><rect class="cls-1" x="24.55" y="21.56" width="1.59" height="1.96"/><rect class="cls-1" x="22.96" y="21.56" width="1.59" height="1.96"/><rect class="cls-1" x="21.37" y="21.56" width="1.59" height="1.96"/><rect class="cls-1" x="19.79" y="21.56" width="1.59" height="1.96"/><rect class="cls-1" x="18.2" y="21.56" width="1.59" height="1.96"/><rect class="cls-1" x="16.61" y="21.56" width="1.59" height="1.96"/><rect class="cls-1" x="15.03" y="21.56" width="1.59" height="1.96"/><rect class="cls-1" x="13.44" y="21.56" width="1.59" height="1.96"/><rect class="cls-1" x="11.85" y="21.56" width="1.59" height="1.96"/><rect class="cls-1" x="10.27" y="21.56" width="1.59" height="1.96"/><rect class="cls-1" x="8.68" y="21.56" width="1.59" height="1.96"/><rect class="cls-1" x="7.09" y="21.56" width="1.59" height="1.96"/><rect class="cls-1" x="48.35" y="19.6" width="1.59" height="1.96"/><rect class="cls-1" x="46.76" y="19.6" width="1.59" height="1.96"/><rect class="cls-1" x="45.17" y="19.6" width="1.59" height="1.96"/><rect class="cls-1" x="43.59" y="19.6" width="1.59" height="1.96"/><rect class="cls-1" x="42" y="19.6" width="1.59" height="1.96"/><rect class="cls-1" x="40.41" y="19.6" width="1.59" height="1.96"/><rect class="cls-1" x="38.83" y="19.6" width="1.59" height="1.96"/><rect class="cls-1" x="37.24" y="19.6" width="1.59" height="1.96"/><rect class="cls-1" x="35.65" y="19.6" width="1.59" height="1.96"/><rect class="cls-1" x="34.07" y="19.6" width="1.59" height="1.96"/><rect class="cls-1" x="32.48" y="19.6" width="1.59" height="1.96"/><rect class="cls-1" x="30.89" y="19.6" width="1.59" height="1.96"/><rect class="cls-1" x="29.31" y="19.6" width="1.59" height="1.96"/><rect class="cls-1" x="27.72" y="19.6" width="1.59" height="1.96"/><rect class="cls-1" x="26.13" y="19.6" width="1.59" height="1.96"/><rect class="cls-1" x="24.55" y="19.6" width="1.59" height="1.96"/><rect class="cls-1" x="22.96" y="19.6" width="1.59" height="1.96"/><rect class="cls-1" x="21.37" y="19.6" width="1.59" height="1.96"/><rect class="cls-1" x="19.79" y="19.6" width="1.59" height="1.96"/><rect class="cls-1" x="18.2" y="19.6" width="1.59" height="1.96"/><rect class="cls-1" x="16.61" y="19.6" width="1.59" height="1.96"/><rect class="cls-1" x="15.03" y="19.6" width="1.59" height="1.96"/><rect class="cls-1" x="13.44" y="19.6" width="1.59" height="1.96"/><rect class="cls-1" x="11.85" y="19.6" width="1.59" height="1.96"/><rect class="cls-1" x="10.27" y="19.6" width="1.59" height="1.96"/><rect class="cls-1" x="8.68" y="19.6" width="1.59" height="1.96"/><rect class="cls-1" x="49.93" y="17.64" width="1.59" height="1.96"/><rect class="cls-1" x="48.35" y="17.64" width="1.59" height="1.96"/><rect class="cls-1" x="46.76" y="17.64" width="1.59" height="1.96"/><rect class="cls-1" x="45.17" y="17.64" width="1.59" height="1.96"/><rect class="cls-1" x="43.59" y="17.64" width="1.59" height="1.96"/><rect class="cls-1" x="42" y="17.64" width="1.59" height="1.96"/><rect class="cls-1" x="40.41" y="17.64" width="1.59" height="1.96"/><rect class="cls-1" x="38.83" y="17.64" width="1.59" height="1.96"/><rect class="cls-1" x="37.24" y="17.64" width="1.59" height="1.96"/><rect class="cls-1" x="35.65" y="17.64" width="1.59" height="1.96"/><rect class="cls-1" x="34.07" y="17.64" width="1.59" height="1.96"/><rect class="cls-1" x="32.48" y="17.64" width="1.59" height="1.96"/><rect class="cls-1" x="30.89" y="17.64" width="1.59" height="1.96"/><rect class="cls-1" x="29.31" y="17.64" width="1.59" height="1.96"/><rect class="cls-1" x="27.72" y="17.64" width="1.59" height="1.96"/><rect class="cls-1" x="26.13" y="17.64" width="1.59" height="1.96"/><rect class="cls-1" x="24.55" y="17.64" width="1.59" height="1.96"/><rect class="cls-1" x="22.96" y="17.64" width="1.59" height="1.96"/><rect class="cls-1" x="21.37" y="17.64" width="1.59" height="1.96"/><rect class="cls-1" x="19.79" y="17.64" width="1.59" height="1.96"/><rect class="cls-1" x="18.2" y="17.64" width="1.59" height="1.96"/><rect class="cls-1" x="16.61" y="17.64" width="1.59" height="1.96"/><rect class="cls-1" x="15.03" y="17.64" width="1.59" height="1.96"/><rect class="cls-1" x="13.44" y="17.64" width="1.59" height="1.96"/><rect class="cls-1" x="11.85" y="17.64" width="1.59" height="1.96"/><rect class="cls-1" x="10.27" y="17.64" width="1.59" height="1.96"/><rect class="cls-1" x="46.76" y="15.68" width="1.59" height="1.96"/><rect class="cls-1" x="45.17" y="15.68" width="1.59" height="1.96"/><rect class="cls-1" x="43.59" y="15.68" width="1.59" height="1.96"/><rect class="cls-1" x="42" y="15.68" width="1.59" height="1.96"/><rect class="cls-1" x="40.41" y="15.68" width="1.59" height="1.96"/><rect class="cls-1" x="38.83" y="15.68" width="1.59" height="1.96"/><rect class="cls-1" x="37.24" y="15.68" width="1.59" height="1.96"/><rect class="cls-1" x="35.65" y="15.68" width="1.59" height="1.96"/><rect class="cls-1" x="34.07" y="15.68" width="1.59" height="1.96"/><rect class="cls-1" x="32.48" y="15.68" width="1.59" height="1.96"/><rect class="cls-1" x="26.13" y="15.68" width="1.59" height="1.96"/><rect class="cls-1" x="24.55" y="15.68" width="1.59" height="1.96"/><rect class="cls-1" x="22.96" y="15.68" width="1.59" height="1.96"/><rect class="cls-1" x="21.37" y="15.68" width="1.59" height="1.96"/><rect class="cls-1" x="19.79" y="15.68" width="1.59" height="1.96"/><rect class="cls-1" x="18.2" y="15.68" width="1.59" height="1.96"/><rect class="cls-1" x="16.61" y="15.68" width="1.59" height="1.96"/><rect class="cls-1" x="15.03" y="15.68" width="1.59" height="1.96"/><rect class="cls-1" x="13.44" y="15.68" width="1.59" height="1.96"/><rect class="cls-1" x="43.59" y="13.72" width="1.59" height="1.96"/><rect class="cls-1" x="42" y="13.72" width="1.59" height="1.96"/><rect class="cls-1" x="40.41" y="13.72" width="1.59" height="1.96"/><rect class="cls-1" x="38.83" y="13.72" width="1.59" height="1.96"/><rect class="cls-1" x="37.24" y="13.72" width="1.59" height="1.96"/><rect class="cls-1" x="35.65" y="13.72" width="1.59" height="1.96"/><rect class="cls-1" x="21.37" y="13.72" width="1.59" height="1.96"/><rect class="cls-1" x="19.79" y="13.72" width="1.59" height="1.96"/><rect class="cls-1" x="18.2" y="13.72" width="1.59" height="1.96"/><rect class="cls-1" x="16.61" y="13.72" width="1.59" height="1.96"/><rect class="cls-1" x="15.03" y="13.72" width="1.59" height="1.96"/><rect class="cls-1" x="32.48" y="11.76" width="1.59" height="1.96"/><rect class="cls-1" x="30.89" y="11.76" width="1.59" height="1.96"/><rect class="cls-1" x="29.31" y="11.76" width="1.59" height="1.96"/><rect class="cls-1" x="35.65" y="9.8" width="1.59" height="1.96"/><rect class="cls-1" x="34.07" y="9.8" width="1.59" height="1.96"/><rect class="cls-1" x="32.48" y="9.8" width="1.59" height="1.96"/><rect class="cls-1" x="30.89" y="9.8" width="1.59" height="1.96"/><rect class="cls-1" x="29.31" y="9.8" width="1.59" height="1.96"/><rect class="cls-1" x="37.24" y="7.84" width="1.59" height="1.96"/><rect class="cls-1" x="35.65" y="7.84" width="1.59" height="1.96"/><rect class="cls-1" x="34.07" y="7.84" width="1.59" height="1.96"/><rect class="cls-1" x="32.48" y="7.84" width="1.59" height="1.96"/><rect class="cls-1" x="30.89" y="7.84" width="1.59" height="1.96"/><rect class="cls-1" x="29.31" y="7.84" width="1.59" height="1.96"/><rect class="cls-1" x="38.83" y="5.88" width="1.59" height="1.96"/><rect class="cls-1" x="37.24" y="5.88" width="1.59" height="1.96"/><rect class="cls-1" x="35.65" y="5.88" width="1.59" height="1.96"/><rect class="cls-1" x="34.07" y="5.88" width="1.59" height="1.96"/><rect class="cls-1" x="32.48" y="5.88" width="1.59" height="1.96"/><rect class="cls-1" x="30.89" y="5.88" width="1.59" height="1.96"/><rect class="cls-1" x="38.83" y="3.92" width="1.59" height="1.96"/><rect class="cls-1" x="37.24" y="3.92" width="1.59" height="1.96"/><rect class="cls-1" x="35.65" y="3.92" width="1.59" height="1.96"/><rect class="cls-1" x="34.07" y="3.92" width="1.59" height="1.96"/><rect class="cls-1" x="32.48" y="3.92" width="1.59" height="1.96"/><rect class="cls-1" x="40.41" y="1.96" width="1.59" height="1.96"/><rect class="cls-1" x="38.83" y="1.96" width="1.59" height="1.96"/><rect class="cls-1" x="37.24" y="1.96" width="1.59" height="1.96"/><rect class="cls-1" x="35.65" y="1.96" width="1.59" height="1.96"/><rect class="cls-1" x="34.07" y="1.96" width="1.59" height="1.96"/><rect class="cls-1" x="40.41" width="1.59" height="1.96"/><rect class="cls-1" x="38.83" width="1.59" height="1.96"/><rect class="cls-1" x="37.24" width="1.59" height="1.96"/><rect class="cls-1" x="22.96" y="56.84" width="1.59" height="1.96"/><rect class="cls-1" x="24.55" y="56.84" width="1.59" height="1.96"/><polyline class="cls-1" points="35.81 56.84 35.81 58.8 37.39 58.8 37.39 56.84"/><polyline class="cls-1" points="34.22 56.84 34.22 58.8 35.81 58.8 35.81 56.84"/><polyline class="cls-1" points="37.39 56.84 37.39 58.8 38.98 58.8 38.98 56.84"/><polyline class="cls-1" points="38.98 56.84 38.98 58.8 40.57 58.8 40.57 56.84"/><polyline class="cls-1" points="40.41 56.84 40.41 58.8 42 58.8 42 56.84"/><polyline class="cls-1" points="38.83 56.84 38.83 58.8 40.41 58.8 40.41 56.84"/><polyline class="cls-1" points="42 56.84 42 58.8 43.59 58.8 43.59 56.84"/><polyline class="cls-1" points="43.59 56.84 43.59 58.8 45.17 58.8 45.17 56.84"/><rect class="cls-1" x="10.03" y="32.32" width="1.59" height="1.96"/><rect class="cls-1" x="10.03" y="32.32" width="1.59" height="1.96"/><path class="cls-2" d="M9.46,79.43V78h1.16v1.48Zm1.33,0V78H12v1.48ZM9.46,77.77V76.29h1.16v1.48Zm1.33,0V76.29H12v1.48ZM9.46,76.11V74.63h1.16v1.48Zm1.33,0V74.63H12v1.48Zm1.32,0V74.63h1.16v1.48Zm1.33,0V74.63H14.6v1.48Zm-4-1.66V73h1.16v1.48Zm1.33,0V73H12v1.48Zm2.65,0V73H14.6v1.48Zm1.33,0V73h1.15v1.48ZM9.46,72.79V71.31h1.16v1.48Zm1.33,0V71.31H12v1.48Zm2.65,0V71.31H14.6v1.48Zm1.33,0V71.31h1.15v1.48ZM9.46,71.13V69.65h1.16v1.48Zm1.33,0V69.65H12v1.48Zm2.65,0V69.65H14.6v1.48Zm1.33,0V69.65h1.15v1.48ZM9.46,69.48V68h1.16v1.48Zm1.33,0V68H12v1.48Zm1.32,0V68h1.16v1.48Zm1.33,0V68H14.6v1.48Z" transform="translate(-9.46)"/><path class="cls-2" d="M17.56,79.43V78h1.16v1.48Zm1.32,0V78H20v1.48Zm-1.32-1.66V76.29h1.16v1.48Zm1.32,0V76.29H20v1.48Zm-1.32-1.66V74.63h1.16v1.48Zm1.32,0V74.63H20v1.48Zm-1.32-1.66V73h1.16v1.48Zm1.32,0V73H20v1.48Zm1.33,0V73h1.16v1.48Zm1.33,0V73h1.15v1.48Zm-4-1.66V71.31h1.16v1.48Zm1.32,0V71.31H20v1.48Zm2.66,0V71.31h1.15v1.48Z" transform="translate(-9.46)"/><path class="cls-2" d="M25.6,79.43V78h1.16v1.48Zm1.33,0V78h1.16v1.48Zm1.33,0V78h1.15v1.48Zm1.32,0V78h1.16v1.48Zm-5.3-1.66V76.29h1.15v1.48Zm1.32,0V76.29h1.16v1.48Zm-1.32-1.66V74.63h1.15v1.48Zm1.32,0V74.63h1.16v1.48Zm1.33,0V74.63h1.16v1.48Zm1.33,0V74.63h1.15v1.48Zm1.32,0V74.63h1.16v1.48Zm-5.3-1.66V73h1.15v1.48Zm1.32,0V73h1.16v1.48Zm2.66,0V73h1.15v1.48Zm1.32,0V73h1.16v1.48Zm-4-1.66V71.31h1.16v1.48Zm1.33,0V71.31h1.16v1.48Zm1.33,0V71.31h1.15v1.48Z" transform="translate(-9.46)"/><path class="cls-2" d="M32.73,74.45V73h1.16v1.48Zm1.33,0V73h1.16v1.48Zm1.32,0V73h1.16v1.48Zm1.33,0V73h1.16v1.48Z" transform="translate(-9.46)"/><path class="cls-2" d="M38.57,79.43V78h1.16v1.48Zm1.33,0V78h1.16v1.48Zm1.33,0V78h1.15v1.48Zm0-1.66V76.29h1.15v1.48Zm1.32,0V76.29h1.16v1.48Zm-1.32-1.66V74.63h1.15v1.48Zm1.32,0V74.63h1.16v1.48ZM39.9,74.45V73h1.16v1.48Zm1.33,0V73h1.15v1.48Zm-2.66-1.66V71.31h1.16v1.48Zm1.33,0V71.31h1.16v1.48Zm-1.33-1.66V69.65h1.16v1.48Zm1.33,0V69.65h1.16v1.48Zm0-1.65V68h1.16v1.48Zm1.33,0V68h1.15v1.48Zm1.32,0V68h1.16v1.48Z" transform="translate(-9.46)"/><path class="cls-2" d="M46.65,79.43V78h1.16v1.48Zm1.33,0V78h1.16v1.48Zm1.33,0V78h1.15v1.48Zm1.32,0V78h1.16v1.48Zm-5.3-1.66V76.29h1.16v1.48Zm1.32,0V76.29h1.16v1.48Zm2.66,0V76.29h1.15v1.48Zm1.32,0V76.29h1.16v1.48Zm-4-1.66V74.63h1.16v1.48Zm1.33,0V74.63h1.16v1.48Zm1.33,0V74.63h1.15v1.48Zm1.32,0V74.63h1.16v1.48Zm-1.32-1.66V73h1.15v1.48Zm1.32,0V73h1.16v1.48Zm-4-1.66V71.31h1.16v1.48Zm1.33,0V71.31h1.16v1.48Zm1.33,0V71.31h1.15v1.48Z" transform="translate(-9.46)"/><path class="cls-2" d="M56.19,79.43V78h1.16v1.48Zm-1.33-1.66V76.29H56v1.48Zm1.33,0V76.29h1.16v1.48Zm1.33,0V76.29h1.15v1.48Zm-2.66-1.66V74.63H56v1.48Zm1.33,0V74.63h1.16v1.48Zm1.33,0V74.63h1.15v1.48Zm-4-1.66V73h1.15v1.48Zm1.32,0V73H56v1.48Zm2.66,0V73h1.15v1.48Zm1.32,0V73H60v1.48Zm-5.3-1.66V71.31h1.15v1.48Zm1.32,0V71.31H56v1.48Zm2.66,0V71.31h1.15v1.48Zm1.32,0V71.31H60v1.48Z" transform="translate(-9.46)"/><path class="cls-2" d="M62.93,79.43V78h1.16v1.48Zm1.33,0V78h1.16v1.48Zm1.33,0V78h1.15v1.48Zm1.32,0V78h1.16v1.48Zm-5.3-1.66V76.29h1.16v1.48Zm1.32,0V76.29h1.16v1.48Zm-1.32-1.66V74.63h1.16v1.48Zm1.32,0V74.63h1.16v1.48Zm1.33,0V74.63h1.16v1.48Zm1.33,0V74.63h1.15v1.48Zm1.32,0V74.63h1.16v1.48Zm-5.3-1.66V73h1.16v1.48Zm1.32,0V73h1.16v1.48Zm2.66,0V73h1.15v1.48Zm1.32,0V73h1.16v1.48Zm-4-1.66V71.31h1.16v1.48Zm1.33,0V71.31h1.16v1.48Zm1.33,0V71.31h1.15v1.48Z" transform="translate(-9.46)"/></svg>