<svg id="Layer_1" data-name="Layer 1" xmlns="http://www.w3.org/2000/svg" viewBox="0 0 51 63"><defs><style>.cls-1{fill:#0e7900;}</style></defs><rect class="cls-1" x="37.4" y="60.9" width="1.7" height="2.1"/><rect class="cls-1" x="35.7" y="60.9" width="1.7" height="2.1"/><rect class="cls-1" x="17" y="60.9" width="1.7" height="2.1"/><rect class="cls-1" x="15.3" y="60.9" width="1.7" height="2.1"/><rect class="cls-1" x="40.8" y="58.8" width="1.7" height="2.1"/><rect class="cls-1" x="39.1" y="58.8" width="1.7" height="2.1"/><rect class="cls-1" x="37.4" y="58.8" width="1.7" height="2.1"/><rect class="cls-1" x="35.7" y="58.8" width="1.7" height="2.1"/><rect class="cls-1" x="34" y="58.8" width="1.7" height="2.1"/><rect class="cls-1" x="32.3" y="58.8" width="1.7" height="2.1"/><rect class="cls-1" x="30.6" y="58.8" width="1.7" height="2.1"/><rect class="cls-1" x="28.9" y="58.8" width="1.7" height="2.1"/><rect class="cls-1" x="23.8" y="58.8" width="1.7" height="2.1"/><rect class="cls-1" x="22.1" y="58.8" width="1.7" height="2.1"/><rect class="cls-1" x="20.4" y="58.8" width="1.7" height="2.1"/><rect class="cls-1" x="18.7" y="58.8" width="1.7" height="2.1"/><rect class="cls-1" x="17" y="58.8" width="1.7" height="2.1"/><rect class="cls-1" x="15.3" y="58.8" width="1.7" height="2.1"/><rect class="cls-1" x="13.6" y="58.8" width="1.7" height="2.1"/><rect class="cls-1" x="11.9" y="58.8" width="1.7" height="2.1"/><rect class="cls-1" x="10.2" y="58.8" width="1.7" height="2.1"/><rect class="cls-1" x="44.2" y="56.7" width="1.7" height="2.1"/><rect class="cls-1" x="42.5" y="56.7" width="1.7" height="2.1"/><rect class="cls-1" x="40.8" y="56.7" width="1.7" height="2.1"/><rect class="cls-1" x="39.1" y="56.7" width="1.7" height="2.1"/><rect class="cls-1" x="37.4" y="56.7" width="1.7" height="2.1"/><rect class="cls-1" x="35.7" y="56.7" width="1.7" height="2.1"/><rect class="cls-1" x="34" y="56.7" width="1.7" height="2.1"/><rect class="cls-1" x="32.3" y="56.7" width="1.7" height="2.1"/><rect class="cls-1" x="30.6" y="56.7" width="1.7" height="2.1"/><rect class="cls-1" x="28.9" y="56.7" width="1.7" height="2.1"/><rect class="cls-1" x="27.2" y="56.7" width="1.7" height="2.1"/><rect class="cls-1" x="25.5" y="56.7" width="1.7" height="2.1"/><rect class="cls-1" x="23.8" y="56.7" width="1.7" height="2.1"/><rect class="cls-1" x="22.1" y="56.7" width="1.7" height="2.1"/><rect class="cls-1" x="20.4" y="56.7" width="1.7" height="2.1"/><rect class="cls-1" x="18.7" y="56.7" width="1.7" height="2.1"/><rect class="cls-1" x="17" y="56.7" width="1.7" height="2.1"/><rect class="cls-1" x="15.3" y="56.7" width="1.7" height="2.1"/><rect class="cls-1" x="13.6" y="56.7" width="1.7" height="2.1"/><rect class="cls-1" x="11.9" y="56.7" width="1.7" height="2.1"/><rect class="cls-1" x="10.2" y="56.7" width="1.7" height="2.1"/><rect class="cls-1" x="8.5" y="56.7" width="1.7" height="2.1"/><rect class="cls-1" x="44.2" y="54.6" width="1.7" height="2.1"/><rect class="cls-1" x="42.5" y="54.6" width="1.7" height="2.1"/><rect class="cls-1" x="40.8" y="54.6" width="1.7" height="2.1"/><rect class="cls-1" x="39.1" y="54.6" width="1.7" height="2.1"/><rect class="cls-1" x="37.4" y="54.6" width="1.7" height="2.1"/><rect class="cls-1" x="35.7" y="54.6" width="1.7" height="2.1"/><rect class="cls-1" x="34" y="54.6" width="1.7" height="2.1"/><rect class="cls-1" x="32.3" y="54.6" width="1.7" height="2.1"/><rect class="cls-1" x="30.6" y="54.6" width="1.7" height="2.1"/><rect class="cls-1" x="28.9" y="54.6" width="1.7" height="2.1"/><rect class="cls-1" x="27.2" y="54.6" width="1.7" height="2.1"/><rect class="cls-1" x="25.5" y="54.6" width="1.7" height="2.1"/><rect class="cls-1" x="23.8" y="54.6" width="1.7" height="2.1"/><rect class="cls-1" x="22.1" y="54.6" width="1.7" height="2.1"/><rect class="cls-1" x="20.4" y="54.6" width="1.7" height="2.1"/><rect class="cls-1" x="18.7" y="54.6" width="1.7" height="2.1"/><rect class="cls-1" x="17" y="54.6" width="1.7" height="2.1"/><rect class="cls-1" x="15.3" y="54.6" width="1.7" height="2.1"/><rect class="cls-1" x="13.6" y="54.6" width="1.7" height="2.1"/><rect class="cls-1" x="11.9" y="54.6" width="1.7" height="2.1"/><rect class="cls-1" x="10.2" y="54.6" width="1.7" height="2.1"/><rect class="cls-1" x="8.5" y="54.6" width="1.7" height="2.1"/><rect class="cls-1" x="6.8" y="54.6" width="1.7" height="2.1"/><rect class="cls-1" x="45.9" y="52.5" width="1.7" height="2.1"/><rect class="cls-1" x="44.2" y="52.5" width="1.7" height="2.1"/><rect class="cls-1" x="42.5" y="52.5" width="1.7" height="2.1"/><rect class="cls-1" x="40.8" y="52.5" width="1.7" height="2.1"/><rect class="cls-1" x="39.1" y="52.5" width="1.7" height="2.1"/><rect class="cls-1" x="37.4" y="52.5" width="1.7" height="2.1"/><rect class="cls-1" x="35.7" y="52.5" width="1.7" height="2.1"/><rect class="cls-1" x="34" y="52.5" width="1.7" height="2.1"/><rect class="cls-1" x="32.3" y="52.5" width="1.7" height="2.1"/><rect class="cls-1" x="30.6" y="52.5" width="1.7" height="2.1"/><rect class="cls-1" x="28.9" y="52.5" width="1.7" height="2.1"/><rect class="cls-1" x="27.2" y="52.5" width="1.7" height="2.1"/><rect class="cls-1" x="25.5" y="52.5" width="1.7" height="2.1"/><rect class="cls-1" x="23.8" y="52.5" width="1.7" height="2.1"/><rect class="cls-1" x="22.1" y="52.5" width="1.7" height="2.1"/><rect class="cls-1" x="20.4" y="52.5" width="1.7" height="2.1"/><rect class="cls-1" x="18.7" y="52.5" width="1.7" height="2.1"/><rect class="cls-1" x="17" y="52.5" width="1.7" height="2.1"/><rect class="cls-1" x="15.3" y="52.5" width="1.7" height="2.1"/><rect class="cls-1" x="13.6" y="52.5" width="1.7" height="2.1"/><rect class="cls-1" x="11.9" y="52.5" width="1.7" height="2.1"/><rect class="cls-1" x="10.2" y="52.5" width="1.7" height="2.1"/><rect class="cls-1" x="8.5" y="52.5" width="1.7" height="2.1"/><rect class="cls-1" x="6.8" y="52.5" width="1.7" height="2.1"/><rect class="cls-1" x="5.1" y="52.5" width="1.7" height="2.1"/><rect class="cls-1" x="47.6" y="50.4" width="1.7" height="2.1"/><rect class="cls-1" x="45.9" y="50.4" width="1.7" height="2.1"/><rect class="cls-1" x="44.2" y="50.4" width="1.7" height="2.1"/><rect class="cls-1" x="42.5" y="50.4" width="1.7" height="2.1"/><rect class="cls-1" x="40.8" y="50.4" width="1.7" height="2.1"/><rect class="cls-1" x="39.1" y="50.4" width="1.7" height="2.1"/><rect class="cls-1" x="37.4" y="50.4" width="1.7" height="2.1"/><rect class="cls-1" x="35.7" y="50.4" width="1.7" height="2.1"/><rect class="cls-1" x="34" y="50.4" width="1.7" height="2.1"/><rect class="cls-1" x="32.3" y="50.4" width="1.7" height="2.1"/><rect class="cls-1" x="30.6" y="50.4" width="1.7" height="2.1"/><rect class="cls-1" x="28.9" y="50.4" width="1.7" height="2.1"/><rect class="cls-1" x="27.2" y="50.4" width="1.7" height="2.1"/><rect class="cls-1" x="25.5" y="50.4" width="1.7" height="2.1"/><rect class="cls-1" x="23.8" y="50.4" width="1.7" height="2.1"/><rect class="cls-1" x="22.1" y="50.4" width="1.7" height="2.1"/><rect class="cls-1" x="20.4" y="50.4" width="1.7" height="2.1"/><rect class="cls-1" x="18.7" y="50.4" width="1.7" height="2.1"/><rect class="cls-1" x="17" y="50.4" width="1.7" height="2.1"/><rect class="cls-1" x="15.3" y="50.4" width="1.7" height="2.1"/><rect class="cls-1" x="13.6" y="50.4" width="1.7" height="2.1"/><rect class="cls-1" x="11.9" y="50.4" width="1.7" height="2.1"/><rect class="cls-1" x="10.2" y="50.4" width="1.7" height="2.1"/><rect class="cls-1" x="8.5" y="50.4" width="1.7" height="2.1"/><rect class="cls-1" x="6.8" y="50.4" width="1.7" height="2.1"/><rect class="cls-1" x="5.1" y="50.4" width="1.7" height="2.1"/><rect class="cls-1" x="49.3" y="48.3" width="1.7" height="2.1"/><rect class="cls-1" x="47.6" y="48.3" width="1.7" height="2.1"/><rect class="cls-1" x="45.9" y="48.3" width="1.7" height="2.1"/><rect class="cls-1" x="44.2" y="48.3" width="1.7" height="2.1"/><rect class="cls-1" x="42.5" y="48.3" width="1.7" height="2.1"/><rect class="cls-1" x="40.8" y="48.3" width="1.7" height="2.1"/><rect class="cls-1" x="39.1" y="48.3" width="1.7" height="2.1"/><rect class="cls-1" x="37.4" y="48.3" width="1.7" height="2.1"/><rect class="cls-1" x="35.7" y="48.3" width="1.7" height="2.1"/><rect class="cls-1" x="34" y="48.3" width="1.7" height="2.1"/><rect class="cls-1" x="32.3" y="48.3" width="1.7" height="2.1"/><rect class="cls-1" x="30.6" y="48.3" width="1.7" height="2.1"/><rect class="cls-1" x="28.9" y="48.3" width="1.7" height="2.1"/><rect class="cls-1" x="27.2" y="48.3" width="1.7" height="2.1"/><rect class="cls-1" x="25.5" y="48.3" width="1.7" height="2.1"/><rect class="cls-1" x="23.8" y="48.3" width="1.7" height="2.1"/><rect class="cls-1" x="22.1" y="48.3" width="1.7" height="2.1"/><rect class="cls-1" x="20.4" y="48.3" width="1.7" height="2.1"/><rect class="cls-1" x="18.7" y="48.3" width="1.7" height="2.1"/><rect class="cls-1" x="17" y="48.3" width="1.7" height="2.1"/><rect class="cls-1" x="15.3" y="48.3" width="1.7" height="2.1"/><rect class="cls-1" x="13.6" y="48.3" width="1.7" height="2.1"/><rect class="cls-1" x="11.9" y="48.3" width="1.7" height="2.1"/><rect class="cls-1" x="10.2" y="48.3" width="1.7" height="2.1"/><rect class="cls-1" x="8.5" y="48.3" width="1.7" height="2.1"/><rect class="cls-1" x="6.8" y="48.3" width="1.7" height="2.1"/><rect class="cls-1" x="5.1" y="48.3" width="1.7" height="2.1"/><rect class="cls-1" x="3.4" y="48.3" width="1.7" height="2.1"/><rect class="cls-1" x="49.3" y="46.2" width="1.7" height="2.1"/><rect class="cls-1" x="47.6" y="46.2" width="1.7" height="2.1"/><rect class="cls-1" x="45.9" y="46.2" width="1.7" height="2.1"/><rect class="cls-1" x="44.2" y="46.2" width="1.7" height="2.1"/><rect class="cls-1" x="42.5" y="46.2" width="1.7" height="2.1"/><rect class="cls-1" x="40.8" y="46.2" width="1.7" height="2.1"/><rect class="cls-1" x="39.1" y="46.2" width="1.7" height="2.1"/><rect class="cls-1" x="37.4" y="46.2" width="1.7" height="2.1"/><rect class="cls-1" x="35.7" y="46.2" width="1.7" height="2.1"/><rect class="cls-1" x="34" y="46.2" width="1.7" height="2.1"/><rect class="cls-1" x="32.3" y="46.2" width="1.7" height="2.1"/><rect class="cls-1" x="30.6" y="46.2" width="1.7" height="2.1"/><rect class="cls-1" x="28.9" y="46.2" width="1.7" height="2.1"/><rect class="cls-1" x="27.2" y="46.2" width="1.7" height="2.1"/><rect class="cls-1" x="25.5" y="46.2" width="1.7" height="2.1"/><rect class="cls-1" x="23.8" y="46.2" width="1.7" height="2.1"/><rect class="cls-1" x="22.1" y="46.2" width="1.7" height="2.1"/><rect class="cls-1" x="20.4" y="46.2" width="1.7" height="2.1"/><rect class="cls-1" x="18.7" y="46.2" width="1.7" height="2.1"/><rect class="cls-1" x="17" y="46.2" width="1.7" height="2.1"/><rect class="cls-1" x="15.3" y="46.2" width="1.7" height="2.1"/><rect class="cls-1" x="13.6" y="46.2" width="1.7" height="2.1"/><rect class="cls-1" x="11.9" y="46.2" width="1.7" height="2.1"/><rect class="cls-1" x="10.2" y="46.2" width="1.7" height="2.1"/><rect class="cls-1" x="8.5" y="46.2" width="1.7" height="2.1"/><rect class="cls-1" x="6.8" y="46.2" width="1.7" height="2.1"/><rect class="cls-1" x="5.1" y="46.2" width="1.7" height="2.1"/><rect class="cls-1" x="3.4" y="46.2" width="1.7" height="2.1"/><rect class="cls-1" x="1.7" y="46.2" width="1.7" height="2.1"/><rect class="cls-1" x="49.3" y="44.1" width="1.7" height="2.1"/><rect class="cls-1" x="47.6" y="44.1" width="1.7" height="2.1"/><rect class="cls-1" x="45.9" y="44.1" width="1.7" height="2.1"/><rect class="cls-1" x="44.2" y="44.1" width="1.7" height="2.1"/><rect class="cls-1" x="42.5" y="44.1" width="1.7" height="2.1"/><rect class="cls-1" x="40.8" y="44.1" width="1.7" height="2.1"/><rect class="cls-1" x="39.1" y="44.1" width="1.7" height="2.1"/><rect class="cls-1" x="37.4" y="44.1" width="1.7" height="2.1"/><rect class="cls-1" x="35.7" y="44.1" width="1.7" height="2.1"/><rect class="cls-1" x="34" y="44.1" width="1.7" height="2.1"/><rect class="cls-1" x="32.3" y="44.1" width="1.7" height="2.1"/><rect class="cls-1" x="30.6" y="44.1" width="1.7" height="2.1"/><rect class="cls-1" x="28.9" y="44.1" width="1.7" height="2.1"/><rect class="cls-1" x="27.2" y="44.1" width="1.7" height="2.1"/><rect class="cls-1" x="25.5" y="44.1" width="1.7" height="2.1"/><rect class="cls-1" x="23.8" y="44.1" width="1.7" height="2.1"/><rect class="cls-1" x="22.1" y="44.1" width="1.7" height="2.1"/><rect class="cls-1" x="20.4" y="44.1" width="1.7" height="2.1"/><rect class="cls-1" x="18.7" y="44.1" width="1.7" height="2.1"/><rect class="cls-1" x="17" y="44.1" width="1.7" height="2.1"/><rect class="cls-1" x="15.3" y="44.1" width="1.7" height="2.1"/><rect class="cls-1" x="13.6" y="44.1" width="1.7" height="2.1"/><rect class="cls-1" x="11.9" y="44.1" width="1.7" height="2.1"/><rect class="cls-1" x="10.2" y="44.1" width="1.7" height="2.1"/><rect class="cls-1" x="8.5" y="44.1" width="1.7" height="2.1"/><rect class="cls-1" x="6.8" y="44.1" width="1.7" height="2.1"/><rect class="cls-1" x="5.1" y="44.1" width="1.7" height="2.1"/><rect class="cls-1" x="3.4" y="44.1" width="1.7" height="2.1"/><rect class="cls-1" x="1.7" y="44.1" width="1.7" height="2.1"/><rect class="cls-1" x="45.9" y="42" width="1.7" height="2.1"/><rect class="cls-1" x="44.2" y="42" width="1.7" height="2.1"/><rect class="cls-1" x="42.5" y="42" width="1.7" height="2.1"/><rect class="cls-1" x="40.8" y="42" width="1.7" height="2.1"/><rect class="cls-1" x="39.1" y="42" width="1.7" height="2.1"/><rect class="cls-1" x="37.4" y="42" width="1.7" height="2.1"/><rect class="cls-1" x="35.7" y="42" width="1.7" height="2.1"/><rect class="cls-1" x="34" y="42" width="1.7" height="2.1"/><rect class="cls-1" x="32.3" y="42" width="1.7" height="2.1"/><rect class="cls-1" x="30.6" y="42" width="1.7" height="2.1"/><rect class="cls-1" x="28.9" y="42" width="1.7" height="2.1"/><rect class="cls-1" x="27.2" y="42" width="1.7" height="2.1"/><rect class="cls-1" x="25.5" y="42" width="1.7" height="2.1"/><rect class="cls-1" x="23.8" y="42" width="1.7" height="2.1"/><rect class="cls-1" x="22.1" y="42" width="1.7" height="2.1"/><rect class="cls-1" x="20.4" y="42" width="1.7" height="2.1"/><rect class="cls-1" x="18.7" y="42" width="1.7" height="2.1"/><rect class="cls-1" x="17" y="42" width="1.7" height="2.1"/><rect class="cls-1" x="15.3" y="42" width="1.7" height="2.1"/><rect class="cls-1" x="13.6" y="42" width="1.7" height="2.1"/><rect class="cls-1" x="11.9" y="42" width="1.7" height="2.1"/><rect class="cls-1" x="10.2" y="42" width="1.7" height="2.1"/><rect class="cls-1" x="8.5" y="42" width="1.7" height="2.1"/><rect class="cls-1" x="6.8" y="42" width="1.7" height="2.1"/><rect class="cls-1" x="5.1" y="42" width="1.7" height="2.1"/><rect class="cls-1" x="3.4" y="42" width="1.7" height="2.1"/><rect class="cls-1" x="1.7" y="42" width="1.7" height="2.1"/><rect class="cls-1" x="44.2" y="39.9" width="1.7" height="2.1"/><rect class="cls-1" x="42.5" y="39.9" width="1.7" height="2.1"/><rect class="cls-1" x="40.8" y="39.9" width="1.7" height="2.1"/><rect class="cls-1" x="39.1" y="39.9" width="1.7" height="2.1"/><rect class="cls-1" x="37.4" y="39.9" width="1.7" height="2.1"/><rect class="cls-1" x="35.7" y="39.9" width="1.7" height="2.1"/><rect class="cls-1" x="34" y="39.9" width="1.7" height="2.1"/><rect class="cls-1" x="32.3" y="39.9" width="1.7" height="2.1"/><rect class="cls-1" x="30.6" y="39.9" width="1.7" height="2.1"/><rect class="cls-1" x="28.9" y="39.9" width="1.7" height="2.1"/><rect class="cls-1" x="27.2" y="39.9" width="1.7" height="2.1"/><rect class="cls-1" x="25.5" y="39.9" width="1.7" height="2.1"/><rect class="cls-1" x="23.8" y="39.9" width="1.7" height="2.1"/><rect class="cls-1" x="22.1" y="39.9" width="1.7" height="2.1"/><rect class="cls-1" x="20.4" y="39.9" width="1.7" height="2.1"/><rect class="cls-1" x="18.7" y="39.9" width="1.7" height="2.1"/><rect class="cls-1" x="17" y="39.9" width="1.7" height="2.1"/><rect class="cls-1" x="15.3" y="39.9" width="1.7" height="2.1"/><rect class="cls-1" x="13.6" y="39.9" width="1.7" height="2.1"/><rect class="cls-1" x="11.9" y="39.9" width="1.7" height="2.1"/><rect class="cls-1" x="10.2" y="39.9" width="1.7" height="2.1"/><rect class="cls-1" x="8.5" y="39.9" width="1.7" height="2.1"/><rect class="cls-1" x="6.8" y="39.9" width="1.7" height="2.1"/><rect class="cls-1" x="5.1" y="39.9" width="1.7" height="2.1"/><rect class="cls-1" x="3.4" y="39.9" width="1.7" height="2.1"/><rect class="cls-1" x="1.7" y="39.9" width="1.7" height="2.1"/><rect class="cls-1" y="39.9" width="1.7" height="2.1"/><rect class="cls-1" x="42.5" y="37.8" width="1.7" height="2.1"/><rect class="cls-1" x="40.8" y="37.8" width="1.7" height="2.1"/><rect class="cls-1" x="39.1" y="37.8" width="1.7" height="2.1"/><rect class="cls-1" x="37.4" y="37.8" width="1.7" height="2.1"/><rect class="cls-1" x="35.7" y="37.8" width="1.7" height="2.1"/><rect class="cls-1" x="34" y="37.8" width="1.7" height="2.1"/><rect class="cls-1" x="32.3" y="37.8" width="1.7" height="2.1"/><rect class="cls-1" x="30.6" y="37.8" width="1.7" height="2.1"/><rect class="cls-1" x="28.9" y="37.8" width="1.7" height="2.1"/><rect class="cls-1" x="27.2" y="37.8" width="1.7" height="2.1"/><rect class="cls-1" x="25.5" y="37.8" width="1.7" height="2.1"/><rect class="cls-1" x="23.8" y="37.8" width="1.7" height="2.1"/><rect class="cls-1" x="22.1" y="37.8" width="1.7" height="2.1"/><rect class="cls-1" x="20.4" y="37.8" width="1.7" height="2.1"/><rect class="cls-1" x="18.7" y="37.8" width="1.7" height="2.1"/><rect class="cls-1" x="17" y="37.8" width="1.7" height="2.1"/><rect class="cls-1" x="15.3" y="37.8" width="1.7" height="2.1"/><rect class="cls-1" x="13.6" y="37.8" width="1.7" height="2.1"/><rect class="cls-1" x="11.9" y="37.8" width="1.7" height="2.1"/><rect class="cls-1" x="10.2" y="37.8" width="1.7" height="2.1"/><rect class="cls-1" x="8.5" y="37.8" width="1.7" height="2.1"/><rect class="cls-1" x="6.8" y="37.8" width="1.7" height="2.1"/><rect class="cls-1" x="5.1" y="37.8" width="1.7" height="2.1"/><rect class="cls-1" x="3.4" y="37.8" width="1.7" height="2.1"/><rect class="cls-1" x="1.7" y="37.8" width="1.7" height="2.1"/><rect class="cls-1" y="37.8" width="1.7" height="2.1"/><rect class="cls-1" x="40.8" y="35.7" width="1.7" height="2.1"/><rect class="cls-1" x="39.1" y="35.7" width="1.7" height="2.1"/><rect class="cls-1" x="37.4" y="35.7" width="1.7" height="2.1"/><rect class="cls-1" x="35.7" y="35.7" width="1.7" height="2.1"/><rect class="cls-1" x="34" y="35.7" width="1.7" height="2.1"/><rect class="cls-1" x="32.3" y="35.7" width="1.7" height="2.1"/><rect class="cls-1" x="30.6" y="35.7" width="1.7" height="2.1"/><rect class="cls-1" x="28.9" y="35.7" width="1.7" height="2.1"/><rect class="cls-1" x="27.2" y="35.7" width="1.7" height="2.1"/><rect class="cls-1" x="25.5" y="35.7" width="1.7" height="2.1"/><rect class="cls-1" x="23.8" y="35.7" width="1.7" height="2.1"/><rect class="cls-1" x="22.1" y="35.7" width="1.7" height="2.1"/><rect class="cls-1" x="20.4" y="35.7" width="1.7" height="2.1"/><rect class="cls-1" x="18.7" y="35.7" width="1.7" height="2.1"/><rect class="cls-1" x="17" y="35.7" width="1.7" height="2.1"/><rect class="cls-1" x="15.3" y="35.7" width="1.7" height="2.1"/><rect class="cls-1" x="13.6" y="35.7" width="1.7" height="2.1"/><rect class="cls-1" x="11.9" y="35.7" width="1.7" height="2.1"/><rect class="cls-1" x="10.2" y="35.7" width="1.7" height="2.1"/><rect class="cls-1" x="8.5" y="35.7" width="1.7" height="2.1"/><rect class="cls-1" x="6.8" y="35.7" width="1.7" height="2.1"/><rect class="cls-1" x="5.1" y="35.7" width="1.7" height="2.1"/><rect class="cls-1" x="3.4" y="35.7" width="1.7" height="2.1"/><rect class="cls-1" x="1.7" y="35.7" width="1.7" height="2.1"/><rect class="cls-1" y="35.7" width="1.7" height="2.1"/><rect class="cls-1" x="40.8" y="33.6" width="1.7" height="2.1"/><rect class="cls-1" x="39.1" y="33.6" width="1.7" height="2.1"/><rect class="cls-1" x="37.4" y="33.6" width="1.7" height="2.1"/><rect class="cls-1" x="35.7" y="33.6" width="1.7" height="2.1"/><rect class="cls-1" x="34" y="33.6" width="1.7" height="2.1"/><rect class="cls-1" x="32.3" y="33.6" width="1.7" height="2.1"/><rect class="cls-1" x="30.6" y="33.6" width="1.7" height="2.1"/><rect class="cls-1" x="28.9" y="33.6" width="1.7" height="2.1"/><rect class="cls-1" x="27.2" y="33.6" width="1.7" height="2.1"/><rect class="cls-1" x="25.5" y="33.6" width="1.7" height="2.1"/><rect class="cls-1" x="23.8" y="33.6" width="1.7" height="2.1"/><rect class="cls-1" x="22.1" y="33.6" width="1.7" height="2.1"/><rect class="cls-1" x="20.4" y="33.6" width="1.7" height="2.1"/><rect class="cls-1" x="18.7" y="33.6" width="1.7" height="2.1"/><rect class="cls-1" x="17" y="33.6" width="1.7" height="2.1"/><rect class="cls-1" x="15.3" y="33.6" width="1.7" height="2.1"/><rect class="cls-1" x="13.6" y="33.6" width="1.7" height="2.1"/><rect class="cls-1" x="11.9" y="33.6" width="1.7" height="2.1"/><rect class="cls-1" x="10.2" y="33.6" width="1.7" height="2.1"/><rect class="cls-1" x="8.5" y="33.6" width="1.7" height="2.1"/><rect class="cls-1" x="6.8" y="33.6" width="1.7" height="2.1"/><rect class="cls-1" x="5.1" y="33.6" width="1.7" height="2.1"/><rect class="cls-1" x="3.4" y="33.6" width="1.7" height="2.1"/><rect class="cls-1" x="1.7" y="33.6" width="1.7" height="2.1"/><rect class="cls-1" y="33.6" width="1.7" height="2.1"/><rect class="cls-1" x="40.8" y="31.5" width="1.7" height="2.1"/><rect class="cls-1" x="39.1" y="31.5" width="1.7" height="2.1"/><rect class="cls-1" x="37.4" y="31.5" width="1.7" height="2.1"/><rect class="cls-1" x="35.7" y="31.5" width="1.7" height="2.1"/><rect class="cls-1" x="34" y="31.5" width="1.7" height="2.1"/><rect class="cls-1" x="32.3" y="31.5" width="1.7" height="2.1"/><rect class="cls-1" x="30.6" y="31.5" width="1.7" height="2.1"/><rect class="cls-1" x="28.9" y="31.5" width="1.7" height="2.1"/><rect class="cls-1" x="27.2" y="31.5" width="1.7" height="2.1"/><rect class="cls-1" x="25.5" y="31.5" width="1.7" height="2.1"/><rect class="cls-1" x="23.8" y="31.5" width="1.7" height="2.1"/><rect class="cls-1" x="22.1" y="31.5" width="1.7" height="2.1"/><rect class="cls-1" x="20.4" y="31.5" width="1.7" height="2.1"/><rect class="cls-1" x="18.7" y="31.5" width="1.7" height="2.1"/><rect class="cls-1" x="17" y="31.5" width="1.7" height="2.1"/><rect class="cls-1" x="15.3" y="31.5" width="1.7" height="2.1"/><rect class="cls-1" x="13.6" y="31.5" width="1.7" height="2.1"/><rect class="cls-1" x="11.9" y="31.5" width="1.7" height="2.1"/><rect class="cls-1" x="10.2" y="31.5" width="1.7" height="2.1"/><rect class="cls-1" x="8.5" y="31.5" width="1.7" height="2.1"/><rect class="cls-1" x="6.8" y="31.5" width="1.7" height="2.1"/><rect class="cls-1" x="5.1" y="31.5" width="1.7" height="2.1"/><rect class="cls-1" x="3.4" y="31.5" width="1.7" height="2.1"/><rect class="cls-1" x="1.7" y="31.5" width="1.7" height="2.1"/><rect class="cls-1" y="31.5" width="1.7" height="2.1"/><rect class="cls-1" x="42.5" y="29.4" width="1.7" height="2.1"/><rect class="cls-1" x="40.8" y="29.4" width="1.7" height="2.1"/><rect class="cls-1" x="39.1" y="29.4" width="1.7" height="2.1"/><rect class="cls-1" x="37.4" y="29.4" width="1.7" height="2.1"/><rect class="cls-1" x="35.7" y="29.4" width="1.7" height="2.1"/><rect class="cls-1" x="34" y="29.4" width="1.7" height="2.1"/><rect class="cls-1" x="32.3" y="29.4" width="1.7" height="2.1"/><rect class="cls-1" x="30.6" y="29.4" width="1.7" height="2.1"/><rect class="cls-1" x="28.9" y="29.4" width="1.7" height="2.1"/><rect class="cls-1" x="27.2" y="29.4" width="1.7" height="2.1"/><rect class="cls-1" x="25.5" y="29.4" width="1.7" height="2.1"/><rect class="cls-1" x="23.8" y="29.4" width="1.7" height="2.1"/><rect class="cls-1" x="22.1" y="29.4" width="1.7" height="2.1"/><rect class="cls-1" x="20.4" y="29.4" width="1.7" height="2.1"/><rect class="cls-1" x="18.7" y="29.4" width="1.7" height="2.1"/><rect class="cls-1" x="17" y="29.4" width="1.7" height="2.1"/><rect class="cls-1" x="15.3" y="29.4" width="1.7" height="2.1"/><rect class="cls-1" x="13.6" y="29.4" width="1.7" height="2.1"/><rect class="cls-1" x="11.9" y="29.4" width="1.7" height="2.1"/><rect class="cls-1" x="10.2" y="29.4" width="1.7" height="2.1"/><rect class="cls-1" x="8.5" y="29.4" width="1.7" height="2.1"/><rect class="cls-1" x="6.8" y="29.4" width="1.7" height="2.1"/><rect class="cls-1" x="5.1" y="29.4" width="1.7" height="2.1"/><rect class="cls-1" x="3.4" y="29.4" width="1.7" height="2.1"/><rect class="cls-1" x="1.7" y="29.4" width="1.7" height="2.1"/><rect class="cls-1" y="29.4" width="1.7" height="2.1"/><rect class="cls-1" x="42.5" y="27.3" width="1.7" height="2.1"/><rect class="cls-1" x="40.8" y="27.3" width="1.7" height="2.1"/><rect class="cls-1" x="39.1" y="27.3" width="1.7" height="2.1"/><rect class="cls-1" x="37.4" y="27.3" width="1.7" height="2.1"/><rect class="cls-1" x="35.7" y="27.3" width="1.7" height="2.1"/><rect class="cls-1" x="34" y="27.3" width="1.7" height="2.1"/><rect class="cls-1" x="32.3" y="27.3" width="1.7" height="2.1"/><rect class="cls-1" x="30.6" y="27.3" width="1.7" height="2.1"/><rect class="cls-1" x="28.9" y="27.3" width="1.7" height="2.1"/><rect class="cls-1" x="27.2" y="27.3" width="1.7" height="2.1"/><rect class="cls-1" x="25.5" y="27.3" width="1.7" height="2.1"/><rect class="cls-1" x="23.8" y="27.3" width="1.7" height="2.1"/><rect class="cls-1" x="22.1" y="27.3" width="1.7" height="2.1"/><rect class="cls-1" x="20.4" y="27.3" width="1.7" height="2.1"/><rect class="cls-1" x="18.7" y="27.3" width="1.7" height="2.1"/><rect class="cls-1" x="17" y="27.3" width="1.7" height="2.1"/><rect class="cls-1" x="15.3" y="27.3" width="1.7" height="2.1"/><rect class="cls-1" x="13.6" y="27.3" width="1.7" height="2.1"/><rect class="cls-1" x="11.9" y="27.3" width="1.7" height="2.1"/><rect class="cls-1" x="10.2" y="27.3" width="1.7" height="2.1"/><rect class="cls-1" x="8.5" y="27.3" width="1.7" height="2.1"/><rect class="cls-1" x="6.8" y="27.3" width="1.7" height="2.1"/><rect class="cls-1" x="5.1" y="27.3" width="1.7" height="2.1"/><rect class="cls-1" x="3.4" y="27.3" width="1.7" height="2.1"/><rect class="cls-1" x="1.7" y="27.3" width="1.7" height="2.1"/><rect class="cls-1" y="27.3" width="1.7" height="2.1"/><rect class="cls-1" x="42.5" y="25.2" width="1.7" height="2.1"/><rect class="cls-1" x="40.8" y="25.2" width="1.7" height="2.1"/><rect class="cls-1" x="39.1" y="25.2" width="1.7" height="2.1"/><rect class="cls-1" x="37.4" y="25.2" width="1.7" height="2.1"/><rect class="cls-1" x="35.7" y="25.2" width="1.7" height="2.1"/><rect class="cls-1" x="34" y="25.2" width="1.7" height="2.1"/><rect class="cls-1" x="32.3" y="25.2" width="1.7" height="2.1"/><rect class="cls-1" x="30.6" y="25.2" width="1.7" height="2.1"/><rect class="cls-1" x="28.9" y="25.2" width="1.7" height="2.1"/><rect class="cls-1" x="27.2" y="25.2" width="1.7" height="2.1"/><rect class="cls-1" x="25.5" y="25.2" width="1.7" height="2.1"/><rect class="cls-1" x="23.8" y="25.2" width="1.7" height="2.1"/><rect class="cls-1" x="22.1" y="25.2" width="1.7" height="2.1"/><rect class="cls-1" x="20.4" y="25.2" width="1.7" height="2.1"/><rect class="cls-1" x="18.7" y="25.2" width="1.7" height="2.1"/><rect class="cls-1" x="17" y="25.2" width="1.7" height="2.1"/><rect class="cls-1" x="15.3" y="25.2" width="1.7" height="2.1"/><rect class="cls-1" x="13.6" y="25.2" width="1.7" height="2.1"/><rect class="cls-1" x="11.9" y="25.2" width="1.7" height="2.1"/><rect class="cls-1" x="10.2" y="25.2" width="1.7" height="2.1"/><rect class="cls-1" x="8.5" y="25.2" width="1.7" height="2.1"/><rect class="cls-1" x="6.8" y="25.2" width="1.7" height="2.1"/><rect class="cls-1" x="5.1" y="25.2" width="1.7" height="2.1"/><rect class="cls-1" x="3.4" y="25.2" width="1.7" height="2.1"/><rect class="cls-1" x="1.7" y="25.2" width="1.7" height="2.1"/><rect class="cls-1" x="44.2" y="23.1" width="1.7" height="2.1"/><rect class="cls-1" x="42.5" y="23.1" width="1.7" height="2.1"/><rect class="cls-1" x="40.8" y="23.1" width="1.7" height="2.1"/><rect class="cls-1" x="39.1" y="23.1" width="1.7" height="2.1"/><rect class="cls-1" x="37.4" y="23.1" width="1.7" height="2.1"/><rect class="cls-1" x="35.7" y="23.1" width="1.7" height="2.1"/><rect class="cls-1" x="34" y="23.1" width="1.7" height="2.1"/><rect class="cls-1" x="32.3" y="23.1" width="1.7" height="2.1"/><rect class="cls-1" x="30.6" y="23.1" width="1.7" height="2.1"/><rect class="cls-1" x="28.9" y="23.1" width="1.7" height="2.1"/><rect class="cls-1" x="27.2" y="23.1" width="1.7" height="2.1"/><rect class="cls-1" x="25.5" y="23.1" width="1.7" height="2.1"/><rect class="cls-1" x="23.8" y="23.1" width="1.7" height="2.1"/><rect class="cls-1" x="22.1" y="23.1" width="1.7" height="2.1"/><rect class="cls-1" x="20.4" y="23.1" width="1.7" height="2.1"/><rect class="cls-1" x="18.7" y="23.1" width="1.7" height="2.1"/><rect class="cls-1" x="17" y="23.1" width="1.7" height="2.1"/><rect class="cls-1" x="15.3" y="23.1" width="1.7" height="2.1"/><rect class="cls-1" x="13.6" y="23.1" width="1.7" height="2.1"/><rect class="cls-1" x="11.9" y="23.1" width="1.7" height="2.1"/><rect class="cls-1" x="10.2" y="23.1" width="1.7" height="2.1"/><rect class="cls-1" x="8.5" y="23.1" width="1.7" height="2.1"/><rect class="cls-1" x="6.8" y="23.1" width="1.7" height="2.1"/><rect class="cls-1" x="5.1" y="23.1" width="1.7" height="2.1"/><rect class="cls-1" x="3.4" y="23.1" width="1.7" height="2.1"/><rect class="cls-1" x="1.7" y="23.1" width="1.7" height="2.1"/><rect class="cls-1" x="45.9" y="21" width="1.7" height="2.1"/><rect class="cls-1" x="44.2" y="21" width="1.7" height="2.1"/><rect class="cls-1" x="42.5" y="21" width="1.7" height="2.1"/><rect class="cls-1" x="40.8" y="21" width="1.7" height="2.1"/><rect class="cls-1" x="39.1" y="21" width="1.7" height="2.1"/><rect class="cls-1" x="37.4" y="21" width="1.7" height="2.1"/><rect class="cls-1" x="35.7" y="21" width="1.7" height="2.1"/><rect class="cls-1" x="34" y="21" width="1.7" height="2.1"/><rect class="cls-1" x="32.3" y="21" width="1.7" height="2.1"/><rect class="cls-1" x="30.6" y="21" width="1.7" height="2.1"/><rect class="cls-1" x="28.9" y="21" width="1.7" height="2.1"/><rect class="cls-1" x="27.2" y="21" width="1.7" height="2.1"/><rect class="cls-1" x="25.5" y="21" width="1.7" height="2.1"/><rect class="cls-1" x="23.8" y="21" width="1.7" height="2.1"/><rect class="cls-1" x="22.1" y="21" width="1.7" height="2.1"/><rect class="cls-1" x="20.4" y="21" width="1.7" height="2.1"/><rect class="cls-1" x="18.7" y="21" width="1.7" height="2.1"/><rect class="cls-1" x="17" y="21" width="1.7" height="2.1"/><rect class="cls-1" x="15.3" y="21" width="1.7" height="2.1"/><rect class="cls-1" x="13.6" y="21" width="1.7" height="2.1"/><rect class="cls-1" x="11.9" y="21" width="1.7" height="2.1"/><rect class="cls-1" x="10.2" y="21" width="1.7" height="2.1"/><rect class="cls-1" x="8.5" y="21" width="1.7" height="2.1"/><rect class="cls-1" x="6.8" y="21" width="1.7" height="2.1"/><rect class="cls-1" x="5.1" y="21" width="1.7" height="2.1"/><rect class="cls-1" x="3.4" y="21" width="1.7" height="2.1"/><rect class="cls-1" x="47.6" y="18.9" width="1.7" height="2.1"/><rect class="cls-1" x="45.9" y="18.9" width="1.7" height="2.1"/><rect class="cls-1" x="44.2" y="18.9" width="1.7" height="2.1"/><rect class="cls-1" x="42.5" y="18.9" width="1.7" height="2.1"/><rect class="cls-1" x="40.8" y="18.9" width="1.7" height="2.1"/><rect class="cls-1" x="39.1" y="18.9" width="1.7" height="2.1"/><rect class="cls-1" x="37.4" y="18.9" width="1.7" height="2.1"/><rect class="cls-1" x="35.7" y="18.9" width="1.7" height="2.1"/><rect class="cls-1" x="34" y="18.9" width="1.7" height="2.1"/><rect class="cls-1" x="32.3" y="18.9" width="1.7" height="2.1"/><rect class="cls-1" x="30.6" y="18.9" width="1.7" height="2.1"/><rect class="cls-1" x="28.9" y="18.9" width="1.7" height="2.1"/><rect class="cls-1" x="27.2" y="18.9" width="1.7" height="2.1"/><rect class="cls-1" x="25.5" y="18.9" width="1.7" height="2.1"/><rect class="cls-1" x="23.8" y="18.9" width="1.7" height="2.1"/><rect class="cls-1" x="22.1" y="18.9" width="1.7" height="2.1"/><rect class="cls-1" x="20.4" y="18.9" width="1.7" height="2.1"/><rect class="cls-1" x="18.7" y="18.9" width="1.7" height="2.1"/><rect class="cls-1" x="17" y="18.9" width="1.7" height="2.1"/><rect class="cls-1" x="15.3" y="18.9" width="1.7" height="2.1"/><rect class="cls-1" x="13.6" y="18.9" width="1.7" height="2.1"/><rect class="cls-1" x="11.9" y="18.9" width="1.7" height="2.1"/><rect class="cls-1" x="10.2" y="18.9" width="1.7" height="2.1"/><rect class="cls-1" x="8.5" y="18.9" width="1.7" height="2.1"/><rect class="cls-1" x="6.8" y="18.9" width="1.7" height="2.1"/><rect class="cls-1" x="5.1" y="18.9" width="1.7" height="2.1"/><rect class="cls-1" x="44.2" y="16.8" width="1.7" height="2.1"/><rect class="cls-1" x="42.5" y="16.8" width="1.7" height="2.1"/><rect class="cls-1" x="40.8" y="16.8" width="1.7" height="2.1"/><rect class="cls-1" x="39.1" y="16.8" width="1.7" height="2.1"/><rect class="cls-1" x="37.4" y="16.8" width="1.7" height="2.1"/><rect class="cls-1" x="35.7" y="16.8" width="1.7" height="2.1"/><rect class="cls-1" x="34" y="16.8" width="1.7" height="2.1"/><rect class="cls-1" x="32.3" y="16.8" width="1.7" height="2.1"/><rect class="cls-1" x="30.6" y="16.8" width="1.7" height="2.1"/><rect class="cls-1" x="28.9" y="16.8" width="1.7" height="2.1"/><rect class="cls-1" x="22.1" y="16.8" width="1.7" height="2.1"/><rect class="cls-1" x="20.4" y="16.8" width="1.7" height="2.1"/><rect class="cls-1" x="18.7" y="16.8" width="1.7" height="2.1"/><rect class="cls-1" x="17" y="16.8" width="1.7" height="2.1"/><rect class="cls-1" x="15.3" y="16.8" width="1.7" height="2.1"/><rect class="cls-1" x="13.6" y="16.8" width="1.7" height="2.1"/><rect class="cls-1" x="11.9" y="16.8" width="1.7" height="2.1"/><rect class="cls-1" x="10.2" y="16.8" width="1.7" height="2.1"/><rect class="cls-1" x="8.5" y="16.8" width="1.7" height="2.1"/><rect class="cls-1" x="40.8" y="14.7" width="1.7" height="2.1"/><rect class="cls-1" x="39.1" y="14.7" width="1.7" height="2.1"/><rect class="cls-1" x="37.4" y="14.7" width="1.7" height="2.1"/><rect class="cls-1" x="35.7" y="14.7" width="1.7" height="2.1"/><rect class="cls-1" x="34" y="14.7" width="1.7" height="2.1"/><rect class="cls-1" x="32.3" y="14.7" width="1.7" height="2.1"/><rect class="cls-1" x="17" y="14.7" width="1.7" height="2.1"/><rect class="cls-1" x="15.3" y="14.7" width="1.7" height="2.1"/><rect class="cls-1" x="13.6" y="14.7" width="1.7" height="2.1"/><rect class="cls-1" x="11.9" y="14.7" width="1.7" height="2.1"/><rect class="cls-1" x="10.2" y="14.7" width="1.7" height="2.1"/><rect class="cls-1" x="28.9" y="12.6" width="1.7" height="2.1"/><rect class="cls-1" x="27.2" y="12.6" width="1.7" height="2.1"/><rect class="cls-1" x="25.5" y="12.6" width="1.7" height="2.1"/><rect class="cls-1" x="32.3" y="10.5" width="1.7" height="2.1"/><rect class="cls-1" x="30.6" y="10.5" width="1.7" height="2.1"/><rect class="cls-1" x="28.9" y="10.5" width="1.7" height="2.1"/><rect class="cls-1" x="27.2" y="10.5" width="1.7" height="2.1"/><rect class="cls-1" x="25.5" y="10.5" width="1.7" height="2.1"/><rect class="cls-1" x="34" y="8.4" width="1.7" height="2.1"/><rect class="cls-1" x="32.3" y="8.4" width="1.7" height="2.1"/><rect class="cls-1" x="30.6" y="8.4" width="1.7" height="2.1"/><rect class="cls-1" x="28.9" y="8.4" width="1.7" height="2.1"/><rect class="cls-1" x="27.2" y="8.4" width="1.7" height="2.1"/><rect class="cls-1" x="25.5" y="8.4" width="1.7" height="2.1"/><rect class="cls-1" x="35.7" y="6.3" width="1.7" height="2.1"/><rect class="cls-1" x="34" y="6.3" width="1.7" height="2.1"/><rect class="cls-1" x="32.3" y="6.3" width="1.7" height="2.1"/><rect class="cls-1" x="30.6" y="6.3" width="1.7" height="2.1"/><rect class="cls-1" x="28.9" y="6.3" width="1.7" height="2.1"/><rect class="cls-1" x="27.2" y="6.3" width="1.7" height="2.1"/><rect class="cls-1" x="35.7" y="4.2" width="1.7" height="2.1"/><rect class="cls-1" x="34" y="4.2" width="1.7" height="2.1"/><rect class="cls-1" x="32.3" y="4.2" width="1.7" height="2.1"/><rect class="cls-1" x="30.6" y="4.2" width="1.7" height="2.1"/><rect class="cls-1" x="28.9" y="4.2" width="1.7" height="2.1"/><rect class="cls-1" x="37.4" y="2.1" width="1.7" height="2.1"/><rect class="cls-1" x="35.7" y="2.1" width="1.7" height="2.1"/><rect class="cls-1" x="34" y="2.1" width="1.7" height="2.1"/><rect class="cls-1" x="32.3" y="2.1" width="1.7" height="2.1"/><rect class="cls-1" x="30.6" y="2.1" width="1.7" height="2.1"/><rect class="cls-1" x="37.4" width="1.7" height="2.1"/><rect class="cls-1" x="35.7" width="1.7" height="2.1"/><rect class="cls-1" x="34" width="1.7" height="2.1"/><rect class="cls-1" x="18.7" y="60.9" width="1.7" height="2.1"/><rect class="cls-1" x="20.4" y="60.9" width="1.7" height="2.1"/><polyline class="cls-1" points="32.47 60.9 32.47 63 34.17 63 34.17 60.9"/><polyline class="cls-1" points="30.77 60.9 30.77 63 32.47 63 32.47 60.9"/><polyline class="cls-1" points="34.17 60.9 34.17 63 35.87 63 35.87 60.9"/><polyline class="cls-1" points="35.87 60.9 35.87 63 37.57 63 37.57 60.9"/><polyline class="cls-1" points="37.4 60.9 37.4 63 39.1 63 39.1 60.9"/><polyline class="cls-1" points="35.7 60.9 35.7 63 37.4 63 37.4 60.9"/><polyline class="cls-1" points="39.1 60.9 39.1 63 40.8 63 40.8 60.9"/><polyline class="cls-1" points="40.8 60.9 40.8 63 42.5 63 42.5 60.9"/><rect class="cls-1" x="4.85" y="34.63" width="1.7" height="2.1"/><rect class="cls-1" x="4.85" y="34.63" width="1.7" height="2.1"/></svg>