<svg id="Layer_1" data-name="Layer 1" xmlns="http://www.w3.org/2000/svg" viewBox="0 0 62 50"><defs><style>.cls-1{fill:#0e7900;}</style></defs><rect class="cls-1" x="35.13" y="48.33" width="2.07" height="1.67"/><rect class="cls-1" x="35.13" y="46.67" width="2.07" height="1.67"/><rect class="cls-1" x="33.07" y="46.67" width="2.07" height="1.67"/><rect class="cls-1" x="35.13" y="45" width="2.07" height="1.67"/><rect class="cls-1" x="33.07" y="45" width="2.07" height="1.67"/><rect class="cls-1" x="31" y="45" width="2.07" height="1.67"/><rect class="cls-1" x="53.73" y="43.33" width="2.07" height="1.67"/><rect class="cls-1" x="35.13" y="43.33" width="2.07" height="1.67"/><rect class="cls-1" x="33.07" y="43.33" width="2.07" height="1.67"/><rect class="cls-1" x="31" y="43.33" width="2.07" height="1.67"/><rect class="cls-1" x="28.93" y="43.33" width="2.07" height="1.67"/><rect class="cls-1" x="55.8" y="41.67" width="2.07" height="1.67"/><rect class="cls-1" x="53.73" y="41.67" width="2.07" height="1.67"/><rect class="cls-1" x="35.13" y="41.67" width="2.07" height="1.67"/><rect class="cls-1" x="33.07" y="41.67" width="2.07" height="1.67"/><rect class="cls-1" x="31" y="41.67" width="2.07" height="1.67"/><rect class="cls-1" x="28.93" y="41.67" width="2.07" height="1.67"/><rect class="cls-1" x="26.87" y="41.67" width="2.07" height="1.67"/><rect class="cls-1" x="55.8" y="40" width="2.07" height="1.67"/><rect class="cls-1" x="53.73" y="40" width="2.07" height="1.67"/><rect class="cls-1" x="47.53" y="40" width="2.07" height="1.67"/><rect class="cls-1" x="35.13" y="40" width="2.07" height="1.67"/><rect class="cls-1" x="33.07" y="40" width="2.07" height="1.67"/><rect class="cls-1" x="31" y="40" width="2.07" height="1.67"/><rect class="cls-1" x="28.93" y="40" width="2.07" height="1.67"/><rect class="cls-1" x="26.87" y="40" width="2.07" height="1.67"/><rect class="cls-1" x="24.8" y="40" width="2.07" height="1.67"/><rect class="cls-1" x="57.87" y="38.33" width="2.07" height="1.67"/><rect class="cls-1" x="55.8" y="38.33" width="2.07" height="1.67"/><rect class="cls-1" x="47.53" y="38.33" width="2.07" height="1.67"/><rect class="cls-1" x="35.13" y="38.33" width="2.07" height="1.67"/><rect class="cls-1" x="33.07" y="38.33" width="2.07" height="1.67"/><rect class="cls-1" x="31" y="38.33" width="2.07" height="1.67"/><rect class="cls-1" x="28.93" y="38.33" width="2.07" height="1.67"/><rect class="cls-1" x="26.87" y="38.33" width="2.07" height="1.67"/><rect class="cls-1" x="24.8" y="38.33" width="2.07" height="1.67"/><rect class="cls-1" x="57.87" y="36.67" width="2.07" height="1.67"/><rect class="cls-1" x="49.6" y="36.67" width="2.07" height="1.67"/><rect class="cls-1" x="39.27" y="36.67" width="2.07" height="1.67"/><rect class="cls-1" x="35.13" y="36.67" width="2.07" height="1.67"/><rect class="cls-1" x="33.07" y="36.67" width="2.07" height="1.67"/><rect class="cls-1" x="31" y="36.67" width="2.07" height="1.67"/><rect class="cls-1" x="28.93" y="36.67" width="2.07" height="1.67"/><rect class="cls-1" x="26.87" y="36.67" width="2.07" height="1.67"/><rect class="cls-1" x="24.8" y="36.67" width="2.07" height="1.67"/><rect class="cls-1" x="22.73" y="36.67" width="2.07" height="1.67"/><rect class="cls-1" x="20.67" y="36.67" width="2.07" height="1.67"/><rect class="cls-1" x="57.87" y="35" width="2.07" height="1.67"/><rect class="cls-1" x="51.67" y="35" width="2.07" height="1.67"/><rect class="cls-1" x="49.6" y="35" width="2.07" height="1.67"/><rect class="cls-1" x="41.33" y="35" width="2.07" height="1.67"/><rect class="cls-1" x="39.27" y="35" width="2.07" height="1.67"/><rect class="cls-1" x="35.13" y="35" width="2.07" height="1.67"/><rect class="cls-1" x="33.07" y="35" width="2.07" height="1.67"/><rect class="cls-1" x="31" y="35" width="2.07" height="1.67"/><rect class="cls-1" x="28.93" y="35" width="2.07" height="1.67"/><rect class="cls-1" x="26.87" y="35" width="2.07" height="1.67"/><rect class="cls-1" x="24.8" y="35" width="2.07" height="1.67"/><rect class="cls-1" x="22.73" y="35" width="2.07" height="1.67"/><rect class="cls-1" x="20.67" y="35" width="2.07" height="1.67"/><rect class="cls-1" x="18.6" y="35" width="2.07" height="1.67"/><rect class="cls-1" x="16.53" y="35" width="2.07" height="1.67"/><rect class="cls-1" x="14.47" y="35" width="2.07" height="1.67"/><rect class="cls-1" x="10.33" y="35" width="2.07" height="1.67"/><rect class="cls-1" x="8.27" y="35" width="2.07" height="1.67"/><rect class="cls-1" x="6.2" y="35" width="2.07" height="1.67"/><rect class="cls-1" x="4.13" y="35" width="2.07" height="1.67"/><rect class="cls-1" x="59.93" y="33.33" width="2.07" height="1.67"/><rect class="cls-1" x="57.87" y="33.33" width="2.07" height="1.67"/><rect class="cls-1" x="51.67" y="33.33" width="2.07" height="1.67"/><rect class="cls-1" x="43.4" y="33.33" width="2.07" height="1.67"/><rect class="cls-1" x="41.33" y="33.33" width="2.07" height="1.67"/><rect class="cls-1" x="35.13" y="33.33" width="2.07" height="1.67"/><rect class="cls-1" x="33.07" y="33.33" width="2.07" height="1.67"/><rect class="cls-1" x="31" y="33.33" width="2.07" height="1.67"/><rect class="cls-1" x="28.93" y="33.33" width="2.07" height="1.67"/><rect class="cls-1" x="26.87" y="33.33" width="2.07" height="1.67"/><rect class="cls-1" x="24.8" y="33.33" width="2.07" height="1.67"/><rect class="cls-1" x="22.73" y="33.33" width="2.07" height="1.67"/><rect class="cls-1" x="20.67" y="33.33" width="2.07" height="1.67"/><rect class="cls-1" x="18.6" y="33.33" width="2.07" height="1.67"/><rect class="cls-1" x="16.53" y="33.33" width="2.07" height="1.67"/><rect class="cls-1" x="14.47" y="33.33" width="2.07" height="1.67"/><rect class="cls-1" x="10.33" y="33.33" width="2.07" height="1.67"/><rect class="cls-1" x="8.27" y="33.33" width="2.07" height="1.67"/><rect class="cls-1" x="6.2" y="33.33" width="2.07" height="1.67"/><rect class="cls-1" x="4.13" y="33.33" width="2.07" height="1.67"/><rect class="cls-1" x="2.07" y="33.33" width="2.07" height="1.67"/><rect class="cls-1" x="59.93" y="31.67" width="2.07" height="1.67"/><rect class="cls-1" x="51.67" y="31.67" width="2.07" height="1.67"/><rect class="cls-1" x="45.47" y="31.67" width="2.07" height="1.67"/><rect class="cls-1" x="43.4" y="31.67" width="2.07" height="1.67"/><rect class="cls-1" x="35.13" y="31.67" width="2.07" height="1.67"/><rect class="cls-1" x="33.07" y="31.67" width="2.07" height="1.67"/><rect class="cls-1" x="31" y="31.67" width="2.07" height="1.67"/><rect class="cls-1" x="28.93" y="31.67" width="2.07" height="1.67"/><rect class="cls-1" x="26.87" y="31.67" width="2.07" height="1.67"/><rect class="cls-1" x="24.8" y="31.67" width="2.07" height="1.67"/><rect class="cls-1" x="22.73" y="31.67" width="2.07" height="1.67"/><rect class="cls-1" x="20.67" y="31.67" width="2.07" height="1.67"/><rect class="cls-1" x="18.6" y="31.67" width="2.07" height="1.67"/><rect class="cls-1" x="16.53" y="31.67" width="2.07" height="1.67"/><rect class="cls-1" x="14.47" y="31.67" width="2.07" height="1.67"/><rect class="cls-1" x="10.33" y="31.67" width="2.07" height="1.67"/><rect class="cls-1" x="8.27" y="31.67" width="2.07" height="1.67"/><rect class="cls-1" x="6.2" y="31.67" width="2.07" height="1.67"/><rect class="cls-1" x="4.13" y="31.67" width="2.07" height="1.67"/><rect class="cls-1" x="2.07" y="31.67" width="2.07" height="1.67"/><rect class="cls-1" y="31.67" width="2.07" height="1.67"/><rect class="cls-1" x="59.93" y="30" width="2.07" height="1.67"/><rect class="cls-1" x="53.73" y="30" width="2.07" height="1.67"/><rect class="cls-1" x="51.67" y="30" width="2.07" height="1.67"/><rect class="cls-1" x="45.47" y="30" width="2.07" height="1.67"/><rect class="cls-1" x="35.13" y="30" width="2.07" height="1.67"/><rect class="cls-1" x="33.07" y="30" width="2.07" height="1.67"/><rect class="cls-1" x="31" y="30" width="2.07" height="1.67"/><rect class="cls-1" x="28.93" y="30" width="2.07" height="1.67"/><rect class="cls-1" x="26.87" y="30" width="2.07" height="1.67"/><rect class="cls-1" x="24.8" y="30" width="2.07" height="1.67"/><rect class="cls-1" x="22.73" y="30" width="2.07" height="1.67"/><rect class="cls-1" x="20.67" y="30" width="2.07" height="1.67"/><rect class="cls-1" x="18.6" y="30" width="2.07" height="1.67"/><rect class="cls-1" x="16.53" y="30" width="2.07" height="1.67"/><rect class="cls-1" x="14.47" y="30" width="2.07" height="1.67"/><rect class="cls-1" x="10.33" y="30" width="2.07" height="1.67"/><rect class="cls-1" x="8.27" y="30" width="2.07" height="1.67"/><rect class="cls-1" x="6.2" y="30" width="2.07" height="1.67"/><rect class="cls-1" x="4.13" y="30" width="2.07" height="1.67"/><rect class="cls-1" x="2.07" y="30" width="2.07" height="1.67"/><rect class="cls-1" y="30" width="2.07" height="1.67"/><rect class="cls-1" x="59.93" y="28.33" width="2.07" height="1.67"/><rect class="cls-1" x="53.73" y="28.33" width="2.07" height="1.67"/><rect class="cls-1" x="51.67" y="28.33" width="2.07" height="1.67"/><rect class="cls-1" x="45.47" y="28.33" width="2.07" height="1.67"/><rect class="cls-1" x="35.13" y="28.33" width="2.07" height="1.67"/><rect class="cls-1" x="33.07" y="28.33" width="2.07" height="1.67"/><rect class="cls-1" x="31" y="28.33" width="2.07" height="1.67"/><rect class="cls-1" x="28.93" y="28.33" width="2.07" height="1.67"/><rect class="cls-1" x="26.87" y="28.33" width="2.07" height="1.67"/><rect class="cls-1" x="24.8" y="28.33" width="2.07" height="1.67"/><rect class="cls-1" x="22.73" y="28.33" width="2.07" height="1.67"/><rect class="cls-1" x="20.67" y="28.33" width="2.07" height="1.67"/><rect class="cls-1" x="18.6" y="28.33" width="2.07" height="1.67"/><rect class="cls-1" x="16.53" y="28.33" width="2.07" height="1.67"/><rect class="cls-1" x="14.47" y="28.33" width="2.07" height="1.67"/><rect class="cls-1" x="10.33" y="28.33" width="2.07" height="1.67"/><rect class="cls-1" x="8.27" y="28.33" width="2.07" height="1.67"/><rect class="cls-1" x="6.2" y="28.33" width="2.07" height="1.67"/><rect class="cls-1" x="4.13" y="28.33" width="2.07" height="1.67"/><rect class="cls-1" x="2.07" y="28.33" width="2.07" height="1.67"/><rect class="cls-1" y="28.33" width="2.07" height="1.67"/><rect class="cls-1" x="59.93" y="26.67" width="2.07" height="1.67"/><rect class="cls-1" x="53.73" y="26.67" width="2.07" height="1.67"/><rect class="cls-1" x="45.47" y="26.67" width="2.07" height="1.67"/><rect class="cls-1" x="35.13" y="26.67" width="2.07" height="1.67"/><rect class="cls-1" x="33.07" y="26.67" width="2.07" height="1.67"/><rect class="cls-1" x="31" y="26.67" width="2.07" height="1.67"/><rect class="cls-1" x="28.93" y="26.67" width="2.07" height="1.67"/><rect class="cls-1" x="26.87" y="26.67" width="2.07" height="1.67"/><rect class="cls-1" x="24.8" y="26.67" width="2.07" height="1.67"/><rect class="cls-1" x="22.73" y="26.67" width="2.07" height="1.67"/><rect class="cls-1" x="20.67" y="26.67" width="2.07" height="1.67"/><rect class="cls-1" x="18.6" y="26.67" width="2.07" height="1.67"/><rect class="cls-1" x="16.53" y="26.67" width="2.07" height="1.67"/><rect class="cls-1" x="14.47" y="26.67" width="2.07" height="1.67"/><rect class="cls-1" x="10.33" y="26.67" width="2.07" height="1.67"/><rect class="cls-1" x="8.27" y="26.67" width="2.07" height="1.67"/><rect class="cls-1" x="6.2" y="26.67" width="2.07" height="1.67"/><rect class="cls-1" x="4.13" y="26.67" width="2.07" height="1.67"/><rect class="cls-1" x="2.07" y="26.67" width="2.07" height="1.67"/><rect class="cls-1" y="26.67" width="2.07" height="1.67"/><rect class="cls-1" x="59.93" y="25" width="2.07" height="1.67"/><rect class="cls-1" x="53.73" y="25" width="2.07" height="1.67"/><rect class="cls-1" x="45.47" y="25" width="2.07" height="1.67"/><rect class="cls-1" x="35.13" y="25" width="2.07" height="1.67"/><rect class="cls-1" x="33.07" y="25" width="2.07" height="1.67"/><rect class="cls-1" x="31" y="25" width="2.07" height="1.67"/><rect class="cls-1" x="28.93" y="25" width="2.07" height="1.67"/><rect class="cls-1" x="26.87" y="25" width="2.07" height="1.67"/><rect class="cls-1" x="24.8" y="25" width="2.07" height="1.67"/><rect class="cls-1" x="22.73" y="25" width="2.07" height="1.67"/><rect class="cls-1" x="20.67" y="25" width="2.07" height="1.67"/><rect class="cls-1" x="18.6" y="25" width="2.07" height="1.67"/><rect class="cls-1" x="16.53" y="25" width="2.07" height="1.67"/><rect class="cls-1" x="14.47" y="25" width="2.07" height="1.67"/><rect class="cls-1" x="10.33" y="25" width="2.07" height="1.67"/><rect class="cls-1" x="8.27" y="25" width="2.07" height="1.67"/><rect class="cls-1" x="6.2" y="25" width="2.07" height="1.67"/><rect class="cls-1" x="4.13" y="25" width="2.07" height="1.67"/><rect class="cls-1" x="2.07" y="25" width="2.07" height="1.67"/><rect class="cls-1" y="25" width="2.07" height="1.67"/><rect class="cls-1" x="59.93" y="23.33" width="2.07" height="1.67"/><rect class="cls-1" x="53.73" y="23.33" width="2.07" height="1.67"/><rect class="cls-1" x="45.47" y="23.33" width="2.07" height="1.67"/><rect class="cls-1" x="35.13" y="23.33" width="2.07" height="1.67"/><rect class="cls-1" x="33.07" y="23.33" width="2.07" height="1.67"/><rect class="cls-1" x="31" y="23.33" width="2.07" height="1.67"/><rect class="cls-1" x="28.93" y="23.33" width="2.07" height="1.67"/><rect class="cls-1" x="26.87" y="23.33" width="2.07" height="1.67"/><rect class="cls-1" x="24.8" y="23.33" width="2.07" height="1.67"/><rect class="cls-1" x="22.73" y="23.33" width="2.07" height="1.67"/><rect class="cls-1" x="20.67" y="23.33" width="2.07" height="1.67"/><rect class="cls-1" x="18.6" y="23.33" width="2.07" height="1.67"/><rect class="cls-1" x="16.53" y="23.33" width="2.07" height="1.67"/><rect class="cls-1" x="14.47" y="23.33" width="2.07" height="1.67"/><rect class="cls-1" x="10.33" y="23.33" width="2.07" height="1.67"/><rect class="cls-1" x="8.27" y="23.33" width="2.07" height="1.67"/><rect class="cls-1" x="6.2" y="23.33" width="2.07" height="1.67"/><rect class="cls-1" x="4.13" y="23.33" width="2.07" height="1.67"/><rect class="cls-1" x="2.07" y="23.33" width="2.07" height="1.67"/><rect class="cls-1" y="23.33" width="2.07" height="1.67"/><rect class="cls-1" x="59.93" y="21.67" width="2.07" height="1.67"/><rect class="cls-1" x="53.73" y="21.67" width="2.07" height="1.67"/><rect class="cls-1" x="45.47" y="21.67" width="2.07" height="1.67"/><rect class="cls-1" x="35.13" y="21.67" width="2.07" height="1.67"/><rect class="cls-1" x="33.07" y="21.67" width="2.07" height="1.67"/><rect class="cls-1" x="31" y="21.67" width="2.07" height="1.67"/><rect class="cls-1" x="28.93" y="21.67" width="2.07" height="1.67"/><rect class="cls-1" x="26.87" y="21.67" width="2.07" height="1.67"/><rect class="cls-1" x="24.8" y="21.67" width="2.07" height="1.67"/><rect class="cls-1" x="22.73" y="21.67" width="2.07" height="1.67"/><rect class="cls-1" x="20.67" y="21.67" width="2.07" height="1.67"/><rect class="cls-1" x="18.6" y="21.67" width="2.07" height="1.67"/><rect class="cls-1" x="16.53" y="21.67" width="2.07" height="1.67"/><rect class="cls-1" x="14.47" y="21.67" width="2.07" height="1.67"/><rect class="cls-1" x="10.33" y="21.67" width="2.07" height="1.67"/><rect class="cls-1" x="8.27" y="21.67" width="2.07" height="1.67"/><rect class="cls-1" x="6.2" y="21.67" width="2.07" height="1.67"/><rect class="cls-1" x="4.13" y="21.67" width="2.07" height="1.67"/><rect class="cls-1" x="2.07" y="21.67" width="2.07" height="1.67"/><rect class="cls-1" y="21.67" width="2.07" height="1.67"/><rect class="cls-1" x="59.93" y="20" width="2.07" height="1.67"/><rect class="cls-1" x="53.73" y="20" width="2.07" height="1.67"/><rect class="cls-1" x="51.67" y="20" width="2.07" height="1.67"/><rect class="cls-1" x="45.47" y="20" width="2.07" height="1.67"/><rect class="cls-1" x="35.13" y="20" width="2.07" height="1.67"/><rect class="cls-1" x="33.07" y="20" width="2.07" height="1.67"/><rect class="cls-1" x="31" y="20" width="2.07" height="1.67"/><rect class="cls-1" x="28.93" y="20" width="2.07" height="1.67"/><rect class="cls-1" x="26.87" y="20" width="2.07" height="1.67"/><rect class="cls-1" x="24.8" y="20" width="2.07" height="1.67"/><rect class="cls-1" x="22.73" y="20" width="2.07" height="1.67"/><rect class="cls-1" x="20.67" y="20" width="2.07" height="1.67"/><rect class="cls-1" x="18.6" y="20" width="2.07" height="1.67"/><rect class="cls-1" x="16.53" y="20" width="2.07" height="1.67"/><rect class="cls-1" x="14.47" y="20" width="2.07" height="1.67"/><rect class="cls-1" x="10.33" y="20" width="2.07" height="1.67"/><rect class="cls-1" x="8.27" y="20" width="2.07" height="1.67"/><rect class="cls-1" x="6.2" y="20" width="2.07" height="1.67"/><rect class="cls-1" x="4.13" y="20" width="2.07" height="1.67"/><rect class="cls-1" x="2.07" y="20" width="2.07" height="1.67"/><rect class="cls-1" y="20" width="2.07" height="1.67"/><rect class="cls-1" x="59.93" y="18.33" width="2.07" height="1.67"/><rect class="cls-1" x="53.73" y="18.33" width="2.07" height="1.67"/><rect class="cls-1" x="51.67" y="18.33" width="2.07" height="1.67"/><rect class="cls-1" x="45.47" y="18.33" width="2.07" height="1.67"/><rect class="cls-1" x="43.4" y="18.33" width="2.07" height="1.67"/><rect class="cls-1" x="35.13" y="18.33" width="2.07" height="1.67"/><rect class="cls-1" x="33.07" y="18.33" width="2.07" height="1.67"/><rect class="cls-1" x="31" y="18.33" width="2.07" height="1.67"/><rect class="cls-1" x="28.93" y="18.33" width="2.07" height="1.67"/><rect class="cls-1" x="26.87" y="18.33" width="2.07" height="1.67"/><rect class="cls-1" x="24.8" y="18.33" width="2.07" height="1.67"/><rect class="cls-1" x="22.73" y="18.33" width="2.07" height="1.67"/><rect class="cls-1" x="20.67" y="18.33" width="2.07" height="1.67"/><rect class="cls-1" x="18.6" y="18.33" width="2.07" height="1.67"/><rect class="cls-1" x="16.53" y="18.33" width="2.07" height="1.67"/><rect class="cls-1" x="14.47" y="18.33" width="2.07" height="1.67"/><rect class="cls-1" x="10.33" y="18.33" width="2.07" height="1.67"/><rect class="cls-1" x="8.27" y="18.33" width="2.07" height="1.67"/><rect class="cls-1" x="6.2" y="18.33" width="2.07" height="1.67"/><rect class="cls-1" x="4.13" y="18.33" width="2.07" height="1.67"/><rect class="cls-1" x="2.07" y="18.33" width="2.07" height="1.67"/><rect class="cls-1" y="18.33" width="2.07" height="1.67"/><rect class="cls-1" x="59.93" y="16.67" width="2.07" height="1.67"/><rect class="cls-1" x="57.87" y="16.67" width="2.07" height="1.67"/><rect class="cls-1" x="51.67" y="16.67" width="2.07" height="1.67"/><rect class="cls-1" x="45.47" y="16.67" width="2.07" height="1.67"/><rect class="cls-1" x="43.4" y="16.67" width="2.07" height="1.67"/><rect class="cls-1" x="35.13" y="16.67" width="2.07" height="1.67"/><rect class="cls-1" x="33.07" y="16.67" width="2.07" height="1.67"/><rect class="cls-1" x="31" y="16.67" width="2.07" height="1.67"/><rect class="cls-1" x="28.93" y="16.67" width="2.07" height="1.67"/><rect class="cls-1" x="26.87" y="16.67" width="2.07" height="1.67"/><rect class="cls-1" x="24.8" y="16.67" width="2.07" height="1.67"/><rect class="cls-1" x="22.73" y="16.67" width="2.07" height="1.67"/><rect class="cls-1" x="20.67" y="16.67" width="2.07" height="1.67"/><rect class="cls-1" x="18.6" y="16.67" width="2.07" height="1.67"/><rect class="cls-1" x="16.53" y="16.67" width="2.07" height="1.67"/><rect class="cls-1" x="14.47" y="16.67" width="2.07" height="1.67"/><rect class="cls-1" x="10.33" y="16.67" width="2.07" height="1.67"/><rect class="cls-1" x="8.27" y="16.67" width="2.07" height="1.67"/><rect class="cls-1" x="6.2" y="16.67" width="2.07" height="1.67"/><rect class="cls-1" x="4.13" y="16.67" width="2.07" height="1.67"/><rect class="cls-1" x="2.07" y="16.67" width="2.07" height="1.67"/><rect class="cls-1" y="16.67" width="2.07" height="1.67"/><rect class="cls-1" x="59.93" y="15" width="2.07" height="1.67"/><rect class="cls-1" x="57.87" y="15" width="2.07" height="1.67"/><rect class="cls-1" x="51.67" y="15" width="2.07" height="1.67"/><rect class="cls-1" x="43.4" y="15" width="2.07" height="1.67"/><rect class="cls-1" x="41.33" y="15" width="2.07" height="1.67"/><rect class="cls-1" x="35.13" y="15" width="2.07" height="1.67"/><rect class="cls-1" x="33.07" y="15" width="2.07" height="1.67"/><rect class="cls-1" x="31" y="15" width="2.07" height="1.67"/><rect class="cls-1" x="28.93" y="15" width="2.07" height="1.67"/><rect class="cls-1" x="26.87" y="15" width="2.07" height="1.67"/><rect class="cls-1" x="24.8" y="15" width="2.07" height="1.67"/><rect class="cls-1" x="22.73" y="15" width="2.07" height="1.67"/><rect class="cls-1" x="20.67" y="15" width="2.07" height="1.67"/><rect class="cls-1" x="18.6" y="15" width="2.07" height="1.67"/><rect class="cls-1" x="16.53" y="15" width="2.07" height="1.67"/><rect class="cls-1" x="14.47" y="15" width="2.07" height="1.67"/><rect class="cls-1" x="10.33" y="15" width="2.07" height="1.67"/><rect class="cls-1" x="8.27" y="15" width="2.07" height="1.67"/><rect class="cls-1" x="6.2" y="15" width="2.07" height="1.67"/><rect class="cls-1" x="4.13" y="15" width="2.07" height="1.67"/><rect class="cls-1" x="2.07" y="15" width="2.07" height="1.67"/><rect class="cls-1" x="57.87" y="13.33" width="2.07" height="1.67"/><rect class="cls-1" x="51.67" y="13.33" width="2.07" height="1.67"/><rect class="cls-1" x="49.6" y="13.33" width="2.07" height="1.67"/><rect class="cls-1" x="41.33" y="13.33" width="2.07" height="1.67"/><rect class="cls-1" x="39.27" y="13.33" width="2.07" height="1.67"/><rect class="cls-1" x="35.13" y="13.33" width="2.07" height="1.67"/><rect class="cls-1" x="33.07" y="13.33" width="2.07" height="1.67"/><rect class="cls-1" x="31" y="13.33" width="2.07" height="1.67"/><rect class="cls-1" x="28.93" y="13.33" width="2.07" height="1.67"/><rect class="cls-1" x="26.87" y="13.33" width="2.07" height="1.67"/><rect class="cls-1" x="24.8" y="13.33" width="2.07" height="1.67"/><rect class="cls-1" x="22.73" y="13.33" width="2.07" height="1.67"/><rect class="cls-1" x="20.67" y="13.33" width="2.07" height="1.67"/><rect class="cls-1" x="18.6" y="13.33" width="2.07" height="1.67"/><rect class="cls-1" x="16.53" y="13.33" width="2.07" height="1.67"/><rect class="cls-1" x="14.47" y="13.33" width="2.07" height="1.67"/><rect class="cls-1" x="10.33" y="13.33" width="2.07" height="1.67"/><rect class="cls-1" x="8.27" y="13.33" width="2.07" height="1.67"/><rect class="cls-1" x="6.2" y="13.33" width="2.07" height="1.67"/><rect class="cls-1" x="4.13" y="13.33" width="2.07" height="1.67"/><rect class="cls-1" x="57.87" y="11.67" width="2.07" height="1.67"/><rect class="cls-1" x="49.6" y="11.67" width="2.07" height="1.67"/><rect class="cls-1" x="39.27" y="11.67" width="2.07" height="1.67"/><rect class="cls-1" x="35.13" y="11.67" width="2.07" height="1.67"/><rect class="cls-1" x="33.07" y="11.67" width="2.07" height="1.67"/><rect class="cls-1" x="31" y="11.67" width="2.07" height="1.67"/><rect class="cls-1" x="28.93" y="11.67" width="2.07" height="1.67"/><rect class="cls-1" x="26.87" y="11.67" width="2.07" height="1.67"/><rect class="cls-1" x="24.8" y="11.67" width="2.07" height="1.67"/><rect class="cls-1" x="22.73" y="11.67" width="2.07" height="1.67"/><rect class="cls-1" x="20.67" y="11.67" width="2.07" height="1.67"/><rect class="cls-1" x="55.8" y="10" width="2.07" height="1.67"/><rect class="cls-1" x="47.53" y="10" width="2.07" height="1.67"/><rect class="cls-1" x="35.13" y="10" width="2.07" height="1.67"/><rect class="cls-1" x="33.07" y="10" width="2.07" height="1.67"/><rect class="cls-1" x="31" y="10" width="2.07" height="1.67"/><rect class="cls-1" x="28.93" y="10" width="2.07" height="1.67"/><rect class="cls-1" x="26.87" y="10" width="2.07" height="1.67"/><rect class="cls-1" x="24.8" y="10" width="2.07" height="1.67"/><rect class="cls-1" x="22.73" y="10" width="2.07" height="1.67"/><rect class="cls-1" x="55.8" y="8.33" width="2.07" height="1.67"/><rect class="cls-1" x="47.53" y="8.33" width="2.07" height="1.67"/><rect class="cls-1" x="35.13" y="8.33" width="2.07" height="1.67"/><rect class="cls-1" x="33.07" y="8.33" width="2.07" height="1.67"/><rect class="cls-1" x="31" y="8.33" width="2.07" height="1.67"/><rect class="cls-1" x="28.93" y="8.33" width="2.07" height="1.67"/><rect class="cls-1" x="26.87" y="8.33" width="2.07" height="1.67"/><rect class="cls-1" x="24.8" y="8.33" width="2.07" height="1.67"/><rect class="cls-1" x="55.8" y="6.67" width="2.07" height="1.67"/><rect class="cls-1" x="53.73" y="6.67" width="2.07" height="1.67"/><rect class="cls-1" x="35.13" y="6.67" width="2.07" height="1.67"/><rect class="cls-1" x="33.07" y="6.67" width="2.07" height="1.67"/><rect class="cls-1" x="31" y="6.67" width="2.07" height="1.67"/><rect class="cls-1" x="28.93" y="6.67" width="2.07" height="1.67"/><rect class="cls-1" x="26.87" y="6.67" width="2.07" height="1.67"/><rect class="cls-1" x="53.73" y="5" width="2.07" height="1.67"/><rect class="cls-1" x="35.13" y="5" width="2.07" height="1.67"/><rect class="cls-1" x="33.07" y="5" width="2.07" height="1.67"/><rect class="cls-1" x="31" y="5" width="2.07" height="1.67"/><rect class="cls-1" x="28.93" y="5" width="2.07" height="1.67"/><rect class="cls-1" x="35.13" y="3.33" width="2.07" height="1.67"/><rect class="cls-1" x="33.07" y="3.33" width="2.07" height="1.67"/><rect class="cls-1" x="31" y="3.33" width="2.07" height="1.67"/><rect class="cls-1" x="35.13" y="1.67" width="2.07" height="1.67"/><rect class="cls-1" x="33.07" y="1.67" width="2.07" height="1.67"/><rect class="cls-1" x="35.13" width="2.07" height="1.67"/><rect class="cls-1" x="22.73" y="38.33" width="2.07" height="1.67"/></svg>