<svg id="Layer_1" data-name="Layer 1" xmlns="http://www.w3.org/2000/svg" viewBox="0 0 47.8 7.52"><defs><style>.cls-1{fill:#26763b;}</style></defs><path class="cls-1" d="M0,7.52v-1H.76v1Zm.87,0v-1h.76v1ZM0,6.43v-1H.76v1Zm.87,0v-1h.76v1ZM0,5.34v-1H.76v1Zm.87,0v-1h.76v1Zm.88,0v-1h.76v1Zm.87,0v-1h.76v1ZM0,4.25v-1H.76v1Zm.87,0v-1h.76v1Zm1.75,0v-1h.76v1Zm.87,0v-1h.76v1ZM0,3.15v-1H.76v1Zm.87,0v-1h.76v1Zm1.75,0v-1h.76v1Zm.87,0v-1h.76v1ZM0,2.06v-1H.76v1Zm.87,0v-1h.76v1Zm1.75,0v-1h.76v1Zm.87,0v-1h.76v1ZM0,1V0H.76V1ZM.87,1V0h.76V1Zm.88,0V0h.76V1Zm.87,0V0h.76V1Z"/><path class="cls-1" d="M5.33,7.52v-1h.76v1Zm.87,0v-1H7v1ZM5.33,6.43v-1h.76v1Zm.87,0v-1H7v1ZM5.33,5.34v-1h.76v1Zm.87,0v-1H7v1ZM5.33,4.25v-1h.76v1Zm.87,0v-1H7v1Zm.87,0v-1h.76v1Zm.87,0v-1h.77v1ZM5.33,3.15v-1h.76v1Zm.87,0v-1H7v1Zm1.74,0v-1h.77v1Z"/><path class="cls-1" d="M10.62,7.52v-1h.76v1Zm.87,0v-1h.76v1Zm.87,0v-1h.77v1Zm.88,0v-1H14v1ZM9.75,6.43v-1h.76v1Zm.87,0v-1h.76v1ZM9.75,5.34v-1h.76v1Zm.87,0v-1h.76v1Zm.87,0v-1h.76v1Zm.87,0v-1h.77v1Zm.88,0v-1H14v1ZM9.75,4.25v-1h.76v1Zm.87,0v-1h.76v1Zm1.74,0v-1h.77v1Zm.88,0v-1H14v1Zm-2.62-1.1v-1h.76v1Zm.87,0v-1h.76v1Zm.87,0v-1h.77v1Z"/><path class="cls-1" d="M16.77,7.52v-1h.76v1Zm-.88-1.09v-1h.76v1Zm.88,0v-1h.76v1Zm.87,0v-1h.76v1ZM15.89,5.34v-1h.76v1Zm.88,0v-1h.76v1Zm.87,0v-1h.76v1ZM15,4.25v-1h.76v1Zm.87,0v-1h.76v1Zm1.75,0v-1h.76v1Zm.87,0v-1h.76v1ZM15,3.15v-1h.76v1Zm.87,0v-1h.76v1Zm1.75,0v-1h.76v1Zm.87,0v-1h.76v1Z"/><path class="cls-1" d="M20.46,7.52v-1h.77v1Zm.88,0v-1h.76v1Zm-.88-1.09v-1h.77v1Zm.88,0v-1h.76v1Zm-.88-1.09v-1h.77v1Zm.88,0v-1h.76v1Zm-.88-1.09v-1h.77v1Zm.88,0v-1h.76v1Zm-.88-1.1v-1h.77v1Zm.88,0v-1h.76v1ZM20.46,1V0h.77V1Zm.88,0V0h.76V1Z"/><path class="cls-1" d="M24.22,7.52v-1H25v1Zm.87,0v-1h.76v1Zm.87,0v-1h.76v1Zm.87,0v-1h.77v1ZM23.34,6.43v-1h.77v1Zm.88,0v-1H25v1Zm-.88-1.09v-1h.77v1Zm.88,0v-1H25v1Zm.87,0v-1h.76v1Zm.87,0v-1h.76v1Zm.87,0v-1h.77v1ZM23.34,4.25v-1h.77v1Zm.88,0v-1H25v1Zm1.74,0v-1h.76v1Zm.87,0v-1h.77v1Zm-2.61-1.1v-1H25v1Zm.87,0v-1h.76v1Zm.87,0v-1h.76v1Z"/><path class="cls-1" d="M29.57,7.52v-1h.76v1Zm.87,0v-1h.76v1Zm1.75,0v-1H33v1Zm.87,0v-1h.76v1ZM29.57,6.43v-1h.76v1Zm.87,0v-1h.76v1Zm.87,0v-1h.77v1Zm.88,0v-1H33v1Zm.87,0v-1h.76v1ZM28.7,5.34v-1h.76v1Zm.87,0v-1h.76v1Zm1.74,0v-1h.77v1Zm1.75,0v-1h.76v1ZM28.7,4.25v-1h.76v1Zm.87,0v-1h.76v1Zm1.74,0v-1h.77v1Zm1.75,0v-1h.76v1ZM28.7,3.15v-1h.76v1Zm.87,0v-1h.76v1Zm3.49,0v-1h.76v1Zm.87,2.19v-1h.76v1Zm0-1.09v-1h.76v1Zm0-1.1v-1h.76v1Z"/><path class="cls-1" d="M37.93,7.52v-1h.76v1Zm.87,0v-1h.76v1Zm.87,0v-1h.76v1Zm.87,0v-1h.77v1ZM37.05,6.43v-1h.77v1Zm.88,0v-1h.76v1Zm2.61,0v-1h.77v1Zm.88,0v-1h.76v1ZM37.05,5.34v-1h.77v1Zm.88,0v-1h.76v1Zm2.61,0v-1h.77v1Zm.88,0v-1h.76v1ZM37.05,4.25v-1h.77v1Zm.88,0v-1h.76v1Zm2.61,0v-1h.77v1Zm.88,0v-1h.76v1Zm-4.37-1.1v-1h.77v1Zm.88,0v-1h.76v1Zm2.61,0v-1h.77v1Zm.88,0v-1h.76v1ZM37.05,2.06v-1h.77v1Zm.88,0v-1h.76v1Zm2.61,0v-1h.77v1Zm.88,0v-1h.76v1ZM37.93,1V0h.76V1Zm.87,0V0h.76V1Zm.87,0V0h.76V1Zm.87,0V0h.77V1Z"/><path class="cls-1" d="M43.55,7.52v-1h.76v1Zm.87,0v-1h.76v1Zm1.74,0v-1h.77v1Zm.88,0v-1h.76v1ZM43.55,6.43v-1h.76v1Zm.87,0v-1h.76v1Zm1.74,0v-1h.77v1Zm.88,0v-1h.76v1ZM43.55,5.34v-1h.76v1Zm.87,0v-1h.76v1Zm1.74,0v-1h.77v1Zm.88,0v-1h.76v1ZM43.55,4.25v-1h.76v1Zm.87,0v-1h.76v1Zm1.74,0v-1h.77v1Zm.88,0v-1h.76v1Zm-3.49-1.1v-1h.76v1Zm.87,0v-1h.76v1Zm.87,0v-1h.76v1Zm.87,0v-1h.77v1Z"/></svg>