<svg id="Call_Cue" data-name="Call Cue" xmlns="http://www.w3.org/2000/svg" viewBox="0 0 53.13 74.44"><defs><style>.cls-1{fill:#137b3e;}.cls-2{fill:#157a3d;}</style></defs><path class="cls-1" d="M15.86,79.43V78H17v1.48Zm1.32,0V78h1.16v1.48Zm1.33,0V78h1.16v1.48Zm1.33,0V78H21v1.48Zm-5.31-1.66V76.29h1.16v1.48Zm1.33,0V76.29H17v1.48Zm-1.33-1.66V74.63h1.16v1.48Zm1.33,0V74.63H17v1.48Zm-1.33-1.66V73h1.16v1.48Zm1.33,0V73H17v1.48Zm-1.33-1.66V71.31h1.16v1.48Zm1.33,0V71.31H17v1.48Zm-1.33-1.66V69.65h1.16v1.48Zm1.33,0V69.65H17v1.48Zm0-1.65V68H17v1.48Zm1.32,0V68h1.16v1.48Zm1.33,0V68h1.16v1.48Zm1.33,0V68H21v1.48Z" transform="translate(-12.2 -5.31)"/><path class="cls-1" d="M22.42,79.43V78h1.16v1.48Zm1.32,0V78H24.9v1.48Zm1.33,0V78h1.16v1.48Zm1.33,0V78h1.16v1.48Zm-5.31-1.66V76.29h1.16v1.48Zm1.33,0V76.29h1.16v1.48Zm2.65,0V76.29h1.16v1.48Zm1.33,0V76.29h1.16v1.48Zm-4-1.66V74.63h1.16v1.48Zm1.32,0V74.63H24.9v1.48Zm1.33,0V74.63h1.16v1.48Zm1.33,0V74.63h1.16v1.48Zm-1.33-1.66V73h1.16v1.48Zm1.33,0V73h1.16v1.48Zm-4-1.66V71.31h1.16v1.48Zm1.32,0V71.31H24.9v1.48Zm1.33,0V71.31h1.16v1.48Z" transform="translate(-12.2 -5.31)"/><path class="cls-1" d="M29.52,79.43V78h1.16v1.48Zm1.33,0V78H32v1.48Zm-1.33-1.66V76.29h1.16v1.48Zm1.33,0V76.29H32v1.48Zm-1.33-1.66V74.63h1.16v1.48Zm1.33,0V74.63H32v1.48Zm-1.33-1.66V73h1.16v1.48Zm1.33,0V73H32v1.48Zm-1.33-1.66V71.31h1.16v1.48Zm1.33,0V71.31H32v1.48Zm-1.33-1.66V69.65h1.16v1.48Zm1.33,0V69.65H32v1.48Zm-1.33-1.65V68h1.16v1.48Zm1.33,0V68H32v1.48Z" transform="translate(-12.2 -5.31)"/><path class="cls-1" d="M34,79.43V78h1.16v1.48Zm1.33,0V78h1.15v1.48ZM34,77.77V76.29h1.16v1.48Zm1.33,0V76.29h1.15v1.48ZM34,76.11V74.63h1.16v1.48Zm1.33,0V74.63h1.15v1.48ZM34,74.45V73h1.16v1.48Zm1.33,0V73h1.15v1.48ZM34,72.79V71.31h1.16v1.48Zm1.33,0V71.31h1.15v1.48ZM34,71.13V69.65h1.16v1.48Zm1.33,0V69.65h1.15v1.48ZM34,69.48V68h1.16v1.48Zm1.33,0V68h1.15v1.48Z" transform="translate(-12.2 -5.31)"/><path class="cls-1" d="M50.09,79.43V78h1.16v1.48Zm1.33,0V78h1.15v1.48Zm1.32,0V78H53.9v1.48Zm1.33,0V78h1.16v1.48Zm-5.31-1.66V76.29h1.16v1.48Zm1.33,0V76.29h1.16v1.48Zm2.65,0V76.29H53.9v1.48Zm1.33,0V76.29h1.16v1.48Zm-5.31-1.66V74.63h1.16v1.48Zm1.33,0V74.63h1.16v1.48Zm2.65,0V74.63H53.9v1.48Zm1.33,0V74.63h1.16v1.48Zm-5.31-1.66V73h1.16v1.48Zm1.33,0V73h1.16v1.48Zm2.65,0V73H53.9v1.48Zm1.33,0V73h1.16v1.48Zm-5.31-1.66V71.31h1.16v1.48Zm1.33,0V71.31h1.16v1.48Zm2.65,0V71.31H53.9v1.48Zm1.33,0V71.31h1.16v1.48Z" transform="translate(-12.2 -5.31)"/><path class="cls-1" d="M58.45,79.43V78h1.16v1.48Zm1.32,0V78h1.16v1.48Zm1.33,0V78h1.16v1.48Zm1.33,0V78h1.15v1.48Zm-5.31-1.66V76.29h1.16v1.48Zm1.33,0V76.29h1.16v1.48Zm-1.33-1.66V74.63h1.16v1.48Zm1.33,0V74.63h1.16v1.48Zm1.32,0V74.63h1.16v1.48Zm1.33,0V74.63h1.16v1.48Zm1.33,0V74.63h1.15v1.48Zm-5.31-1.66V73h1.16v1.48Zm1.33,0V73h1.16v1.48Zm2.65,0V73h1.16v1.48Zm1.33,0V73h1.15v1.48Zm-4-1.66V71.31h1.16v1.48Zm1.32,0V71.31h1.16v1.48Zm1.33,0V71.31h1.16v1.48Z" transform="translate(-12.2 -5.31)"/><path class="cls-1" d="M43.75,79.75V78.27h1.16v1.48Zm1.33,0V78.27h1.16v1.48Zm1.33,0V78.27h1.15v1.48Zm1.32,0V78.27h1.16v1.48Zm-5.3-1.66V76.61h1.15v1.48Zm1.32,0V76.61h1.16v1.48Zm-1.32-1.66V75h1.15v1.48Zm1.32,0V75h1.16v1.48Zm-1.32-1.66V73.29h1.15v1.48Zm1.32,0V73.29h1.16v1.48Zm-1.32-1.65V71.64h1.15v1.48Zm1.32,0V71.64h1.16v1.48Zm-1.32-1.66V70h1.15v1.48Zm1.32,0V70h1.16v1.48Zm0-1.66V68.32h1.16V69.8Zm1.33,0V68.32h1.16V69.8Zm1.33,0V68.32h1.15V69.8Zm1.32,0V68.32h1.16V69.8Z" transform="translate(-12.2 -5.31)"/><rect class="cls-2" x="30.11" y="53.97" width="1.77" height="1.86"/><rect class="cls-2" x="28.34" y="53.97" width="1.77" height="1.86"/><rect class="cls-2" x="26.56" y="53.97" width="1.77" height="1.86"/><rect class="cls-2" x="24.79" y="53.97" width="1.77" height="1.86"/><rect class="cls-2" x="23.02" y="53.97" width="1.77" height="1.86"/><rect class="cls-2" x="21.25" y="53.97" width="1.77" height="1.86"/><rect class="cls-2" x="31.88" y="52.11" width="1.77" height="1.86"/><rect class="cls-2" x="30.11" y="52.11" width="1.77" height="1.86"/><rect class="cls-2" x="28.34" y="52.11" width="1.77" height="1.86"/><rect class="cls-2" x="26.56" y="52.11" width="1.77" height="1.86"/><rect class="cls-2" x="24.79" y="52.11" width="1.77" height="1.86"/><rect class="cls-2" x="23.02" y="52.11" width="1.77" height="1.86"/><rect class="cls-2" x="21.25" y="52.11" width="1.77" height="1.86"/><rect class="cls-2" x="19.48" y="52.11" width="1.77" height="1.86"/><rect class="cls-2" x="17.71" y="52.11" width="1.77" height="1.86"/><rect class="cls-2" x="15.94" y="52.11" width="1.77" height="1.86"/><rect class="cls-2" x="40.73" y="50.25" width="1.77" height="1.86"/><rect class="cls-2" x="38.96" y="50.25" width="1.77" height="1.86"/><rect class="cls-2" x="37.19" y="50.25" width="1.77" height="1.86"/><rect class="cls-2" x="35.42" y="50.25" width="1.77" height="1.86"/><rect class="cls-2" x="15.94" y="50.25" width="1.77" height="1.86"/><rect class="cls-2" x="14.17" y="50.25" width="1.77" height="1.86"/><rect class="cls-2" x="12.4" y="50.25" width="1.77" height="1.86"/><rect class="cls-2" x="44.27" y="48.39" width="1.77" height="1.86"/><rect class="cls-2" x="42.5" y="48.39" width="1.77" height="1.86"/><rect class="cls-2" x="40.73" y="48.39" width="1.77" height="1.86"/><rect class="cls-2" x="38.96" y="48.39" width="1.77" height="1.86"/><rect class="cls-2" x="37.19" y="48.39" width="1.77" height="1.86"/><rect class="cls-2" x="35.42" y="48.39" width="1.77" height="1.86"/><rect class="cls-2" x="33.65" y="48.39" width="1.77" height="1.86"/><rect class="cls-2" x="12.4" y="48.39" width="1.77" height="1.86"/><rect class="cls-2" x="10.63" y="48.39" width="1.77" height="1.86"/><rect class="cls-2" x="47.82" y="46.53" width="1.77" height="1.86"/><rect class="cls-2" x="46.04" y="46.53" width="1.77" height="1.86"/><rect class="cls-2" x="44.27" y="46.53" width="1.77" height="1.86"/><rect class="cls-2" x="42.5" y="46.53" width="1.77" height="1.86"/><rect class="cls-2" x="40.73" y="46.53" width="1.77" height="1.86"/><rect class="cls-2" x="38.96" y="46.53" width="1.77" height="1.86"/><rect class="cls-2" x="37.19" y="46.53" width="1.77" height="1.86"/><rect class="cls-2" x="35.42" y="46.53" width="1.77" height="1.86"/><rect class="cls-2" x="33.65" y="46.53" width="1.77" height="1.86"/><rect class="cls-2" x="31.88" y="46.53" width="1.77" height="1.86"/><rect class="cls-2" x="30.11" y="46.53" width="1.77" height="1.86"/><rect class="cls-2" x="10.63" y="46.53" width="1.77" height="1.86"/><rect class="cls-2" x="8.85" y="46.53" width="1.77" height="1.86"/><rect class="cls-2" x="7.08" y="46.53" width="1.77" height="1.86"/><rect class="cls-2" x="47.82" y="44.66" width="1.77" height="1.86"/><rect class="cls-2" x="46.04" y="44.66" width="1.77" height="1.86"/><rect class="cls-2" x="44.27" y="44.66" width="1.77" height="1.86"/><rect class="cls-2" x="42.5" y="44.66" width="1.77" height="1.86"/><rect class="cls-2" x="40.73" y="44.66" width="1.77" height="1.86"/><rect class="cls-2" x="38.96" y="44.66" width="1.77" height="1.86"/><rect class="cls-2" x="37.19" y="44.66" width="1.77" height="1.86"/><rect class="cls-2" x="35.42" y="44.66" width="1.77" height="1.86"/><rect class="cls-2" x="33.65" y="44.66" width="1.77" height="1.86"/><rect class="cls-2" x="31.88" y="44.66" width="1.77" height="1.86"/><rect class="cls-2" x="30.11" y="44.66" width="1.77" height="1.86"/><rect class="cls-2" x="28.34" y="44.66" width="1.77" height="1.86"/><rect class="cls-2" x="26.56" y="44.66" width="1.77" height="1.86"/><rect class="cls-2" x="8.85" y="44.66" width="1.77" height="1.86"/><rect class="cls-2" x="7.08" y="44.66" width="1.77" height="1.86"/><rect class="cls-2" x="47.82" y="42.8" width="1.77" height="1.86"/><rect class="cls-2" x="46.04" y="42.8" width="1.77" height="1.86"/><rect class="cls-2" x="44.27" y="42.8" width="1.77" height="1.86"/><rect class="cls-2" x="42.5" y="42.8" width="1.77" height="1.86"/><rect class="cls-2" x="40.73" y="42.8" width="1.77" height="1.86"/><rect class="cls-2" x="38.96" y="42.8" width="1.77" height="1.86"/><rect class="cls-2" x="37.19" y="42.8" width="1.77" height="1.86"/><rect class="cls-2" x="35.42" y="42.8" width="1.77" height="1.86"/><rect class="cls-2" x="33.65" y="42.8" width="1.77" height="1.86"/><rect class="cls-2" x="31.88" y="42.8" width="1.77" height="1.86"/><rect class="cls-2" x="30.11" y="42.8" width="1.77" height="1.86"/><rect class="cls-2" x="28.34" y="42.8" width="1.77" height="1.86"/><rect class="cls-2" x="26.56" y="42.8" width="1.77" height="1.86"/><rect class="cls-2" x="24.79" y="42.8" width="1.77" height="1.86"/><rect class="cls-2" x="7.08" y="42.8" width="1.77" height="1.86"/><rect class="cls-2" x="5.31" y="42.8" width="1.77" height="1.86"/><rect class="cls-2" x="47.82" y="40.94" width="1.77" height="1.86"/><rect class="cls-2" x="46.04" y="40.94" width="1.77" height="1.86"/><rect class="cls-2" x="44.27" y="40.94" width="1.77" height="1.86"/><rect class="cls-2" x="42.5" y="40.94" width="1.77" height="1.86"/><rect class="cls-2" x="40.73" y="40.94" width="1.77" height="1.86"/><rect class="cls-2" x="38.96" y="40.94" width="1.77" height="1.86"/><rect class="cls-2" x="37.19" y="40.94" width="1.77" height="1.86"/><rect class="cls-2" x="35.42" y="40.94" width="1.77" height="1.86"/><rect class="cls-2" x="33.65" y="40.94" width="1.77" height="1.86"/><rect class="cls-2" x="31.88" y="40.94" width="1.77" height="1.86"/><rect class="cls-2" x="30.11" y="40.94" width="1.77" height="1.86"/><rect class="cls-2" x="28.34" y="40.94" width="1.77" height="1.86"/><rect class="cls-2" x="26.56" y="40.94" width="1.77" height="1.86"/><rect class="cls-2" x="24.79" y="40.94" width="1.77" height="1.86"/><rect class="cls-2" x="23.02" y="40.94" width="1.77" height="1.86"/><rect class="cls-2" x="5.31" y="40.94" width="1.77" height="1.86"/><rect class="cls-2" x="3.54" y="40.94" width="1.77" height="1.86"/><rect class="cls-2" x="46.04" y="39.08" width="1.77" height="1.86"/><rect class="cls-2" x="44.27" y="39.08" width="1.77" height="1.86"/><rect class="cls-2" x="42.5" y="39.08" width="1.77" height="1.86"/><rect class="cls-2" x="40.73" y="39.08" width="1.77" height="1.86"/><rect class="cls-2" x="38.96" y="39.08" width="1.77" height="1.86"/><rect class="cls-2" x="37.19" y="39.08" width="1.77" height="1.86"/><rect class="cls-2" x="35.42" y="39.08" width="1.77" height="1.86"/><rect class="cls-2" x="33.65" y="39.08" width="1.77" height="1.86"/><rect class="cls-2" x="30.11" y="39.08" width="1.77" height="1.86"/><rect class="cls-2" x="28.34" y="39.08" width="1.77" height="1.86"/><rect class="cls-2" x="26.56" y="39.08" width="1.77" height="1.86"/><rect class="cls-2" x="24.79" y="39.08" width="1.77" height="1.86"/><rect class="cls-2" x="23.02" y="39.08" width="1.77" height="1.86"/><rect class="cls-2" x="21.25" y="39.08" width="1.77" height="1.86"/><rect class="cls-2" x="3.54" y="39.08" width="1.77" height="1.86"/><rect class="cls-2" x="49.59" y="37.22" width="1.77" height="1.86"/><rect class="cls-2" x="44.27" y="37.22" width="1.77" height="1.86"/><rect class="cls-2" x="42.5" y="37.22" width="1.77" height="1.86"/><rect class="cls-2" x="40.73" y="37.22" width="1.77" height="1.86"/><rect class="cls-2" x="38.96" y="37.22" width="1.77" height="1.86"/><rect class="cls-2" x="37.19" y="37.22" width="1.77" height="1.86"/><rect class="cls-2" x="35.42" y="37.22" width="1.77" height="1.86"/><rect class="cls-2" x="26.56" y="37.22" width="1.77" height="1.86"/><rect class="cls-2" x="24.79" y="37.22" width="1.77" height="1.86"/><rect class="cls-2" x="23.02" y="37.22" width="1.77" height="1.86"/><rect class="cls-2" x="21.25" y="37.22" width="1.77" height="1.86"/><rect class="cls-2" x="19.48" y="37.22" width="1.77" height="1.86"/><rect class="cls-2" x="3.54" y="37.22" width="1.77" height="1.86"/><rect class="cls-2" x="1.77" y="37.22" width="1.77" height="1.86"/><rect class="cls-2" x="51.36" y="35.36" width="1.77" height="1.86"/><rect class="cls-2" x="49.59" y="35.36" width="1.77" height="1.86"/><rect class="cls-2" x="47.82" y="35.36" width="1.77" height="1.86"/><rect class="cls-2" x="44.27" y="35.36" width="1.77" height="1.86"/><rect class="cls-2" x="42.5" y="35.36" width="1.77" height="1.86"/><rect class="cls-2" x="40.73" y="35.36" width="1.77" height="1.86"/><rect class="cls-2" x="38.96" y="35.36" width="1.77" height="1.86"/><rect class="cls-2" x="37.19" y="35.36" width="1.77" height="1.86"/><rect class="cls-2" x="35.42" y="35.36" width="1.77" height="1.86"/><rect class="cls-2" x="24.79" y="35.36" width="1.77" height="1.86"/><rect class="cls-2" x="23.02" y="35.36" width="1.77" height="1.86"/><rect class="cls-2" x="21.25" y="35.36" width="1.77" height="1.86"/><rect class="cls-2" x="19.48" y="35.36" width="1.77" height="1.86"/><rect class="cls-2" x="17.71" y="35.36" width="1.77" height="1.86"/><rect class="cls-2" x="15.94" y="35.36" width="1.77" height="1.86"/><rect class="cls-2" x="1.77" y="35.36" width="1.77" height="1.86"/><rect class="cls-2" y="35.36" width="1.77" height="1.86"/><rect class="cls-2" x="49.59" y="33.5" width="1.77" height="1.86"/><rect class="cls-2" x="40.73" y="33.5" width="1.77" height="1.86"/><rect class="cls-2" x="38.96" y="33.5" width="1.77" height="1.86"/><rect class="cls-2" x="37.19" y="33.5" width="1.77" height="1.86"/><rect class="cls-2" x="24.79" y="33.5" width="1.77" height="1.86"/><rect class="cls-2" x="23.02" y="33.5" width="1.77" height="1.86"/><rect class="cls-2" x="21.25" y="33.5" width="1.77" height="1.86"/><rect class="cls-2" x="19.48" y="33.5" width="1.77" height="1.86"/><rect class="cls-2" x="17.71" y="33.5" width="1.77" height="1.86"/><rect class="cls-2" x="15.94" y="33.5" width="1.77" height="1.86"/><rect class="cls-2" x="1.77" y="33.5" width="1.77" height="1.86"/><rect class="cls-2" x="51.36" y="31.64" width="1.77" height="1.86"/><rect class="cls-2" x="49.59" y="31.64" width="1.77" height="1.86"/><rect class="cls-2" x="21.25" y="31.64" width="1.77" height="1.86"/><rect class="cls-2" x="19.48" y="31.64" width="1.77" height="1.86"/><rect class="cls-2" x="17.71" y="31.64" width="1.77" height="1.86"/><rect class="cls-2" x="15.94" y="31.64" width="1.77" height="1.86"/><rect class="cls-2" x="14.17" y="31.64" width="1.77" height="1.86"/><rect class="cls-2" x="1.77" y="31.64" width="1.77" height="1.86"/><rect class="cls-2" y="31.64" width="1.77" height="1.86"/><rect class="cls-2" x="51.36" y="29.78" width="1.77" height="1.86"/><rect class="cls-2" x="49.59" y="29.78" width="1.77" height="1.86"/><rect class="cls-2" x="19.48" y="29.78" width="1.77" height="1.86"/><rect class="cls-2" x="17.71" y="29.78" width="1.77" height="1.86"/><rect class="cls-2" x="15.94" y="29.78" width="1.77" height="1.86"/><rect class="cls-2" x="14.17" y="29.78" width="1.77" height="1.86"/><rect class="cls-2" x="12.4" y="29.78" width="1.77" height="1.86"/><rect class="cls-2" x="1.77" y="29.78" width="1.77" height="1.86"/><rect class="cls-2" y="29.78" width="1.77" height="1.86"/><rect class="cls-2" x="51.36" y="27.92" width="1.77" height="1.86"/><rect class="cls-2" x="49.59" y="27.92" width="1.77" height="1.86"/><rect class="cls-2" x="19.48" y="27.92" width="1.77" height="1.86"/><rect class="cls-2" x="17.71" y="27.92" width="1.77" height="1.86"/><rect class="cls-2" x="15.94" y="27.92" width="1.77" height="1.86"/><rect class="cls-2" x="14.17" y="27.92" width="1.77" height="1.86"/><rect class="cls-2" x="12.4" y="27.92" width="1.77" height="1.86"/><rect class="cls-2" x="1.77" y="27.92" width="1.77" height="1.86"/><rect class="cls-2" y="27.92" width="1.77" height="1.86"/><rect class="cls-2" x="51.36" y="26.05" width="1.77" height="1.86"/><rect class="cls-2" x="49.59" y="26.05" width="1.77" height="1.86"/><rect class="cls-2" x="19.48" y="26.05" width="1.77" height="1.86"/><rect class="cls-2" x="17.71" y="26.05" width="1.77" height="1.86"/><rect class="cls-2" x="15.94" y="26.05" width="1.77" height="1.86"/><rect class="cls-2" x="14.17" y="26.05" width="1.77" height="1.86"/><rect class="cls-2" x="12.4" y="26.05" width="1.77" height="1.86"/><rect class="cls-2" x="10.63" y="26.05" width="1.77" height="1.86"/><rect class="cls-2" x="1.77" y="26.05" width="1.77" height="1.86"/><rect class="cls-2" y="26.05" width="1.77" height="1.86"/><rect class="cls-2" x="51.36" y="24.19" width="1.77" height="1.86"/><rect class="cls-2" x="49.59" y="24.19" width="1.77" height="1.86"/><rect class="cls-2" x="17.71" y="24.19" width="1.77" height="1.86"/><rect class="cls-2" x="15.94" y="24.19" width="1.77" height="1.86"/><rect class="cls-2" x="14.17" y="24.19" width="1.77" height="1.86"/><rect class="cls-2" x="12.4" y="24.19" width="1.77" height="1.86"/><rect class="cls-2" x="10.63" y="24.19" width="1.77" height="1.86"/><rect class="cls-2" x="1.77" y="24.19" width="1.77" height="1.86"/><rect class="cls-2" y="24.19" width="1.77" height="1.86"/><rect class="cls-2" x="51.36" y="22.33" width="1.77" height="1.86"/><rect class="cls-2" x="49.59" y="22.33" width="1.77" height="1.86"/><rect class="cls-2" x="15.94" y="22.33" width="1.77" height="1.86"/><rect class="cls-2" x="14.17" y="22.33" width="1.77" height="1.86"/><rect class="cls-2" x="12.4" y="22.33" width="1.77" height="1.86"/><rect class="cls-2" x="10.63" y="22.33" width="1.77" height="1.86"/><rect class="cls-2" x="1.77" y="22.33" width="1.77" height="1.86"/><rect class="cls-2" y="22.33" width="1.77" height="1.86"/><rect class="cls-2" x="49.59" y="20.47" width="1.77" height="1.86"/><rect class="cls-2" x="15.94" y="20.47" width="1.77" height="1.86"/><rect class="cls-2" x="14.17" y="20.47" width="1.77" height="1.86"/><rect class="cls-2" x="12.4" y="20.47" width="1.77" height="1.86"/><rect class="cls-2" x="10.63" y="20.47" width="1.77" height="1.86"/><rect class="cls-2" x="1.77" y="20.47" width="1.77" height="1.86"/><rect class="cls-2" x="49.59" y="18.61" width="1.77" height="1.86"/><rect class="cls-2" x="47.82" y="18.61" width="1.77" height="1.86"/><rect class="cls-2" x="14.17" y="18.61" width="1.77" height="1.86"/><rect class="cls-2" x="12.4" y="18.61" width="1.77" height="1.86"/><rect class="cls-2" x="10.63" y="18.61" width="1.77" height="1.86"/><rect class="cls-2" x="8.85" y="18.61" width="1.77" height="1.86"/><rect class="cls-2" x="3.54" y="18.61" width="1.77" height="1.86"/><rect class="cls-2" x="1.77" y="18.61" width="1.77" height="1.86"/><rect class="cls-2" x="47.82" y="16.75" width="1.77" height="1.86"/><rect class="cls-2" x="14.17" y="16.75" width="1.77" height="1.86"/><rect class="cls-2" x="12.4" y="16.75" width="1.77" height="1.86"/><rect class="cls-2" x="10.63" y="16.75" width="1.77" height="1.86"/><rect class="cls-2" x="8.85" y="16.75" width="1.77" height="1.86"/><rect class="cls-2" x="3.54" y="16.75" width="1.77" height="1.86"/><rect class="cls-2" x="47.82" y="14.89" width="1.77" height="1.86"/><rect class="cls-2" x="46.04" y="14.89" width="1.77" height="1.86"/><rect class="cls-2" x="19.48" y="14.89" width="1.77" height="1.86"/><rect class="cls-2" x="17.71" y="14.89" width="1.77" height="1.86"/><rect class="cls-2" x="15.94" y="14.89" width="1.77" height="1.86"/><rect class="cls-2" x="14.17" y="14.89" width="1.77" height="1.86"/><rect class="cls-2" x="12.4" y="14.89" width="1.77" height="1.86"/><rect class="cls-2" x="10.63" y="14.89" width="1.77" height="1.86"/><rect class="cls-2" x="8.85" y="14.89" width="1.77" height="1.86"/><rect class="cls-2" x="3.54" y="14.89" width="1.77" height="1.86"/><rect class="cls-2" x="46.04" y="13.03" width="1.77" height="1.86"/><rect class="cls-2" x="44.27" y="13.03" width="1.77" height="1.86"/><rect class="cls-2" x="23.02" y="13.03" width="1.77" height="1.86"/><rect class="cls-2" x="21.25" y="13.03" width="1.77" height="1.86"/><rect class="cls-2" x="19.48" y="13.03" width="1.77" height="1.86"/><rect class="cls-2" x="17.71" y="13.03" width="1.77" height="1.86"/><rect class="cls-2" x="15.94" y="13.03" width="1.77" height="1.86"/><rect class="cls-2" x="14.17" y="13.03" width="1.77" height="1.86"/><rect class="cls-2" x="12.4" y="13.03" width="1.77" height="1.86"/><rect class="cls-2" x="10.63" y="13.03" width="1.77" height="1.86"/><rect class="cls-2" x="8.85" y="13.03" width="1.77" height="1.86"/><rect class="cls-2" x="7.08" y="13.03" width="1.77" height="1.86"/><rect class="cls-2" x="3.54" y="13.03" width="1.77" height="1.86"/><rect class="cls-2" x="44.27" y="11.17" width="1.77" height="1.86"/><rect class="cls-2" x="42.5" y="11.17" width="1.77" height="1.86"/><rect class="cls-2" x="23.02" y="11.17" width="1.77" height="1.86"/><rect class="cls-2" x="21.25" y="11.17" width="1.77" height="1.86"/><rect class="cls-2" x="19.48" y="11.17" width="1.77" height="1.86"/><rect class="cls-2" x="17.71" y="11.17" width="1.77" height="1.86"/><rect class="cls-2" x="15.94" y="11.17" width="1.77" height="1.86"/><rect class="cls-2" x="14.17" y="11.17" width="1.77" height="1.86"/><rect class="cls-2" x="12.4" y="11.17" width="1.77" height="1.86"/><rect class="cls-2" x="10.63" y="11.17" width="1.77" height="1.86"/><rect class="cls-2" x="8.85" y="11.17" width="1.77" height="1.86"/><rect class="cls-2" x="7.08" y="11.17" width="1.77" height="1.86"/><rect class="cls-2" x="44.27" y="9.31" width="1.77" height="1.86"/><rect class="cls-2" x="42.5" y="9.31" width="1.77" height="1.86"/><rect class="cls-2" x="40.73" y="9.31" width="1.77" height="1.86"/><rect class="cls-2" x="23.02" y="9.31" width="1.77" height="1.86"/><rect class="cls-2" x="21.25" y="9.31" width="1.77" height="1.86"/><rect class="cls-2" x="19.48" y="9.31" width="1.77" height="1.86"/><rect class="cls-2" x="17.71" y="9.31" width="1.77" height="1.86"/><rect class="cls-2" x="15.94" y="9.31" width="1.77" height="1.86"/><rect class="cls-2" x="14.17" y="9.31" width="1.77" height="1.86"/><rect class="cls-2" x="12.4" y="9.31" width="1.77" height="1.86"/><rect class="cls-2" x="10.63" y="9.31" width="1.77" height="1.86"/><rect class="cls-2" x="8.85" y="9.31" width="1.77" height="1.86"/><rect class="cls-2" x="7.08" y="9.31" width="1.77" height="1.86"/><rect class="cls-2" x="42.5" y="7.44" width="1.77" height="1.86"/><rect class="cls-2" x="40.73" y="7.44" width="1.77" height="1.86"/><rect class="cls-2" x="38.96" y="7.44" width="1.77" height="1.86"/><rect class="cls-2" x="21.25" y="7.44" width="1.77" height="1.86"/><rect class="cls-2" x="19.48" y="7.44" width="1.77" height="1.86"/><rect class="cls-2" x="17.71" y="7.44" width="1.77" height="1.86"/><rect class="cls-2" x="15.94" y="7.44" width="1.77" height="1.86"/><rect class="cls-2" x="14.17" y="7.44" width="1.77" height="1.86"/><rect class="cls-2" x="12.4" y="7.44" width="1.77" height="1.86"/><rect class="cls-2" x="10.63" y="7.44" width="1.77" height="1.86"/><rect class="cls-2" x="8.85" y="7.44" width="1.77" height="1.86"/><rect class="cls-2" x="7.08" y="7.44" width="1.77" height="1.86"/><rect class="cls-2" x="38.96" y="5.58" width="1.77" height="1.86"/><rect class="cls-2" x="37.19" y="5.58" width="1.77" height="1.86"/><rect class="cls-2" x="35.42" y="5.58" width="1.77" height="1.86"/><rect class="cls-2" x="21.25" y="5.58" width="1.77" height="1.86"/><rect class="cls-2" x="19.48" y="5.58" width="1.77" height="1.86"/><rect class="cls-2" x="17.71" y="5.58" width="1.77" height="1.86"/><rect class="cls-2" x="15.94" y="5.58" width="1.77" height="1.86"/><rect class="cls-2" x="14.17" y="5.58" width="1.77" height="1.86"/><rect class="cls-2" x="12.4" y="5.58" width="1.77" height="1.86"/><rect class="cls-2" x="10.63" y="5.58" width="1.77" height="1.86"/><rect class="cls-2" x="8.85" y="5.58" width="1.77" height="1.86"/><rect class="cls-2" x="35.42" y="3.72" width="1.77" height="1.86"/><rect class="cls-2" x="33.65" y="3.72" width="1.77" height="1.86"/><rect class="cls-2" x="31.88" y="3.72" width="1.77" height="1.86"/><rect class="cls-2" x="30.11" y="3.72" width="1.77" height="1.86"/><rect class="cls-2" x="28.34" y="3.72" width="1.77" height="1.86"/><rect class="cls-2" x="26.56" y="3.72" width="1.77" height="1.86"/><rect class="cls-2" x="24.79" y="3.72" width="1.77" height="1.86"/><rect class="cls-2" x="19.48" y="3.72" width="1.77" height="1.86"/><rect class="cls-2" x="17.71" y="3.72" width="1.77" height="1.86"/><rect class="cls-2" x="15.94" y="3.72" width="1.77" height="1.86"/><rect class="cls-2" x="14.17" y="3.72" width="1.77" height="1.86"/><rect class="cls-2" x="12.4" y="3.72" width="1.77" height="1.86"/><rect class="cls-2" x="10.63" y="3.72" width="1.77" height="1.86"/><rect class="cls-2" x="31.88" y="1.86" width="1.77" height="1.86"/><rect class="cls-2" x="30.11" y="1.86" width="1.77" height="1.86"/><rect class="cls-2" x="28.34" y="1.86" width="1.77" height="1.86"/><rect class="cls-2" x="26.56" y="1.86" width="1.77" height="1.86"/><rect class="cls-2" x="24.79" y="1.86" width="1.77" height="1.86"/><rect class="cls-2" x="19.48" y="1.86" width="1.77" height="1.86"/><rect class="cls-2" x="17.71" y="1.86" width="1.77" height="1.86"/><rect class="cls-2" x="15.94" y="1.86" width="1.77" height="1.86"/><rect class="cls-2" x="14.17" y="1.86" width="1.77" height="1.86"/><rect class="cls-2" x="12.4" y="1.86" width="1.77" height="1.86"/><rect class="cls-2" x="17.71" width="1.77" height="1.86"/><rect class="cls-2" x="15.94" width="1.77" height="1.86"/><rect class="cls-2" x="14.17" width="1.77" height="1.86"/><rect class="cls-2" x="51.36" y="33.5" width="1.77" height="1.86"/><rect class="cls-2" x="51.36" y="37.22" width="1.77" height="1.86"/></svg>