<svg id="Call_Cue" data-name="Call Cue" xmlns="http://www.w3.org/2000/svg" viewBox="0 0 53.13 74.72"><defs><style>.cls-1{fill:#137b3e;}.cls-2{fill:#157a3d;}</style></defs><path class="cls-1" d="M20.56,79.77V78.59h.93v1.18Zm1.06,0V78.59h.92v1.18Zm1.05,0V78.59h.92v1.18Zm1.06,0V78.59h.92v1.18Zm-4.22-1.32V77.27h.92v1.18Zm1,0V77.27h.93v1.18Zm-1-1.32V76h.92v1.17Zm1,0V76h.93v1.17Zm-1-1.32V74.64h.92v1.17Zm1,0V74.64h.93v1.17Zm-1-1.31V73.32h.92V74.5Zm1,0V73.32h.93V74.5Zm-1-1.32V72h.92v1.18Zm1,0V72h.93v1.18Zm0-1.32V70.69h.93v1.17Zm1.06,0V70.69h.92v1.17Zm1.05,0V70.69h.92v1.17Zm1.06,0V70.69h.92v1.17Z" transform="translate(-12.2 -5.31)"/><path class="cls-1" d="M25.78,79.77V78.59h.92v1.18Zm1,0V78.59h.92v1.18Zm1.06,0V78.59h.92v1.18Zm1.05,0V78.59h.92v1.18Zm-4.22-1.32V77.27h.92v1.18Zm1.06,0V77.27h.92v1.18Zm2.11,0V77.27h.92v1.18Zm1.05,0V77.27h.92v1.18Zm-3.16-1.32V76h.92v1.17Zm1,0V76h.92v1.17Zm1.06,0V76h.92v1.17Zm1.05,0V76h.92v1.17Zm-1.05-1.32V74.64h.92v1.17Zm1.05,0V74.64h.92v1.17ZM25.78,74.5V73.32h.92V74.5Zm1,0V73.32h.92V74.5Zm1.06,0V73.32h.92V74.5Z" transform="translate(-12.2 -5.31)"/><path class="cls-1" d="M31.42,79.77V78.59h.92v1.18Zm1,0V78.59h.92v1.18Zm-1-1.32V77.27h.92v1.18Zm1,0V77.27h.92v1.18Zm-1-1.32V76h.92v1.17Zm1,0V76h.92v1.17Zm-1-1.32V74.64h.92v1.17Zm1,0V74.64h.92v1.17Zm-1-1.31V73.32h.92V74.5Zm1,0V73.32h.92V74.5Zm-1-1.32V72h.92v1.18Zm1,0V72h.92v1.18Zm-1-1.32V70.69h.92v1.17Zm1,0V70.69h.92v1.17Z" transform="translate(-12.2 -5.31)"/><path class="cls-1" d="M35,79.77V78.59h.92v1.18Zm1.05,0V78.59H37v1.18ZM35,78.45V77.27h.92v1.18Zm1.05,0V77.27H37v1.18ZM35,77.13V76h.92v1.17Zm1.05,0V76H37v1.17ZM35,75.81V74.64h.92v1.17Zm1.05,0V74.64H37v1.17ZM35,74.5V73.32h.92V74.5Zm1.05,0V73.32H37V74.5ZM35,73.18V72h.92v1.18Zm1.05,0V72H37v1.18ZM35,71.86V70.69h.92v1.17Zm1.05,0V70.69H37v1.17Z" transform="translate(-12.2 -5.31)"/><path class="cls-1" d="M47.76,79.77V78.59h.92v1.18Zm1.06,0V78.59h.92v1.18Zm1,0V78.59h.92v1.18Zm1.05,0V78.59h.92v1.18Zm-4.21-1.32V77.27h.92v1.18Zm1,0V77.27h.92v1.18Zm2.11,0V77.27h.92v1.18Zm1.05,0V77.27h.92v1.18Zm-4.21-1.32V76h.92v1.17Zm1,0V76h.92v1.17Zm2.11,0V76h.92v1.17Zm1.05,0V76h.92v1.17Zm-4.21-1.32V74.64h.92v1.17Zm1,0V74.64h.92v1.17Zm2.11,0V74.64h.92v1.17Zm1.05,0V74.64h.92v1.17ZM46.71,74.5V73.32h.92V74.5Zm1,0V73.32h.92V74.5Zm2.11,0V73.32h.92V74.5Zm1.05,0V73.32h.92V74.5Z" transform="translate(-12.2 -5.31)"/><path class="cls-1" d="M54.4,79.77V78.59h.92v1.18Zm1.06,0V78.59h.92v1.18Zm1,0V78.59h.92v1.18Zm1.05,0V78.59h.92v1.18Zm-4.21-1.32V77.27h.92v1.18Zm1,0V77.27h.92v1.18Zm-1-1.32V76h.92v1.17Zm1,0V76h.92v1.17Zm1.06,0V76h.92v1.17Zm1,0V76h.92v1.17Zm1.05,0V76h.92v1.17Zm-4.21-1.32V74.64h.92v1.17Zm1,0V74.64h.92v1.17Zm2.11,0V74.64h.92v1.17Zm1.05,0V74.64h.92v1.17ZM54.4,74.5V73.32h.92V74.5Zm1.06,0V73.32h.92V74.5Zm1,0V73.32h.92V74.5Z" transform="translate(-12.2 -5.31)"/><path class="cls-1" d="M42.73,80V78.85h.92V80Zm1.05,0V78.85h.92V80Zm1.06,0V78.85h.92V80Zm1,0V78.85h.92V80ZM41.67,78.7V77.53h.92V78.7Zm1.06,0V77.53h.92V78.7Zm-1.06-1.31V76.21h.92v1.18Zm1.06,0V76.21h.92v1.18Zm-1.06-1.32V74.89h.92v1.18Zm1.06,0V74.89h.92v1.18Zm-1.06-1.32V73.58h.92v1.17Zm1.06,0V73.58h.92v1.17Zm-1.06-1.31V72.26h.92v1.18Zm1.06,0V72.26h.92v1.18Zm0-1.32V70.94h.92v1.18Zm1.05,0V70.94h.92v1.18Zm1.06,0V70.94h.92v1.18Zm1,0V70.94h.92v1.18Z" transform="translate(-12.2 -5.31)"/><rect class="cls-2" x="30.11" y="53.97" width="1.77" height="1.86"/><rect class="cls-2" x="28.34" y="53.97" width="1.77" height="1.86"/><rect class="cls-2" x="26.56" y="53.97" width="1.77" height="1.86"/><rect class="cls-2" x="24.79" y="53.97" width="1.77" height="1.86"/><rect class="cls-2" x="23.02" y="53.97" width="1.77" height="1.86"/><rect class="cls-2" x="21.25" y="53.97" width="1.77" height="1.86"/><rect class="cls-2" x="31.88" y="52.11" width="1.77" height="1.86"/><rect class="cls-2" x="30.11" y="52.11" width="1.77" height="1.86"/><rect class="cls-2" x="28.34" y="52.11" width="1.77" height="1.86"/><rect class="cls-2" x="26.56" y="52.11" width="1.77" height="1.86"/><rect class="cls-2" x="24.79" y="52.11" width="1.77" height="1.86"/><rect class="cls-2" x="23.02" y="52.11" width="1.77" height="1.86"/><rect class="cls-2" x="21.25" y="52.11" width="1.77" height="1.86"/><rect class="cls-2" x="19.48" y="52.11" width="1.77" height="1.86"/><rect class="cls-2" x="17.71" y="52.11" width="1.77" height="1.86"/><rect class="cls-2" x="15.94" y="52.11" width="1.77" height="1.86"/><rect class="cls-2" x="40.73" y="50.25" width="1.77" height="1.86"/><rect class="cls-2" x="38.96" y="50.25" width="1.77" height="1.86"/><rect class="cls-2" x="37.19" y="50.25" width="1.77" height="1.86"/><rect class="cls-2" x="35.42" y="50.25" width="1.77" height="1.86"/><rect class="cls-2" x="15.94" y="50.25" width="1.77" height="1.86"/><rect class="cls-2" x="14.17" y="50.25" width="1.77" height="1.86"/><rect class="cls-2" x="12.4" y="50.25" width="1.77" height="1.86"/><rect class="cls-2" x="44.27" y="48.39" width="1.77" height="1.86"/><rect class="cls-2" x="42.5" y="48.39" width="1.77" height="1.86"/><rect class="cls-2" x="40.73" y="48.39" width="1.77" height="1.86"/><rect class="cls-2" x="38.96" y="48.39" width="1.77" height="1.86"/><rect class="cls-2" x="37.19" y="48.39" width="1.77" height="1.86"/><rect class="cls-2" x="35.42" y="48.39" width="1.77" height="1.86"/><rect class="cls-2" x="33.65" y="48.39" width="1.77" height="1.86"/><rect class="cls-2" x="12.4" y="48.39" width="1.77" height="1.86"/><rect class="cls-2" x="10.63" y="48.39" width="1.77" height="1.86"/><rect class="cls-2" x="47.82" y="46.53" width="1.77" height="1.86"/><rect class="cls-2" x="46.04" y="46.53" width="1.77" height="1.86"/><rect class="cls-2" x="44.27" y="46.53" width="1.77" height="1.86"/><rect class="cls-2" x="42.5" y="46.53" width="1.77" height="1.86"/><rect class="cls-2" x="40.73" y="46.53" width="1.77" height="1.86"/><rect class="cls-2" x="38.96" y="46.53" width="1.77" height="1.86"/><rect class="cls-2" x="37.19" y="46.53" width="1.77" height="1.86"/><rect class="cls-2" x="35.42" y="46.53" width="1.77" height="1.86"/><rect class="cls-2" x="33.65" y="46.53" width="1.77" height="1.86"/><rect class="cls-2" x="31.88" y="46.53" width="1.77" height="1.86"/><rect class="cls-2" x="30.11" y="46.53" width="1.77" height="1.86"/><rect class="cls-2" x="10.63" y="46.53" width="1.77" height="1.86"/><rect class="cls-2" x="8.85" y="46.53" width="1.77" height="1.86"/><rect class="cls-2" x="7.08" y="46.53" width="1.77" height="1.86"/><rect class="cls-2" x="47.82" y="44.66" width="1.77" height="1.86"/><rect class="cls-2" x="46.04" y="44.66" width="1.77" height="1.86"/><rect class="cls-2" x="44.27" y="44.66" width="1.77" height="1.86"/><rect class="cls-2" x="42.5" y="44.66" width="1.77" height="1.86"/><rect class="cls-2" x="40.73" y="44.66" width="1.77" height="1.86"/><rect class="cls-2" x="38.96" y="44.66" width="1.77" height="1.86"/><rect class="cls-2" x="37.19" y="44.66" width="1.77" height="1.86"/><rect class="cls-2" x="35.42" y="44.66" width="1.77" height="1.86"/><rect class="cls-2" x="33.65" y="44.66" width="1.77" height="1.86"/><rect class="cls-2" x="31.88" y="44.66" width="1.77" height="1.86"/><rect class="cls-2" x="30.11" y="44.66" width="1.77" height="1.86"/><rect class="cls-2" x="28.34" y="44.66" width="1.77" height="1.86"/><rect class="cls-2" x="26.56" y="44.66" width="1.77" height="1.86"/><rect class="cls-2" x="8.85" y="44.66" width="1.77" height="1.86"/><rect class="cls-2" x="7.08" y="44.66" width="1.77" height="1.86"/><rect class="cls-2" x="47.82" y="42.8" width="1.77" height="1.86"/><rect class="cls-2" x="46.04" y="42.8" width="1.77" height="1.86"/><rect class="cls-2" x="44.27" y="42.8" width="1.77" height="1.86"/><rect class="cls-2" x="42.5" y="42.8" width="1.77" height="1.86"/><rect class="cls-2" x="40.73" y="42.8" width="1.77" height="1.86"/><rect class="cls-2" x="38.96" y="42.8" width="1.77" height="1.86"/><rect class="cls-2" x="37.19" y="42.8" width="1.77" height="1.86"/><rect class="cls-2" x="35.42" y="42.8" width="1.77" height="1.86"/><rect class="cls-2" x="33.65" y="42.8" width="1.77" height="1.86"/><rect class="cls-2" x="31.88" y="42.8" width="1.77" height="1.86"/><rect class="cls-2" x="30.11" y="42.8" width="1.77" height="1.86"/><rect class="cls-2" x="28.34" y="42.8" width="1.77" height="1.86"/><rect class="cls-2" x="26.56" y="42.8" width="1.77" height="1.86"/><rect class="cls-2" x="24.79" y="42.8" width="1.77" height="1.86"/><rect class="cls-2" x="7.08" y="42.8" width="1.77" height="1.86"/><rect class="cls-2" x="5.31" y="42.8" width="1.77" height="1.86"/><rect class="cls-2" x="47.82" y="40.94" width="1.77" height="1.86"/><rect class="cls-2" x="46.04" y="40.94" width="1.77" height="1.86"/><rect class="cls-2" x="44.27" y="40.94" width="1.77" height="1.86"/><rect class="cls-2" x="42.5" y="40.94" width="1.77" height="1.86"/><rect class="cls-2" x="40.73" y="40.94" width="1.77" height="1.86"/><rect class="cls-2" x="38.96" y="40.94" width="1.77" height="1.86"/><rect class="cls-2" x="37.19" y="40.94" width="1.77" height="1.86"/><rect class="cls-2" x="35.42" y="40.94" width="1.77" height="1.86"/><rect class="cls-2" x="33.65" y="40.94" width="1.77" height="1.86"/><rect class="cls-2" x="31.88" y="40.94" width="1.77" height="1.86"/><rect class="cls-2" x="30.11" y="40.94" width="1.77" height="1.86"/><rect class="cls-2" x="28.34" y="40.94" width="1.77" height="1.86"/><rect class="cls-2" x="26.56" y="40.94" width="1.77" height="1.86"/><rect class="cls-2" x="24.79" y="40.94" width="1.77" height="1.86"/><rect class="cls-2" x="23.02" y="40.94" width="1.77" height="1.86"/><rect class="cls-2" x="5.31" y="40.94" width="1.77" height="1.86"/><rect class="cls-2" x="3.54" y="40.94" width="1.77" height="1.86"/><rect class="cls-2" x="46.04" y="39.08" width="1.77" height="1.86"/><rect class="cls-2" x="44.27" y="39.08" width="1.77" height="1.86"/><rect class="cls-2" x="42.5" y="39.08" width="1.77" height="1.86"/><rect class="cls-2" x="40.73" y="39.08" width="1.77" height="1.86"/><rect class="cls-2" x="38.96" y="39.08" width="1.77" height="1.86"/><rect class="cls-2" x="37.19" y="39.08" width="1.77" height="1.86"/><rect class="cls-2" x="35.42" y="39.08" width="1.77" height="1.86"/><rect class="cls-2" x="33.65" y="39.08" width="1.77" height="1.86"/><rect class="cls-2" x="30.11" y="39.08" width="1.77" height="1.86"/><rect class="cls-2" x="28.34" y="39.08" width="1.77" height="1.86"/><rect class="cls-2" x="26.56" y="39.08" width="1.77" height="1.86"/><rect class="cls-2" x="24.79" y="39.08" width="1.77" height="1.86"/><rect class="cls-2" x="23.02" y="39.08" width="1.77" height="1.86"/><rect class="cls-2" x="21.25" y="39.08" width="1.77" height="1.86"/><rect class="cls-2" x="3.54" y="39.08" width="1.77" height="1.86"/><rect class="cls-2" x="49.59" y="37.22" width="1.77" height="1.86"/><rect class="cls-2" x="44.27" y="37.22" width="1.77" height="1.86"/><rect class="cls-2" x="42.5" y="37.22" width="1.77" height="1.86"/><rect class="cls-2" x="40.73" y="37.22" width="1.77" height="1.86"/><rect class="cls-2" x="38.96" y="37.22" width="1.77" height="1.86"/><rect class="cls-2" x="37.19" y="37.22" width="1.77" height="1.86"/><rect class="cls-2" x="35.42" y="37.22" width="1.77" height="1.86"/><rect class="cls-2" x="26.56" y="37.22" width="1.77" height="1.86"/><rect class="cls-2" x="24.79" y="37.22" width="1.77" height="1.86"/><rect class="cls-2" x="23.02" y="37.22" width="1.77" height="1.86"/><rect class="cls-2" x="21.25" y="37.22" width="1.77" height="1.86"/><rect class="cls-2" x="19.48" y="37.22" width="1.77" height="1.86"/><rect class="cls-2" x="3.54" y="37.22" width="1.77" height="1.86"/><rect class="cls-2" x="1.77" y="37.22" width="1.77" height="1.86"/><rect class="cls-2" x="51.36" y="35.36" width="1.77" height="1.86"/><rect class="cls-2" x="49.59" y="35.36" width="1.77" height="1.86"/><rect class="cls-2" x="47.82" y="35.36" width="1.77" height="1.86"/><rect class="cls-2" x="44.27" y="35.36" width="1.77" height="1.86"/><rect class="cls-2" x="42.5" y="35.36" width="1.77" height="1.86"/><rect class="cls-2" x="40.73" y="35.36" width="1.77" height="1.86"/><rect class="cls-2" x="38.96" y="35.36" width="1.77" height="1.86"/><rect class="cls-2" x="37.19" y="35.36" width="1.77" height="1.86"/><rect class="cls-2" x="35.42" y="35.36" width="1.77" height="1.86"/><rect class="cls-2" x="24.79" y="35.36" width="1.77" height="1.86"/><rect class="cls-2" x="23.02" y="35.36" width="1.77" height="1.86"/><rect class="cls-2" x="21.25" y="35.36" width="1.77" height="1.86"/><rect class="cls-2" x="19.48" y="35.36" width="1.77" height="1.86"/><rect class="cls-2" x="17.71" y="35.36" width="1.77" height="1.86"/><rect class="cls-2" x="15.94" y="35.36" width="1.77" height="1.86"/><rect class="cls-2" x="1.77" y="35.36" width="1.77" height="1.86"/><rect class="cls-2" y="35.36" width="1.77" height="1.86"/><rect class="cls-2" x="49.59" y="33.5" width="1.77" height="1.86"/><rect class="cls-2" x="40.73" y="33.5" width="1.77" height="1.86"/><rect class="cls-2" x="38.96" y="33.5" width="1.77" height="1.86"/><rect class="cls-2" x="37.19" y="33.5" width="1.77" height="1.86"/><rect class="cls-2" x="24.79" y="33.5" width="1.77" height="1.86"/><rect class="cls-2" x="23.02" y="33.5" width="1.77" height="1.86"/><rect class="cls-2" x="21.25" y="33.5" width="1.77" height="1.86"/><rect class="cls-2" x="19.48" y="33.5" width="1.77" height="1.86"/><rect class="cls-2" x="17.71" y="33.5" width="1.77" height="1.86"/><rect class="cls-2" x="15.94" y="33.5" width="1.77" height="1.86"/><rect class="cls-2" x="1.77" y="33.5" width="1.77" height="1.86"/><rect class="cls-2" x="51.36" y="31.64" width="1.77" height="1.86"/><rect class="cls-2" x="49.59" y="31.64" width="1.77" height="1.86"/><rect class="cls-2" x="21.25" y="31.64" width="1.77" height="1.86"/><rect class="cls-2" x="19.48" y="31.64" width="1.77" height="1.86"/><rect class="cls-2" x="17.71" y="31.64" width="1.77" height="1.86"/><rect class="cls-2" x="15.94" y="31.64" width="1.77" height="1.86"/><rect class="cls-2" x="14.17" y="31.64" width="1.77" height="1.86"/><rect class="cls-2" x="1.77" y="31.64" width="1.77" height="1.86"/><rect class="cls-2" y="31.64" width="1.77" height="1.86"/><rect class="cls-2" x="51.36" y="29.78" width="1.77" height="1.86"/><rect class="cls-2" x="49.59" y="29.78" width="1.77" height="1.86"/><rect class="cls-2" x="19.48" y="29.78" width="1.77" height="1.86"/><rect class="cls-2" x="17.71" y="29.78" width="1.77" height="1.86"/><rect class="cls-2" x="15.94" y="29.78" width="1.77" height="1.86"/><rect class="cls-2" x="14.17" y="29.78" width="1.77" height="1.86"/><rect class="cls-2" x="12.4" y="29.78" width="1.77" height="1.86"/><rect class="cls-2" x="1.77" y="29.78" width="1.77" height="1.86"/><rect class="cls-2" y="29.78" width="1.77" height="1.86"/><rect class="cls-2" x="51.36" y="27.92" width="1.77" height="1.86"/><rect class="cls-2" x="49.59" y="27.92" width="1.77" height="1.86"/><rect class="cls-2" x="19.48" y="27.92" width="1.77" height="1.86"/><rect class="cls-2" x="17.71" y="27.92" width="1.77" height="1.86"/><rect class="cls-2" x="15.94" y="27.92" width="1.77" height="1.86"/><rect class="cls-2" x="14.17" y="27.92" width="1.77" height="1.86"/><rect class="cls-2" x="12.4" y="27.92" width="1.77" height="1.86"/><rect class="cls-2" x="1.77" y="27.92" width="1.77" height="1.86"/><rect class="cls-2" y="27.92" width="1.77" height="1.86"/><rect class="cls-2" x="51.36" y="26.05" width="1.77" height="1.86"/><rect class="cls-2" x="49.59" y="26.05" width="1.77" height="1.86"/><rect class="cls-2" x="19.48" y="26.05" width="1.77" height="1.86"/><rect class="cls-2" x="17.71" y="26.05" width="1.77" height="1.86"/><rect class="cls-2" x="15.94" y="26.05" width="1.77" height="1.86"/><rect class="cls-2" x="14.17" y="26.05" width="1.77" height="1.86"/><rect class="cls-2" x="12.4" y="26.05" width="1.77" height="1.86"/><rect class="cls-2" x="10.63" y="26.05" width="1.77" height="1.86"/><rect class="cls-2" x="1.77" y="26.05" width="1.77" height="1.86"/><rect class="cls-2" y="26.05" width="1.77" height="1.86"/><rect class="cls-2" x="51.36" y="24.19" width="1.77" height="1.86"/><rect class="cls-2" x="49.59" y="24.19" width="1.77" height="1.86"/><rect class="cls-2" x="17.71" y="24.19" width="1.77" height="1.86"/><rect class="cls-2" x="15.94" y="24.19" width="1.77" height="1.86"/><rect class="cls-2" x="14.17" y="24.19" width="1.77" height="1.86"/><rect class="cls-2" x="12.4" y="24.19" width="1.77" height="1.86"/><rect class="cls-2" x="10.63" y="24.19" width="1.77" height="1.86"/><rect class="cls-2" x="1.77" y="24.19" width="1.77" height="1.86"/><rect class="cls-2" y="24.19" width="1.77" height="1.86"/><rect class="cls-2" x="51.36" y="22.33" width="1.77" height="1.86"/><rect class="cls-2" x="49.59" y="22.33" width="1.77" height="1.86"/><rect class="cls-2" x="15.94" y="22.33" width="1.77" height="1.86"/><rect class="cls-2" x="14.17" y="22.33" width="1.77" height="1.86"/><rect class="cls-2" x="12.4" y="22.33" width="1.77" height="1.86"/><rect class="cls-2" x="10.63" y="22.33" width="1.77" height="1.86"/><rect class="cls-2" x="1.77" y="22.33" width="1.77" height="1.86"/><rect class="cls-2" y="22.33" width="1.77" height="1.86"/><rect class="cls-2" x="49.59" y="20.47" width="1.77" height="1.86"/><rect class="cls-2" x="15.94" y="20.47" width="1.77" height="1.86"/><rect class="cls-2" x="14.17" y="20.47" width="1.77" height="1.86"/><rect class="cls-2" x="12.4" y="20.47" width="1.77" height="1.86"/><rect class="cls-2" x="10.63" y="20.47" width="1.77" height="1.86"/><rect class="cls-2" x="1.77" y="20.47" width="1.77" height="1.86"/><rect class="cls-2" x="49.59" y="18.61" width="1.77" height="1.86"/><rect class="cls-2" x="47.82" y="18.61" width="1.77" height="1.86"/><rect class="cls-2" x="14.17" y="18.61" width="1.77" height="1.86"/><rect class="cls-2" x="12.4" y="18.61" width="1.77" height="1.86"/><rect class="cls-2" x="10.63" y="18.61" width="1.77" height="1.86"/><rect class="cls-2" x="8.85" y="18.61" width="1.77" height="1.86"/><rect class="cls-2" x="3.54" y="18.61" width="1.77" height="1.86"/><rect class="cls-2" x="1.77" y="18.61" width="1.77" height="1.86"/><rect class="cls-2" x="47.82" y="16.75" width="1.77" height="1.86"/><rect class="cls-2" x="14.17" y="16.75" width="1.77" height="1.86"/><rect class="cls-2" x="12.4" y="16.75" width="1.77" height="1.86"/><rect class="cls-2" x="10.63" y="16.75" width="1.77" height="1.86"/><rect class="cls-2" x="8.85" y="16.75" width="1.77" height="1.86"/><rect class="cls-2" x="3.54" y="16.75" width="1.77" height="1.86"/><rect class="cls-2" x="47.82" y="14.89" width="1.77" height="1.86"/><rect class="cls-2" x="46.04" y="14.89" width="1.77" height="1.86"/><rect class="cls-2" x="19.48" y="14.89" width="1.77" height="1.86"/><rect class="cls-2" x="17.71" y="14.89" width="1.77" height="1.86"/><rect class="cls-2" x="15.94" y="14.89" width="1.77" height="1.86"/><rect class="cls-2" x="14.17" y="14.89" width="1.77" height="1.86"/><rect class="cls-2" x="12.4" y="14.89" width="1.77" height="1.86"/><rect class="cls-2" x="10.63" y="14.89" width="1.77" height="1.86"/><rect class="cls-2" x="8.85" y="14.89" width="1.77" height="1.86"/><rect class="cls-2" x="3.54" y="14.89" width="1.77" height="1.86"/><rect class="cls-2" x="46.04" y="13.03" width="1.77" height="1.86"/><rect class="cls-2" x="44.27" y="13.03" width="1.77" height="1.86"/><rect class="cls-2" x="23.02" y="13.03" width="1.77" height="1.86"/><rect class="cls-2" x="21.25" y="13.03" width="1.77" height="1.86"/><rect class="cls-2" x="19.48" y="13.03" width="1.77" height="1.86"/><rect class="cls-2" x="17.71" y="13.03" width="1.77" height="1.86"/><rect class="cls-2" x="15.94" y="13.03" width="1.77" height="1.86"/><rect class="cls-2" x="14.17" y="13.03" width="1.77" height="1.86"/><rect class="cls-2" x="12.4" y="13.03" width="1.77" height="1.86"/><rect class="cls-2" x="10.63" y="13.03" width="1.77" height="1.86"/><rect class="cls-2" x="8.85" y="13.03" width="1.77" height="1.86"/><rect class="cls-2" x="7.08" y="13.03" width="1.77" height="1.86"/><rect class="cls-2" x="3.54" y="13.03" width="1.77" height="1.86"/><rect class="cls-2" x="44.27" y="11.17" width="1.77" height="1.86"/><rect class="cls-2" x="42.5" y="11.17" width="1.77" height="1.86"/><rect class="cls-2" x="23.02" y="11.17" width="1.77" height="1.86"/><rect class="cls-2" x="21.25" y="11.17" width="1.77" height="1.86"/><rect class="cls-2" x="19.48" y="11.17" width="1.77" height="1.86"/><rect class="cls-2" x="17.71" y="11.17" width="1.77" height="1.86"/><rect class="cls-2" x="15.94" y="11.17" width="1.77" height="1.86"/><rect class="cls-2" x="14.17" y="11.17" width="1.77" height="1.86"/><rect class="cls-2" x="12.4" y="11.17" width="1.77" height="1.86"/><rect class="cls-2" x="10.63" y="11.17" width="1.77" height="1.86"/><rect class="cls-2" x="8.85" y="11.17" width="1.77" height="1.86"/><rect class="cls-2" x="7.08" y="11.17" width="1.77" height="1.86"/><rect class="cls-2" x="44.27" y="9.31" width="1.77" height="1.86"/><rect class="cls-2" x="42.5" y="9.31" width="1.77" height="1.86"/><rect class="cls-2" x="40.73" y="9.31" width="1.77" height="1.86"/><rect class="cls-2" x="23.02" y="9.31" width="1.77" height="1.86"/><rect class="cls-2" x="21.25" y="9.31" width="1.77" height="1.86"/><rect class="cls-2" x="19.48" y="9.31" width="1.77" height="1.86"/><rect class="cls-2" x="17.71" y="9.31" width="1.77" height="1.86"/><rect class="cls-2" x="15.94" y="9.31" width="1.77" height="1.86"/><rect class="cls-2" x="14.17" y="9.31" width="1.77" height="1.86"/><rect class="cls-2" x="12.4" y="9.31" width="1.77" height="1.86"/><rect class="cls-2" x="10.63" y="9.31" width="1.77" height="1.86"/><rect class="cls-2" x="8.85" y="9.31" width="1.77" height="1.86"/><rect class="cls-2" x="7.08" y="9.31" width="1.77" height="1.86"/><rect class="cls-2" x="42.5" y="7.44" width="1.77" height="1.86"/><rect class="cls-2" x="40.73" y="7.44" width="1.77" height="1.86"/><rect class="cls-2" x="38.96" y="7.44" width="1.77" height="1.86"/><rect class="cls-2" x="21.25" y="7.44" width="1.77" height="1.86"/><rect class="cls-2" x="19.48" y="7.44" width="1.77" height="1.86"/><rect class="cls-2" x="17.71" y="7.44" width="1.77" height="1.86"/><rect class="cls-2" x="15.94" y="7.44" width="1.77" height="1.86"/><rect class="cls-2" x="14.17" y="7.44" width="1.77" height="1.86"/><rect class="cls-2" x="12.4" y="7.44" width="1.77" height="1.86"/><rect class="cls-2" x="10.63" y="7.44" width="1.77" height="1.86"/><rect class="cls-2" x="8.85" y="7.44" width="1.77" height="1.86"/><rect class="cls-2" x="7.08" y="7.44" width="1.77" height="1.86"/><rect class="cls-2" x="38.96" y="5.58" width="1.77" height="1.86"/><rect class="cls-2" x="37.19" y="5.58" width="1.77" height="1.86"/><rect class="cls-2" x="35.42" y="5.58" width="1.77" height="1.86"/><rect class="cls-2" x="21.25" y="5.58" width="1.77" height="1.86"/><rect class="cls-2" x="19.48" y="5.58" width="1.77" height="1.86"/><rect class="cls-2" x="17.71" y="5.58" width="1.77" height="1.86"/><rect class="cls-2" x="15.94" y="5.58" width="1.77" height="1.86"/><rect class="cls-2" x="14.17" y="5.58" width="1.77" height="1.86"/><rect class="cls-2" x="12.4" y="5.58" width="1.77" height="1.86"/><rect class="cls-2" x="10.63" y="5.58" width="1.77" height="1.86"/><rect class="cls-2" x="8.85" y="5.58" width="1.77" height="1.86"/><rect class="cls-2" x="35.42" y="3.72" width="1.77" height="1.86"/><rect class="cls-2" x="33.65" y="3.72" width="1.77" height="1.86"/><rect class="cls-2" x="31.88" y="3.72" width="1.77" height="1.86"/><rect class="cls-2" x="30.11" y="3.72" width="1.77" height="1.86"/><rect class="cls-2" x="28.34" y="3.72" width="1.77" height="1.86"/><rect class="cls-2" x="26.56" y="3.72" width="1.77" height="1.86"/><rect class="cls-2" x="24.79" y="3.72" width="1.77" height="1.86"/><rect class="cls-2" x="19.48" y="3.72" width="1.77" height="1.86"/><rect class="cls-2" x="17.71" y="3.72" width="1.77" height="1.86"/><rect class="cls-2" x="15.94" y="3.72" width="1.77" height="1.86"/><rect class="cls-2" x="14.17" y="3.72" width="1.77" height="1.86"/><rect class="cls-2" x="12.4" y="3.72" width="1.77" height="1.86"/><rect class="cls-2" x="10.63" y="3.72" width="1.77" height="1.86"/><rect class="cls-2" x="31.88" y="1.86" width="1.77" height="1.86"/><rect class="cls-2" x="30.11" y="1.86" width="1.77" height="1.86"/><rect class="cls-2" x="28.34" y="1.86" width="1.77" height="1.86"/><rect class="cls-2" x="26.56" y="1.86" width="1.77" height="1.86"/><rect class="cls-2" x="24.79" y="1.86" width="1.77" height="1.86"/><rect class="cls-2" x="19.48" y="1.86" width="1.77" height="1.86"/><rect class="cls-2" x="17.71" y="1.86" width="1.77" height="1.86"/><rect class="cls-2" x="15.94" y="1.86" width="1.77" height="1.86"/><rect class="cls-2" x="14.17" y="1.86" width="1.77" height="1.86"/><rect class="cls-2" x="12.4" y="1.86" width="1.77" height="1.86"/><rect class="cls-2" x="17.71" width="1.77" height="1.86"/><rect class="cls-2" x="15.94" width="1.77" height="1.86"/><rect class="cls-2" x="14.17" width="1.77" height="1.86"/><rect class="cls-2" x="51.36" y="33.5" width="1.77" height="1.86"/><rect class="cls-2" x="51.36" y="37.22" width="1.77" height="1.86"/></svg>