<svg id="Layer_1" data-name="Layer 1" xmlns="http://www.w3.org/2000/svg" viewBox="0 0 32.27 7.52"><defs><style>.cls-1{fill:#26763b;}</style></defs><path class="cls-1" d="M.87,7.52v-1h.76v1Zm.88,0v-1h.76v1Zm.87,0v-1h.76v1Zm.87,0v-1h.76v1ZM0,6.43v-1H.76v1Zm.87,0v-1h.76v1ZM0,5.34v-1H.76v1Zm.87,0v-1h.76v1ZM0,4.25v-1H.76v1Zm.87,0v-1h.76v1ZM0,3.15v-1H.76v1Zm.87,0v-1h.76v1ZM0,2.06v-1H.76v1Zm.87,0v-1h.76v1ZM.87,1V0h.76V1Zm.88,0V0h.76V1Zm.87,0V0h.76V1Zm.87,0V0h.76V1Z"/><path class="cls-1" d="M5.19,7.52v-1H6v1Zm.87,0v-1h.76v1Zm.87,0v-1H7.7v1Zm.88,0v-1h.76v1ZM4.32,6.43v-1h.76v1Zm.87,0v-1H6v1Zm1.74,0v-1H7.7v1Zm.88,0v-1h.76v1ZM5.19,5.34v-1H6v1Zm.87,0v-1h.76v1Zm.87,0v-1H7.7v1Zm.88,0v-1h.76v1ZM6.93,4.25v-1H7.7v1Zm.88,0v-1h.76v1ZM5.19,3.15v-1H6v1Zm.87,0v-1h.76v1Zm.87,0v-1H7.7v1Z"/><path class="cls-1" d="M9.86,7.52v-1h.76v1Zm.87,0v-1h.77v1ZM9.86,6.43v-1h.76v1Zm.87,0v-1h.77v1ZM9.86,5.34v-1h.76v1Zm.87,0v-1h.77v1ZM9.86,4.25v-1h.76v1Zm.87,0v-1h.77v1Zm-.87-1.1v-1h.76v1Zm.87,0v-1h.77v1ZM9.86,2.06v-1h.76v1Zm.87,0v-1h.77v1ZM9.86,1V0h.76V1Zm.87,0V0h.77V1Z"/><path class="cls-1" d="M12.81,7.52v-1h.76v1Zm.87,0v-1h.76v1Zm-.87-1.09v-1h.76v1Zm.87,0v-1h.76v1Zm-.87-1.09v-1h.76v1Zm.87,0v-1h.76v1Zm-.87-1.09v-1h.76v1Zm.87,0v-1h.76v1Zm-.87-1.1v-1h.76v1Zm.87,0v-1h.76v1Zm-.87-1.09v-1h.76v1Zm.87,0v-1h.76v1ZM12.81,1V0h.76V1Zm.87,0V0h.76V1Z"/><path class="cls-1" d="M19,7.52v-1h.76v1Zm.87,0v-1h.76v1Zm.87,0v-1h.76v1Zm.87,0v-1h.77v1ZM18.08,6.43v-1h.77v1Zm.88,0v-1h.76v1Zm-.88-1.09v-1h.77v1Zm.88,0v-1h.76v1Zm-.88-1.09v-1h.77v1Zm.88,0v-1h.76v1Zm-.88-1.1v-1h.77v1Zm.88,0v-1h.76v1Zm-.88-1.09v-1h.77v1Zm.88,0v-1h.76v1ZM19,1V0h.76V1Zm.87,0V0h.76V1Zm.87,0V0h.76V1Zm.87,0V0h.77V1Z"/><path class="cls-1" d="M23.39,7.52v-1h.77v1Zm.88,0v-1H25v1Zm.87,0v-1h.76v1Zm.87,0v-1h.76v1ZM22.52,6.43v-1h.76v1Zm.87,0v-1h.77v1Zm1.75,0v-1h.76v1Zm.87,0v-1h.76v1ZM22.52,5.34v-1h.76v1Zm.87,0v-1h.77v1Zm1.75,0v-1h.76v1Zm.87,0v-1h.76v1ZM22.52,4.25v-1h.76v1Zm.87,0v-1h.77v1Zm1.75,0v-1h.76v1Zm.87,0v-1h.76v1Zm-3.49-1.1v-1h.76v1Zm.87,0v-1h.77v1Zm1.75,0v-1h.76v1Zm.87,0v-1h.76v1Z"/><path class="cls-1" d="M28.89,7.52v-1h.76v1Zm.87,0v-1h.77v1Zm.88,0v-1h.76v1Zm.87,0v-1h.76v1ZM28,6.43v-1h.76v1Zm.87,0v-1h.76v1ZM28,5.34v-1h.76v1Zm.87,0v-1h.76v1Zm.87,0v-1h.77v1Zm.88,0v-1h.76v1Zm.87,0v-1h.76v1ZM28,4.25v-1h.76v1Zm.87,0v-1h.76v1Zm1.75,0v-1h.76v1Zm.87,0v-1h.76v1Zm-2.62-1.1v-1h.76v1Zm.87,0v-1h.77v1Zm.88,0v-1h.76v1Z"/></svg>