<svg id="Layer_1" data-name="Layer 1" xmlns="http://www.w3.org/2000/svg" viewBox="0 0 59 62"><defs><style>.cls-1{fill:#0e7900;}</style></defs><rect class="cls-1" x="33.43" y="59.93" width="1.97" height="2.07"/><rect class="cls-1" x="31.47" y="59.93" width="1.97" height="2.07"/><rect class="cls-1" x="29.5" y="59.93" width="1.97" height="2.07"/><rect class="cls-1" x="27.53" y="59.93" width="1.97" height="2.07"/><rect class="cls-1" x="25.57" y="59.93" width="1.97" height="2.07"/><rect class="cls-1" x="23.6" y="59.93" width="1.97" height="2.07"/><rect class="cls-1" x="35.4" y="57.87" width="1.97" height="2.07"/><rect class="cls-1" x="33.43" y="57.87" width="1.97" height="2.07"/><rect class="cls-1" x="31.47" y="57.87" width="1.97" height="2.07"/><rect class="cls-1" x="29.5" y="57.87" width="1.97" height="2.07"/><rect class="cls-1" x="27.53" y="57.87" width="1.97" height="2.07"/><rect class="cls-1" x="25.57" y="57.87" width="1.97" height="2.07"/><rect class="cls-1" x="23.6" y="57.87" width="1.97" height="2.07"/><rect class="cls-1" x="21.63" y="57.87" width="1.97" height="2.07"/><rect class="cls-1" x="19.67" y="57.87" width="1.97" height="2.07"/><rect class="cls-1" x="17.7" y="57.87" width="1.97" height="2.07"/><rect class="cls-1" x="45.23" y="55.8" width="1.97" height="2.07"/><rect class="cls-1" x="43.27" y="55.8" width="1.97" height="2.07"/><rect class="cls-1" x="41.3" y="55.8" width="1.97" height="2.07"/><rect class="cls-1" x="39.33" y="55.8" width="1.97" height="2.07"/><rect class="cls-1" x="17.7" y="55.8" width="1.97" height="2.07"/><rect class="cls-1" x="15.73" y="55.8" width="1.97" height="2.07"/><rect class="cls-1" x="13.77" y="55.8" width="1.97" height="2.07"/><rect class="cls-1" x="49.17" y="53.73" width="1.97" height="2.07"/><rect class="cls-1" x="47.2" y="53.73" width="1.97" height="2.07"/><rect class="cls-1" x="45.23" y="53.73" width="1.97" height="2.07"/><rect class="cls-1" x="43.27" y="53.73" width="1.97" height="2.07"/><rect class="cls-1" x="41.3" y="53.73" width="1.97" height="2.07"/><rect class="cls-1" x="39.33" y="53.73" width="1.97" height="2.07"/><rect class="cls-1" x="37.37" y="53.73" width="1.97" height="2.07"/><rect class="cls-1" x="13.77" y="53.73" width="1.97" height="2.07"/><rect class="cls-1" x="11.8" y="53.73" width="1.97" height="2.07"/><rect class="cls-1" x="53.1" y="51.67" width="1.97" height="2.07"/><rect class="cls-1" x="51.13" y="51.67" width="1.97" height="2.07"/><rect class="cls-1" x="49.17" y="51.67" width="1.97" height="2.07"/><rect class="cls-1" x="47.2" y="51.67" width="1.97" height="2.07"/><rect class="cls-1" x="45.23" y="51.67" width="1.97" height="2.07"/><rect class="cls-1" x="43.27" y="51.67" width="1.97" height="2.07"/><rect class="cls-1" x="41.3" y="51.67" width="1.97" height="2.07"/><rect class="cls-1" x="39.33" y="51.67" width="1.97" height="2.07"/><rect class="cls-1" x="37.37" y="51.67" width="1.97" height="2.07"/><rect class="cls-1" x="35.4" y="51.67" width="1.97" height="2.07"/><rect class="cls-1" x="33.43" y="51.67" width="1.97" height="2.07"/><rect class="cls-1" x="11.8" y="51.67" width="1.97" height="2.07"/><rect class="cls-1" x="9.83" y="51.67" width="1.97" height="2.07"/><rect class="cls-1" x="7.87" y="51.67" width="1.97" height="2.07"/><rect class="cls-1" x="53.1" y="49.6" width="1.97" height="2.07"/><rect class="cls-1" x="51.13" y="49.6" width="1.97" height="2.07"/><rect class="cls-1" x="49.17" y="49.6" width="1.97" height="2.07"/><rect class="cls-1" x="47.2" y="49.6" width="1.97" height="2.07"/><rect class="cls-1" x="45.23" y="49.6" width="1.97" height="2.07"/><rect class="cls-1" x="43.27" y="49.6" width="1.97" height="2.07"/><rect class="cls-1" x="41.3" y="49.6" width="1.97" height="2.07"/><rect class="cls-1" x="39.33" y="49.6" width="1.97" height="2.07"/><rect class="cls-1" x="37.37" y="49.6" width="1.97" height="2.07"/><rect class="cls-1" x="35.4" y="49.6" width="1.97" height="2.07"/><rect class="cls-1" x="33.43" y="49.6" width="1.97" height="2.07"/><rect class="cls-1" x="31.47" y="49.6" width="1.97" height="2.07"/><rect class="cls-1" x="29.5" y="49.6" width="1.97" height="2.07"/><rect class="cls-1" x="9.83" y="49.6" width="1.97" height="2.07"/><rect class="cls-1" x="7.87" y="49.6" width="1.97" height="2.07"/><rect class="cls-1" x="53.1" y="47.53" width="1.97" height="2.07"/><rect class="cls-1" x="51.13" y="47.53" width="1.97" height="2.07"/><rect class="cls-1" x="49.17" y="47.53" width="1.97" height="2.07"/><rect class="cls-1" x="47.2" y="47.53" width="1.97" height="2.07"/><rect class="cls-1" x="45.23" y="47.53" width="1.97" height="2.07"/><rect class="cls-1" x="43.27" y="47.53" width="1.97" height="2.07"/><rect class="cls-1" x="41.3" y="47.53" width="1.97" height="2.07"/><rect class="cls-1" x="39.33" y="47.53" width="1.97" height="2.07"/><rect class="cls-1" x="37.37" y="47.53" width="1.97" height="2.07"/><rect class="cls-1" x="35.4" y="47.53" width="1.97" height="2.07"/><rect class="cls-1" x="33.43" y="47.53" width="1.97" height="2.07"/><rect class="cls-1" x="31.47" y="47.53" width="1.97" height="2.07"/><rect class="cls-1" x="29.5" y="47.53" width="1.97" height="2.07"/><rect class="cls-1" x="27.53" y="47.53" width="1.97" height="2.07"/><rect class="cls-1" x="7.87" y="47.53" width="1.97" height="2.07"/><rect class="cls-1" x="5.9" y="47.53" width="1.97" height="2.07"/><rect class="cls-1" x="53.1" y="45.47" width="1.97" height="2.07"/><rect class="cls-1" x="51.13" y="45.47" width="1.97" height="2.07"/><rect class="cls-1" x="49.17" y="45.47" width="1.97" height="2.07"/><rect class="cls-1" x="47.2" y="45.47" width="1.97" height="2.07"/><rect class="cls-1" x="45.23" y="45.47" width="1.97" height="2.07"/><rect class="cls-1" x="43.27" y="45.47" width="1.97" height="2.07"/><rect class="cls-1" x="41.3" y="45.47" width="1.97" height="2.07"/><rect class="cls-1" x="39.33" y="45.47" width="1.97" height="2.07"/><rect class="cls-1" x="37.37" y="45.47" width="1.97" height="2.07"/><rect class="cls-1" x="35.4" y="45.47" width="1.97" height="2.07"/><rect class="cls-1" x="33.43" y="45.47" width="1.97" height="2.07"/><rect class="cls-1" x="31.47" y="45.47" width="1.97" height="2.07"/><rect class="cls-1" x="29.5" y="45.47" width="1.97" height="2.07"/><rect class="cls-1" x="27.53" y="45.47" width="1.97" height="2.07"/><rect class="cls-1" x="25.57" y="45.47" width="1.97" height="2.07"/><rect class="cls-1" x="5.9" y="45.47" width="1.97" height="2.07"/><rect class="cls-1" x="3.93" y="45.47" width="1.97" height="2.07"/><rect class="cls-1" x="51.13" y="43.4" width="1.97" height="2.07"/><rect class="cls-1" x="49.17" y="43.4" width="1.97" height="2.07"/><rect class="cls-1" x="47.2" y="43.4" width="1.97" height="2.07"/><rect class="cls-1" x="45.23" y="43.4" width="1.97" height="2.07"/><rect class="cls-1" x="43.27" y="43.4" width="1.97" height="2.07"/><rect class="cls-1" x="41.3" y="43.4" width="1.97" height="2.07"/><rect class="cls-1" x="39.33" y="43.4" width="1.97" height="2.07"/><rect class="cls-1" x="37.37" y="43.4" width="1.97" height="2.07"/><rect class="cls-1" x="33.43" y="43.4" width="1.97" height="2.07"/><rect class="cls-1" x="31.47" y="43.4" width="1.97" height="2.07"/><rect class="cls-1" x="29.5" y="43.4" width="1.97" height="2.07"/><rect class="cls-1" x="27.53" y="43.4" width="1.97" height="2.07"/><rect class="cls-1" x="25.57" y="43.4" width="1.97" height="2.07"/><rect class="cls-1" x="23.6" y="43.4" width="1.97" height="2.07"/><rect class="cls-1" x="3.93" y="43.4" width="1.97" height="2.07"/><rect class="cls-1" x="55.07" y="41.33" width="1.97" height="2.07"/><rect class="cls-1" x="49.17" y="41.33" width="1.97" height="2.07"/><rect class="cls-1" x="47.2" y="41.33" width="1.97" height="2.07"/><rect class="cls-1" x="45.23" y="41.33" width="1.97" height="2.07"/><rect class="cls-1" x="43.27" y="41.33" width="1.97" height="2.07"/><rect class="cls-1" x="41.3" y="41.33" width="1.97" height="2.07"/><rect class="cls-1" x="39.33" y="41.33" width="1.97" height="2.07"/><rect class="cls-1" x="29.5" y="41.33" width="1.97" height="2.07"/><rect class="cls-1" x="27.53" y="41.33" width="1.97" height="2.07"/><rect class="cls-1" x="25.57" y="41.33" width="1.97" height="2.07"/><rect class="cls-1" x="23.6" y="41.33" width="1.97" height="2.07"/><rect class="cls-1" x="21.63" y="41.33" width="1.97" height="2.07"/><rect class="cls-1" x="3.93" y="41.33" width="1.97" height="2.07"/><rect class="cls-1" x="1.97" y="41.33" width="1.97" height="2.07"/><rect class="cls-1" x="57.03" y="39.27" width="1.97" height="2.07"/><rect class="cls-1" x="55.07" y="39.27" width="1.97" height="2.07"/><rect class="cls-1" x="53.1" y="39.27" width="1.97" height="2.07"/><rect class="cls-1" x="49.17" y="39.27" width="1.97" height="2.07"/><rect class="cls-1" x="47.2" y="39.27" width="1.97" height="2.07"/><rect class="cls-1" x="45.23" y="39.27" width="1.97" height="2.07"/><rect class="cls-1" x="43.27" y="39.27" width="1.97" height="2.07"/><rect class="cls-1" x="41.3" y="39.27" width="1.97" height="2.07"/><rect class="cls-1" x="39.33" y="39.27" width="1.97" height="2.07"/><rect class="cls-1" x="27.53" y="39.27" width="1.97" height="2.07"/><rect class="cls-1" x="25.57" y="39.27" width="1.97" height="2.07"/><rect class="cls-1" x="23.6" y="39.27" width="1.97" height="2.07"/><rect class="cls-1" x="21.63" y="39.27" width="1.97" height="2.07"/><rect class="cls-1" x="19.67" y="39.27" width="1.97" height="2.07"/><rect class="cls-1" x="17.7" y="39.27" width="1.97" height="2.07"/><rect class="cls-1" x="1.97" y="39.27" width="1.97" height="2.07"/><rect class="cls-1" y="39.27" width="1.97" height="2.07"/><rect class="cls-1" x="55.07" y="37.2" width="1.97" height="2.07"/><rect class="cls-1" x="45.23" y="37.2" width="1.97" height="2.07"/><rect class="cls-1" x="43.27" y="37.2" width="1.97" height="2.07"/><rect class="cls-1" x="41.3" y="37.2" width="1.97" height="2.07"/><rect class="cls-1" x="27.53" y="37.2" width="1.97" height="2.07"/><rect class="cls-1" x="25.57" y="37.2" width="1.97" height="2.07"/><rect class="cls-1" x="23.6" y="37.2" width="1.97" height="2.07"/><rect class="cls-1" x="21.63" y="37.2" width="1.97" height="2.07"/><rect class="cls-1" x="19.67" y="37.2" width="1.97" height="2.07"/><rect class="cls-1" x="17.7" y="37.2" width="1.97" height="2.07"/><rect class="cls-1" x="1.97" y="37.2" width="1.97" height="2.07"/><rect class="cls-1" x="57.03" y="35.13" width="1.97" height="2.07"/><rect class="cls-1" x="55.07" y="35.13" width="1.97" height="2.07"/><rect class="cls-1" x="23.6" y="35.13" width="1.97" height="2.07"/><rect class="cls-1" x="21.63" y="35.13" width="1.97" height="2.07"/><rect class="cls-1" x="19.67" y="35.13" width="1.97" height="2.07"/><rect class="cls-1" x="17.7" y="35.13" width="1.97" height="2.07"/><rect class="cls-1" x="15.73" y="35.13" width="1.97" height="2.07"/><rect class="cls-1" x="1.97" y="35.13" width="1.97" height="2.07"/><rect class="cls-1" y="35.13" width="1.97" height="2.07"/><rect class="cls-1" x="57.03" y="33.07" width="1.97" height="2.07"/><rect class="cls-1" x="55.07" y="33.07" width="1.97" height="2.07"/><rect class="cls-1" x="21.63" y="33.07" width="1.97" height="2.07"/><rect class="cls-1" x="19.67" y="33.07" width="1.97" height="2.07"/><rect class="cls-1" x="17.7" y="33.07" width="1.97" height="2.07"/><rect class="cls-1" x="15.73" y="33.07" width="1.97" height="2.07"/><rect class="cls-1" x="13.77" y="33.07" width="1.97" height="2.07"/><rect class="cls-1" x="1.97" y="33.07" width="1.97" height="2.07"/><rect class="cls-1" y="33.07" width="1.97" height="2.07"/><rect class="cls-1" x="57.03" y="31" width="1.97" height="2.07"/><rect class="cls-1" x="55.07" y="31" width="1.97" height="2.07"/><rect class="cls-1" x="21.63" y="31" width="1.97" height="2.07"/><rect class="cls-1" x="19.67" y="31" width="1.97" height="2.07"/><rect class="cls-1" x="17.7" y="31" width="1.97" height="2.07"/><rect class="cls-1" x="15.73" y="31" width="1.97" height="2.07"/><rect class="cls-1" x="13.77" y="31" width="1.97" height="2.07"/><rect class="cls-1" x="1.97" y="31" width="1.97" height="2.07"/><rect class="cls-1" y="31" width="1.97" height="2.07"/><rect class="cls-1" x="57.03" y="28.93" width="1.97" height="2.07"/><rect class="cls-1" x="55.07" y="28.93" width="1.97" height="2.07"/><rect class="cls-1" x="21.63" y="28.93" width="1.97" height="2.07"/><rect class="cls-1" x="19.67" y="28.93" width="1.97" height="2.07"/><rect class="cls-1" x="17.7" y="28.93" width="1.97" height="2.07"/><rect class="cls-1" x="15.73" y="28.93" width="1.97" height="2.07"/><rect class="cls-1" x="13.77" y="28.93" width="1.97" height="2.07"/><rect class="cls-1" x="11.8" y="28.93" width="1.97" height="2.07"/><rect class="cls-1" x="1.97" y="28.93" width="1.97" height="2.07"/><rect class="cls-1" y="28.93" width="1.97" height="2.07"/><rect class="cls-1" x="57.03" y="26.87" width="1.97" height="2.07"/><rect class="cls-1" x="55.07" y="26.87" width="1.97" height="2.07"/><rect class="cls-1" x="19.67" y="26.87" width="1.97" height="2.07"/><rect class="cls-1" x="17.7" y="26.87" width="1.97" height="2.07"/><rect class="cls-1" x="15.73" y="26.87" width="1.97" height="2.07"/><rect class="cls-1" x="13.77" y="26.87" width="1.97" height="2.07"/><rect class="cls-1" x="11.8" y="26.87" width="1.97" height="2.07"/><rect class="cls-1" x="1.97" y="26.87" width="1.97" height="2.07"/><rect class="cls-1" y="26.87" width="1.97" height="2.07"/><rect class="cls-1" x="57.03" y="24.8" width="1.97" height="2.07"/><rect class="cls-1" x="55.07" y="24.8" width="1.97" height="2.07"/><rect class="cls-1" x="17.7" y="24.8" width="1.97" height="2.07"/><rect class="cls-1" x="15.73" y="24.8" width="1.97" height="2.07"/><rect class="cls-1" x="13.77" y="24.8" width="1.97" height="2.07"/><rect class="cls-1" x="11.8" y="24.8" width="1.97" height="2.07"/><rect class="cls-1" x="1.97" y="24.8" width="1.97" height="2.07"/><rect class="cls-1" y="24.8" width="1.97" height="2.07"/><rect class="cls-1" x="55.07" y="22.73" width="1.97" height="2.07"/><rect class="cls-1" x="17.7" y="22.73" width="1.97" height="2.07"/><rect class="cls-1" x="15.73" y="22.73" width="1.97" height="2.07"/><rect class="cls-1" x="13.77" y="22.73" width="1.97" height="2.07"/><rect class="cls-1" x="11.8" y="22.73" width="1.97" height="2.07"/><rect class="cls-1" x="1.97" y="22.73" width="1.97" height="2.07"/><rect class="cls-1" x="55.07" y="20.67" width="1.97" height="2.07"/><rect class="cls-1" x="53.1" y="20.67" width="1.97" height="2.07"/><rect class="cls-1" x="15.73" y="20.67" width="1.97" height="2.07"/><rect class="cls-1" x="13.77" y="20.67" width="1.97" height="2.07"/><rect class="cls-1" x="11.8" y="20.67" width="1.97" height="2.07"/><rect class="cls-1" x="9.83" y="20.67" width="1.97" height="2.07"/><rect class="cls-1" x="3.93" y="20.67" width="1.97" height="2.07"/><rect class="cls-1" x="1.97" y="20.67" width="1.97" height="2.07"/><rect class="cls-1" x="53.1" y="18.6" width="1.97" height="2.07"/><rect class="cls-1" x="15.73" y="18.6" width="1.97" height="2.07"/><rect class="cls-1" x="13.77" y="18.6" width="1.97" height="2.07"/><rect class="cls-1" x="11.8" y="18.6" width="1.97" height="2.07"/><rect class="cls-1" x="9.83" y="18.6" width="1.97" height="2.07"/><rect class="cls-1" x="3.93" y="18.6" width="1.97" height="2.07"/><rect class="cls-1" x="53.1" y="16.53" width="1.97" height="2.07"/><rect class="cls-1" x="51.13" y="16.53" width="1.97" height="2.07"/><rect class="cls-1" x="21.63" y="16.53" width="1.97" height="2.07"/><rect class="cls-1" x="19.67" y="16.53" width="1.97" height="2.07"/><rect class="cls-1" x="17.7" y="16.53" width="1.97" height="2.07"/><rect class="cls-1" x="15.73" y="16.53" width="1.97" height="2.07"/><rect class="cls-1" x="13.77" y="16.53" width="1.97" height="2.07"/><rect class="cls-1" x="11.8" y="16.53" width="1.97" height="2.07"/><rect class="cls-1" x="9.83" y="16.53" width="1.97" height="2.07"/><rect class="cls-1" x="3.93" y="16.53" width="1.97" height="2.07"/><rect class="cls-1" x="51.13" y="14.47" width="1.97" height="2.07"/><rect class="cls-1" x="49.17" y="14.47" width="1.97" height="2.07"/><rect class="cls-1" x="25.57" y="14.47" width="1.97" height="2.07"/><rect class="cls-1" x="23.6" y="14.47" width="1.97" height="2.07"/><rect class="cls-1" x="21.63" y="14.47" width="1.97" height="2.07"/><rect class="cls-1" x="19.67" y="14.47" width="1.97" height="2.07"/><rect class="cls-1" x="17.7" y="14.47" width="1.97" height="2.07"/><rect class="cls-1" x="15.73" y="14.47" width="1.97" height="2.07"/><rect class="cls-1" x="13.77" y="14.47" width="1.97" height="2.07"/><rect class="cls-1" x="11.8" y="14.47" width="1.97" height="2.07"/><rect class="cls-1" x="9.83" y="14.47" width="1.97" height="2.07"/><rect class="cls-1" x="7.87" y="14.47" width="1.97" height="2.07"/><rect class="cls-1" x="3.93" y="14.47" width="1.97" height="2.07"/><rect class="cls-1" x="49.17" y="12.4" width="1.97" height="2.07"/><rect class="cls-1" x="47.2" y="12.4" width="1.97" height="2.07"/><rect class="cls-1" x="25.57" y="12.4" width="1.97" height="2.07"/><rect class="cls-1" x="23.6" y="12.4" width="1.97" height="2.07"/><rect class="cls-1" x="21.63" y="12.4" width="1.97" height="2.07"/><rect class="cls-1" x="19.67" y="12.4" width="1.97" height="2.07"/><rect class="cls-1" x="17.7" y="12.4" width="1.97" height="2.07"/><rect class="cls-1" x="15.73" y="12.4" width="1.97" height="2.07"/><rect class="cls-1" x="13.77" y="12.4" width="1.97" height="2.07"/><rect class="cls-1" x="11.8" y="12.4" width="1.97" height="2.07"/><rect class="cls-1" x="9.83" y="12.4" width="1.97" height="2.07"/><rect class="cls-1" x="7.87" y="12.4" width="1.97" height="2.07"/><rect class="cls-1" x="49.17" y="10.33" width="1.97" height="2.07"/><rect class="cls-1" x="47.2" y="10.33" width="1.97" height="2.07"/><rect class="cls-1" x="45.23" y="10.33" width="1.97" height="2.07"/><rect class="cls-1" x="25.57" y="10.33" width="1.97" height="2.07"/><rect class="cls-1" x="23.6" y="10.33" width="1.97" height="2.07"/><rect class="cls-1" x="21.63" y="10.33" width="1.97" height="2.07"/><rect class="cls-1" x="19.67" y="10.33" width="1.97" height="2.07"/><rect class="cls-1" x="17.7" y="10.33" width="1.97" height="2.07"/><rect class="cls-1" x="15.73" y="10.33" width="1.97" height="2.07"/><rect class="cls-1" x="13.77" y="10.33" width="1.97" height="2.07"/><rect class="cls-1" x="11.8" y="10.33" width="1.97" height="2.07"/><rect class="cls-1" x="9.83" y="10.33" width="1.97" height="2.07"/><rect class="cls-1" x="7.87" y="10.33" width="1.97" height="2.07"/><rect class="cls-1" x="47.2" y="8.27" width="1.97" height="2.07"/><rect class="cls-1" x="45.23" y="8.27" width="1.97" height="2.07"/><rect class="cls-1" x="43.27" y="8.27" width="1.97" height="2.07"/><rect class="cls-1" x="23.6" y="8.27" width="1.97" height="2.07"/><rect class="cls-1" x="21.63" y="8.27" width="1.97" height="2.07"/><rect class="cls-1" x="19.67" y="8.27" width="1.97" height="2.07"/><rect class="cls-1" x="17.7" y="8.27" width="1.97" height="2.07"/><rect class="cls-1" x="15.73" y="8.27" width="1.97" height="2.07"/><rect class="cls-1" x="13.77" y="8.27" width="1.97" height="2.07"/><rect class="cls-1" x="11.8" y="8.27" width="1.97" height="2.07"/><rect class="cls-1" x="9.83" y="8.27" width="1.97" height="2.07"/><rect class="cls-1" x="7.87" y="8.27" width="1.97" height="2.07"/><rect class="cls-1" x="43.27" y="6.2" width="1.97" height="2.07"/><rect class="cls-1" x="41.3" y="6.2" width="1.97" height="2.07"/><rect class="cls-1" x="39.33" y="6.2" width="1.97" height="2.07"/><rect class="cls-1" x="23.6" y="6.2" width="1.97" height="2.07"/><rect class="cls-1" x="21.63" y="6.2" width="1.97" height="2.07"/><rect class="cls-1" x="19.67" y="6.2" width="1.97" height="2.07"/><rect class="cls-1" x="17.7" y="6.2" width="1.97" height="2.07"/><rect class="cls-1" x="15.73" y="6.2" width="1.97" height="2.07"/><rect class="cls-1" x="13.77" y="6.2" width="1.97" height="2.07"/><rect class="cls-1" x="11.8" y="6.2" width="1.97" height="2.07"/><rect class="cls-1" x="9.83" y="6.2" width="1.97" height="2.07"/><rect class="cls-1" x="39.33" y="4.13" width="1.97" height="2.07"/><rect class="cls-1" x="37.37" y="4.13" width="1.97" height="2.07"/><rect class="cls-1" x="35.4" y="4.13" width="1.97" height="2.07"/><rect class="cls-1" x="33.43" y="4.13" width="1.97" height="2.07"/><rect class="cls-1" x="31.47" y="4.13" width="1.97" height="2.07"/><rect class="cls-1" x="29.5" y="4.13" width="1.97" height="2.07"/><rect class="cls-1" x="27.53" y="4.13" width="1.97" height="2.07"/><rect class="cls-1" x="21.63" y="4.13" width="1.97" height="2.07"/><rect class="cls-1" x="19.67" y="4.13" width="1.97" height="2.07"/><rect class="cls-1" x="17.7" y="4.13" width="1.97" height="2.07"/><rect class="cls-1" x="15.73" y="4.13" width="1.97" height="2.07"/><rect class="cls-1" x="13.77" y="4.13" width="1.97" height="2.07"/><rect class="cls-1" x="11.8" y="4.13" width="1.97" height="2.07"/><rect class="cls-1" x="35.4" y="2.07" width="1.97" height="2.07"/><rect class="cls-1" x="33.43" y="2.07" width="1.97" height="2.07"/><rect class="cls-1" x="31.47" y="2.07" width="1.97" height="2.07"/><rect class="cls-1" x="29.5" y="2.07" width="1.97" height="2.07"/><rect class="cls-1" x="27.53" y="2.07" width="1.97" height="2.07"/><rect class="cls-1" x="21.63" y="2.07" width="1.97" height="2.07"/><rect class="cls-1" x="19.67" y="2.07" width="1.97" height="2.07"/><rect class="cls-1" x="17.7" y="2.07" width="1.97" height="2.07"/><rect class="cls-1" x="15.73" y="2.07" width="1.97" height="2.07"/><rect class="cls-1" x="13.77" y="2.07" width="1.97" height="2.07"/><rect class="cls-1" x="19.67" width="1.97" height="2.07"/><rect class="cls-1" x="17.7" width="1.97" height="2.07"/><rect class="cls-1" x="15.73" width="1.97" height="2.07"/><rect class="cls-1" x="57.03" y="37.2" width="1.97" height="2.07"/><rect class="cls-1" x="57.03" y="41.33" width="1.97" height="2.07"/></svg>