<svg id="Layer_1" data-name="Layer 1" xmlns="http://www.w3.org/2000/svg" viewBox="0 0 38.56 7.52"><defs><style>.cls-1{fill:#26763b;}</style></defs><path class="cls-1" d="M0,7.52v-1H.76v1Zm.87,0v-1h.76v1ZM0,6.43v-1H.76v1Zm.87,0v-1h.76v1ZM0,5.34v-1H.76v1Zm.87,0v-1h.76v1Zm.88,0v-1h.76v1Zm.87,0v-1h.76v1ZM0,4.25v-1H.76v1Zm.87,0v-1h.76v1Zm1.75,0v-1h.76v1Zm.87,0v-1h.76v1ZM0,3.15v-1H.76v1Zm.87,0v-1h.76v1Zm1.75,0v-1h.76v1Zm.87,0v-1h.76v1ZM0,2.06v-1H.76v1Zm.87,0v-1h.76v1Zm1.75,0v-1h.76v1Zm.87,0v-1h.76v1ZM0,1V0H.76V1ZM.87,1V0h.76V1Zm.88,0V0h.76V1Zm.87,0V0h.76V1Z"/><path class="cls-1" d="M5.33,7.52v-1h.76v1Zm.87,0v-1H7v1ZM5.33,6.43v-1h.76v1Zm.87,0v-1H7v1ZM5.33,5.34v-1h.76v1Zm.87,0v-1H7v1ZM5.33,4.25v-1h.76v1Zm.87,0v-1H7v1Zm.87,0v-1h.76v1Zm.87,0v-1h.77v1ZM5.33,3.15v-1h.76v1Zm.87,0v-1H7v1Zm1.74,0v-1h.77v1Z"/><path class="cls-1" d="M10.62,7.52v-1h.76v1Zm.87,0v-1h.76v1Zm.87,0v-1h.77v1Zm.88,0v-1H14v1ZM9.75,6.43v-1h.76v1Zm.87,0v-1h.76v1ZM9.75,5.34v-1h.76v1Zm.87,0v-1h.76v1Zm.87,0v-1h.76v1Zm.87,0v-1h.77v1Zm.88,0v-1H14v1ZM9.75,4.25v-1h.76v1Zm.87,0v-1h.76v1Zm1.74,0v-1h.77v1Zm.88,0v-1H14v1Zm-2.62-1.1v-1h.76v1Zm.87,0v-1h.76v1Zm.87,0v-1h.77v1Z"/><path class="cls-1" d="M15.31,4.25v-1h.76v1Zm.87,0v-1h.76v1Zm.87,0v-1h.77v1Zm.88,0v-1h.76v1Z"/><path class="cls-1" d="M19.15,7.52v-1h.76v1Zm.87,0v-1h.77v1Zm.88,0v-1h.76v1Zm0-1.09v-1h.76v1Zm.87,0v-1h.76v1ZM20.9,5.34v-1h.76v1Zm.87,0v-1h.76v1ZM20,4.25v-1h.77v1Zm.88,0v-1h.76v1Zm-1.75-1.1v-1h.76v1Zm.87,0v-1h.77v1Zm-.87-1.09v-1h.76v1Zm.87,0v-1h.77v1ZM20,1V0h.77V1Zm.88,0V0h.76V1Zm.87,0V0h.76V1Z"/><path class="cls-1" d="M24.47,7.52v-1h.76v1Zm.87,0v-1h.76v1Zm.87,0v-1H27v1Zm.88,0v-1h.76v1ZM23.6,6.43v-1h.76v1Zm.87,0v-1h.76v1Zm1.74,0v-1H27v1Zm.88,0v-1h.76v1ZM24.47,5.34v-1h.76v1Zm.87,0v-1h.76v1Zm.87,0v-1H27v1Zm.88,0v-1h.76v1Zm-.88-1.09v-1H27v1Zm.88,0v-1h.76v1Zm-2.62-1.1v-1h.76v1Zm.87,0v-1h.76v1Zm.87,0v-1H27v1Z"/><path class="cls-1" d="M30.74,7.52v-1h.76v1Zm-.87-1.09v-1h.76v1Zm.87,0v-1h.76v1Zm.87,0v-1h.77v1ZM29.87,5.34v-1h.76v1Zm.87,0v-1h.76v1Zm.87,0v-1h.77v1ZM29,4.25v-1h.76v1Zm.87,0v-1h.76v1Zm1.74,0v-1h.77v1Zm.88,0v-1h.76v1ZM29,3.15v-1h.76v1Zm.87,0v-1h.76v1Zm1.74,0v-1h.77v1Zm.88,0v-1h.76v1Z"/><path class="cls-1" d="M35.18,7.52v-1h.76v1Zm.87,0v-1h.76v1Zm.87,0v-1h.77v1Zm.88,0v-1h.76v1ZM34.31,6.43v-1h.76v1Zm.87,0v-1h.76v1Zm-.87-1.09v-1h.76v1Zm.87,0v-1h.76v1Zm.87,0v-1h.76v1Zm.87,0v-1h.77v1Zm.88,0v-1h.76v1ZM34.31,4.25v-1h.76v1Zm.87,0v-1h.76v1Zm1.74,0v-1h.77v1Zm.88,0v-1h.76v1Zm-2.62-1.1v-1h.76v1Zm.87,0v-1h.76v1Zm.87,0v-1h.77v1Z"/></svg>