<svg id="Preview_On" data-name="Preview On" xmlns="http://www.w3.org/2000/svg" viewBox="0 0 57.78 71.57"><defs><style>.cls-1{fill:#157a3d;}.cls-2{fill:#0f7c3f;}</style></defs><rect class="cls-1" x="32.74" y="45.04" width="1.93" height="1.55"/><rect class="cls-1" x="32.74" y="43.49" width="1.93" height="1.55"/><rect class="cls-1" x="30.82" y="43.49" width="1.93" height="1.55"/><rect class="cls-1" x="32.74" y="41.94" width="1.93" height="1.55"/><rect class="cls-1" x="30.82" y="41.94" width="1.93" height="1.55"/><rect class="cls-1" x="28.89" y="41.94" width="1.93" height="1.55"/><rect class="cls-1" x="50.08" y="40.38" width="1.93" height="1.55"/><rect class="cls-1" x="32.74" y="40.38" width="1.93" height="1.55"/><rect class="cls-1" x="30.82" y="40.38" width="1.93" height="1.55"/><rect class="cls-1" x="28.89" y="40.38" width="1.93" height="1.55"/><rect class="cls-1" x="26.96" y="40.38" width="1.93" height="1.55"/><rect class="cls-1" x="52" y="38.83" width="1.93" height="1.55"/><rect class="cls-1" x="50.08" y="38.83" width="1.93" height="1.55"/><rect class="cls-1" x="32.74" y="38.83" width="1.93" height="1.55"/><rect class="cls-1" x="30.82" y="38.83" width="1.93" height="1.55"/><rect class="cls-1" x="28.89" y="38.83" width="1.93" height="1.55"/><rect class="cls-1" x="26.96" y="38.83" width="1.93" height="1.55"/><rect class="cls-1" x="25.04" y="38.83" width="1.93" height="1.55"/><rect class="cls-1" x="52" y="37.28" width="1.93" height="1.55"/><rect class="cls-1" x="50.08" y="37.28" width="1.93" height="1.55"/><rect class="cls-1" x="44.3" y="37.28" width="1.93" height="1.55"/><rect class="cls-1" x="32.74" y="37.28" width="1.93" height="1.55"/><rect class="cls-1" x="30.82" y="37.28" width="1.93" height="1.55"/><rect class="cls-1" x="28.89" y="37.28" width="1.93" height="1.55"/><rect class="cls-1" x="26.96" y="37.28" width="1.93" height="1.55"/><rect class="cls-1" x="25.04" y="37.28" width="1.93" height="1.55"/><rect class="cls-1" x="23.11" y="37.28" width="1.93" height="1.55"/><rect class="cls-1" x="53.93" y="35.72" width="1.93" height="1.55"/><rect class="cls-1" x="52" y="35.72" width="1.93" height="1.55"/><rect class="cls-1" x="44.3" y="35.72" width="1.93" height="1.55"/><rect class="cls-1" x="32.74" y="35.72" width="1.93" height="1.55"/><rect class="cls-1" x="30.82" y="35.72" width="1.93" height="1.55"/><rect class="cls-1" x="28.89" y="35.72" width="1.93" height="1.55"/><rect class="cls-1" x="26.96" y="35.72" width="1.93" height="1.55"/><rect class="cls-1" x="25.04" y="35.72" width="1.93" height="1.55"/><rect class="cls-1" x="23.11" y="35.72" width="1.93" height="1.55"/><rect class="cls-1" x="53.93" y="34.17" width="1.93" height="1.55"/><rect class="cls-1" x="46.22" y="34.17" width="1.93" height="1.55"/><rect class="cls-1" x="36.59" y="34.17" width="1.93" height="1.55"/><rect class="cls-1" x="32.74" y="34.17" width="1.93" height="1.55"/><rect class="cls-1" x="30.82" y="34.17" width="1.93" height="1.55"/><rect class="cls-1" x="28.89" y="34.17" width="1.93" height="1.55"/><rect class="cls-1" x="26.96" y="34.17" width="1.93" height="1.55"/><rect class="cls-1" x="25.04" y="34.17" width="1.93" height="1.55"/><rect class="cls-1" x="23.11" y="34.17" width="1.93" height="1.55"/><rect class="cls-1" x="21.19" y="34.17" width="1.93" height="1.55"/><rect class="cls-1" x="19.26" y="34.17" width="1.93" height="1.55"/><rect class="cls-1" x="53.93" y="32.62" width="1.93" height="1.55"/><rect class="cls-1" x="48.15" y="32.62" width="1.93" height="1.55"/><rect class="cls-1" x="46.22" y="32.62" width="1.93" height="1.55"/><rect class="cls-1" x="38.52" y="32.62" width="1.93" height="1.55"/><rect class="cls-1" x="36.59" y="32.62" width="1.93" height="1.55"/><rect class="cls-1" x="32.74" y="32.62" width="1.93" height="1.55"/><rect class="cls-1" x="30.82" y="32.62" width="1.93" height="1.55"/><rect class="cls-1" x="28.89" y="32.62" width="1.93" height="1.55"/><rect class="cls-1" x="26.96" y="32.62" width="1.93" height="1.55"/><rect class="cls-1" x="25.04" y="32.62" width="1.93" height="1.55"/><rect class="cls-1" x="23.11" y="32.62" width="1.93" height="1.55"/><rect class="cls-1" x="21.19" y="32.62" width="1.93" height="1.55"/><rect class="cls-1" x="19.26" y="32.62" width="1.93" height="1.55"/><rect class="cls-1" x="17.33" y="32.62" width="1.93" height="1.55"/><rect class="cls-1" x="15.41" y="32.62" width="1.93" height="1.55"/><rect class="cls-1" x="13.48" y="32.62" width="1.93" height="1.55"/><rect class="cls-1" x="9.63" y="32.62" width="1.93" height="1.55"/><rect class="cls-1" x="7.7" y="32.62" width="1.93" height="1.55"/><rect class="cls-1" x="5.78" y="32.62" width="1.93" height="1.55"/><rect class="cls-1" x="3.85" y="32.62" width="1.93" height="1.55"/><rect class="cls-1" x="55.85" y="31.07" width="1.93" height="1.55"/><rect class="cls-1" x="53.93" y="31.07" width="1.93" height="1.55"/><rect class="cls-1" x="48.15" y="31.07" width="1.93" height="1.55"/><rect class="cls-1" x="40.45" y="31.07" width="1.93" height="1.55"/><rect class="cls-1" x="38.52" y="31.07" width="1.93" height="1.55"/><rect class="cls-1" x="32.74" y="31.07" width="1.93" height="1.55"/><rect class="cls-1" x="30.82" y="31.07" width="1.93" height="1.55"/><rect class="cls-1" x="28.89" y="31.07" width="1.93" height="1.55"/><rect class="cls-1" x="26.96" y="31.07" width="1.93" height="1.55"/><rect class="cls-1" x="25.04" y="31.07" width="1.93" height="1.55"/><rect class="cls-1" x="23.11" y="31.07" width="1.93" height="1.55"/><rect class="cls-1" x="21.19" y="31.07" width="1.93" height="1.55"/><rect class="cls-1" x="19.26" y="31.07" width="1.93" height="1.55"/><rect class="cls-1" x="17.33" y="31.07" width="1.93" height="1.55"/><rect class="cls-1" x="15.41" y="31.07" width="1.93" height="1.55"/><rect class="cls-1" x="13.48" y="31.07" width="1.93" height="1.55"/><rect class="cls-1" x="9.63" y="31.07" width="1.93" height="1.55"/><rect class="cls-1" x="7.7" y="31.07" width="1.93" height="1.55"/><rect class="cls-1" x="5.78" y="31.07" width="1.93" height="1.55"/><rect class="cls-1" x="3.85" y="31.07" width="1.93" height="1.55"/><rect class="cls-1" x="1.93" y="31.07" width="1.93" height="1.55"/><rect class="cls-1" x="55.85" y="29.51" width="1.93" height="1.55"/><rect class="cls-1" x="48.15" y="29.51" width="1.93" height="1.55"/><rect class="cls-1" x="42.37" y="29.51" width="1.93" height="1.55"/><rect class="cls-1" x="40.45" y="29.51" width="1.93" height="1.55"/><rect class="cls-1" x="32.74" y="29.51" width="1.93" height="1.55"/><rect class="cls-1" x="30.82" y="29.51" width="1.93" height="1.55"/><rect class="cls-1" x="28.89" y="29.51" width="1.93" height="1.55"/><rect class="cls-1" x="26.96" y="29.51" width="1.93" height="1.55"/><rect class="cls-1" x="25.04" y="29.51" width="1.93" height="1.55"/><rect class="cls-1" x="23.11" y="29.51" width="1.93" height="1.55"/><rect class="cls-1" x="21.19" y="29.51" width="1.93" height="1.55"/><rect class="cls-1" x="19.26" y="29.51" width="1.93" height="1.55"/><rect class="cls-1" x="17.33" y="29.51" width="1.93" height="1.55"/><rect class="cls-1" x="15.41" y="29.51" width="1.93" height="1.55"/><rect class="cls-1" x="13.48" y="29.51" width="1.93" height="1.55"/><rect class="cls-1" x="9.63" y="29.51" width="1.93" height="1.55"/><rect class="cls-1" x="7.7" y="29.51" width="1.93" height="1.55"/><rect class="cls-1" x="5.78" y="29.51" width="1.93" height="1.55"/><rect class="cls-1" x="3.85" y="29.51" width="1.93" height="1.55"/><rect class="cls-1" x="1.93" y="29.51" width="1.93" height="1.55"/><rect class="cls-1" y="29.51" width="1.93" height="1.55"/><rect class="cls-1" x="55.85" y="27.96" width="1.93" height="1.55"/><rect class="cls-1" x="50.08" y="27.96" width="1.93" height="1.55"/><rect class="cls-1" x="48.15" y="27.96" width="1.93" height="1.55"/><rect class="cls-1" x="42.37" y="27.96" width="1.93" height="1.55"/><rect class="cls-1" x="32.74" y="27.96" width="1.93" height="1.55"/><rect class="cls-1" x="30.82" y="27.96" width="1.93" height="1.55"/><rect class="cls-1" x="28.89" y="27.96" width="1.93" height="1.55"/><rect class="cls-1" x="26.96" y="27.96" width="1.93" height="1.55"/><rect class="cls-1" x="25.04" y="27.96" width="1.93" height="1.55"/><rect class="cls-1" x="23.11" y="27.96" width="1.93" height="1.55"/><rect class="cls-1" x="21.19" y="27.96" width="1.93" height="1.55"/><rect class="cls-1" x="19.26" y="27.96" width="1.93" height="1.55"/><rect class="cls-1" x="17.33" y="27.96" width="1.93" height="1.55"/><rect class="cls-1" x="15.41" y="27.96" width="1.93" height="1.55"/><rect class="cls-1" x="13.48" y="27.96" width="1.93" height="1.55"/><rect class="cls-1" x="9.63" y="27.96" width="1.93" height="1.55"/><rect class="cls-1" x="7.7" y="27.96" width="1.93" height="1.55"/><rect class="cls-1" x="5.78" y="27.96" width="1.93" height="1.55"/><rect class="cls-1" x="3.85" y="27.96" width="1.93" height="1.55"/><rect class="cls-1" x="1.93" y="27.96" width="1.93" height="1.55"/><rect class="cls-1" y="27.96" width="1.93" height="1.55"/><rect class="cls-1" x="55.85" y="26.41" width="1.93" height="1.55"/><rect class="cls-1" x="50.08" y="26.41" width="1.93" height="1.55"/><rect class="cls-1" x="48.15" y="26.41" width="1.93" height="1.55"/><rect class="cls-1" x="42.37" y="26.41" width="1.93" height="1.55"/><rect class="cls-1" x="32.74" y="26.41" width="1.93" height="1.55"/><rect class="cls-1" x="30.82" y="26.41" width="1.93" height="1.55"/><rect class="cls-1" x="28.89" y="26.41" width="1.93" height="1.55"/><rect class="cls-1" x="26.96" y="26.41" width="1.93" height="1.55"/><rect class="cls-1" x="25.04" y="26.41" width="1.93" height="1.55"/><rect class="cls-1" x="23.11" y="26.41" width="1.93" height="1.55"/><rect class="cls-1" x="21.19" y="26.41" width="1.93" height="1.55"/><rect class="cls-1" x="19.26" y="26.41" width="1.93" height="1.55"/><rect class="cls-1" x="17.33" y="26.41" width="1.93" height="1.55"/><rect class="cls-1" x="15.41" y="26.41" width="1.93" height="1.55"/><rect class="cls-1" x="13.48" y="26.41" width="1.93" height="1.55"/><rect class="cls-1" x="9.63" y="26.41" width="1.93" height="1.55"/><rect class="cls-1" x="7.7" y="26.41" width="1.93" height="1.55"/><rect class="cls-1" x="5.78" y="26.41" width="1.93" height="1.55"/><rect class="cls-1" x="3.85" y="26.41" width="1.93" height="1.55"/><rect class="cls-1" x="1.93" y="26.41" width="1.93" height="1.55"/><rect class="cls-1" y="26.41" width="1.93" height="1.55"/><rect class="cls-1" x="55.85" y="24.85" width="1.93" height="1.55"/><rect class="cls-1" x="50.08" y="24.85" width="1.93" height="1.55"/><rect class="cls-1" x="42.37" y="24.85" width="1.93" height="1.55"/><rect class="cls-1" x="32.74" y="24.85" width="1.93" height="1.55"/><rect class="cls-1" x="30.82" y="24.85" width="1.93" height="1.55"/><rect class="cls-1" x="28.89" y="24.85" width="1.93" height="1.55"/><rect class="cls-1" x="26.96" y="24.85" width="1.93" height="1.55"/><rect class="cls-1" x="25.04" y="24.85" width="1.93" height="1.55"/><rect class="cls-1" x="23.11" y="24.85" width="1.93" height="1.55"/><rect class="cls-1" x="21.19" y="24.85" width="1.93" height="1.55"/><rect class="cls-1" x="19.26" y="24.85" width="1.93" height="1.55"/><rect class="cls-1" x="17.33" y="24.85" width="1.93" height="1.55"/><rect class="cls-1" x="15.41" y="24.85" width="1.93" height="1.55"/><rect class="cls-1" x="13.48" y="24.85" width="1.93" height="1.55"/><rect class="cls-1" x="9.63" y="24.85" width="1.93" height="1.55"/><rect class="cls-1" x="7.7" y="24.85" width="1.93" height="1.55"/><rect class="cls-1" x="5.78" y="24.85" width="1.93" height="1.55"/><rect class="cls-1" x="3.85" y="24.85" width="1.93" height="1.55"/><rect class="cls-1" x="1.93" y="24.85" width="1.93" height="1.55"/><rect class="cls-1" y="24.85" width="1.93" height="1.55"/><rect class="cls-1" x="55.85" y="23.3" width="1.93" height="1.55"/><rect class="cls-1" x="50.08" y="23.3" width="1.93" height="1.55"/><rect class="cls-1" x="42.37" y="23.3" width="1.93" height="1.55"/><rect class="cls-1" x="32.74" y="23.3" width="1.93" height="1.55"/><rect class="cls-1" x="30.82" y="23.3" width="1.93" height="1.55"/><rect class="cls-1" x="28.89" y="23.3" width="1.93" height="1.55"/><rect class="cls-1" x="26.96" y="23.3" width="1.93" height="1.55"/><rect class="cls-1" x="25.04" y="23.3" width="1.93" height="1.55"/><rect class="cls-1" x="23.11" y="23.3" width="1.93" height="1.55"/><rect class="cls-1" x="21.19" y="23.3" width="1.93" height="1.55"/><rect class="cls-1" x="19.26" y="23.3" width="1.93" height="1.55"/><rect class="cls-1" x="17.33" y="23.3" width="1.93" height="1.55"/><rect class="cls-1" x="15.41" y="23.3" width="1.93" height="1.55"/><rect class="cls-1" x="13.48" y="23.3" width="1.93" height="1.55"/><rect class="cls-1" x="9.63" y="23.3" width="1.93" height="1.55"/><rect class="cls-1" x="7.7" y="23.3" width="1.93" height="1.55"/><rect class="cls-1" x="5.78" y="23.3" width="1.93" height="1.55"/><rect class="cls-1" x="3.85" y="23.3" width="1.93" height="1.55"/><rect class="cls-1" x="1.93" y="23.3" width="1.93" height="1.55"/><rect class="cls-1" y="23.3" width="1.93" height="1.55"/><rect class="cls-1" x="55.85" y="21.75" width="1.93" height="1.55"/><rect class="cls-1" x="50.08" y="21.75" width="1.93" height="1.55"/><rect class="cls-1" x="42.37" y="21.75" width="1.93" height="1.55"/><rect class="cls-1" x="32.74" y="21.75" width="1.93" height="1.55"/><rect class="cls-1" x="30.82" y="21.75" width="1.93" height="1.55"/><rect class="cls-1" x="28.89" y="21.75" width="1.93" height="1.55"/><rect class="cls-1" x="26.96" y="21.75" width="1.93" height="1.55"/><rect class="cls-1" x="25.04" y="21.75" width="1.93" height="1.55"/><rect class="cls-1" x="23.11" y="21.75" width="1.93" height="1.55"/><rect class="cls-1" x="21.19" y="21.75" width="1.93" height="1.55"/><rect class="cls-1" x="19.26" y="21.75" width="1.93" height="1.55"/><rect class="cls-1" x="17.33" y="21.75" width="1.93" height="1.55"/><rect class="cls-1" x="15.41" y="21.75" width="1.93" height="1.55"/><rect class="cls-1" x="13.48" y="21.75" width="1.93" height="1.55"/><rect class="cls-1" x="9.63" y="21.75" width="1.93" height="1.55"/><rect class="cls-1" x="7.7" y="21.75" width="1.93" height="1.55"/><rect class="cls-1" x="5.78" y="21.75" width="1.93" height="1.55"/><rect class="cls-1" x="3.85" y="21.75" width="1.93" height="1.55"/><rect class="cls-1" x="1.93" y="21.75" width="1.93" height="1.55"/><rect class="cls-1" y="21.75" width="1.93" height="1.55"/><rect class="cls-1" x="55.85" y="20.19" width="1.93" height="1.55"/><rect class="cls-1" x="50.08" y="20.19" width="1.93" height="1.55"/><rect class="cls-1" x="42.37" y="20.19" width="1.93" height="1.55"/><rect class="cls-1" x="32.74" y="20.19" width="1.93" height="1.55"/><rect class="cls-1" x="30.82" y="20.19" width="1.93" height="1.55"/><rect class="cls-1" x="28.89" y="20.19" width="1.93" height="1.55"/><rect class="cls-1" x="26.96" y="20.19" width="1.93" height="1.55"/><rect class="cls-1" x="25.04" y="20.19" width="1.93" height="1.55"/><rect class="cls-1" x="23.11" y="20.19" width="1.93" height="1.55"/><rect class="cls-1" x="21.19" y="20.19" width="1.93" height="1.55"/><rect class="cls-1" x="19.26" y="20.19" width="1.93" height="1.55"/><rect class="cls-1" x="17.33" y="20.19" width="1.93" height="1.55"/><rect class="cls-1" x="15.41" y="20.19" width="1.93" height="1.55"/><rect class="cls-1" x="13.48" y="20.19" width="1.93" height="1.55"/><rect class="cls-1" x="9.63" y="20.19" width="1.93" height="1.55"/><rect class="cls-1" x="7.7" y="20.19" width="1.93" height="1.55"/><rect class="cls-1" x="5.78" y="20.19" width="1.93" height="1.55"/><rect class="cls-1" x="3.85" y="20.19" width="1.93" height="1.55"/><rect class="cls-1" x="1.93" y="20.19" width="1.93" height="1.55"/><rect class="cls-1" y="20.19" width="1.93" height="1.55"/><rect class="cls-1" x="55.85" y="18.64" width="1.93" height="1.55"/><rect class="cls-1" x="50.08" y="18.64" width="1.93" height="1.55"/><rect class="cls-1" x="48.15" y="18.64" width="1.93" height="1.55"/><rect class="cls-1" x="42.37" y="18.64" width="1.93" height="1.55"/><rect class="cls-1" x="32.74" y="18.64" width="1.93" height="1.55"/><rect class="cls-1" x="30.82" y="18.64" width="1.93" height="1.55"/><rect class="cls-1" x="28.89" y="18.64" width="1.93" height="1.55"/><rect class="cls-1" x="26.96" y="18.64" width="1.93" height="1.55"/><rect class="cls-1" x="25.04" y="18.64" width="1.93" height="1.55"/><rect class="cls-1" x="23.11" y="18.64" width="1.93" height="1.55"/><rect class="cls-1" x="21.19" y="18.64" width="1.93" height="1.55"/><rect class="cls-1" x="19.26" y="18.64" width="1.93" height="1.55"/><rect class="cls-1" x="17.33" y="18.64" width="1.93" height="1.55"/><rect class="cls-1" x="15.41" y="18.64" width="1.93" height="1.55"/><rect class="cls-1" x="13.48" y="18.64" width="1.93" height="1.55"/><rect class="cls-1" x="9.63" y="18.64" width="1.93" height="1.55"/><rect class="cls-1" x="7.7" y="18.64" width="1.93" height="1.55"/><rect class="cls-1" x="5.78" y="18.64" width="1.93" height="1.55"/><rect class="cls-1" x="3.85" y="18.64" width="1.93" height="1.55"/><rect class="cls-1" x="1.93" y="18.64" width="1.93" height="1.55"/><rect class="cls-1" y="18.64" width="1.93" height="1.55"/><rect class="cls-1" x="55.85" y="17.09" width="1.93" height="1.55"/><rect class="cls-1" x="50.08" y="17.09" width="1.93" height="1.55"/><rect class="cls-1" x="48.15" y="17.09" width="1.93" height="1.55"/><rect class="cls-1" x="42.37" y="17.09" width="1.93" height="1.55"/><rect class="cls-1" x="40.45" y="17.09" width="1.93" height="1.55"/><rect class="cls-1" x="32.74" y="17.09" width="1.93" height="1.55"/><rect class="cls-1" x="30.82" y="17.09" width="1.93" height="1.55"/><rect class="cls-1" x="28.89" y="17.09" width="1.93" height="1.55"/><rect class="cls-1" x="26.96" y="17.09" width="1.93" height="1.55"/><rect class="cls-1" x="25.04" y="17.09" width="1.93" height="1.55"/><rect class="cls-1" x="23.11" y="17.09" width="1.93" height="1.55"/><rect class="cls-1" x="21.19" y="17.09" width="1.93" height="1.55"/><rect class="cls-1" x="19.26" y="17.09" width="1.93" height="1.55"/><rect class="cls-1" x="17.33" y="17.09" width="1.93" height="1.55"/><rect class="cls-1" x="15.41" y="17.09" width="1.93" height="1.55"/><rect class="cls-1" x="13.48" y="17.09" width="1.93" height="1.55"/><rect class="cls-1" x="9.63" y="17.09" width="1.93" height="1.55"/><rect class="cls-1" x="7.7" y="17.09" width="1.93" height="1.55"/><rect class="cls-1" x="5.78" y="17.09" width="1.93" height="1.55"/><rect class="cls-1" x="3.85" y="17.09" width="1.93" height="1.55"/><rect class="cls-1" x="1.93" y="17.09" width="1.93" height="1.55"/><rect class="cls-1" y="17.09" width="1.93" height="1.55"/><rect class="cls-1" x="55.85" y="15.53" width="1.93" height="1.55"/><rect class="cls-1" x="53.93" y="15.53" width="1.93" height="1.55"/><rect class="cls-1" x="48.15" y="15.53" width="1.93" height="1.55"/><rect class="cls-1" x="42.37" y="15.53" width="1.93" height="1.55"/><rect class="cls-1" x="40.45" y="15.53" width="1.93" height="1.55"/><rect class="cls-1" x="32.74" y="15.53" width="1.93" height="1.55"/><rect class="cls-1" x="30.82" y="15.53" width="1.93" height="1.55"/><rect class="cls-1" x="28.89" y="15.53" width="1.93" height="1.55"/><rect class="cls-1" x="26.96" y="15.53" width="1.93" height="1.55"/><rect class="cls-1" x="25.04" y="15.53" width="1.93" height="1.55"/><rect class="cls-1" x="23.11" y="15.53" width="1.93" height="1.55"/><rect class="cls-1" x="21.19" y="15.53" width="1.93" height="1.55"/><rect class="cls-1" x="19.26" y="15.53" width="1.93" height="1.55"/><rect class="cls-1" x="17.33" y="15.53" width="1.93" height="1.55"/><rect class="cls-1" x="15.41" y="15.53" width="1.93" height="1.55"/><rect class="cls-1" x="13.48" y="15.53" width="1.93" height="1.55"/><rect class="cls-1" x="9.63" y="15.53" width="1.93" height="1.55"/><rect class="cls-1" x="7.7" y="15.53" width="1.93" height="1.55"/><rect class="cls-1" x="5.78" y="15.53" width="1.93" height="1.55"/><rect class="cls-1" x="3.85" y="15.53" width="1.93" height="1.55"/><rect class="cls-1" x="1.93" y="15.53" width="1.93" height="1.55"/><rect class="cls-1" y="15.53" width="1.93" height="1.55"/><rect class="cls-1" x="55.85" y="13.98" width="1.93" height="1.55"/><rect class="cls-1" x="53.93" y="13.98" width="1.93" height="1.55"/><rect class="cls-1" x="48.15" y="13.98" width="1.93" height="1.55"/><rect class="cls-1" x="40.45" y="13.98" width="1.93" height="1.55"/><rect class="cls-1" x="38.52" y="13.98" width="1.93" height="1.55"/><rect class="cls-1" x="32.74" y="13.98" width="1.93" height="1.55"/><rect class="cls-1" x="30.82" y="13.98" width="1.93" height="1.55"/><rect class="cls-1" x="28.89" y="13.98" width="1.93" height="1.55"/><rect class="cls-1" x="26.96" y="13.98" width="1.93" height="1.55"/><rect class="cls-1" x="25.04" y="13.98" width="1.93" height="1.55"/><rect class="cls-1" x="23.11" y="13.98" width="1.93" height="1.55"/><rect class="cls-1" x="21.19" y="13.98" width="1.93" height="1.55"/><rect class="cls-1" x="19.26" y="13.98" width="1.93" height="1.55"/><rect class="cls-1" x="17.33" y="13.98" width="1.93" height="1.55"/><rect class="cls-1" x="15.41" y="13.98" width="1.93" height="1.55"/><rect class="cls-1" x="13.48" y="13.98" width="1.93" height="1.55"/><rect class="cls-1" x="9.63" y="13.98" width="1.93" height="1.55"/><rect class="cls-1" x="7.7" y="13.98" width="1.93" height="1.55"/><rect class="cls-1" x="5.78" y="13.98" width="1.93" height="1.55"/><rect class="cls-1" x="3.85" y="13.98" width="1.93" height="1.55"/><rect class="cls-1" x="1.93" y="13.98" width="1.93" height="1.55"/><rect class="cls-1" x="53.93" y="12.43" width="1.93" height="1.55"/><rect class="cls-1" x="48.15" y="12.43" width="1.93" height="1.55"/><rect class="cls-1" x="46.22" y="12.43" width="1.93" height="1.55"/><rect class="cls-1" x="38.52" y="12.43" width="1.93" height="1.55"/><rect class="cls-1" x="36.59" y="12.43" width="1.93" height="1.55"/><rect class="cls-1" x="32.74" y="12.43" width="1.93" height="1.55"/><rect class="cls-1" x="30.82" y="12.43" width="1.93" height="1.55"/><rect class="cls-1" x="28.89" y="12.43" width="1.93" height="1.55"/><rect class="cls-1" x="26.96" y="12.43" width="1.93" height="1.55"/><rect class="cls-1" x="25.04" y="12.43" width="1.93" height="1.55"/><rect class="cls-1" x="23.11" y="12.43" width="1.93" height="1.55"/><rect class="cls-1" x="21.19" y="12.43" width="1.93" height="1.55"/><rect class="cls-1" x="19.26" y="12.43" width="1.93" height="1.55"/><rect class="cls-1" x="17.33" y="12.43" width="1.93" height="1.55"/><rect class="cls-1" x="15.41" y="12.43" width="1.93" height="1.55"/><rect class="cls-1" x="13.48" y="12.43" width="1.93" height="1.55"/><rect class="cls-1" x="9.63" y="12.43" width="1.93" height="1.55"/><rect class="cls-1" x="7.7" y="12.43" width="1.93" height="1.55"/><rect class="cls-1" x="5.78" y="12.43" width="1.93" height="1.55"/><rect class="cls-1" x="3.85" y="12.43" width="1.93" height="1.55"/><rect class="cls-1" x="53.93" y="10.87" width="1.93" height="1.55"/><rect class="cls-1" x="46.22" y="10.87" width="1.93" height="1.55"/><rect class="cls-1" x="36.59" y="10.87" width="1.93" height="1.55"/><rect class="cls-1" x="32.74" y="10.87" width="1.93" height="1.55"/><rect class="cls-1" x="30.82" y="10.87" width="1.93" height="1.55"/><rect class="cls-1" x="28.89" y="10.87" width="1.93" height="1.55"/><rect class="cls-1" x="26.96" y="10.87" width="1.93" height="1.55"/><rect class="cls-1" x="25.04" y="10.87" width="1.93" height="1.55"/><rect class="cls-1" x="23.11" y="10.87" width="1.93" height="1.55"/><rect class="cls-1" x="21.19" y="10.87" width="1.93" height="1.55"/><rect class="cls-1" x="19.26" y="10.87" width="1.93" height="1.55"/><rect class="cls-1" x="52" y="9.32" width="1.93" height="1.55"/><rect class="cls-1" x="44.3" y="9.32" width="1.93" height="1.55"/><rect class="cls-1" x="32.74" y="9.32" width="1.93" height="1.55"/><rect class="cls-1" x="30.82" y="9.32" width="1.93" height="1.55"/><rect class="cls-1" x="28.89" y="9.32" width="1.93" height="1.55"/><rect class="cls-1" x="26.96" y="9.32" width="1.93" height="1.55"/><rect class="cls-1" x="25.04" y="9.32" width="1.93" height="1.55"/><rect class="cls-1" x="23.11" y="9.32" width="1.93" height="1.55"/><rect class="cls-1" x="21.19" y="9.32" width="1.93" height="1.55"/><rect class="cls-1" x="52" y="7.77" width="1.93" height="1.55"/><rect class="cls-1" x="44.3" y="7.77" width="1.93" height="1.55"/><rect class="cls-1" x="32.74" y="7.77" width="1.93" height="1.55"/><rect class="cls-1" x="30.82" y="7.77" width="1.93" height="1.55"/><rect class="cls-1" x="28.89" y="7.77" width="1.93" height="1.55"/><rect class="cls-1" x="26.96" y="7.77" width="1.93" height="1.55"/><rect class="cls-1" x="25.04" y="7.77" width="1.93" height="1.55"/><rect class="cls-1" x="23.11" y="7.77" width="1.93" height="1.55"/><rect class="cls-1" x="52" y="6.21" width="1.93" height="1.55"/><rect class="cls-1" x="50.08" y="6.21" width="1.93" height="1.55"/><rect class="cls-1" x="32.74" y="6.21" width="1.93" height="1.55"/><rect class="cls-1" x="30.82" y="6.21" width="1.93" height="1.55"/><rect class="cls-1" x="28.89" y="6.21" width="1.93" height="1.55"/><rect class="cls-1" x="26.96" y="6.21" width="1.93" height="1.55"/><rect class="cls-1" x="25.04" y="6.21" width="1.93" height="1.55"/><rect class="cls-1" x="50.08" y="4.66" width="1.93" height="1.55"/><rect class="cls-1" x="32.74" y="4.66" width="1.93" height="1.55"/><rect class="cls-1" x="30.82" y="4.66" width="1.93" height="1.55"/><rect class="cls-1" x="28.89" y="4.66" width="1.93" height="1.55"/><rect class="cls-1" x="26.96" y="4.66" width="1.93" height="1.55"/><rect class="cls-1" x="32.74" y="3.11" width="1.93" height="1.55"/><rect class="cls-1" x="30.82" y="3.11" width="1.93" height="1.55"/><rect class="cls-1" x="28.89" y="3.11" width="1.93" height="1.55"/><rect class="cls-1" x="32.74" y="1.55" width="1.93" height="1.55"/><rect class="cls-1" x="30.82" y="1.55" width="1.93" height="1.55"/><rect class="cls-1" x="32.74" width="1.93" height="1.55"/><rect class="cls-1" x="21.19" y="35.72" width="1.93" height="1.55"/><path class="cls-2" d="M14.87,80V79h.76v1Zm.87,0V79h.76v1Zm-.87-1.09v-1h.76v1Zm.87,0v-1h.76v1Zm-.87-1.09v-1h.76v1Zm.87,0v-1h.76v1Zm.87,0v-1h.76v1Zm.87,0v-1h.77v1Zm-2.61-1.09v-1h.76v1Zm.87,0v-1h.76v1Zm1.74,0v-1h.77v1Zm.88,0v-1h.76v1Zm-3.49-1.09v-1h.76v1Zm.87,0v-1h.76v1Zm1.74,0v-1h.77v1Zm.88,0v-1h.76v1Zm-3.49-1.09v-1h.76v1Zm.87,0v-1h.76v1Zm1.74,0v-1h.77v1Zm.88,0v-1h.76v1Zm-3.49-1.09v-1h.76v1Zm.87,0v-1h.76v1Zm.87,0v-1h.76v1Zm.87,0v-1h.77v1Z" transform="translate(-10.36 -8.42)"/><path class="cls-2" d="M20.19,80V79H21v1Zm.88,0V79h.76v1Zm-.88-1.09v-1H21v1Zm.88,0v-1h.76v1Zm-.88-1.09v-1H21v1Zm.88,0v-1h.76v1Zm-.88-1.09v-1H21v1Zm.88,0v-1h.76v1Zm.87,0v-1h.76v1Zm.87,0v-1h.76v1Zm-2.62-1.09v-1H21v1Zm.88,0v-1h.76v1Zm1.74,0v-1h.76v1Z" transform="translate(-10.36 -8.42)"/><path class="cls-2" d="M25.49,80V79h.76v1Zm.87,0V79h.76v1Zm.87,0V79H28v1Zm.87,0V79h.77v1ZM24.61,78.9v-1h.77v1Zm.88,0v-1h.76v1Zm-.88-1.09v-1h.77v1Zm.88,0v-1h.76v1Zm.87,0v-1h.76v1Zm.87,0v-1H28v1Zm.87,0v-1h.77v1Zm-3.49-1.09v-1h.77v1Zm.88,0v-1h.76v1Zm1.74,0v-1H28v1Zm.87,0v-1h.77v1Zm-2.61-1.09v-1h.76v1Zm.87,0v-1h.76v1Zm.87,0v-1H28v1Z" transform="translate(-10.36 -8.42)"/><path class="cls-2" d="M31.63,80V79h.76v1Zm-.87-1.09v-1h.76v1Zm.87,0v-1h.76v1Zm.87,0v-1h.77v1Zm-1.74-1.09v-1h.76v1Zm.87,0v-1h.76v1Zm.87,0v-1h.77v1Zm-2.61-1.09v-1h.76v1Zm.87,0v-1h.76v1Zm1.74,0v-1h.77v1Zm.88,0v-1h.76v1Zm-3.49-1.09v-1h.76v1Zm.87,0v-1h.76v1Zm1.74,0v-1h.77v1Zm.88,0v-1h.76v1Z" transform="translate(-10.36 -8.42)"/><path class="cls-2" d="M35.33,80V79h.76v1Zm.87,0V79H37v1Zm-.87-1.09v-1h.76v1Zm.87,0v-1H37v1Zm-.87-1.09v-1h.76v1Zm.87,0v-1H37v1Zm-.87-1.09v-1h.76v1Zm.87,0v-1H37v1Zm-.87-1.09v-1h.76v1Zm.87,0v-1H37v1Zm-.87-2.18v-1h.76v1Zm.87,0v-1H37v1Z" transform="translate(-10.36 -8.42)"/><path class="cls-2" d="M39.08,80V79h.77v1ZM40,80V79h.76v1Zm.87,0V79h.76v1Zm.87,0V79h.76v1ZM38.21,78.9v-1H39v1Zm.87,0v-1h.77v1Zm-.87-1.09v-1H39v1Zm.87,0v-1h.77v1Zm.88,0v-1h.76v1Zm.87,0v-1h.76v1Zm.87,0v-1h.76v1Zm-3.49-1.09v-1H39v1Zm.87,0v-1h.77v1Zm1.75,0v-1h.76v1Zm.87,0v-1h.76v1Zm-2.62-1.09v-1h.77v1Zm.88,0v-1h.76v1Zm.87,0v-1h.76v1Z" transform="translate(-10.36 -8.42)"/><path class="cls-2" d="M44.44,80V79h.76v1Zm.87,0V79h.76v1Zm1.74,0V79h.77v1Zm.88,0V79h.76v1ZM44.44,78.9v-1h.76v1Zm.87,0v-1h.76v1Zm.87,0v-1h.76v1Zm.87,0v-1h.77v1Zm.88,0v-1h.76v1Zm-4.37-1.09v-1h.77v1Zm.88,0v-1h.76v1Zm1.74,0v-1h.76v1Zm1.75,0v-1h.76v1Zm-4.37-1.09v-1h.77v1Zm.88,0v-1h.76v1Zm1.74,0v-1h.76v1Zm1.75,0v-1h.76v1Zm-4.37-1.09v-1h.77v1Zm.88,0v-1h.76v1Zm3.49,0v-1h.76v1Zm.87,2.18v-1h.76v1Zm0-1.09v-1h.76v1Zm0-1.09v-1h.76v1Z" transform="translate(-10.36 -8.42)"/><path class="cls-2" d="M52.79,80V79h.77v1Zm.88,0V79h.76v1Zm.87,0V79h.76v1Zm.87,0V79h.76v1ZM51.92,78.9v-1h.76v1Zm.87,0v-1h.77v1Zm2.62,0v-1h.76v1Zm.87,0v-1h.77v1Zm-4.36-1.09v-1h.76v1Zm.87,0v-1h.77v1Zm2.62,0v-1h.76v1Zm.87,0v-1h.77v1Zm-4.36-1.09v-1h.76v1Zm.87,0v-1h.77v1Zm2.62,0v-1h.76v1Zm.87,0v-1h.77v1Zm-4.36-1.09v-1h.76v1Zm.87,0v-1h.77v1Zm2.62,0v-1h.76v1Zm.87,0v-1h.77v1Zm-4.36-1.09v-1h.76v1Zm.87,0v-1h.77v1Zm2.62,0v-1h.76v1Zm.87,0v-1h.77v1Zm-3.49-1.09v-1h.77v1Zm.88,0v-1h.76v1Zm.87,0v-1h.76v1Zm.87,0v-1h.76v1Z" transform="translate(-10.36 -8.42)"/><path class="cls-2" d="M58.41,80V79h.76v1Zm.88,0V79h.76v1ZM61,80V79h.76v1Zm.87,0V79h.76v1ZM58.41,78.9v-1h.76v1Zm.88,0v-1h.76v1Zm1.74,0v-1h.76v1Zm.87,0v-1h.76v1Zm-3.49-1.09v-1h.76v1Zm.88,0v-1h.76v1Zm1.74,0v-1h.76v1Zm.87,0v-1h.76v1Zm-3.49-1.09v-1h.76v1Zm.88,0v-1h.76v1Zm1.74,0v-1h.76v1Zm.87,0v-1h.76v1Zm-3.49-1.09v-1h.76v1Zm.88,0v-1h.76v1Zm.87,0v-1h.76v1Zm.87,0v-1h.76v1Z" transform="translate(-10.36 -8.42)"/></svg>