<svg id="Preview_On" data-name="Preview On" xmlns="http://www.w3.org/2000/svg" viewBox="0 0 72.66 71"><defs><style>.cls-1{fill:#157a3d;}.cls-2{fill:#0f7c3f;}</style></defs><rect class="cls-1" x="40.66" y="45.04" width="1.93" height="1.55"/><rect class="cls-1" x="40.66" y="43.49" width="1.93" height="1.55"/><rect class="cls-1" x="38.74" y="43.49" width="1.93" height="1.55"/><rect class="cls-1" x="40.66" y="41.94" width="1.93" height="1.55"/><rect class="cls-1" x="38.74" y="41.94" width="1.93" height="1.55"/><rect class="cls-1" x="36.81" y="41.94" width="1.93" height="1.55"/><rect class="cls-1" x="58" y="40.38" width="1.93" height="1.55"/><rect class="cls-1" x="40.66" y="40.38" width="1.93" height="1.55"/><rect class="cls-1" x="38.74" y="40.38" width="1.93" height="1.55"/><rect class="cls-1" x="36.81" y="40.38" width="1.93" height="1.55"/><rect class="cls-1" x="34.88" y="40.38" width="1.93" height="1.55"/><rect class="cls-1" x="59.92" y="38.83" width="1.93" height="1.55"/><rect class="cls-1" x="58" y="38.83" width="1.93" height="1.55"/><rect class="cls-1" x="40.66" y="38.83" width="1.93" height="1.55"/><rect class="cls-1" x="38.74" y="38.83" width="1.93" height="1.55"/><rect class="cls-1" x="36.81" y="38.83" width="1.93" height="1.55"/><rect class="cls-1" x="34.88" y="38.83" width="1.93" height="1.55"/><rect class="cls-1" x="32.96" y="38.83" width="1.93" height="1.55"/><rect class="cls-1" x="59.92" y="37.28" width="1.93" height="1.55"/><rect class="cls-1" x="58" y="37.28" width="1.93" height="1.55"/><rect class="cls-1" x="52.22" y="37.28" width="1.93" height="1.55"/><rect class="cls-1" x="40.66" y="37.28" width="1.93" height="1.55"/><rect class="cls-1" x="38.74" y="37.28" width="1.93" height="1.55"/><rect class="cls-1" x="36.81" y="37.28" width="1.93" height="1.55"/><rect class="cls-1" x="34.88" y="37.28" width="1.93" height="1.55"/><rect class="cls-1" x="32.96" y="37.28" width="1.93" height="1.55"/><rect class="cls-1" x="31.03" y="37.28" width="1.93" height="1.55"/><rect class="cls-1" x="61.85" y="35.72" width="1.93" height="1.55"/><rect class="cls-1" x="59.92" y="35.72" width="1.93" height="1.55"/><rect class="cls-1" x="52.22" y="35.72" width="1.93" height="1.55"/><rect class="cls-1" x="40.66" y="35.72" width="1.93" height="1.55"/><rect class="cls-1" x="38.74" y="35.72" width="1.93" height="1.55"/><rect class="cls-1" x="36.81" y="35.72" width="1.93" height="1.55"/><rect class="cls-1" x="34.88" y="35.72" width="1.93" height="1.55"/><rect class="cls-1" x="32.96" y="35.72" width="1.93" height="1.55"/><rect class="cls-1" x="31.03" y="35.72" width="1.93" height="1.55"/><rect class="cls-1" x="61.85" y="34.17" width="1.93" height="1.55"/><rect class="cls-1" x="54.14" y="34.17" width="1.93" height="1.55"/><rect class="cls-1" x="44.51" y="34.17" width="1.93" height="1.55"/><rect class="cls-1" x="40.66" y="34.17" width="1.93" height="1.55"/><rect class="cls-1" x="38.74" y="34.17" width="1.93" height="1.55"/><rect class="cls-1" x="36.81" y="34.17" width="1.93" height="1.55"/><rect class="cls-1" x="34.88" y="34.17" width="1.93" height="1.55"/><rect class="cls-1" x="32.96" y="34.17" width="1.93" height="1.55"/><rect class="cls-1" x="31.03" y="34.17" width="1.93" height="1.55"/><rect class="cls-1" x="29.11" y="34.17" width="1.93" height="1.55"/><rect class="cls-1" x="27.18" y="34.17" width="1.93" height="1.55"/><rect class="cls-1" x="61.85" y="32.62" width="1.93" height="1.55"/><rect class="cls-1" x="56.07" y="32.62" width="1.93" height="1.55"/><rect class="cls-1" x="54.14" y="32.62" width="1.93" height="1.55"/><rect class="cls-1" x="46.44" y="32.62" width="1.93" height="1.55"/><rect class="cls-1" x="44.51" y="32.62" width="1.93" height="1.55"/><rect class="cls-1" x="40.66" y="32.62" width="1.93" height="1.55"/><rect class="cls-1" x="38.74" y="32.62" width="1.93" height="1.55"/><rect class="cls-1" x="36.81" y="32.62" width="1.93" height="1.55"/><rect class="cls-1" x="34.88" y="32.62" width="1.93" height="1.55"/><rect class="cls-1" x="32.96" y="32.62" width="1.93" height="1.55"/><rect class="cls-1" x="31.03" y="32.62" width="1.93" height="1.55"/><rect class="cls-1" x="29.11" y="32.62" width="1.93" height="1.55"/><rect class="cls-1" x="27.18" y="32.62" width="1.93" height="1.55"/><rect class="cls-1" x="25.25" y="32.62" width="1.93" height="1.55"/><rect class="cls-1" x="23.33" y="32.62" width="1.93" height="1.55"/><rect class="cls-1" x="21.4" y="32.62" width="1.93" height="1.55"/><rect class="cls-1" x="17.55" y="32.62" width="1.93" height="1.55"/><rect class="cls-1" x="15.62" y="32.62" width="1.93" height="1.55"/><rect class="cls-1" x="13.7" y="32.62" width="1.93" height="1.55"/><rect class="cls-1" x="11.77" y="32.62" width="1.93" height="1.55"/><rect class="cls-1" x="63.77" y="31.07" width="1.93" height="1.55"/><rect class="cls-1" x="61.85" y="31.07" width="1.93" height="1.55"/><rect class="cls-1" x="56.07" y="31.07" width="1.93" height="1.55"/><rect class="cls-1" x="48.37" y="31.07" width="1.93" height="1.55"/><rect class="cls-1" x="46.44" y="31.07" width="1.93" height="1.55"/><rect class="cls-1" x="40.66" y="31.07" width="1.93" height="1.55"/><rect class="cls-1" x="38.74" y="31.07" width="1.93" height="1.55"/><rect class="cls-1" x="36.81" y="31.07" width="1.93" height="1.55"/><rect class="cls-1" x="34.88" y="31.07" width="1.93" height="1.55"/><rect class="cls-1" x="32.96" y="31.07" width="1.93" height="1.55"/><rect class="cls-1" x="31.03" y="31.07" width="1.93" height="1.55"/><rect class="cls-1" x="29.11" y="31.07" width="1.93" height="1.55"/><rect class="cls-1" x="27.18" y="31.07" width="1.93" height="1.55"/><rect class="cls-1" x="25.25" y="31.07" width="1.93" height="1.55"/><rect class="cls-1" x="23.33" y="31.07" width="1.93" height="1.55"/><rect class="cls-1" x="21.4" y="31.07" width="1.93" height="1.55"/><rect class="cls-1" x="17.55" y="31.07" width="1.93" height="1.55"/><rect class="cls-1" x="15.62" y="31.07" width="1.93" height="1.55"/><rect class="cls-1" x="13.7" y="31.07" width="1.93" height="1.55"/><rect class="cls-1" x="11.77" y="31.07" width="1.93" height="1.55"/><rect class="cls-1" x="9.85" y="31.07" width="1.93" height="1.55"/><rect class="cls-1" x="63.77" y="29.51" width="1.93" height="1.55"/><rect class="cls-1" x="56.07" y="29.51" width="1.93" height="1.55"/><rect class="cls-1" x="50.29" y="29.51" width="1.93" height="1.55"/><rect class="cls-1" x="48.37" y="29.51" width="1.93" height="1.55"/><rect class="cls-1" x="40.66" y="29.51" width="1.93" height="1.55"/><rect class="cls-1" x="38.74" y="29.51" width="1.93" height="1.55"/><rect class="cls-1" x="36.81" y="29.51" width="1.93" height="1.55"/><rect class="cls-1" x="34.88" y="29.51" width="1.93" height="1.55"/><rect class="cls-1" x="32.96" y="29.51" width="1.93" height="1.55"/><rect class="cls-1" x="31.03" y="29.51" width="1.93" height="1.55"/><rect class="cls-1" x="29.11" y="29.51" width="1.93" height="1.55"/><rect class="cls-1" x="27.18" y="29.51" width="1.93" height="1.55"/><rect class="cls-1" x="25.25" y="29.51" width="1.93" height="1.55"/><rect class="cls-1" x="23.33" y="29.51" width="1.93" height="1.55"/><rect class="cls-1" x="21.4" y="29.51" width="1.93" height="1.55"/><rect class="cls-1" x="17.55" y="29.51" width="1.93" height="1.55"/><rect class="cls-1" x="15.62" y="29.51" width="1.93" height="1.55"/><rect class="cls-1" x="13.7" y="29.51" width="1.93" height="1.55"/><rect class="cls-1" x="11.77" y="29.51" width="1.93" height="1.55"/><rect class="cls-1" x="9.85" y="29.51" width="1.93" height="1.55"/><rect class="cls-1" x="7.92" y="29.51" width="1.93" height="1.55"/><rect class="cls-1" x="63.77" y="27.96" width="1.93" height="1.55"/><rect class="cls-1" x="58" y="27.96" width="1.93" height="1.55"/><rect class="cls-1" x="56.07" y="27.96" width="1.93" height="1.55"/><rect class="cls-1" x="50.29" y="27.96" width="1.93" height="1.55"/><rect class="cls-1" x="40.66" y="27.96" width="1.93" height="1.55"/><rect class="cls-1" x="38.74" y="27.96" width="1.93" height="1.55"/><rect class="cls-1" x="36.81" y="27.96" width="1.93" height="1.55"/><rect class="cls-1" x="34.88" y="27.96" width="1.93" height="1.55"/><rect class="cls-1" x="32.96" y="27.96" width="1.93" height="1.55"/><rect class="cls-1" x="31.03" y="27.96" width="1.93" height="1.55"/><rect class="cls-1" x="29.11" y="27.96" width="1.93" height="1.55"/><rect class="cls-1" x="27.18" y="27.96" width="1.93" height="1.55"/><rect class="cls-1" x="25.25" y="27.96" width="1.93" height="1.55"/><rect class="cls-1" x="23.33" y="27.96" width="1.93" height="1.55"/><rect class="cls-1" x="21.4" y="27.96" width="1.93" height="1.55"/><rect class="cls-1" x="17.55" y="27.96" width="1.93" height="1.55"/><rect class="cls-1" x="15.62" y="27.96" width="1.93" height="1.55"/><rect class="cls-1" x="13.7" y="27.96" width="1.93" height="1.55"/><rect class="cls-1" x="11.77" y="27.96" width="1.93" height="1.55"/><rect class="cls-1" x="9.85" y="27.96" width="1.93" height="1.55"/><rect class="cls-1" x="7.92" y="27.96" width="1.93" height="1.55"/><rect class="cls-1" x="63.77" y="26.41" width="1.93" height="1.55"/><rect class="cls-1" x="58" y="26.41" width="1.93" height="1.55"/><rect class="cls-1" x="56.07" y="26.41" width="1.93" height="1.55"/><rect class="cls-1" x="50.29" y="26.41" width="1.93" height="1.55"/><rect class="cls-1" x="40.66" y="26.41" width="1.93" height="1.55"/><rect class="cls-1" x="38.74" y="26.41" width="1.93" height="1.55"/><rect class="cls-1" x="36.81" y="26.41" width="1.93" height="1.55"/><rect class="cls-1" x="34.88" y="26.41" width="1.93" height="1.55"/><rect class="cls-1" x="32.96" y="26.41" width="1.93" height="1.55"/><rect class="cls-1" x="31.03" y="26.41" width="1.93" height="1.55"/><rect class="cls-1" x="29.11" y="26.41" width="1.93" height="1.55"/><rect class="cls-1" x="27.18" y="26.41" width="1.93" height="1.55"/><rect class="cls-1" x="25.25" y="26.41" width="1.93" height="1.55"/><rect class="cls-1" x="23.33" y="26.41" width="1.93" height="1.55"/><rect class="cls-1" x="21.4" y="26.41" width="1.93" height="1.55"/><rect class="cls-1" x="17.55" y="26.41" width="1.93" height="1.55"/><rect class="cls-1" x="15.62" y="26.41" width="1.93" height="1.55"/><rect class="cls-1" x="13.7" y="26.41" width="1.93" height="1.55"/><rect class="cls-1" x="11.77" y="26.41" width="1.93" height="1.55"/><rect class="cls-1" x="9.85" y="26.41" width="1.93" height="1.55"/><rect class="cls-1" x="7.92" y="26.41" width="1.93" height="1.55"/><rect class="cls-1" x="63.77" y="24.85" width="1.93" height="1.55"/><rect class="cls-1" x="58" y="24.85" width="1.93" height="1.55"/><rect class="cls-1" x="50.29" y="24.85" width="1.93" height="1.55"/><rect class="cls-1" x="40.66" y="24.85" width="1.93" height="1.55"/><rect class="cls-1" x="38.74" y="24.85" width="1.93" height="1.55"/><rect class="cls-1" x="36.81" y="24.85" width="1.93" height="1.55"/><rect class="cls-1" x="34.88" y="24.85" width="1.93" height="1.55"/><rect class="cls-1" x="32.96" y="24.85" width="1.93" height="1.55"/><rect class="cls-1" x="31.03" y="24.85" width="1.93" height="1.55"/><rect class="cls-1" x="29.11" y="24.85" width="1.93" height="1.55"/><rect class="cls-1" x="27.18" y="24.85" width="1.93" height="1.55"/><rect class="cls-1" x="25.25" y="24.85" width="1.93" height="1.55"/><rect class="cls-1" x="23.33" y="24.85" width="1.93" height="1.55"/><rect class="cls-1" x="21.4" y="24.85" width="1.93" height="1.55"/><rect class="cls-1" x="17.55" y="24.85" width="1.93" height="1.55"/><rect class="cls-1" x="15.62" y="24.85" width="1.93" height="1.55"/><rect class="cls-1" x="13.7" y="24.85" width="1.93" height="1.55"/><rect class="cls-1" x="11.77" y="24.85" width="1.93" height="1.55"/><rect class="cls-1" x="9.85" y="24.85" width="1.93" height="1.55"/><rect class="cls-1" x="7.92" y="24.85" width="1.93" height="1.55"/><rect class="cls-1" x="63.77" y="23.3" width="1.93" height="1.55"/><rect class="cls-1" x="58" y="23.3" width="1.93" height="1.55"/><rect class="cls-1" x="50.29" y="23.3" width="1.93" height="1.55"/><rect class="cls-1" x="40.66" y="23.3" width="1.93" height="1.55"/><rect class="cls-1" x="38.74" y="23.3" width="1.93" height="1.55"/><rect class="cls-1" x="36.81" y="23.3" width="1.93" height="1.55"/><rect class="cls-1" x="34.88" y="23.3" width="1.93" height="1.55"/><rect class="cls-1" x="32.96" y="23.3" width="1.93" height="1.55"/><rect class="cls-1" x="31.03" y="23.3" width="1.93" height="1.55"/><rect class="cls-1" x="29.11" y="23.3" width="1.93" height="1.55"/><rect class="cls-1" x="27.18" y="23.3" width="1.93" height="1.55"/><rect class="cls-1" x="25.25" y="23.3" width="1.93" height="1.55"/><rect class="cls-1" x="23.33" y="23.3" width="1.93" height="1.55"/><rect class="cls-1" x="21.4" y="23.3" width="1.93" height="1.55"/><rect class="cls-1" x="17.55" y="23.3" width="1.93" height="1.55"/><rect class="cls-1" x="15.62" y="23.3" width="1.93" height="1.55"/><rect class="cls-1" x="13.7" y="23.3" width="1.93" height="1.55"/><rect class="cls-1" x="11.77" y="23.3" width="1.93" height="1.55"/><rect class="cls-1" x="9.85" y="23.3" width="1.93" height="1.55"/><rect class="cls-1" x="7.92" y="23.3" width="1.93" height="1.55"/><rect class="cls-1" x="63.77" y="21.75" width="1.93" height="1.55"/><rect class="cls-1" x="58" y="21.75" width="1.93" height="1.55"/><rect class="cls-1" x="50.29" y="21.75" width="1.93" height="1.55"/><rect class="cls-1" x="40.66" y="21.75" width="1.93" height="1.55"/><rect class="cls-1" x="38.74" y="21.75" width="1.93" height="1.55"/><rect class="cls-1" x="36.81" y="21.75" width="1.93" height="1.55"/><rect class="cls-1" x="34.88" y="21.75" width="1.93" height="1.55"/><rect class="cls-1" x="32.96" y="21.75" width="1.93" height="1.55"/><rect class="cls-1" x="31.03" y="21.75" width="1.93" height="1.55"/><rect class="cls-1" x="29.11" y="21.75" width="1.93" height="1.55"/><rect class="cls-1" x="27.18" y="21.75" width="1.93" height="1.55"/><rect class="cls-1" x="25.25" y="21.75" width="1.93" height="1.55"/><rect class="cls-1" x="23.33" y="21.75" width="1.93" height="1.55"/><rect class="cls-1" x="21.4" y="21.75" width="1.93" height="1.55"/><rect class="cls-1" x="17.55" y="21.75" width="1.93" height="1.55"/><rect class="cls-1" x="15.62" y="21.75" width="1.93" height="1.55"/><rect class="cls-1" x="13.7" y="21.75" width="1.93" height="1.55"/><rect class="cls-1" x="11.77" y="21.75" width="1.93" height="1.55"/><rect class="cls-1" x="9.85" y="21.75" width="1.93" height="1.55"/><rect class="cls-1" x="7.92" y="21.75" width="1.93" height="1.55"/><rect class="cls-1" x="63.77" y="20.19" width="1.93" height="1.55"/><rect class="cls-1" x="58" y="20.19" width="1.93" height="1.55"/><rect class="cls-1" x="50.29" y="20.19" width="1.93" height="1.55"/><rect class="cls-1" x="40.66" y="20.19" width="1.93" height="1.55"/><rect class="cls-1" x="38.74" y="20.19" width="1.93" height="1.55"/><rect class="cls-1" x="36.81" y="20.19" width="1.93" height="1.55"/><rect class="cls-1" x="34.88" y="20.19" width="1.93" height="1.55"/><rect class="cls-1" x="32.96" y="20.19" width="1.93" height="1.55"/><rect class="cls-1" x="31.03" y="20.19" width="1.93" height="1.55"/><rect class="cls-1" x="29.11" y="20.19" width="1.93" height="1.55"/><rect class="cls-1" x="27.18" y="20.19" width="1.93" height="1.55"/><rect class="cls-1" x="25.25" y="20.19" width="1.93" height="1.55"/><rect class="cls-1" x="23.33" y="20.19" width="1.93" height="1.55"/><rect class="cls-1" x="21.4" y="20.19" width="1.93" height="1.55"/><rect class="cls-1" x="17.55" y="20.19" width="1.93" height="1.55"/><rect class="cls-1" x="15.62" y="20.19" width="1.93" height="1.55"/><rect class="cls-1" x="13.7" y="20.19" width="1.93" height="1.55"/><rect class="cls-1" x="11.77" y="20.19" width="1.93" height="1.55"/><rect class="cls-1" x="9.85" y="20.19" width="1.93" height="1.55"/><rect class="cls-1" x="7.92" y="20.19" width="1.93" height="1.55"/><rect class="cls-1" x="63.77" y="18.64" width="1.93" height="1.55"/><rect class="cls-1" x="58" y="18.64" width="1.93" height="1.55"/><rect class="cls-1" x="56.07" y="18.64" width="1.93" height="1.55"/><rect class="cls-1" x="50.29" y="18.64" width="1.93" height="1.55"/><rect class="cls-1" x="40.66" y="18.64" width="1.93" height="1.55"/><rect class="cls-1" x="38.74" y="18.64" width="1.93" height="1.55"/><rect class="cls-1" x="36.81" y="18.64" width="1.93" height="1.55"/><rect class="cls-1" x="34.88" y="18.64" width="1.93" height="1.55"/><rect class="cls-1" x="32.96" y="18.64" width="1.93" height="1.55"/><rect class="cls-1" x="31.03" y="18.64" width="1.93" height="1.55"/><rect class="cls-1" x="29.11" y="18.64" width="1.93" height="1.55"/><rect class="cls-1" x="27.18" y="18.64" width="1.93" height="1.55"/><rect class="cls-1" x="25.25" y="18.64" width="1.93" height="1.55"/><rect class="cls-1" x="23.33" y="18.64" width="1.93" height="1.55"/><rect class="cls-1" x="21.4" y="18.64" width="1.93" height="1.55"/><rect class="cls-1" x="17.55" y="18.64" width="1.93" height="1.55"/><rect class="cls-1" x="15.62" y="18.64" width="1.93" height="1.55"/><rect class="cls-1" x="13.7" y="18.64" width="1.93" height="1.55"/><rect class="cls-1" x="11.77" y="18.64" width="1.93" height="1.55"/><rect class="cls-1" x="9.85" y="18.64" width="1.93" height="1.55"/><rect class="cls-1" x="7.92" y="18.64" width="1.93" height="1.55"/><rect class="cls-1" x="63.77" y="17.09" width="1.93" height="1.55"/><rect class="cls-1" x="58" y="17.09" width="1.93" height="1.55"/><rect class="cls-1" x="56.07" y="17.09" width="1.93" height="1.55"/><rect class="cls-1" x="50.29" y="17.09" width="1.93" height="1.55"/><rect class="cls-1" x="48.37" y="17.09" width="1.93" height="1.55"/><rect class="cls-1" x="40.66" y="17.09" width="1.93" height="1.55"/><rect class="cls-1" x="38.74" y="17.09" width="1.93" height="1.55"/><rect class="cls-1" x="36.81" y="17.09" width="1.93" height="1.55"/><rect class="cls-1" x="34.88" y="17.09" width="1.93" height="1.55"/><rect class="cls-1" x="32.96" y="17.09" width="1.93" height="1.55"/><rect class="cls-1" x="31.03" y="17.09" width="1.93" height="1.55"/><rect class="cls-1" x="29.11" y="17.09" width="1.93" height="1.55"/><rect class="cls-1" x="27.18" y="17.09" width="1.93" height="1.55"/><rect class="cls-1" x="25.25" y="17.09" width="1.93" height="1.55"/><rect class="cls-1" x="23.33" y="17.09" width="1.93" height="1.55"/><rect class="cls-1" x="21.4" y="17.09" width="1.93" height="1.55"/><rect class="cls-1" x="17.55" y="17.09" width="1.93" height="1.55"/><rect class="cls-1" x="15.62" y="17.09" width="1.93" height="1.55"/><rect class="cls-1" x="13.7" y="17.09" width="1.93" height="1.55"/><rect class="cls-1" x="11.77" y="17.09" width="1.93" height="1.55"/><rect class="cls-1" x="9.85" y="17.09" width="1.93" height="1.55"/><rect class="cls-1" x="7.92" y="17.09" width="1.93" height="1.55"/><rect class="cls-1" x="63.77" y="15.53" width="1.93" height="1.55"/><rect class="cls-1" x="61.85" y="15.53" width="1.93" height="1.55"/><rect class="cls-1" x="56.07" y="15.53" width="1.93" height="1.55"/><rect class="cls-1" x="50.29" y="15.53" width="1.93" height="1.55"/><rect class="cls-1" x="48.37" y="15.53" width="1.93" height="1.55"/><rect class="cls-1" x="40.66" y="15.53" width="1.93" height="1.55"/><rect class="cls-1" x="38.74" y="15.53" width="1.93" height="1.55"/><rect class="cls-1" x="36.81" y="15.53" width="1.93" height="1.55"/><rect class="cls-1" x="34.88" y="15.53" width="1.93" height="1.55"/><rect class="cls-1" x="32.96" y="15.53" width="1.93" height="1.55"/><rect class="cls-1" x="31.03" y="15.53" width="1.93" height="1.55"/><rect class="cls-1" x="29.11" y="15.53" width="1.93" height="1.55"/><rect class="cls-1" x="27.18" y="15.53" width="1.93" height="1.55"/><rect class="cls-1" x="25.25" y="15.53" width="1.93" height="1.55"/><rect class="cls-1" x="23.33" y="15.53" width="1.93" height="1.55"/><rect class="cls-1" x="21.4" y="15.53" width="1.93" height="1.55"/><rect class="cls-1" x="17.55" y="15.53" width="1.93" height="1.55"/><rect class="cls-1" x="15.62" y="15.53" width="1.93" height="1.55"/><rect class="cls-1" x="13.7" y="15.53" width="1.93" height="1.55"/><rect class="cls-1" x="11.77" y="15.53" width="1.93" height="1.55"/><rect class="cls-1" x="9.85" y="15.53" width="1.93" height="1.55"/><rect class="cls-1" x="7.92" y="15.53" width="1.93" height="1.55"/><rect class="cls-1" x="63.77" y="13.98" width="1.93" height="1.55"/><rect class="cls-1" x="61.85" y="13.98" width="1.93" height="1.55"/><rect class="cls-1" x="56.07" y="13.98" width="1.93" height="1.55"/><rect class="cls-1" x="48.37" y="13.98" width="1.93" height="1.55"/><rect class="cls-1" x="46.44" y="13.98" width="1.93" height="1.55"/><rect class="cls-1" x="40.66" y="13.98" width="1.93" height="1.55"/><rect class="cls-1" x="38.74" y="13.98" width="1.93" height="1.55"/><rect class="cls-1" x="36.81" y="13.98" width="1.93" height="1.55"/><rect class="cls-1" x="34.88" y="13.98" width="1.93" height="1.55"/><rect class="cls-1" x="32.96" y="13.98" width="1.93" height="1.55"/><rect class="cls-1" x="31.03" y="13.98" width="1.93" height="1.55"/><rect class="cls-1" x="29.11" y="13.98" width="1.93" height="1.55"/><rect class="cls-1" x="27.18" y="13.98" width="1.93" height="1.55"/><rect class="cls-1" x="25.25" y="13.98" width="1.93" height="1.55"/><rect class="cls-1" x="23.33" y="13.98" width="1.93" height="1.55"/><rect class="cls-1" x="21.4" y="13.98" width="1.93" height="1.55"/><rect class="cls-1" x="17.55" y="13.98" width="1.93" height="1.55"/><rect class="cls-1" x="15.62" y="13.98" width="1.93" height="1.55"/><rect class="cls-1" x="13.7" y="13.98" width="1.93" height="1.55"/><rect class="cls-1" x="11.77" y="13.98" width="1.93" height="1.55"/><rect class="cls-1" x="9.85" y="13.98" width="1.93" height="1.55"/><rect class="cls-1" x="61.85" y="12.43" width="1.93" height="1.55"/><rect class="cls-1" x="56.07" y="12.43" width="1.93" height="1.55"/><rect class="cls-1" x="54.14" y="12.43" width="1.93" height="1.55"/><rect class="cls-1" x="46.44" y="12.43" width="1.93" height="1.55"/><rect class="cls-1" x="44.51" y="12.43" width="1.93" height="1.55"/><rect class="cls-1" x="40.66" y="12.43" width="1.93" height="1.55"/><rect class="cls-1" x="38.74" y="12.43" width="1.93" height="1.55"/><rect class="cls-1" x="36.81" y="12.43" width="1.93" height="1.55"/><rect class="cls-1" x="34.88" y="12.43" width="1.93" height="1.55"/><rect class="cls-1" x="32.96" y="12.43" width="1.93" height="1.55"/><rect class="cls-1" x="31.03" y="12.43" width="1.93" height="1.55"/><rect class="cls-1" x="29.11" y="12.43" width="1.93" height="1.55"/><rect class="cls-1" x="27.18" y="12.43" width="1.93" height="1.55"/><rect class="cls-1" x="25.25" y="12.43" width="1.93" height="1.55"/><rect class="cls-1" x="23.33" y="12.43" width="1.93" height="1.55"/><rect class="cls-1" x="21.4" y="12.43" width="1.93" height="1.55"/><rect class="cls-1" x="17.55" y="12.43" width="1.93" height="1.55"/><rect class="cls-1" x="15.62" y="12.43" width="1.93" height="1.55"/><rect class="cls-1" x="13.7" y="12.43" width="1.93" height="1.55"/><rect class="cls-1" x="11.77" y="12.43" width="1.93" height="1.55"/><rect class="cls-1" x="61.85" y="10.87" width="1.93" height="1.55"/><rect class="cls-1" x="54.14" y="10.87" width="1.93" height="1.55"/><rect class="cls-1" x="44.51" y="10.87" width="1.93" height="1.55"/><rect class="cls-1" x="40.66" y="10.87" width="1.93" height="1.55"/><rect class="cls-1" x="38.74" y="10.87" width="1.93" height="1.55"/><rect class="cls-1" x="36.81" y="10.87" width="1.93" height="1.55"/><rect class="cls-1" x="34.88" y="10.87" width="1.93" height="1.55"/><rect class="cls-1" x="32.96" y="10.87" width="1.93" height="1.55"/><rect class="cls-1" x="31.03" y="10.87" width="1.93" height="1.55"/><rect class="cls-1" x="29.11" y="10.87" width="1.93" height="1.55"/><rect class="cls-1" x="27.18" y="10.87" width="1.93" height="1.55"/><rect class="cls-1" x="59.92" y="9.32" width="1.93" height="1.55"/><rect class="cls-1" x="52.22" y="9.32" width="1.93" height="1.55"/><rect class="cls-1" x="40.66" y="9.32" width="1.93" height="1.55"/><rect class="cls-1" x="38.74" y="9.32" width="1.93" height="1.55"/><rect class="cls-1" x="36.81" y="9.32" width="1.93" height="1.55"/><rect class="cls-1" x="34.88" y="9.32" width="1.93" height="1.55"/><rect class="cls-1" x="32.96" y="9.32" width="1.93" height="1.55"/><rect class="cls-1" x="31.03" y="9.32" width="1.93" height="1.55"/><rect class="cls-1" x="29.11" y="9.32" width="1.93" height="1.55"/><rect class="cls-1" x="59.92" y="7.77" width="1.93" height="1.55"/><rect class="cls-1" x="52.22" y="7.77" width="1.93" height="1.55"/><rect class="cls-1" x="40.66" y="7.77" width="1.93" height="1.55"/><rect class="cls-1" x="38.74" y="7.77" width="1.93" height="1.55"/><rect class="cls-1" x="36.81" y="7.77" width="1.93" height="1.55"/><rect class="cls-1" x="34.88" y="7.77" width="1.93" height="1.55"/><rect class="cls-1" x="32.96" y="7.77" width="1.93" height="1.55"/><rect class="cls-1" x="31.03" y="7.77" width="1.93" height="1.55"/><rect class="cls-1" x="59.92" y="6.21" width="1.93" height="1.55"/><rect class="cls-1" x="58" y="6.21" width="1.93" height="1.55"/><rect class="cls-1" x="40.66" y="6.21" width="1.93" height="1.55"/><rect class="cls-1" x="38.74" y="6.21" width="1.93" height="1.55"/><rect class="cls-1" x="36.81" y="6.21" width="1.93" height="1.55"/><rect class="cls-1" x="34.88" y="6.21" width="1.93" height="1.55"/><rect class="cls-1" x="32.96" y="6.21" width="1.93" height="1.55"/><rect class="cls-1" x="58" y="4.66" width="1.93" height="1.55"/><rect class="cls-1" x="40.66" y="4.66" width="1.93" height="1.55"/><rect class="cls-1" x="38.74" y="4.66" width="1.93" height="1.55"/><rect class="cls-1" x="36.81" y="4.66" width="1.93" height="1.55"/><rect class="cls-1" x="34.88" y="4.66" width="1.93" height="1.55"/><rect class="cls-1" x="40.66" y="3.11" width="1.93" height="1.55"/><rect class="cls-1" x="38.74" y="3.11" width="1.93" height="1.55"/><rect class="cls-1" x="36.81" y="3.11" width="1.93" height="1.55"/><rect class="cls-1" x="40.66" y="1.55" width="1.93" height="1.55"/><rect class="cls-1" x="38.74" y="1.55" width="1.93" height="1.55"/><rect class="cls-1" x="40.66" width="1.93" height="1.55"/><rect class="cls-1" x="29.11" y="35.72" width="1.93" height="1.55"/><path class="cls-2" d="M2.44,79.43V78H3.6v1.48Zm1.32,0V78H4.92v1.48ZM2.44,77.77V76.29H3.6v1.48Zm1.32,0V76.29H4.92v1.48ZM2.44,76.11V74.63H3.6v1.48Zm1.32,0V74.63H4.92v1.48Zm1.33,0V74.63H6.25v1.48Zm1.33,0V74.63H7.58v1.48Zm-4-1.66V73H3.6v1.48Zm1.32,0V73H4.92v1.48Zm2.66,0V73H7.58v1.48Zm1.32,0V73H8.9v1.48Zm-5.3-1.66V71.31H3.6v1.48Zm1.32,0V71.31H4.92v1.48Zm2.66,0V71.31H7.58v1.48Zm1.32,0V71.31H8.9v1.48Zm-5.3-1.66V69.65H3.6v1.48Zm1.32,0V69.65H4.92v1.48Zm2.66,0V69.65H7.58v1.48Zm1.32,0V69.65H8.9v1.48Zm-5.3-1.65V68H3.6v1.48Zm1.32,0V68H4.92v1.48Zm1.33,0V68H6.25v1.48Zm1.33,0V68H7.58v1.48Z" transform="translate(-2.44 -8.42)"/><path class="cls-2" d="M10.53,79.43V78h1.16v1.48Zm1.33,0V78H13v1.48Zm-1.33-1.66V76.29h1.16v1.48Zm1.33,0V76.29H13v1.48Zm-1.33-1.66V74.63h1.16v1.48Zm1.33,0V74.63H13v1.48Zm-1.33-1.66V73h1.16v1.48Zm1.33,0V73H13v1.48Zm1.33,0V73h1.16v1.48Zm1.32,0V73h1.16v1.48Zm-4-1.66V71.31h1.16v1.48Zm1.33,0V71.31H13v1.48Zm2.65,0V71.31h1.16v1.48Z" transform="translate(-2.44 -8.42)"/><path class="cls-2" d="M18.58,79.43V78h1.16v1.48Zm1.33,0V78h1.15v1.48Zm1.32,0V78h1.16v1.48Zm1.33,0V78h1.16v1.48Zm-5.31-1.66V76.29h1.16v1.48Zm1.33,0V76.29h1.16v1.48Zm-1.33-1.66V74.63h1.16v1.48Zm1.33,0V74.63h1.16v1.48Zm1.33,0V74.63h1.15v1.48Zm1.32,0V74.63h1.16v1.48Zm1.33,0V74.63h1.16v1.48Zm-5.31-1.66V73h1.16v1.48Zm1.33,0V73h1.16v1.48Zm2.65,0V73h1.16v1.48Zm1.33,0V73h1.16v1.48Zm-4-1.66V71.31h1.16v1.48Zm1.33,0V71.31h1.15v1.48Zm1.32,0V71.31h1.16v1.48Z" transform="translate(-2.44 -8.42)"/><path class="cls-2" d="M27.92,79.43V78h1.16v1.48ZM26.6,77.77V76.29h1.15v1.48Zm1.32,0V76.29h1.16v1.48Zm1.33,0V76.29h1.16v1.48ZM26.6,76.11V74.63h1.15v1.48Zm1.32,0V74.63h1.16v1.48Zm1.33,0V74.63h1.16v1.48Zm-4-1.66V73h1.16v1.48Zm1.33,0V73h1.15v1.48Zm2.65,0V73h1.16v1.48Zm1.32,0V73h1.16v1.48Zm-5.3-1.66V71.31h1.16v1.48Zm1.33,0V71.31h1.15v1.48Zm2.65,0V71.31h1.16v1.48Zm1.32,0V71.31h1.16v1.48Z" transform="translate(-2.44 -8.42)"/><path class="cls-2" d="M33.54,79.43V78H34.7v1.48Zm1.33,0V78H36v1.48Zm-1.33-1.66V76.29H34.7v1.48Zm1.33,0V76.29H36v1.48Zm-1.33-1.66V74.63H34.7v1.48Zm1.33,0V74.63H36v1.48Zm-1.33-1.66V73H34.7v1.48Zm1.33,0V73H36v1.48Zm-1.33-1.66V71.31H34.7v1.48Zm1.33,0V71.31H36v1.48Zm-1.33-3.31V68H34.7v1.48Zm1.33,0V68H36v1.48Z" transform="translate(-2.44 -8.42)"/><path class="cls-2" d="M39.25,79.43V78h1.16v1.48Zm1.32,0V78h1.16v1.48Zm1.33,0V78h1.16v1.48Zm1.33,0V78h1.16v1.48Zm-5.31-1.66V76.29h1.16v1.48Zm1.33,0V76.29h1.16v1.48Zm-1.33-1.66V74.63h1.16v1.48Zm1.33,0V74.63h1.16v1.48Zm1.32,0V74.63h1.16v1.48Zm1.33,0V74.63h1.16v1.48Zm1.33,0V74.63h1.16v1.48Zm-5.31-1.66V73h1.16v1.48Zm1.33,0V73h1.16v1.48Zm2.65,0V73h1.16v1.48Zm1.33,0V73h1.16v1.48Zm-4-1.66V71.31h1.16v1.48Zm1.32,0V71.31h1.16v1.48Zm1.33,0V71.31h1.16v1.48Z" transform="translate(-2.44 -8.42)"/><path class="cls-2" d="M47.39,79.43V78h1.15v1.48Zm1.32,0V78h1.16v1.48Zm2.66,0V78h1.15v1.48Zm1.32,0V78h1.16v1.48Zm-5.3-1.66V76.29h1.15v1.48Zm1.32,0V76.29h1.16v1.48Zm1.33,0V76.29H51.2v1.48Zm1.33,0V76.29h1.15v1.48Zm1.32,0V76.29h1.16v1.48Zm-6.63-1.66V74.63h1.16v1.48Zm1.33,0V74.63h1.15v1.48Zm2.65,0V74.63H51.2v1.48Zm2.65,0V74.63h1.16v1.48Zm-6.63-1.66V73h1.16v1.48Zm1.33,0V73h1.15v1.48Zm2.65,0V73H51.2v1.48Zm2.65,0V73h1.16v1.48Zm-6.63-1.66V71.31h1.16v1.48Zm1.33,0V71.31h1.15v1.48Zm5.3,0V71.31h1.16v1.48ZM54,76.11V74.63h1.16v1.48Zm0-1.66V73h1.16v1.48Zm0-1.66V71.31h1.16v1.48Z" transform="translate(-2.44 -8.42)"/><path class="cls-2" d="M60.09,79.43V78h1.16v1.48Zm1.33,0V78h1.15v1.48Zm1.32,0V78H63.9v1.48Zm1.33,0V78h1.16v1.48Zm-5.31-1.66V76.29h1.16v1.48Zm1.33,0V76.29h1.16v1.48Zm4,0V76.29h1.16v1.48Zm1.33,0V76.29h1.15v1.48Zm-6.64-1.66V74.63h1.16v1.48Zm1.33,0V74.63h1.16v1.48Zm4,0V74.63h1.16v1.48Zm1.33,0V74.63h1.15v1.48Zm-6.64-1.66V73h1.16v1.48Zm1.33,0V73h1.16v1.48Zm4,0V73h1.16v1.48Zm1.33,0V73h1.15v1.48Zm-6.64-1.66V71.31h1.16v1.48Zm1.33,0V71.31h1.16v1.48Zm4,0V71.31h1.16v1.48Zm1.33,0V71.31h1.15v1.48Zm-6.64-1.66V69.65h1.16v1.48Zm1.33,0V69.65h1.16v1.48Zm4,0V69.65h1.16v1.48Zm1.33,0V69.65h1.15v1.48Zm-5.31-1.65V68h1.16v1.48Zm1.33,0V68h1.15v1.48Zm1.32,0V68H63.9v1.48Zm1.33,0V68h1.16v1.48Z" transform="translate(-2.44 -8.42)"/><path class="cls-2" d="M68.63,79.43V78h1.16v1.48Zm1.33,0V78h1.15v1.48Zm2.65,0V78h1.16v1.48Zm1.33,0V78h1.15v1.48Zm-5.31-1.66V76.29h1.16v1.48Zm1.33,0V76.29h1.15v1.48Zm2.65,0V76.29h1.16v1.48Zm1.33,0V76.29h1.15v1.48Zm-5.31-1.66V74.63h1.16v1.48Zm1.33,0V74.63h1.15v1.48Zm2.65,0V74.63h1.16v1.48Zm1.33,0V74.63h1.15v1.48Zm-5.31-1.66V73h1.16v1.48Zm1.33,0V73h1.15v1.48Zm2.65,0V73h1.16v1.48Zm1.33,0V73h1.15v1.48Zm-5.31-1.66V71.31h1.16v1.48Zm1.33,0V71.31h1.15v1.48Zm1.32,0V71.31h1.16v1.48Zm1.33,0V71.31h1.16v1.48Z" transform="translate(-2.44 -8.42)"/></svg>