<svg id="Preview_On" data-name="Preview On" xmlns="http://www.w3.org/2000/svg" viewBox="0 0 58.23 71.34"><defs><style>.cls-1{fill:#157a3d;}.cls-2{fill:#0f7c3f;}</style></defs><rect class="cls-1" x="33.2" y="45.04" width="1.93" height="1.55"/><rect class="cls-1" x="33.2" y="43.49" width="1.93" height="1.55"/><rect class="cls-1" x="31.27" y="43.49" width="1.93" height="1.55"/><rect class="cls-1" x="33.2" y="41.94" width="1.93" height="1.55"/><rect class="cls-1" x="31.27" y="41.94" width="1.93" height="1.55"/><rect class="cls-1" x="29.34" y="41.94" width="1.93" height="1.55"/><rect class="cls-1" x="50.53" y="40.38" width="1.93" height="1.55"/><rect class="cls-1" x="33.2" y="40.38" width="1.93" height="1.55"/><rect class="cls-1" x="31.27" y="40.38" width="1.93" height="1.55"/><rect class="cls-1" x="29.34" y="40.38" width="1.93" height="1.55"/><rect class="cls-1" x="27.42" y="40.38" width="1.93" height="1.55"/><rect class="cls-1" x="52.46" y="38.83" width="1.93" height="1.55"/><rect class="cls-1" x="50.53" y="38.83" width="1.93" height="1.55"/><rect class="cls-1" x="33.2" y="38.83" width="1.93" height="1.55"/><rect class="cls-1" x="31.27" y="38.83" width="1.93" height="1.55"/><rect class="cls-1" x="29.34" y="38.83" width="1.93" height="1.55"/><rect class="cls-1" x="27.42" y="38.83" width="1.93" height="1.55"/><rect class="cls-1" x="25.49" y="38.83" width="1.93" height="1.55"/><rect class="cls-1" x="52.46" y="37.28" width="1.93" height="1.55"/><rect class="cls-1" x="50.53" y="37.28" width="1.93" height="1.55"/><rect class="cls-1" x="44.75" y="37.28" width="1.93" height="1.55"/><rect class="cls-1" x="33.2" y="37.28" width="1.93" height="1.55"/><rect class="cls-1" x="31.27" y="37.28" width="1.93" height="1.55"/><rect class="cls-1" x="29.34" y="37.28" width="1.93" height="1.55"/><rect class="cls-1" x="27.42" y="37.28" width="1.93" height="1.55"/><rect class="cls-1" x="25.49" y="37.28" width="1.93" height="1.55"/><rect class="cls-1" x="23.57" y="37.28" width="1.93" height="1.55"/><rect class="cls-1" x="54.38" y="35.72" width="1.93" height="1.55"/><rect class="cls-1" x="52.46" y="35.72" width="1.93" height="1.55"/><rect class="cls-1" x="44.75" y="35.72" width="1.93" height="1.55"/><rect class="cls-1" x="33.2" y="35.72" width="1.93" height="1.55"/><rect class="cls-1" x="31.27" y="35.72" width="1.93" height="1.55"/><rect class="cls-1" x="29.34" y="35.72" width="1.93" height="1.55"/><rect class="cls-1" x="27.42" y="35.72" width="1.93" height="1.55"/><rect class="cls-1" x="25.49" y="35.72" width="1.93" height="1.55"/><rect class="cls-1" x="23.57" y="35.72" width="1.93" height="1.55"/><rect class="cls-1" x="54.38" y="34.17" width="1.93" height="1.55"/><rect class="cls-1" x="46.68" y="34.17" width="1.93" height="1.55"/><rect class="cls-1" x="37.05" y="34.17" width="1.93" height="1.55"/><rect class="cls-1" x="33.2" y="34.17" width="1.93" height="1.55"/><rect class="cls-1" x="31.27" y="34.17" width="1.93" height="1.55"/><rect class="cls-1" x="29.34" y="34.17" width="1.93" height="1.55"/><rect class="cls-1" x="27.42" y="34.17" width="1.93" height="1.55"/><rect class="cls-1" x="25.49" y="34.17" width="1.93" height="1.55"/><rect class="cls-1" x="23.57" y="34.17" width="1.93" height="1.55"/><rect class="cls-1" x="21.64" y="34.17" width="1.93" height="1.55"/><rect class="cls-1" x="19.71" y="34.17" width="1.93" height="1.55"/><rect class="cls-1" x="54.38" y="32.62" width="1.93" height="1.55"/><rect class="cls-1" x="48.6" y="32.62" width="1.93" height="1.55"/><rect class="cls-1" x="46.68" y="32.62" width="1.93" height="1.55"/><rect class="cls-1" x="38.97" y="32.62" width="1.93" height="1.55"/><rect class="cls-1" x="37.05" y="32.62" width="1.93" height="1.55"/><rect class="cls-1" x="33.2" y="32.62" width="1.93" height="1.55"/><rect class="cls-1" x="31.27" y="32.62" width="1.93" height="1.55"/><rect class="cls-1" x="29.34" y="32.62" width="1.93" height="1.55"/><rect class="cls-1" x="27.42" y="32.62" width="1.93" height="1.55"/><rect class="cls-1" x="25.49" y="32.62" width="1.93" height="1.55"/><rect class="cls-1" x="23.57" y="32.62" width="1.93" height="1.55"/><rect class="cls-1" x="21.64" y="32.62" width="1.93" height="1.55"/><rect class="cls-1" x="19.71" y="32.62" width="1.93" height="1.55"/><rect class="cls-1" x="17.79" y="32.62" width="1.93" height="1.55"/><rect class="cls-1" x="15.86" y="32.62" width="1.93" height="1.55"/><rect class="cls-1" x="13.94" y="32.62" width="1.93" height="1.55"/><rect class="cls-1" x="10.08" y="32.62" width="1.93" height="1.55"/><rect class="cls-1" x="8.16" y="32.62" width="1.93" height="1.55"/><rect class="cls-1" x="6.23" y="32.62" width="1.93" height="1.55"/><rect class="cls-1" x="4.31" y="32.62" width="1.93" height="1.55"/><rect class="cls-1" x="56.31" y="31.07" width="1.93" height="1.55"/><rect class="cls-1" x="54.38" y="31.07" width="1.93" height="1.55"/><rect class="cls-1" x="48.6" y="31.07" width="1.93" height="1.55"/><rect class="cls-1" x="40.9" y="31.07" width="1.93" height="1.55"/><rect class="cls-1" x="38.97" y="31.07" width="1.93" height="1.55"/><rect class="cls-1" x="33.2" y="31.07" width="1.93" height="1.55"/><rect class="cls-1" x="31.27" y="31.07" width="1.93" height="1.55"/><rect class="cls-1" x="29.34" y="31.07" width="1.93" height="1.55"/><rect class="cls-1" x="27.42" y="31.07" width="1.93" height="1.55"/><rect class="cls-1" x="25.49" y="31.07" width="1.93" height="1.55"/><rect class="cls-1" x="23.57" y="31.07" width="1.93" height="1.55"/><rect class="cls-1" x="21.64" y="31.07" width="1.93" height="1.55"/><rect class="cls-1" x="19.71" y="31.07" width="1.93" height="1.55"/><rect class="cls-1" x="17.79" y="31.07" width="1.93" height="1.55"/><rect class="cls-1" x="15.86" y="31.07" width="1.93" height="1.55"/><rect class="cls-1" x="13.94" y="31.07" width="1.93" height="1.55"/><rect class="cls-1" x="10.08" y="31.07" width="1.93" height="1.55"/><rect class="cls-1" x="8.16" y="31.07" width="1.93" height="1.55"/><rect class="cls-1" x="6.23" y="31.07" width="1.93" height="1.55"/><rect class="cls-1" x="4.31" y="31.07" width="1.93" height="1.55"/><rect class="cls-1" x="2.38" y="31.07" width="1.93" height="1.55"/><rect class="cls-1" x="56.31" y="29.51" width="1.93" height="1.55"/><rect class="cls-1" x="48.6" y="29.51" width="1.93" height="1.55"/><rect class="cls-1" x="42.83" y="29.51" width="1.93" height="1.55"/><rect class="cls-1" x="40.9" y="29.51" width="1.93" height="1.55"/><rect class="cls-1" x="33.2" y="29.51" width="1.93" height="1.55"/><rect class="cls-1" x="31.27" y="29.51" width="1.93" height="1.55"/><rect class="cls-1" x="29.34" y="29.51" width="1.93" height="1.55"/><rect class="cls-1" x="27.42" y="29.51" width="1.93" height="1.55"/><rect class="cls-1" x="25.49" y="29.51" width="1.93" height="1.55"/><rect class="cls-1" x="23.57" y="29.51" width="1.93" height="1.55"/><rect class="cls-1" x="21.64" y="29.51" width="1.93" height="1.55"/><rect class="cls-1" x="19.71" y="29.51" width="1.93" height="1.55"/><rect class="cls-1" x="17.79" y="29.51" width="1.93" height="1.55"/><rect class="cls-1" x="15.86" y="29.51" width="1.93" height="1.55"/><rect class="cls-1" x="13.94" y="29.51" width="1.93" height="1.55"/><rect class="cls-1" x="10.08" y="29.51" width="1.93" height="1.55"/><rect class="cls-1" x="8.16" y="29.51" width="1.93" height="1.55"/><rect class="cls-1" x="6.23" y="29.51" width="1.93" height="1.55"/><rect class="cls-1" x="4.31" y="29.51" width="1.93" height="1.55"/><rect class="cls-1" x="2.38" y="29.51" width="1.93" height="1.55"/><rect class="cls-1" x="0.45" y="29.51" width="1.93" height="1.55"/><rect class="cls-1" x="56.31" y="27.96" width="1.93" height="1.55"/><rect class="cls-1" x="50.53" y="27.96" width="1.93" height="1.55"/><rect class="cls-1" x="48.6" y="27.96" width="1.93" height="1.55"/><rect class="cls-1" x="42.83" y="27.96" width="1.93" height="1.55"/><rect class="cls-1" x="33.2" y="27.96" width="1.93" height="1.55"/><rect class="cls-1" x="31.27" y="27.96" width="1.93" height="1.55"/><rect class="cls-1" x="29.34" y="27.96" width="1.93" height="1.55"/><rect class="cls-1" x="27.42" y="27.96" width="1.93" height="1.55"/><rect class="cls-1" x="25.49" y="27.96" width="1.93" height="1.55"/><rect class="cls-1" x="23.57" y="27.96" width="1.93" height="1.55"/><rect class="cls-1" x="21.64" y="27.96" width="1.93" height="1.55"/><rect class="cls-1" x="19.71" y="27.96" width="1.93" height="1.55"/><rect class="cls-1" x="17.79" y="27.96" width="1.93" height="1.55"/><rect class="cls-1" x="15.86" y="27.96" width="1.93" height="1.55"/><rect class="cls-1" x="13.94" y="27.96" width="1.93" height="1.55"/><rect class="cls-1" x="10.08" y="27.96" width="1.93" height="1.55"/><rect class="cls-1" x="8.16" y="27.96" width="1.93" height="1.55"/><rect class="cls-1" x="6.23" y="27.96" width="1.93" height="1.55"/><rect class="cls-1" x="4.31" y="27.96" width="1.93" height="1.55"/><rect class="cls-1" x="2.38" y="27.96" width="1.93" height="1.55"/><rect class="cls-1" x="0.45" y="27.96" width="1.93" height="1.55"/><rect class="cls-1" x="56.31" y="26.41" width="1.93" height="1.55"/><rect class="cls-1" x="50.53" y="26.41" width="1.93" height="1.55"/><rect class="cls-1" x="48.6" y="26.41" width="1.93" height="1.55"/><rect class="cls-1" x="42.83" y="26.41" width="1.93" height="1.55"/><rect class="cls-1" x="33.2" y="26.41" width="1.93" height="1.55"/><rect class="cls-1" x="31.27" y="26.41" width="1.93" height="1.55"/><rect class="cls-1" x="29.34" y="26.41" width="1.93" height="1.55"/><rect class="cls-1" x="27.42" y="26.41" width="1.93" height="1.55"/><rect class="cls-1" x="25.49" y="26.41" width="1.93" height="1.55"/><rect class="cls-1" x="23.57" y="26.41" width="1.93" height="1.55"/><rect class="cls-1" x="21.64" y="26.41" width="1.93" height="1.55"/><rect class="cls-1" x="19.71" y="26.41" width="1.93" height="1.55"/><rect class="cls-1" x="17.79" y="26.41" width="1.93" height="1.55"/><rect class="cls-1" x="15.86" y="26.41" width="1.93" height="1.55"/><rect class="cls-1" x="13.94" y="26.41" width="1.93" height="1.55"/><rect class="cls-1" x="10.08" y="26.41" width="1.93" height="1.55"/><rect class="cls-1" x="8.16" y="26.41" width="1.93" height="1.55"/><rect class="cls-1" x="6.23" y="26.41" width="1.93" height="1.55"/><rect class="cls-1" x="4.31" y="26.41" width="1.93" height="1.55"/><rect class="cls-1" x="2.38" y="26.41" width="1.93" height="1.55"/><rect class="cls-1" x="0.45" y="26.41" width="1.93" height="1.55"/><rect class="cls-1" x="56.31" y="24.85" width="1.93" height="1.55"/><rect class="cls-1" x="50.53" y="24.85" width="1.93" height="1.55"/><rect class="cls-1" x="42.83" y="24.85" width="1.93" height="1.55"/><rect class="cls-1" x="33.2" y="24.85" width="1.93" height="1.55"/><rect class="cls-1" x="31.27" y="24.85" width="1.93" height="1.55"/><rect class="cls-1" x="29.34" y="24.85" width="1.93" height="1.55"/><rect class="cls-1" x="27.42" y="24.85" width="1.93" height="1.55"/><rect class="cls-1" x="25.49" y="24.85" width="1.93" height="1.55"/><rect class="cls-1" x="23.57" y="24.85" width="1.93" height="1.55"/><rect class="cls-1" x="21.64" y="24.85" width="1.93" height="1.55"/><rect class="cls-1" x="19.71" y="24.85" width="1.93" height="1.55"/><rect class="cls-1" x="17.79" y="24.85" width="1.93" height="1.55"/><rect class="cls-1" x="15.86" y="24.85" width="1.93" height="1.55"/><rect class="cls-1" x="13.94" y="24.85" width="1.93" height="1.55"/><rect class="cls-1" x="10.08" y="24.85" width="1.93" height="1.55"/><rect class="cls-1" x="8.16" y="24.85" width="1.93" height="1.55"/><rect class="cls-1" x="6.23" y="24.85" width="1.93" height="1.55"/><rect class="cls-1" x="4.31" y="24.85" width="1.93" height="1.55"/><rect class="cls-1" x="2.38" y="24.85" width="1.93" height="1.55"/><rect class="cls-1" x="0.45" y="24.85" width="1.93" height="1.55"/><rect class="cls-1" x="56.31" y="23.3" width="1.93" height="1.55"/><rect class="cls-1" x="50.53" y="23.3" width="1.93" height="1.55"/><rect class="cls-1" x="42.83" y="23.3" width="1.93" height="1.55"/><rect class="cls-1" x="33.2" y="23.3" width="1.93" height="1.55"/><rect class="cls-1" x="31.27" y="23.3" width="1.93" height="1.55"/><rect class="cls-1" x="29.34" y="23.3" width="1.93" height="1.55"/><rect class="cls-1" x="27.42" y="23.3" width="1.93" height="1.55"/><rect class="cls-1" x="25.49" y="23.3" width="1.93" height="1.55"/><rect class="cls-1" x="23.57" y="23.3" width="1.93" height="1.55"/><rect class="cls-1" x="21.64" y="23.3" width="1.93" height="1.55"/><rect class="cls-1" x="19.71" y="23.3" width="1.93" height="1.55"/><rect class="cls-1" x="17.79" y="23.3" width="1.93" height="1.55"/><rect class="cls-1" x="15.86" y="23.3" width="1.93" height="1.55"/><rect class="cls-1" x="13.94" y="23.3" width="1.93" height="1.55"/><rect class="cls-1" x="10.08" y="23.3" width="1.93" height="1.55"/><rect class="cls-1" x="8.16" y="23.3" width="1.93" height="1.55"/><rect class="cls-1" x="6.23" y="23.3" width="1.93" height="1.55"/><rect class="cls-1" x="4.31" y="23.3" width="1.93" height="1.55"/><rect class="cls-1" x="2.38" y="23.3" width="1.93" height="1.55"/><rect class="cls-1" x="0.45" y="23.3" width="1.93" height="1.55"/><rect class="cls-1" x="56.31" y="21.75" width="1.93" height="1.55"/><rect class="cls-1" x="50.53" y="21.75" width="1.93" height="1.55"/><rect class="cls-1" x="42.83" y="21.75" width="1.93" height="1.55"/><rect class="cls-1" x="33.2" y="21.75" width="1.93" height="1.55"/><rect class="cls-1" x="31.27" y="21.75" width="1.93" height="1.55"/><rect class="cls-1" x="29.34" y="21.75" width="1.93" height="1.55"/><rect class="cls-1" x="27.42" y="21.75" width="1.93" height="1.55"/><rect class="cls-1" x="25.49" y="21.75" width="1.93" height="1.55"/><rect class="cls-1" x="23.57" y="21.75" width="1.93" height="1.55"/><rect class="cls-1" x="21.64" y="21.75" width="1.93" height="1.55"/><rect class="cls-1" x="19.71" y="21.75" width="1.93" height="1.55"/><rect class="cls-1" x="17.79" y="21.75" width="1.93" height="1.55"/><rect class="cls-1" x="15.86" y="21.75" width="1.93" height="1.55"/><rect class="cls-1" x="13.94" y="21.75" width="1.93" height="1.55"/><rect class="cls-1" x="10.08" y="21.75" width="1.93" height="1.55"/><rect class="cls-1" x="8.16" y="21.75" width="1.93" height="1.55"/><rect class="cls-1" x="6.23" y="21.75" width="1.93" height="1.55"/><rect class="cls-1" x="4.31" y="21.75" width="1.93" height="1.55"/><rect class="cls-1" x="2.38" y="21.75" width="1.93" height="1.55"/><rect class="cls-1" x="0.45" y="21.75" width="1.93" height="1.55"/><rect class="cls-1" x="56.31" y="20.19" width="1.93" height="1.55"/><rect class="cls-1" x="50.53" y="20.19" width="1.93" height="1.55"/><rect class="cls-1" x="42.83" y="20.19" width="1.93" height="1.55"/><rect class="cls-1" x="33.2" y="20.19" width="1.93" height="1.55"/><rect class="cls-1" x="31.27" y="20.19" width="1.93" height="1.55"/><rect class="cls-1" x="29.34" y="20.19" width="1.93" height="1.55"/><rect class="cls-1" x="27.42" y="20.19" width="1.93" height="1.55"/><rect class="cls-1" x="25.49" y="20.19" width="1.93" height="1.55"/><rect class="cls-1" x="23.57" y="20.19" width="1.93" height="1.55"/><rect class="cls-1" x="21.64" y="20.19" width="1.93" height="1.55"/><rect class="cls-1" x="19.71" y="20.19" width="1.93" height="1.55"/><rect class="cls-1" x="17.79" y="20.19" width="1.93" height="1.55"/><rect class="cls-1" x="15.86" y="20.19" width="1.93" height="1.55"/><rect class="cls-1" x="13.94" y="20.19" width="1.93" height="1.55"/><rect class="cls-1" x="10.08" y="20.19" width="1.93" height="1.55"/><rect class="cls-1" x="8.16" y="20.19" width="1.93" height="1.55"/><rect class="cls-1" x="6.23" y="20.19" width="1.93" height="1.55"/><rect class="cls-1" x="4.31" y="20.19" width="1.93" height="1.55"/><rect class="cls-1" x="2.38" y="20.19" width="1.93" height="1.55"/><rect class="cls-1" x="0.45" y="20.19" width="1.93" height="1.55"/><rect class="cls-1" x="56.31" y="18.64" width="1.93" height="1.55"/><rect class="cls-1" x="50.53" y="18.64" width="1.93" height="1.55"/><rect class="cls-1" x="48.6" y="18.64" width="1.93" height="1.55"/><rect class="cls-1" x="42.83" y="18.64" width="1.93" height="1.55"/><rect class="cls-1" x="33.2" y="18.64" width="1.93" height="1.55"/><rect class="cls-1" x="31.27" y="18.64" width="1.93" height="1.55"/><rect class="cls-1" x="29.34" y="18.64" width="1.93" height="1.55"/><rect class="cls-1" x="27.42" y="18.64" width="1.93" height="1.55"/><rect class="cls-1" x="25.49" y="18.64" width="1.93" height="1.55"/><rect class="cls-1" x="23.57" y="18.64" width="1.93" height="1.55"/><rect class="cls-1" x="21.64" y="18.64" width="1.93" height="1.55"/><rect class="cls-1" x="19.71" y="18.64" width="1.93" height="1.55"/><rect class="cls-1" x="17.79" y="18.64" width="1.93" height="1.55"/><rect class="cls-1" x="15.86" y="18.64" width="1.93" height="1.55"/><rect class="cls-1" x="13.94" y="18.64" width="1.93" height="1.55"/><rect class="cls-1" x="10.08" y="18.64" width="1.93" height="1.55"/><rect class="cls-1" x="8.16" y="18.64" width="1.93" height="1.55"/><rect class="cls-1" x="6.23" y="18.64" width="1.93" height="1.55"/><rect class="cls-1" x="4.31" y="18.64" width="1.93" height="1.55"/><rect class="cls-1" x="2.38" y="18.64" width="1.93" height="1.55"/><rect class="cls-1" x="0.45" y="18.64" width="1.93" height="1.55"/><rect class="cls-1" x="56.31" y="17.09" width="1.93" height="1.55"/><rect class="cls-1" x="50.53" y="17.09" width="1.93" height="1.55"/><rect class="cls-1" x="48.6" y="17.09" width="1.93" height="1.55"/><rect class="cls-1" x="42.83" y="17.09" width="1.93" height="1.55"/><rect class="cls-1" x="40.9" y="17.09" width="1.93" height="1.55"/><rect class="cls-1" x="33.2" y="17.09" width="1.93" height="1.55"/><rect class="cls-1" x="31.27" y="17.09" width="1.93" height="1.55"/><rect class="cls-1" x="29.34" y="17.09" width="1.93" height="1.55"/><rect class="cls-1" x="27.42" y="17.09" width="1.93" height="1.55"/><rect class="cls-1" x="25.49" y="17.09" width="1.93" height="1.55"/><rect class="cls-1" x="23.57" y="17.09" width="1.93" height="1.55"/><rect class="cls-1" x="21.64" y="17.09" width="1.93" height="1.55"/><rect class="cls-1" x="19.71" y="17.09" width="1.93" height="1.55"/><rect class="cls-1" x="17.79" y="17.09" width="1.93" height="1.55"/><rect class="cls-1" x="15.86" y="17.09" width="1.93" height="1.55"/><rect class="cls-1" x="13.94" y="17.09" width="1.93" height="1.55"/><rect class="cls-1" x="10.08" y="17.09" width="1.93" height="1.55"/><rect class="cls-1" x="8.16" y="17.09" width="1.93" height="1.55"/><rect class="cls-1" x="6.23" y="17.09" width="1.93" height="1.55"/><rect class="cls-1" x="4.31" y="17.09" width="1.93" height="1.55"/><rect class="cls-1" x="2.38" y="17.09" width="1.93" height="1.55"/><rect class="cls-1" x="0.45" y="17.09" width="1.93" height="1.55"/><rect class="cls-1" x="56.31" y="15.53" width="1.93" height="1.55"/><rect class="cls-1" x="54.38" y="15.53" width="1.93" height="1.55"/><rect class="cls-1" x="48.6" y="15.53" width="1.93" height="1.55"/><rect class="cls-1" x="42.83" y="15.53" width="1.93" height="1.55"/><rect class="cls-1" x="40.9" y="15.53" width="1.93" height="1.55"/><rect class="cls-1" x="33.2" y="15.53" width="1.93" height="1.55"/><rect class="cls-1" x="31.27" y="15.53" width="1.93" height="1.55"/><rect class="cls-1" x="29.34" y="15.53" width="1.93" height="1.55"/><rect class="cls-1" x="27.42" y="15.53" width="1.93" height="1.55"/><rect class="cls-1" x="25.49" y="15.53" width="1.93" height="1.55"/><rect class="cls-1" x="23.57" y="15.53" width="1.93" height="1.55"/><rect class="cls-1" x="21.64" y="15.53" width="1.93" height="1.55"/><rect class="cls-1" x="19.71" y="15.53" width="1.93" height="1.55"/><rect class="cls-1" x="17.79" y="15.53" width="1.93" height="1.55"/><rect class="cls-1" x="15.86" y="15.53" width="1.93" height="1.55"/><rect class="cls-1" x="13.94" y="15.53" width="1.93" height="1.55"/><rect class="cls-1" x="10.08" y="15.53" width="1.93" height="1.55"/><rect class="cls-1" x="8.16" y="15.53" width="1.93" height="1.55"/><rect class="cls-1" x="6.23" y="15.53" width="1.93" height="1.55"/><rect class="cls-1" x="4.31" y="15.53" width="1.93" height="1.55"/><rect class="cls-1" x="2.38" y="15.53" width="1.93" height="1.55"/><rect class="cls-1" x="0.45" y="15.53" width="1.93" height="1.55"/><rect class="cls-1" x="56.31" y="13.98" width="1.93" height="1.55"/><rect class="cls-1" x="54.38" y="13.98" width="1.93" height="1.55"/><rect class="cls-1" x="48.6" y="13.98" width="1.93" height="1.55"/><rect class="cls-1" x="40.9" y="13.98" width="1.93" height="1.55"/><rect class="cls-1" x="38.97" y="13.98" width="1.93" height="1.55"/><rect class="cls-1" x="33.2" y="13.98" width="1.93" height="1.55"/><rect class="cls-1" x="31.27" y="13.98" width="1.93" height="1.55"/><rect class="cls-1" x="29.34" y="13.98" width="1.93" height="1.55"/><rect class="cls-1" x="27.42" y="13.98" width="1.93" height="1.55"/><rect class="cls-1" x="25.49" y="13.98" width="1.93" height="1.55"/><rect class="cls-1" x="23.57" y="13.98" width="1.93" height="1.55"/><rect class="cls-1" x="21.64" y="13.98" width="1.93" height="1.55"/><rect class="cls-1" x="19.71" y="13.98" width="1.93" height="1.55"/><rect class="cls-1" x="17.79" y="13.98" width="1.93" height="1.55"/><rect class="cls-1" x="15.86" y="13.98" width="1.93" height="1.55"/><rect class="cls-1" x="13.94" y="13.98" width="1.93" height="1.55"/><rect class="cls-1" x="10.08" y="13.98" width="1.93" height="1.55"/><rect class="cls-1" x="8.16" y="13.98" width="1.93" height="1.55"/><rect class="cls-1" x="6.23" y="13.98" width="1.93" height="1.55"/><rect class="cls-1" x="4.31" y="13.98" width="1.93" height="1.55"/><rect class="cls-1" x="2.38" y="13.98" width="1.93" height="1.55"/><rect class="cls-1" x="54.38" y="12.43" width="1.93" height="1.55"/><rect class="cls-1" x="48.6" y="12.43" width="1.93" height="1.55"/><rect class="cls-1" x="46.68" y="12.43" width="1.93" height="1.55"/><rect class="cls-1" x="38.97" y="12.43" width="1.93" height="1.55"/><rect class="cls-1" x="37.05" y="12.43" width="1.93" height="1.55"/><rect class="cls-1" x="33.2" y="12.43" width="1.93" height="1.55"/><rect class="cls-1" x="31.27" y="12.43" width="1.93" height="1.55"/><rect class="cls-1" x="29.34" y="12.43" width="1.93" height="1.55"/><rect class="cls-1" x="27.42" y="12.43" width="1.93" height="1.55"/><rect class="cls-1" x="25.49" y="12.43" width="1.93" height="1.55"/><rect class="cls-1" x="23.57" y="12.43" width="1.93" height="1.55"/><rect class="cls-1" x="21.64" y="12.43" width="1.93" height="1.55"/><rect class="cls-1" x="19.71" y="12.43" width="1.93" height="1.55"/><rect class="cls-1" x="17.79" y="12.43" width="1.93" height="1.55"/><rect class="cls-1" x="15.86" y="12.43" width="1.93" height="1.55"/><rect class="cls-1" x="13.94" y="12.43" width="1.93" height="1.55"/><rect class="cls-1" x="10.08" y="12.43" width="1.93" height="1.55"/><rect class="cls-1" x="8.16" y="12.43" width="1.93" height="1.55"/><rect class="cls-1" x="6.23" y="12.43" width="1.93" height="1.55"/><rect class="cls-1" x="4.31" y="12.43" width="1.93" height="1.55"/><rect class="cls-1" x="54.38" y="10.87" width="1.93" height="1.55"/><rect class="cls-1" x="46.68" y="10.87" width="1.93" height="1.55"/><rect class="cls-1" x="37.05" y="10.87" width="1.93" height="1.55"/><rect class="cls-1" x="33.2" y="10.87" width="1.93" height="1.55"/><rect class="cls-1" x="31.27" y="10.87" width="1.93" height="1.55"/><rect class="cls-1" x="29.34" y="10.87" width="1.93" height="1.55"/><rect class="cls-1" x="27.42" y="10.87" width="1.93" height="1.55"/><rect class="cls-1" x="25.49" y="10.87" width="1.93" height="1.55"/><rect class="cls-1" x="23.57" y="10.87" width="1.93" height="1.55"/><rect class="cls-1" x="21.64" y="10.87" width="1.93" height="1.55"/><rect class="cls-1" x="19.71" y="10.87" width="1.93" height="1.55"/><rect class="cls-1" x="52.46" y="9.32" width="1.93" height="1.55"/><rect class="cls-1" x="44.75" y="9.32" width="1.93" height="1.55"/><rect class="cls-1" x="33.2" y="9.32" width="1.93" height="1.55"/><rect class="cls-1" x="31.27" y="9.32" width="1.93" height="1.55"/><rect class="cls-1" x="29.34" y="9.32" width="1.93" height="1.55"/><rect class="cls-1" x="27.42" y="9.32" width="1.93" height="1.55"/><rect class="cls-1" x="25.49" y="9.32" width="1.93" height="1.55"/><rect class="cls-1" x="23.57" y="9.32" width="1.93" height="1.55"/><rect class="cls-1" x="21.64" y="9.32" width="1.93" height="1.55"/><rect class="cls-1" x="52.46" y="7.77" width="1.93" height="1.55"/><rect class="cls-1" x="44.75" y="7.77" width="1.93" height="1.55"/><rect class="cls-1" x="33.2" y="7.77" width="1.93" height="1.55"/><rect class="cls-1" x="31.27" y="7.77" width="1.93" height="1.55"/><rect class="cls-1" x="29.34" y="7.77" width="1.93" height="1.55"/><rect class="cls-1" x="27.42" y="7.77" width="1.93" height="1.55"/><rect class="cls-1" x="25.49" y="7.77" width="1.93" height="1.55"/><rect class="cls-1" x="23.57" y="7.77" width="1.93" height="1.55"/><rect class="cls-1" x="52.46" y="6.21" width="1.93" height="1.55"/><rect class="cls-1" x="50.53" y="6.21" width="1.93" height="1.55"/><rect class="cls-1" x="33.2" y="6.21" width="1.93" height="1.55"/><rect class="cls-1" x="31.27" y="6.21" width="1.93" height="1.55"/><rect class="cls-1" x="29.34" y="6.21" width="1.93" height="1.55"/><rect class="cls-1" x="27.42" y="6.21" width="1.93" height="1.55"/><rect class="cls-1" x="25.49" y="6.21" width="1.93" height="1.55"/><rect class="cls-1" x="50.53" y="4.66" width="1.93" height="1.55"/><rect class="cls-1" x="33.2" y="4.66" width="1.93" height="1.55"/><rect class="cls-1" x="31.27" y="4.66" width="1.93" height="1.55"/><rect class="cls-1" x="29.34" y="4.66" width="1.93" height="1.55"/><rect class="cls-1" x="27.42" y="4.66" width="1.93" height="1.55"/><rect class="cls-1" x="33.2" y="3.11" width="1.93" height="1.55"/><rect class="cls-1" x="31.27" y="3.11" width="1.93" height="1.55"/><rect class="cls-1" x="29.34" y="3.11" width="1.93" height="1.55"/><rect class="cls-1" x="33.2" y="1.55" width="1.93" height="1.55"/><rect class="cls-1" x="31.27" y="1.55" width="1.93" height="1.55"/><rect class="cls-1" x="33.2" width="1.93" height="1.55"/><rect class="cls-1" x="21.64" y="35.72" width="1.93" height="1.55"/><path class="cls-2" d="M9.9,79.77V78.59h.92v1.18Zm1.06,0V78.59h.92v1.18ZM9.9,78.45V77.27h.92v1.18Zm1.06,0V77.27h.92v1.18ZM9.9,77.13V76h.92v1.17Zm1.06,0V76h.92v1.17Zm1,0V76h.92v1.17Zm1.06,0V76H14v1.17ZM9.9,75.81V74.64h.92v1.17Zm1.06,0V74.64h.92v1.17Zm2.11,0V74.64H14v1.17Zm1,0V74.64H15v1.17ZM9.9,74.5V73.32h.92V74.5Zm1.06,0V73.32h.92V74.5Zm2.11,0V73.32H14V74.5Zm1,0V73.32H15V74.5ZM9.9,73.18V72h.92v1.18Zm1.06,0V72h.92v1.18Zm2.11,0V72H14v1.18Zm1,0V72H15v1.18ZM9.9,71.86V70.69h.92v1.17Zm1.06,0V70.69h.92v1.17Zm1,0V70.69h.92v1.17Zm1.06,0V70.69H14v1.17Z" transform="translate(-9.9 -8.42)"/><path class="cls-2" d="M16.34,79.77V78.59h.92v1.18Zm1.05,0V78.59h.92v1.18Zm-1.05-1.32V77.27h.92v1.18Zm1.05,0V77.27h.92v1.18Zm-1.05-1.32V76h.92v1.17Zm1.05,0V76h.92v1.17Zm-1.05-1.32V74.64h.92v1.17Zm1.05,0V74.64h.92v1.17Zm1.05,0V74.64h.92v1.17Zm1.06,0V74.64h.92v1.17ZM16.34,74.5V73.32h.92V74.5Zm1.05,0V73.32h.92V74.5Zm2.11,0V73.32h.92V74.5Z" transform="translate(-9.9 -8.42)"/><path class="cls-2" d="M22.73,79.77V78.59h.92v1.18Zm1.05,0V78.59h.92v1.18Zm1.06,0V78.59h.92v1.18Zm1.05,0V78.59h.92v1.18Zm-4.21-1.32V77.27h.92v1.18Zm1.05,0V77.27h.92v1.18Zm-1.05-1.32V76h.92v1.17Zm1.05,0V76h.92v1.17Zm1.05,0V76h.92v1.17Zm1.06,0V76h.92v1.17Zm1.05,0V76h.92v1.17Zm-4.21-1.32V74.64h.92v1.17Zm1.05,0V74.64h.92v1.17Zm2.11,0V74.64h.92v1.17Zm1.05,0V74.64h.92v1.17ZM22.73,74.5V73.32h.92V74.5Zm1.05,0V73.32h.92V74.5Zm1.06,0V73.32h.92V74.5Z" transform="translate(-9.9 -8.42)"/><path class="cls-2" d="M30.15,79.77V78.59h.92v1.18Zm-1-1.32V77.27H30v1.18Zm1,0V77.27h.92v1.18Zm1.05,0V77.27h.92v1.18Zm-2.1-1.32V76H30v1.17Zm1,0V76h.92v1.17Zm1.05,0V76h.92v1.17ZM28,75.81V74.64H29v1.17Zm1.06,0V74.64H30v1.17Zm2.1,0V74.64h.92v1.17Zm1.06,0V74.64h.92v1.17ZM28,74.5V73.32H29V74.5Zm1.06,0V73.32H30V74.5Zm2.1,0V73.32h.92V74.5Zm1.06,0V73.32h.92V74.5Z" transform="translate(-9.9 -8.42)"/><path class="cls-2" d="M34.62,79.77V78.59h.92v1.18Zm1.05,0V78.59h.92v1.18Zm-1.05-1.32V77.27h.92v1.18Zm1.05,0V77.27h.92v1.18Zm-1.05-1.32V76h.92v1.17Zm1.05,0V76h.92v1.17Zm-1.05-1.32V74.64h.92v1.17Zm1.05,0V74.64h.92v1.17ZM34.62,74.5V73.32h.92V74.5Zm1.05,0V73.32h.92V74.5Zm-1.05-2.64V70.69h.92v1.17Zm1.05,0V70.69h.92v1.17Z" transform="translate(-9.9 -8.42)"/><path class="cls-2" d="M39.15,79.77V78.59h.92v1.18Zm1.05,0V78.59h.92v1.18Zm1.06,0V78.59h.92v1.18Zm1.05,0V78.59h.92v1.18ZM38.1,78.45V77.27H39v1.18Zm1,0V77.27h.92v1.18Zm-1-1.32V76H39v1.17Zm1,0V76h.92v1.17Zm1.05,0V76h.92v1.17Zm1.06,0V76h.92v1.17Zm1.05,0V76h.92v1.17ZM38.1,75.81V74.64H39v1.17Zm1,0V74.64h.92v1.17Zm2.11,0V74.64h.92v1.17Zm1.05,0V74.64h.92v1.17ZM39.15,74.5V73.32h.92V74.5Zm1.05,0V73.32h.92V74.5Zm1.06,0V73.32h.92V74.5Z" transform="translate(-9.9 -8.42)"/><path class="cls-2" d="M45.61,79.77V78.59h.92v1.18Zm1.06,0V78.59h.92v1.18Zm2.11,0V78.59h.92v1.18Zm1,0V78.59h.92v1.18Zm-4.22-1.32V77.27h.92v1.18Zm1.06,0V77.27h.92v1.18Zm1,0V77.27h.92v1.18Zm1.06,0V77.27h.92v1.18Zm1,0V77.27h.92v1.18Zm-5.27-1.32V76h.92v1.17Zm1,0V76h.92v1.17Zm2.11,0V76h.92v1.17Zm2.11,0V76h.92v1.17Zm-5.27-1.32V74.64h.92v1.17Zm1,0V74.64h.92v1.17Zm2.11,0V74.64h.92v1.17Zm2.11,0V74.64h.92v1.17ZM44.56,74.5V73.32h.92V74.5Zm1,0V73.32h.92V74.5Zm4.22,0V73.32h.92V74.5Zm1.05,2.63V76h.92v1.17Zm0-1.32V74.64h.92v1.17Zm0-1.31V73.32h.92V74.5Z" transform="translate(-9.9 -8.42)"/><path class="cls-2" d="M55.71,79.77V78.59h.92v1.18Zm1,0V78.59h.92v1.18Zm1.05,0V78.59h.92v1.18Zm1.06,0V78.59h.92v1.18Zm-4.22-1.32V77.27h.92v1.18Zm1.06,0V77.27h.92v1.18Zm3.16,0V77.27h.92v1.18Zm1.05,0V77.27h.92v1.18Zm-5.27-1.32V76h.92v1.17Zm1.06,0V76h.92v1.17Zm3.16,0V76h.92v1.17Zm1.05,0V76h.92v1.17Zm-5.27-1.32V74.64h.92v1.17Zm1.06,0V74.64h.92v1.17Zm3.16,0V74.64h.92v1.17Zm1.05,0V74.64h.92v1.17ZM54.65,74.5V73.32h.92V74.5Zm1.06,0V73.32h.92V74.5Zm3.16,0V73.32h.92V74.5Zm1.05,0V73.32h.92V74.5Zm-5.27-1.32V72h.92v1.18Zm1.06,0V72h.92v1.18Zm3.16,0V72h.92v1.18Zm1.05,0V72h.92v1.18Zm-4.21-1.32V70.69h.92v1.17Zm1,0V70.69h.92v1.17Zm1.05,0V70.69h.92v1.17Zm1.06,0V70.69h.92v1.17Z" transform="translate(-9.9 -8.42)"/><path class="cls-2" d="M62.49,79.77V78.59h.92v1.18Zm1.06,0V78.59h.92v1.18Zm2.1,0V78.59h.92v1.18Zm1.06,0V78.59h.92v1.18Zm-4.22-1.32V77.27h.92v1.18Zm1.06,0V77.27h.92v1.18Zm2.1,0V77.27h.92v1.18Zm1.06,0V77.27h.92v1.18Zm-4.22-1.32V76h.92v1.17Zm1.06,0V76h.92v1.17Zm2.1,0V76h.92v1.17Zm1.06,0V76h.92v1.17Zm-4.22-1.32V74.64h.92v1.17Zm1.06,0V74.64h.92v1.17Zm2.1,0V74.64h.92v1.17Zm1.06,0V74.64h.92v1.17ZM62.49,74.5V73.32h.92V74.5Zm1.06,0V73.32h.92V74.5Zm1,0V73.32h.92V74.5Zm1.05,0V73.32h.92V74.5Z" transform="translate(-9.9 -8.42)"/></svg>