<svg id="Layer_1" data-name="Layer 1" xmlns="http://www.w3.org/2000/svg" viewBox="0 0 56.07 58"><defs><style>.cls-1{fill:#0e7900;}</style></defs><rect class="cls-1" x="30.93" y="56.07" width="1.93" height="1.93"/><rect class="cls-1" x="29" y="56.07" width="1.93" height="1.93"/><rect class="cls-1" x="27.07" y="56.07" width="1.93" height="1.93"/><rect class="cls-1" x="25.13" y="56.07" width="1.93" height="1.93"/><rect class="cls-1" x="23.2" y="56.07" width="1.93" height="1.93"/><rect class="cls-1" x="38.67" y="54.13" width="1.93" height="1.93"/><rect class="cls-1" x="36.73" y="54.13" width="1.93" height="1.93"/><rect class="cls-1" x="34.8" y="54.13" width="1.93" height="1.93"/><rect class="cls-1" x="32.87" y="54.13" width="1.93" height="1.93"/><rect class="cls-1" x="30.93" y="54.13" width="1.93" height="1.93"/><rect class="cls-1" x="29" y="54.13" width="1.93" height="1.93"/><rect class="cls-1" x="27.07" y="54.13" width="1.93" height="1.93"/><rect class="cls-1" x="25.13" y="54.13" width="1.93" height="1.93"/><rect class="cls-1" x="23.2" y="54.13" width="1.93" height="1.93"/><rect class="cls-1" x="21.27" y="54.13" width="1.93" height="1.93"/><rect class="cls-1" x="19.33" y="54.13" width="1.93" height="1.93"/><rect class="cls-1" x="17.4" y="54.13" width="1.93" height="1.93"/><rect class="cls-1" x="42.53" y="52.2" width="1.93" height="1.93"/><rect class="cls-1" x="40.6" y="52.2" width="1.93" height="1.93"/><rect class="cls-1" x="38.67" y="52.2" width="1.93" height="1.93"/><rect class="cls-1" x="36.73" y="52.2" width="1.93" height="1.93"/><rect class="cls-1" x="34.8" y="52.2" width="1.93" height="1.93"/><rect class="cls-1" x="32.87" y="52.2" width="1.93" height="1.93"/><rect class="cls-1" x="30.93" y="52.2" width="1.93" height="1.93"/><rect class="cls-1" x="29" y="52.2" width="1.93" height="1.93"/><rect class="cls-1" x="27.07" y="52.2" width="1.93" height="1.93"/><rect class="cls-1" x="25.13" y="52.2" width="1.93" height="1.93"/><rect class="cls-1" x="23.2" y="52.2" width="1.93" height="1.93"/><rect class="cls-1" x="21.27" y="52.2" width="1.93" height="1.93"/><rect class="cls-1" x="19.33" y="52.2" width="1.93" height="1.93"/><rect class="cls-1" x="17.4" y="52.2" width="1.93" height="1.93"/><rect class="cls-1" x="15.47" y="52.2" width="1.93" height="1.93"/><rect class="cls-1" x="44.47" y="50.27" width="1.93" height="1.93"/><rect class="cls-1" x="42.53" y="50.27" width="1.93" height="1.93"/><rect class="cls-1" x="40.6" y="50.27" width="1.93" height="1.93"/><rect class="cls-1" x="38.67" y="50.27" width="1.93" height="1.93"/><rect class="cls-1" x="36.73" y="50.27" width="1.93" height="1.93"/><rect class="cls-1" x="34.8" y="50.27" width="1.93" height="1.93"/><rect class="cls-1" x="32.87" y="50.27" width="1.93" height="1.93"/><rect class="cls-1" x="30.93" y="50.27" width="1.93" height="1.93"/><rect class="cls-1" x="29" y="50.27" width="1.93" height="1.93"/><rect class="cls-1" x="27.07" y="50.27" width="1.93" height="1.93"/><rect class="cls-1" x="25.13" y="50.27" width="1.93" height="1.93"/><rect class="cls-1" x="23.2" y="50.27" width="1.93" height="1.93"/><rect class="cls-1" x="21.27" y="50.27" width="1.93" height="1.93"/><rect class="cls-1" x="19.33" y="50.27" width="1.93" height="1.93"/><rect class="cls-1" x="17.4" y="50.27" width="1.93" height="1.93"/><rect class="cls-1" x="15.47" y="50.27" width="1.93" height="1.93"/><rect class="cls-1" x="13.53" y="50.27" width="1.93" height="1.93"/><rect class="cls-1" x="11.6" y="50.27" width="1.93" height="1.93"/><rect class="cls-1" x="46.4" y="48.33" width="1.93" height="1.93"/><rect class="cls-1" x="44.47" y="48.33" width="1.93" height="1.93"/><rect class="cls-1" x="42.53" y="48.33" width="1.93" height="1.93"/><rect class="cls-1" x="40.6" y="48.33" width="1.93" height="1.93"/><rect class="cls-1" x="38.67" y="48.33" width="1.93" height="1.93"/><rect class="cls-1" x="36.73" y="48.33" width="1.93" height="1.93"/><rect class="cls-1" x="34.8" y="48.33" width="1.93" height="1.93"/><rect class="cls-1" x="32.87" y="48.33" width="1.93" height="1.93"/><rect class="cls-1" x="30.93" y="48.33" width="1.93" height="1.93"/><rect class="cls-1" x="29" y="48.33" width="1.93" height="1.93"/><rect class="cls-1" x="27.07" y="48.33" width="1.93" height="1.93"/><rect class="cls-1" x="25.13" y="48.33" width="1.93" height="1.93"/><rect class="cls-1" x="23.2" y="48.33" width="1.93" height="1.93"/><rect class="cls-1" x="21.27" y="48.33" width="1.93" height="1.93"/><rect class="cls-1" x="19.33" y="48.33" width="1.93" height="1.93"/><rect class="cls-1" x="17.4" y="48.33" width="1.93" height="1.93"/><rect class="cls-1" x="15.47" y="48.33" width="1.93" height="1.93"/><rect class="cls-1" x="13.53" y="48.33" width="1.93" height="1.93"/><rect class="cls-1" x="11.6" y="48.33" width="1.93" height="1.93"/><rect class="cls-1" x="9.67" y="48.33" width="1.93" height="1.93"/><rect class="cls-1" x="48.33" y="46.4" width="1.93" height="1.93"/><rect class="cls-1" x="46.4" y="46.4" width="1.93" height="1.93"/><rect class="cls-1" x="44.47" y="46.4" width="1.93" height="1.93"/><rect class="cls-1" x="42.53" y="46.4" width="1.93" height="1.93"/><rect class="cls-1" x="40.6" y="46.4" width="1.93" height="1.93"/><rect class="cls-1" x="38.67" y="46.4" width="1.93" height="1.93"/><rect class="cls-1" x="36.73" y="46.4" width="1.93" height="1.93"/><rect class="cls-1" x="34.8" y="46.4" width="1.93" height="1.93"/><rect class="cls-1" x="32.87" y="46.4" width="1.93" height="1.93"/><rect class="cls-1" x="30.93" y="46.4" width="1.93" height="1.93"/><rect class="cls-1" x="29" y="46.4" width="1.93" height="1.93"/><rect class="cls-1" x="27.07" y="46.4" width="1.93" height="1.93"/><rect class="cls-1" x="25.13" y="46.4" width="1.93" height="1.93"/><rect class="cls-1" x="23.2" y="46.4" width="1.93" height="1.93"/><rect class="cls-1" x="21.27" y="46.4" width="1.93" height="1.93"/><rect class="cls-1" x="19.33" y="46.4" width="1.93" height="1.93"/><rect class="cls-1" x="17.4" y="46.4" width="1.93" height="1.93"/><rect class="cls-1" x="15.47" y="46.4" width="1.93" height="1.93"/><rect class="cls-1" x="13.53" y="46.4" width="1.93" height="1.93"/><rect class="cls-1" x="11.6" y="46.4" width="1.93" height="1.93"/><rect class="cls-1" x="9.67" y="46.4" width="1.93" height="1.93"/><rect class="cls-1" x="7.73" y="46.4" width="1.93" height="1.93"/><rect class="cls-1" x="50.27" y="44.47" width="1.93" height="1.93"/><rect class="cls-1" x="48.33" y="44.47" width="1.93" height="1.93"/><rect class="cls-1" x="46.4" y="44.47" width="1.93" height="1.93"/><rect class="cls-1" x="44.47" y="44.47" width="1.93" height="1.93"/><rect class="cls-1" x="42.53" y="44.47" width="1.93" height="1.93"/><rect class="cls-1" x="36.73" y="44.47" width="1.93" height="1.93"/><rect class="cls-1" x="34.8" y="44.47" width="1.93" height="1.93"/><rect class="cls-1" x="32.87" y="44.47" width="1.93" height="1.93"/><rect class="cls-1" x="30.93" y="44.47" width="1.93" height="1.93"/><rect class="cls-1" x="29" y="44.47" width="1.93" height="1.93"/><rect class="cls-1" x="27.07" y="44.47" width="1.93" height="1.93"/><rect class="cls-1" x="25.13" y="44.47" width="1.93" height="1.93"/><rect class="cls-1" x="23.2" y="44.47" width="1.93" height="1.93"/><rect class="cls-1" x="21.27" y="44.47" width="1.93" height="1.93"/><rect class="cls-1" x="19.33" y="44.47" width="1.93" height="1.93"/><rect class="cls-1" x="17.4" y="44.47" width="1.93" height="1.93"/><rect class="cls-1" x="15.47" y="44.47" width="1.93" height="1.93"/><rect class="cls-1" x="13.53" y="44.47" width="1.93" height="1.93"/><rect class="cls-1" x="11.6" y="44.47" width="1.93" height="1.93"/><rect class="cls-1" x="9.67" y="44.47" width="1.93" height="1.93"/><rect class="cls-1" x="7.73" y="44.47" width="1.93" height="1.93"/><rect class="cls-1" x="5.8" y="44.47" width="1.93" height="1.93"/><rect class="cls-1" x="3.87" y="44.47" width="1.93" height="1.93"/><rect class="cls-1" x="50.27" y="42.53" width="1.93" height="1.93"/><rect class="cls-1" x="48.33" y="42.53" width="1.93" height="1.93"/><rect class="cls-1" x="46.4" y="42.53" width="1.93" height="1.93"/><rect class="cls-1" x="44.47" y="42.53" width="1.93" height="1.93"/><rect class="cls-1" x="42.53" y="42.53" width="1.93" height="1.93"/><rect class="cls-1" x="27.07" y="42.53" width="1.93" height="1.93"/><rect class="cls-1" x="25.13" y="42.53" width="1.93" height="1.93"/><rect class="cls-1" x="23.2" y="42.53" width="1.93" height="1.93"/><rect class="cls-1" x="21.27" y="42.53" width="1.93" height="1.93"/><rect class="cls-1" x="19.33" y="42.53" width="1.93" height="1.93"/><rect class="cls-1" x="17.4" y="42.53" width="1.93" height="1.93"/><rect class="cls-1" x="11.6" y="42.53" width="1.93" height="1.93"/><rect class="cls-1" x="9.67" y="42.53" width="1.93" height="1.93"/><rect class="cls-1" x="7.73" y="42.53" width="1.93" height="1.93"/><rect class="cls-1" x="5.8" y="42.53" width="1.93" height="1.93"/><rect class="cls-1" x="3.87" y="42.53" width="1.93" height="1.93"/><rect class="cls-1" x="52.2" y="40.6" width="1.93" height="1.93"/><rect class="cls-1" x="50.27" y="40.6" width="1.93" height="1.93"/><rect class="cls-1" x="48.33" y="40.6" width="1.93" height="1.93"/><rect class="cls-1" x="46.4" y="40.6" width="1.93" height="1.93"/><rect class="cls-1" x="44.47" y="40.6" width="1.93" height="1.93"/><rect class="cls-1" x="42.53" y="40.6" width="1.93" height="1.93"/><rect class="cls-1" x="40.6" y="40.6" width="1.93" height="1.93"/><rect class="cls-1" x="11.6" y="40.6" width="1.93" height="1.93"/><rect class="cls-1" x="9.67" y="40.6" width="1.93" height="1.93"/><rect class="cls-1" x="7.73" y="40.6" width="1.93" height="1.93"/><rect class="cls-1" x="5.8" y="40.6" width="1.93" height="1.93"/><rect class="cls-1" x="3.87" y="40.6" width="1.93" height="1.93"/><rect class="cls-1" x="52.2" y="38.67" width="1.93" height="1.93"/><rect class="cls-1" x="50.27" y="38.67" width="1.93" height="1.93"/><rect class="cls-1" x="48.33" y="38.67" width="1.93" height="1.93"/><rect class="cls-1" x="46.4" y="38.67" width="1.93" height="1.93"/><rect class="cls-1" x="44.47" y="38.67" width="1.93" height="1.93"/><rect class="cls-1" x="42.53" y="38.67" width="1.93" height="1.93"/><rect class="cls-1" x="40.6" y="38.67" width="1.93" height="1.93"/><rect class="cls-1" x="38.67" y="38.67" width="1.93" height="1.93"/><rect class="cls-1" x="36.73" y="38.67" width="1.93" height="1.93"/><rect class="cls-1" x="11.6" y="38.67" width="1.93" height="1.93"/><rect class="cls-1" x="9.67" y="38.67" width="1.93" height="1.93"/><rect class="cls-1" x="7.73" y="38.67" width="1.93" height="1.93"/><rect class="cls-1" x="5.8" y="38.67" width="1.93" height="1.93"/><rect class="cls-1" x="3.87" y="38.67" width="1.93" height="1.93"/><rect class="cls-1" x="1.93" y="38.67" width="1.93" height="1.93"/><rect class="cls-1" x="52.2" y="36.73" width="1.93" height="1.93"/><rect class="cls-1" x="50.27" y="36.73" width="1.93" height="1.93"/><rect class="cls-1" x="48.33" y="36.73" width="1.93" height="1.93"/><rect class="cls-1" x="46.4" y="36.73" width="1.93" height="1.93"/><rect class="cls-1" x="44.47" y="36.73" width="1.93" height="1.93"/><rect class="cls-1" x="42.53" y="36.73" width="1.93" height="1.93"/><rect class="cls-1" x="40.6" y="36.73" width="1.93" height="1.93"/><rect class="cls-1" x="38.67" y="36.73" width="1.93" height="1.93"/><rect class="cls-1" x="36.73" y="36.73" width="1.93" height="1.93"/><rect class="cls-1" x="34.8" y="36.73" width="1.93" height="1.93"/><rect class="cls-1" x="32.87" y="36.73" width="1.93" height="1.93"/><rect class="cls-1" x="30.93" y="36.73" width="1.93" height="1.93"/><rect class="cls-1" x="29" y="36.73" width="1.93" height="1.93"/><rect class="cls-1" x="27.07" y="36.73" width="1.93" height="1.93"/><rect class="cls-1" x="25.13" y="36.73" width="1.93" height="1.93"/><rect class="cls-1" x="23.2" y="36.73" width="1.93" height="1.93"/><rect class="cls-1" x="21.27" y="36.73" width="1.93" height="1.93"/><rect class="cls-1" x="19.33" y="36.73" width="1.93" height="1.93"/><rect class="cls-1" x="17.4" y="36.73" width="1.93" height="1.93"/><rect class="cls-1" x="15.47" y="36.73" width="1.93" height="1.93"/><rect class="cls-1" x="13.53" y="36.73" width="1.93" height="1.93"/><rect class="cls-1" x="11.6" y="36.73" width="1.93" height="1.93"/><rect class="cls-1" x="9.67" y="36.73" width="1.93" height="1.93"/><rect class="cls-1" x="7.73" y="36.73" width="1.93" height="1.93"/><rect class="cls-1" x="5.8" y="36.73" width="1.93" height="1.93"/><rect class="cls-1" x="3.87" y="36.73" width="1.93" height="1.93"/><rect class="cls-1" x="1.93" y="36.73" width="1.93" height="1.93"/><rect class="cls-1" x="52.2" y="34.8" width="1.93" height="1.93"/><rect class="cls-1" x="50.27" y="34.8" width="1.93" height="1.93"/><rect class="cls-1" x="48.33" y="34.8" width="1.93" height="1.93"/><rect class="cls-1" x="46.4" y="34.8" width="1.93" height="1.93"/><rect class="cls-1" x="44.47" y="34.8" width="1.93" height="1.93"/><rect class="cls-1" x="38.67" y="34.8" width="1.93" height="1.93"/><rect class="cls-1" x="36.73" y="34.8" width="1.93" height="1.93"/><rect class="cls-1" x="34.8" y="34.8" width="1.93" height="1.93"/><rect class="cls-1" x="32.87" y="34.8" width="1.93" height="1.93"/><rect class="cls-1" x="30.93" y="34.8" width="1.93" height="1.93"/><rect class="cls-1" x="29" y="34.8" width="1.93" height="1.93"/><rect class="cls-1" x="27.07" y="34.8" width="1.93" height="1.93"/><rect class="cls-1" x="25.13" y="34.8" width="1.93" height="1.93"/><rect class="cls-1" x="23.2" y="34.8" width="1.93" height="1.93"/><rect class="cls-1" x="21.27" y="34.8" width="1.93" height="1.93"/><rect class="cls-1" x="19.33" y="34.8" width="1.93" height="1.93"/><rect class="cls-1" x="17.4" y="34.8" width="1.93" height="1.93"/><rect class="cls-1" x="15.47" y="34.8" width="1.93" height="1.93"/><rect class="cls-1" x="13.53" y="34.8" width="1.93" height="1.93"/><rect class="cls-1" x="11.6" y="34.8" width="1.93" height="1.93"/><rect class="cls-1" x="9.67" y="34.8" width="1.93" height="1.93"/><rect class="cls-1" x="7.73" y="34.8" width="1.93" height="1.93"/><rect class="cls-1" x="5.8" y="34.8" width="1.93" height="1.93"/><rect class="cls-1" x="3.87" y="34.8" width="1.93" height="1.93"/><rect class="cls-1" x="1.93" y="34.8" width="1.93" height="1.93"/><rect class="cls-1" x="54.13" y="32.87" width="1.93" height="1.93"/><rect class="cls-1" x="52.2" y="32.87" width="1.93" height="1.93"/><rect class="cls-1" x="50.27" y="32.87" width="1.93" height="1.93"/><rect class="cls-1" x="48.33" y="32.87" width="1.93" height="1.93"/><rect class="cls-1" x="46.4" y="32.87" width="1.93" height="1.93"/><rect class="cls-1" x="44.47" y="32.87" width="1.93" height="1.93"/><rect class="cls-1" x="30.93" y="32.87" width="1.93" height="1.93"/><rect class="cls-1" x="29" y="32.87" width="1.93" height="1.93"/><rect class="cls-1" x="27.07" y="32.87" width="1.93" height="1.93"/><rect class="cls-1" x="25.13" y="32.87" width="1.93" height="1.93"/><rect class="cls-1" x="23.2" y="32.87" width="1.93" height="1.93"/><rect class="cls-1" x="21.27" y="32.87" width="1.93" height="1.93"/><rect class="cls-1" x="19.33" y="32.87" width="1.93" height="1.93"/><rect class="cls-1" x="17.4" y="32.87" width="1.93" height="1.93"/><rect class="cls-1" x="15.47" y="32.87" width="1.93" height="1.93"/><rect class="cls-1" x="9.67" y="32.87" width="1.93" height="1.93"/><rect class="cls-1" x="7.73" y="32.87" width="1.93" height="1.93"/><rect class="cls-1" x="5.8" y="32.87" width="1.93" height="1.93"/><rect class="cls-1" x="3.87" y="32.87" width="1.93" height="1.93"/><rect class="cls-1" x="1.93" y="32.87" width="1.93" height="1.93"/><rect class="cls-1" x="54.13" y="30.93" width="1.93" height="1.93"/><rect class="cls-1" x="52.2" y="30.93" width="1.93" height="1.93"/><rect class="cls-1" x="50.27" y="30.93" width="1.93" height="1.93"/><rect class="cls-1" x="48.33" y="30.93" width="1.93" height="1.93"/><rect class="cls-1" x="46.4" y="30.93" width="1.93" height="1.93"/><rect class="cls-1" x="44.47" y="30.93" width="1.93" height="1.93"/><rect class="cls-1" x="9.67" y="30.93" width="1.93" height="1.93"/><rect class="cls-1" x="7.73" y="30.93" width="1.93" height="1.93"/><rect class="cls-1" x="5.8" y="30.93" width="1.93" height="1.93"/><rect class="cls-1" x="3.87" y="30.93" width="1.93" height="1.93"/><rect class="cls-1" x="1.93" y="30.93" width="1.93" height="1.93"/><rect class="cls-1" y="30.93" width="1.93" height="1.93"/><rect class="cls-1" x="54.13" y="29" width="1.93" height="1.93"/><rect class="cls-1" x="52.2" y="29" width="1.93" height="1.93"/><rect class="cls-1" x="50.27" y="29" width="1.93" height="1.93"/><rect class="cls-1" x="48.33" y="29" width="1.93" height="1.93"/><rect class="cls-1" x="46.4" y="29" width="1.93" height="1.93"/><rect class="cls-1" x="44.47" y="29" width="1.93" height="1.93"/><rect class="cls-1" x="42.53" y="29" width="1.93" height="1.93"/><rect class="cls-1" x="40.6" y="29" width="1.93" height="1.93"/><rect class="cls-1" x="9.67" y="29" width="1.93" height="1.93"/><rect class="cls-1" x="7.73" y="29" width="1.93" height="1.93"/><rect class="cls-1" x="5.8" y="29" width="1.93" height="1.93"/><rect class="cls-1" x="3.87" y="29" width="1.93" height="1.93"/><rect class="cls-1" x="1.93" y="29" width="1.93" height="1.93"/><rect class="cls-1" y="29" width="1.93" height="1.93"/><rect class="cls-1" x="54.13" y="27.07" width="1.93" height="1.93"/><rect class="cls-1" x="52.2" y="27.07" width="1.93" height="1.93"/><rect class="cls-1" x="50.27" y="27.07" width="1.93" height="1.93"/><rect class="cls-1" x="48.33" y="27.07" width="1.93" height="1.93"/><rect class="cls-1" x="46.4" y="27.07" width="1.93" height="1.93"/><rect class="cls-1" x="44.47" y="27.07" width="1.93" height="1.93"/><rect class="cls-1" x="42.53" y="27.07" width="1.93" height="1.93"/><rect class="cls-1" x="40.6" y="27.07" width="1.93" height="1.93"/><rect class="cls-1" x="38.67" y="27.07" width="1.93" height="1.93"/><rect class="cls-1" x="36.73" y="27.07" width="1.93" height="1.93"/><rect class="cls-1" x="34.8" y="27.07" width="1.93" height="1.93"/><rect class="cls-1" x="32.87" y="27.07" width="1.93" height="1.93"/><rect class="cls-1" x="15.47" y="27.07" width="1.93" height="1.93"/><rect class="cls-1" x="13.53" y="27.07" width="1.93" height="1.93"/><rect class="cls-1" x="11.6" y="27.07" width="1.93" height="1.93"/><rect class="cls-1" x="9.67" y="27.07" width="1.93" height="1.93"/><rect class="cls-1" x="7.73" y="27.07" width="1.93" height="1.93"/><rect class="cls-1" x="5.8" y="27.07" width="1.93" height="1.93"/><rect class="cls-1" x="3.87" y="27.07" width="1.93" height="1.93"/><rect class="cls-1" x="1.93" y="27.07" width="1.93" height="1.93"/><rect class="cls-1" y="27.07" width="1.93" height="1.93"/><rect class="cls-1" x="54.13" y="25.13" width="1.93" height="1.93"/><rect class="cls-1" x="52.2" y="25.13" width="1.93" height="1.93"/><rect class="cls-1" x="50.27" y="25.13" width="1.93" height="1.93"/><rect class="cls-1" x="48.33" y="25.13" width="1.93" height="1.93"/><rect class="cls-1" x="42.53" y="25.13" width="1.93" height="1.93"/><rect class="cls-1" x="40.6" y="25.13" width="1.93" height="1.93"/><rect class="cls-1" x="38.67" y="25.13" width="1.93" height="1.93"/><rect class="cls-1" x="36.73" y="25.13" width="1.93" height="1.93"/><rect class="cls-1" x="34.8" y="25.13" width="1.93" height="1.93"/><rect class="cls-1" x="32.87" y="25.13" width="1.93" height="1.93"/><rect class="cls-1" x="30.93" y="25.13" width="1.93" height="1.93"/><rect class="cls-1" x="29" y="25.13" width="1.93" height="1.93"/><rect class="cls-1" x="27.07" y="25.13" width="1.93" height="1.93"/><rect class="cls-1" x="25.13" y="25.13" width="1.93" height="1.93"/><rect class="cls-1" x="23.2" y="25.13" width="1.93" height="1.93"/><rect class="cls-1" x="21.27" y="25.13" width="1.93" height="1.93"/><rect class="cls-1" x="19.33" y="25.13" width="1.93" height="1.93"/><rect class="cls-1" x="17.4" y="25.13" width="1.93" height="1.93"/><rect class="cls-1" x="15.47" y="25.13" width="1.93" height="1.93"/><rect class="cls-1" x="13.53" y="25.13" width="1.93" height="1.93"/><rect class="cls-1" x="11.6" y="25.13" width="1.93" height="1.93"/><rect class="cls-1" x="9.67" y="25.13" width="1.93" height="1.93"/><rect class="cls-1" x="7.73" y="25.13" width="1.93" height="1.93"/><rect class="cls-1" x="5.8" y="25.13" width="1.93" height="1.93"/><rect class="cls-1" x="3.87" y="25.13" width="1.93" height="1.93"/><rect class="cls-1" x="1.93" y="25.13" width="1.93" height="1.93"/><rect class="cls-1" y="25.13" width="1.93" height="1.93"/><rect class="cls-1" x="54.13" y="23.2" width="1.93" height="1.93"/><rect class="cls-1" x="52.2" y="23.2" width="1.93" height="1.93"/><rect class="cls-1" x="50.27" y="23.2" width="1.93" height="1.93"/><rect class="cls-1" x="38.67" y="23.2" width="1.93" height="1.93"/><rect class="cls-1" x="36.73" y="23.2" width="1.93" height="1.93"/><rect class="cls-1" x="34.8" y="23.2" width="1.93" height="1.93"/><rect class="cls-1" x="32.87" y="23.2" width="1.93" height="1.93"/><rect class="cls-1" x="30.93" y="23.2" width="1.93" height="1.93"/><rect class="cls-1" x="29" y="23.2" width="1.93" height="1.93"/><rect class="cls-1" x="27.07" y="23.2" width="1.93" height="1.93"/><rect class="cls-1" x="25.13" y="23.2" width="1.93" height="1.93"/><rect class="cls-1" x="23.2" y="23.2" width="1.93" height="1.93"/><rect class="cls-1" x="21.27" y="23.2" width="1.93" height="1.93"/><rect class="cls-1" x="19.33" y="23.2" width="1.93" height="1.93"/><rect class="cls-1" x="17.4" y="23.2" width="1.93" height="1.93"/><rect class="cls-1" x="15.47" y="23.2" width="1.93" height="1.93"/><rect class="cls-1" x="13.53" y="23.2" width="1.93" height="1.93"/><rect class="cls-1" x="11.6" y="23.2" width="1.93" height="1.93"/><rect class="cls-1" x="9.67" y="23.2" width="1.93" height="1.93"/><rect class="cls-1" x="7.73" y="23.2" width="1.93" height="1.93"/><rect class="cls-1" x="5.8" y="23.2" width="1.93" height="1.93"/><rect class="cls-1" x="3.87" y="23.2" width="1.93" height="1.93"/><rect class="cls-1" x="1.93" y="23.2" width="1.93" height="1.93"/><rect class="cls-1" y="23.2" width="1.93" height="1.93"/><rect class="cls-1" x="54.13" y="21.27" width="1.93" height="1.93"/><rect class="cls-1" x="52.2" y="21.27" width="1.93" height="1.93"/><rect class="cls-1" x="50.27" y="21.27" width="1.93" height="1.93"/><rect class="cls-1" x="32.87" y="21.27" width="1.93" height="1.93"/><rect class="cls-1" x="30.93" y="21.27" width="1.93" height="1.93"/><rect class="cls-1" x="29" y="21.27" width="1.93" height="1.93"/><rect class="cls-1" x="27.07" y="21.27" width="1.93" height="1.93"/><rect class="cls-1" x="25.13" y="21.27" width="1.93" height="1.93"/><rect class="cls-1" x="23.2" y="21.27" width="1.93" height="1.93"/><rect class="cls-1" x="21.27" y="21.27" width="1.93" height="1.93"/><rect class="cls-1" x="19.33" y="21.27" width="1.93" height="1.93"/><rect class="cls-1" x="17.4" y="21.27" width="1.93" height="1.93"/><rect class="cls-1" x="15.47" y="21.27" width="1.93" height="1.93"/><rect class="cls-1" x="7.73" y="21.27" width="1.93" height="1.93"/><rect class="cls-1" x="5.8" y="21.27" width="1.93" height="1.93"/><rect class="cls-1" x="3.87" y="21.27" width="1.93" height="1.93"/><rect class="cls-1" x="1.93" y="21.27" width="1.93" height="1.93"/><rect class="cls-1" x="52.2" y="19.33" width="1.93" height="1.93"/><rect class="cls-1" x="50.27" y="19.33" width="1.93" height="1.93"/><rect class="cls-1" x="48.33" y="19.33" width="1.93" height="1.93"/><rect class="cls-1" x="46.4" y="19.33" width="1.93" height="1.93"/><rect class="cls-1" x="7.73" y="19.33" width="1.93" height="1.93"/><rect class="cls-1" x="5.8" y="19.33" width="1.93" height="1.93"/><rect class="cls-1" x="3.87" y="19.33" width="1.93" height="1.93"/><rect class="cls-1" x="1.93" y="19.33" width="1.93" height="1.93"/><rect class="cls-1" x="52.2" y="17.4" width="1.93" height="1.93"/><rect class="cls-1" x="50.27" y="17.4" width="1.93" height="1.93"/><rect class="cls-1" x="48.33" y="17.4" width="1.93" height="1.93"/><rect class="cls-1" x="46.4" y="17.4" width="1.93" height="1.93"/><rect class="cls-1" x="44.47" y="17.4" width="1.93" height="1.93"/><rect class="cls-1" x="42.53" y="17.4" width="1.93" height="1.93"/><rect class="cls-1" x="7.73" y="17.4" width="1.93" height="1.93"/><rect class="cls-1" x="5.8" y="17.4" width="1.93" height="1.93"/><rect class="cls-1" x="3.87" y="17.4" width="1.93" height="1.93"/><rect class="cls-1" x="1.93" y="17.4" width="1.93" height="1.93"/><rect class="cls-1" x="52.2" y="15.47" width="1.93" height="1.93"/><rect class="cls-1" x="50.27" y="15.47" width="1.93" height="1.93"/><rect class="cls-1" x="48.33" y="15.47" width="1.93" height="1.93"/><rect class="cls-1" x="46.4" y="15.47" width="1.93" height="1.93"/><rect class="cls-1" x="44.47" y="15.47" width="1.93" height="1.93"/><rect class="cls-1" x="42.53" y="15.47" width="1.93" height="1.93"/><rect class="cls-1" x="40.6" y="15.47" width="1.93" height="1.93"/><rect class="cls-1" x="38.67" y="15.47" width="1.93" height="1.93"/><rect class="cls-1" x="36.73" y="15.47" width="1.93" height="1.93"/><rect class="cls-1" x="34.8" y="15.47" width="1.93" height="1.93"/><rect class="cls-1" x="11.6" y="15.47" width="1.93" height="1.93"/><rect class="cls-1" x="9.67" y="15.47" width="1.93" height="1.93"/><rect class="cls-1" x="7.73" y="15.47" width="1.93" height="1.93"/><rect class="cls-1" x="5.8" y="15.47" width="1.93" height="1.93"/><rect class="cls-1" x="3.87" y="15.47" width="1.93" height="1.93"/><rect class="cls-1" x="50.27" y="13.53" width="1.93" height="1.93"/><rect class="cls-1" x="48.33" y="13.53" width="1.93" height="1.93"/><rect class="cls-1" x="46.4" y="13.53" width="1.93" height="1.93"/><rect class="cls-1" x="44.47" y="13.53" width="1.93" height="1.93"/><rect class="cls-1" x="42.53" y="13.53" width="1.93" height="1.93"/><rect class="cls-1" x="40.6" y="13.53" width="1.93" height="1.93"/><rect class="cls-1" x="38.67" y="13.53" width="1.93" height="1.93"/><rect class="cls-1" x="36.73" y="13.53" width="1.93" height="1.93"/><rect class="cls-1" x="34.8" y="13.53" width="1.93" height="1.93"/><rect class="cls-1" x="32.87" y="13.53" width="1.93" height="1.93"/><rect class="cls-1" x="30.93" y="13.53" width="1.93" height="1.93"/><rect class="cls-1" x="29" y="13.53" width="1.93" height="1.93"/><rect class="cls-1" x="27.07" y="13.53" width="1.93" height="1.93"/><rect class="cls-1" x="25.13" y="13.53" width="1.93" height="1.93"/><rect class="cls-1" x="23.2" y="13.53" width="1.93" height="1.93"/><rect class="cls-1" x="21.27" y="13.53" width="1.93" height="1.93"/><rect class="cls-1" x="19.33" y="13.53" width="1.93" height="1.93"/><rect class="cls-1" x="17.4" y="13.53" width="1.93" height="1.93"/><rect class="cls-1" x="15.47" y="13.53" width="1.93" height="1.93"/><rect class="cls-1" x="13.53" y="13.53" width="1.93" height="1.93"/><rect class="cls-1" x="11.6" y="13.53" width="1.93" height="1.93"/><rect class="cls-1" x="9.67" y="13.53" width="1.93" height="1.93"/><rect class="cls-1" x="7.73" y="13.53" width="1.93" height="1.93"/><rect class="cls-1" x="5.8" y="13.53" width="1.93" height="1.93"/><rect class="cls-1" x="3.87" y="13.53" width="1.93" height="1.93"/><rect class="cls-1" x="50.27" y="11.6" width="1.93" height="1.93"/><rect class="cls-1" x="48.33" y="11.6" width="1.93" height="1.93"/><rect class="cls-1" x="46.4" y="11.6" width="1.93" height="1.93"/><rect class="cls-1" x="44.47" y="11.6" width="1.93" height="1.93"/><rect class="cls-1" x="42.53" y="11.6" width="1.93" height="1.93"/><rect class="cls-1" x="40.6" y="11.6" width="1.93" height="1.93"/><rect class="cls-1" x="38.67" y="11.6" width="1.93" height="1.93"/><rect class="cls-1" x="36.73" y="11.6" width="1.93" height="1.93"/><rect class="cls-1" x="34.8" y="11.6" width="1.93" height="1.93"/><rect class="cls-1" x="32.87" y="11.6" width="1.93" height="1.93"/><rect class="cls-1" x="30.93" y="11.6" width="1.93" height="1.93"/><rect class="cls-1" x="29" y="11.6" width="1.93" height="1.93"/><rect class="cls-1" x="27.07" y="11.6" width="1.93" height="1.93"/><rect class="cls-1" x="25.13" y="11.6" width="1.93" height="1.93"/><rect class="cls-1" x="23.2" y="11.6" width="1.93" height="1.93"/><rect class="cls-1" x="21.27" y="11.6" width="1.93" height="1.93"/><rect class="cls-1" x="19.33" y="11.6" width="1.93" height="1.93"/><rect class="cls-1" x="17.4" y="11.6" width="1.93" height="1.93"/><rect class="cls-1" x="15.47" y="11.6" width="1.93" height="1.93"/><rect class="cls-1" x="13.53" y="11.6" width="1.93" height="1.93"/><rect class="cls-1" x="11.6" y="11.6" width="1.93" height="1.93"/><rect class="cls-1" x="9.67" y="11.6" width="1.93" height="1.93"/><rect class="cls-1" x="7.73" y="11.6" width="1.93" height="1.93"/><rect class="cls-1" x="5.8" y="11.6" width="1.93" height="1.93"/><rect class="cls-1" x="48.33" y="9.67" width="1.93" height="1.93"/><rect class="cls-1" x="46.4" y="9.67" width="1.93" height="1.93"/><rect class="cls-1" x="44.47" y="9.67" width="1.93" height="1.93"/><rect class="cls-1" x="42.53" y="9.67" width="1.93" height="1.93"/><rect class="cls-1" x="40.6" y="9.67" width="1.93" height="1.93"/><rect class="cls-1" x="38.67" y="9.67" width="1.93" height="1.93"/><rect class="cls-1" x="36.73" y="9.67" width="1.93" height="1.93"/><rect class="cls-1" x="34.8" y="9.67" width="1.93" height="1.93"/><rect class="cls-1" x="32.87" y="9.67" width="1.93" height="1.93"/><rect class="cls-1" x="30.93" y="9.67" width="1.93" height="1.93"/><rect class="cls-1" x="29" y="9.67" width="1.93" height="1.93"/><rect class="cls-1" x="27.07" y="9.67" width="1.93" height="1.93"/><rect class="cls-1" x="25.13" y="9.67" width="1.93" height="1.93"/><rect class="cls-1" x="23.2" y="9.67" width="1.93" height="1.93"/><rect class="cls-1" x="21.27" y="9.67" width="1.93" height="1.93"/><rect class="cls-1" x="19.33" y="9.67" width="1.93" height="1.93"/><rect class="cls-1" x="17.4" y="9.67" width="1.93" height="1.93"/><rect class="cls-1" x="15.47" y="9.67" width="1.93" height="1.93"/><rect class="cls-1" x="13.53" y="9.67" width="1.93" height="1.93"/><rect class="cls-1" x="11.6" y="9.67" width="1.93" height="1.93"/><rect class="cls-1" x="9.67" y="9.67" width="1.93" height="1.93"/><rect class="cls-1" x="7.73" y="9.67" width="1.93" height="1.93"/><rect class="cls-1" x="46.4" y="7.73" width="1.93" height="1.93"/><rect class="cls-1" x="44.47" y="7.73" width="1.93" height="1.93"/><rect class="cls-1" x="42.53" y="7.73" width="1.93" height="1.93"/><rect class="cls-1" x="40.6" y="7.73" width="1.93" height="1.93"/><rect class="cls-1" x="38.67" y="7.73" width="1.93" height="1.93"/><rect class="cls-1" x="36.73" y="7.73" width="1.93" height="1.93"/><rect class="cls-1" x="34.8" y="7.73" width="1.93" height="1.93"/><rect class="cls-1" x="32.87" y="7.73" width="1.93" height="1.93"/><rect class="cls-1" x="30.93" y="7.73" width="1.93" height="1.93"/><rect class="cls-1" x="29" y="7.73" width="1.93" height="1.93"/><rect class="cls-1" x="27.07" y="7.73" width="1.93" height="1.93"/><rect class="cls-1" x="25.13" y="7.73" width="1.93" height="1.93"/><rect class="cls-1" x="23.2" y="7.73" width="1.93" height="1.93"/><rect class="cls-1" x="21.27" y="7.73" width="1.93" height="1.93"/><rect class="cls-1" x="19.33" y="7.73" width="1.93" height="1.93"/><rect class="cls-1" x="17.4" y="7.73" width="1.93" height="1.93"/><rect class="cls-1" x="15.47" y="7.73" width="1.93" height="1.93"/><rect class="cls-1" x="13.53" y="7.73" width="1.93" height="1.93"/><rect class="cls-1" x="11.6" y="7.73" width="1.93" height="1.93"/><rect class="cls-1" x="9.67" y="7.73" width="1.93" height="1.93"/><rect class="cls-1" x="44.47" y="5.8" width="1.93" height="1.93"/><rect class="cls-1" x="42.53" y="5.8" width="1.93" height="1.93"/><rect class="cls-1" x="40.6" y="5.8" width="1.93" height="1.93"/><rect class="cls-1" x="38.67" y="5.8" width="1.93" height="1.93"/><rect class="cls-1" x="36.73" y="5.8" width="1.93" height="1.93"/><rect class="cls-1" x="34.8" y="5.8" width="1.93" height="1.93"/><rect class="cls-1" x="32.87" y="5.8" width="1.93" height="1.93"/><rect class="cls-1" x="30.93" y="5.8" width="1.93" height="1.93"/><rect class="cls-1" x="29" y="5.8" width="1.93" height="1.93"/><rect class="cls-1" x="27.07" y="5.8" width="1.93" height="1.93"/><rect class="cls-1" x="25.13" y="5.8" width="1.93" height="1.93"/><rect class="cls-1" x="23.2" y="5.8" width="1.93" height="1.93"/><rect class="cls-1" x="21.27" y="5.8" width="1.93" height="1.93"/><rect class="cls-1" x="19.33" y="5.8" width="1.93" height="1.93"/><rect class="cls-1" x="17.4" y="5.8" width="1.93" height="1.93"/><rect class="cls-1" x="15.47" y="5.8" width="1.93" height="1.93"/><rect class="cls-1" x="13.53" y="5.8" width="1.93" height="1.93"/><rect class="cls-1" x="11.6" y="5.8" width="1.93" height="1.93"/><rect class="cls-1" x="42.53" y="3.87" width="1.93" height="1.93"/><rect class="cls-1" x="40.6" y="3.87" width="1.93" height="1.93"/><rect class="cls-1" x="38.67" y="3.87" width="1.93" height="1.93"/><rect class="cls-1" x="36.73" y="3.87" width="1.93" height="1.93"/><rect class="cls-1" x="34.8" y="3.87" width="1.93" height="1.93"/><rect class="cls-1" x="32.87" y="3.87" width="1.93" height="1.93"/><rect class="cls-1" x="30.93" y="3.87" width="1.93" height="1.93"/><rect class="cls-1" x="29" y="3.87" width="1.93" height="1.93"/><rect class="cls-1" x="27.07" y="3.87" width="1.93" height="1.93"/><rect class="cls-1" x="25.13" y="3.87" width="1.93" height="1.93"/><rect class="cls-1" x="23.2" y="3.87" width="1.93" height="1.93"/><rect class="cls-1" x="21.27" y="3.87" width="1.93" height="1.93"/><rect class="cls-1" x="19.33" y="3.87" width="1.93" height="1.93"/><rect class="cls-1" x="17.4" y="3.87" width="1.93" height="1.93"/><rect class="cls-1" x="15.47" y="3.87" width="1.93" height="1.93"/><rect class="cls-1" x="13.53" y="3.87" width="1.93" height="1.93"/><rect class="cls-1" x="40.6" y="1.93" width="1.93" height="1.93"/><rect class="cls-1" x="38.67" y="1.93" width="1.93" height="1.93"/><rect class="cls-1" x="36.73" y="1.93" width="1.93" height="1.93"/><rect class="cls-1" x="34.8" y="1.93" width="1.93" height="1.93"/><rect class="cls-1" x="32.87" y="1.93" width="1.93" height="1.93"/><rect class="cls-1" x="30.93" y="1.93" width="1.93" height="1.93"/><rect class="cls-1" x="29" y="1.93" width="1.93" height="1.93"/><rect class="cls-1" x="27.07" y="1.93" width="1.93" height="1.93"/><rect class="cls-1" x="25.13" y="1.93" width="1.93" height="1.93"/><rect class="cls-1" x="23.2" y="1.93" width="1.93" height="1.93"/><rect class="cls-1" x="21.27" y="1.93" width="1.93" height="1.93"/><rect class="cls-1" x="19.33" y="1.93" width="1.93" height="1.93"/><rect class="cls-1" x="17.4" y="1.93" width="1.93" height="1.93"/><rect class="cls-1" x="32.87" width="1.93" height="1.93"/><rect class="cls-1" x="30.93" width="1.93" height="1.93"/><rect class="cls-1" x="29" width="1.93" height="1.93"/><rect class="cls-1" x="27.07" width="1.93" height="1.93"/><rect class="cls-1" x="25.13" width="1.93" height="1.93"/><rect class="cls-1" x="23.2" width="1.93" height="1.93"/><rect class="cls-1" x="21.27" width="1.93" height="1.93"/></svg>