<svg id="Spotify" xmlns="http://www.w3.org/2000/svg" viewBox="0 0 58.61 74.84"><defs><style>.cls-1{fill:#137b3e;}.cls-2{fill:#157a3d;}</style></defs><path class="cls-1" d="M9.46,79.43V78h1.16v1.48Zm1.33,0V78H12v1.48ZM9.46,77.77V76.29h1.16v1.48Zm1.33,0V76.29H12v1.48ZM9.46,76.11V74.63h1.16v1.48Zm1.33,0V74.63H12v1.48Zm1.32,0V74.63h1.16v1.48Zm1.33,0V74.63H14.6v1.48Zm-4-1.66V73h1.16v1.48Zm1.33,0V73H12v1.48Zm2.65,0V73H14.6v1.48Zm1.33,0V73h1.15v1.48ZM9.46,72.79V71.31h1.16v1.48Zm1.33,0V71.31H12v1.48Zm2.65,0V71.31H14.6v1.48Zm1.33,0V71.31h1.15v1.48ZM9.46,71.13V69.65h1.16v1.48Zm1.33,0V69.65H12v1.48Zm2.65,0V69.65H14.6v1.48Zm1.33,0V69.65h1.15v1.48ZM9.46,69.48V68h1.16v1.48Zm1.33,0V68H12v1.48Zm1.32,0V68h1.16v1.48Zm1.33,0V68H14.6v1.48Z" transform="translate(-9.46 -4.59)"/><path class="cls-1" d="M17.56,79.43V78h1.16v1.48Zm1.32,0V78H20v1.48Zm-1.32-1.66V76.29h1.16v1.48Zm1.32,0V76.29H20v1.48Zm-1.32-1.66V74.63h1.16v1.48Zm1.32,0V74.63H20v1.48Zm-1.32-1.66V73h1.16v1.48Zm1.32,0V73H20v1.48Zm1.33,0V73h1.16v1.48Zm1.33,0V73h1.15v1.48Zm-4-1.66V71.31h1.16v1.48Zm1.32,0V71.31H20v1.48Zm2.66,0V71.31h1.15v1.48Z" transform="translate(-9.46 -4.59)"/><path class="cls-1" d="M25.6,79.43V78h1.16v1.48Zm1.33,0V78h1.16v1.48Zm1.33,0V78h1.15v1.48Zm1.32,0V78h1.16v1.48Zm-5.3-1.66V76.29h1.15v1.48Zm1.32,0V76.29h1.16v1.48Zm-1.32-1.66V74.63h1.15v1.48Zm1.32,0V74.63h1.16v1.48Zm1.33,0V74.63h1.16v1.48Zm1.33,0V74.63h1.15v1.48Zm1.32,0V74.63h1.16v1.48Zm-5.3-1.66V73h1.15v1.48Zm1.32,0V73h1.16v1.48Zm2.66,0V73h1.15v1.48Zm1.32,0V73h1.16v1.48Zm-4-1.66V71.31h1.16v1.48Zm1.33,0V71.31h1.16v1.48Zm1.33,0V71.31h1.15v1.48Z" transform="translate(-9.46 -4.59)"/><path class="cls-1" d="M32.73,74.45V73h1.16v1.48Zm1.33,0V73h1.16v1.48Zm1.32,0V73h1.16v1.48Zm1.33,0V73h1.16v1.48Z" transform="translate(-9.46 -4.59)"/><path class="cls-1" d="M38.57,79.43V78h1.16v1.48Zm1.33,0V78h1.16v1.48Zm1.33,0V78h1.15v1.48Zm0-1.66V76.29h1.15v1.48Zm1.32,0V76.29h1.16v1.48Zm-1.32-1.66V74.63h1.15v1.48Zm1.32,0V74.63h1.16v1.48ZM39.9,74.45V73h1.16v1.48Zm1.33,0V73h1.15v1.48Zm-2.66-1.66V71.31h1.16v1.48Zm1.33,0V71.31h1.16v1.48Zm-1.33-1.66V69.65h1.16v1.48Zm1.33,0V69.65h1.16v1.48Zm0-1.65V68h1.16v1.48Zm1.33,0V68h1.15v1.48Zm1.32,0V68h1.16v1.48Z" transform="translate(-9.46 -4.59)"/><path class="cls-1" d="M46.65,79.43V78h1.16v1.48Zm1.33,0V78h1.16v1.48Zm1.33,0V78h1.15v1.48Zm1.32,0V78h1.16v1.48Zm-5.3-1.66V76.29h1.16v1.48Zm1.32,0V76.29h1.16v1.48Zm2.66,0V76.29h1.15v1.48Zm1.32,0V76.29h1.16v1.48Zm-4-1.66V74.63h1.16v1.48Zm1.33,0V74.63h1.16v1.48Zm1.33,0V74.63h1.15v1.48Zm1.32,0V74.63h1.16v1.48Zm-1.32-1.66V73h1.15v1.48Zm1.32,0V73h1.16v1.48Zm-4-1.66V71.31h1.16v1.48Zm1.33,0V71.31h1.16v1.48Zm1.33,0V71.31h1.15v1.48Z" transform="translate(-9.46 -4.59)"/><path class="cls-1" d="M56.19,79.43V78h1.16v1.48Zm-1.33-1.66V76.29H56v1.48Zm1.33,0V76.29h1.16v1.48Zm1.33,0V76.29h1.15v1.48Zm-2.66-1.66V74.63H56v1.48Zm1.33,0V74.63h1.16v1.48Zm1.33,0V74.63h1.15v1.48Zm-4-1.66V73h1.15v1.48Zm1.32,0V73H56v1.48Zm2.66,0V73h1.15v1.48Zm1.32,0V73H60v1.48Zm-5.3-1.66V71.31h1.15v1.48Zm1.32,0V71.31H56v1.48Zm2.66,0V71.31h1.15v1.48Zm1.32,0V71.31H60v1.48Z" transform="translate(-9.46 -4.59)"/><path class="cls-1" d="M62.93,79.43V78h1.16v1.48Zm1.33,0V78h1.16v1.48Zm1.33,0V78h1.15v1.48Zm1.32,0V78h1.16v1.48Zm-5.3-1.66V76.29h1.16v1.48Zm1.32,0V76.29h1.16v1.48Zm-1.32-1.66V74.63h1.16v1.48Zm1.32,0V74.63h1.16v1.48Zm1.33,0V74.63h1.16v1.48Zm1.33,0V74.63h1.15v1.48Zm1.32,0V74.63h1.16v1.48Zm-5.3-1.66V73h1.16v1.48Zm1.32,0V73h1.16v1.48Zm2.66,0V73h1.15v1.48Zm1.32,0V73h1.16v1.48Zm-4-1.66V71.31h1.16v1.48Zm1.33,0V71.31h1.16v1.48Zm1.33,0V71.31h1.15v1.48Z" transform="translate(-9.46 -4.59)"/><rect class="cls-2" x="31.96" y="51.39" width="1.77" height="1.77"/><rect class="cls-2" x="30.19" y="51.39" width="1.77" height="1.77"/><rect class="cls-2" x="28.42" y="51.39" width="1.77" height="1.77"/><rect class="cls-2" x="26.65" y="51.39" width="1.77" height="1.77"/><rect class="cls-2" x="24.87" y="51.39" width="1.77" height="1.77"/><rect class="cls-2" x="39.05" y="49.62" width="1.77" height="1.77"/><rect class="cls-2" x="37.28" y="49.62" width="1.77" height="1.77"/><rect class="cls-2" x="35.51" y="49.62" width="1.77" height="1.77"/><rect class="cls-2" x="33.74" y="49.62" width="1.77" height="1.77"/><rect class="cls-2" x="31.96" y="49.62" width="1.77" height="1.77"/><rect class="cls-2" x="30.19" y="49.62" width="1.77" height="1.77"/><rect class="cls-2" x="28.42" y="49.62" width="1.77" height="1.77"/><rect class="cls-2" x="26.65" y="49.62" width="1.77" height="1.77"/><rect class="cls-2" x="24.87" y="49.62" width="1.77" height="1.77"/><rect class="cls-2" x="23.1" y="49.62" width="1.77" height="1.77"/><rect class="cls-2" x="21.33" y="49.62" width="1.77" height="1.77"/><rect class="cls-2" x="19.56" y="49.62" width="1.77" height="1.77"/><rect class="cls-2" x="42.6" y="47.85" width="1.77" height="1.77"/><rect class="cls-2" x="40.82" y="47.85" width="1.77" height="1.77"/><rect class="cls-2" x="39.05" y="47.85" width="1.77" height="1.77"/><rect class="cls-2" x="37.28" y="47.85" width="1.77" height="1.77"/><rect class="cls-2" x="35.51" y="47.85" width="1.77" height="1.77"/><rect class="cls-2" x="33.74" y="47.85" width="1.77" height="1.77"/><rect class="cls-2" x="31.96" y="47.85" width="1.77" height="1.77"/><rect class="cls-2" x="30.19" y="47.85" width="1.77" height="1.77"/><rect class="cls-2" x="28.42" y="47.85" width="1.77" height="1.77"/><rect class="cls-2" x="26.65" y="47.85" width="1.77" height="1.77"/><rect class="cls-2" x="24.87" y="47.85" width="1.77" height="1.77"/><rect class="cls-2" x="23.1" y="47.85" width="1.77" height="1.77"/><rect class="cls-2" x="21.33" y="47.85" width="1.77" height="1.77"/><rect class="cls-2" x="19.56" y="47.85" width="1.77" height="1.77"/><rect class="cls-2" x="17.79" y="47.85" width="1.77" height="1.77"/><rect class="cls-2" x="44.37" y="46.08" width="1.77" height="1.77"/><rect class="cls-2" x="42.6" y="46.08" width="1.77" height="1.77"/><rect class="cls-2" x="40.82" y="46.08" width="1.77" height="1.77"/><rect class="cls-2" x="39.05" y="46.08" width="1.77" height="1.77"/><rect class="cls-2" x="37.28" y="46.08" width="1.77" height="1.77"/><rect class="cls-2" x="35.51" y="46.08" width="1.77" height="1.77"/><rect class="cls-2" x="33.74" y="46.08" width="1.77" height="1.77"/><rect class="cls-2" x="31.96" y="46.08" width="1.77" height="1.77"/><rect class="cls-2" x="30.19" y="46.08" width="1.77" height="1.77"/><rect class="cls-2" x="28.42" y="46.08" width="1.77" height="1.77"/><rect class="cls-2" x="26.65" y="46.08" width="1.77" height="1.77"/><rect class="cls-2" x="24.87" y="46.08" width="1.77" height="1.77"/><rect class="cls-2" x="23.1" y="46.08" width="1.77" height="1.77"/><rect class="cls-2" x="21.33" y="46.08" width="1.77" height="1.77"/><rect class="cls-2" x="19.56" y="46.08" width="1.77" height="1.77"/><rect class="cls-2" x="17.79" y="46.08" width="1.77" height="1.77"/><rect class="cls-2" x="16.01" y="46.08" width="1.77" height="1.77"/><rect class="cls-2" x="14.24" y="46.08" width="1.77" height="1.77"/><rect class="cls-2" x="46.14" y="44.31" width="1.77" height="1.77"/><rect class="cls-2" x="44.37" y="44.31" width="1.77" height="1.77"/><rect class="cls-2" x="42.6" y="44.31" width="1.77" height="1.77"/><rect class="cls-2" x="40.82" y="44.31" width="1.77" height="1.77"/><rect class="cls-2" x="39.05" y="44.31" width="1.77" height="1.77"/><rect class="cls-2" x="37.28" y="44.31" width="1.77" height="1.77"/><rect class="cls-2" x="35.51" y="44.31" width="1.77" height="1.77"/><rect class="cls-2" x="33.74" y="44.31" width="1.77" height="1.77"/><rect class="cls-2" x="31.96" y="44.31" width="1.77" height="1.77"/><rect class="cls-2" x="30.19" y="44.31" width="1.77" height="1.77"/><rect class="cls-2" x="28.42" y="44.31" width="1.77" height="1.77"/><rect class="cls-2" x="26.65" y="44.31" width="1.77" height="1.77"/><rect class="cls-2" x="24.87" y="44.31" width="1.77" height="1.77"/><rect class="cls-2" x="23.1" y="44.31" width="1.77" height="1.77"/><rect class="cls-2" x="21.33" y="44.31" width="1.77" height="1.77"/><rect class="cls-2" x="19.56" y="44.31" width="1.77" height="1.77"/><rect class="cls-2" x="17.79" y="44.31" width="1.77" height="1.77"/><rect class="cls-2" x="16.01" y="44.31" width="1.77" height="1.77"/><rect class="cls-2" x="14.24" y="44.31" width="1.77" height="1.77"/><rect class="cls-2" x="12.47" y="44.31" width="1.77" height="1.77"/><rect class="cls-2" x="47.91" y="42.53" width="1.77" height="1.77"/><rect class="cls-2" x="46.14" y="42.53" width="1.77" height="1.77"/><rect class="cls-2" x="44.37" y="42.53" width="1.77" height="1.77"/><rect class="cls-2" x="42.6" y="42.53" width="1.77" height="1.77"/><rect class="cls-2" x="40.82" y="42.53" width="1.77" height="1.77"/><rect class="cls-2" x="39.05" y="42.53" width="1.77" height="1.77"/><rect class="cls-2" x="37.28" y="42.53" width="1.77" height="1.77"/><rect class="cls-2" x="35.51" y="42.53" width="1.77" height="1.77"/><rect class="cls-2" x="33.74" y="42.53" width="1.77" height="1.77"/><rect class="cls-2" x="31.96" y="42.53" width="1.77" height="1.77"/><rect class="cls-2" x="30.19" y="42.53" width="1.77" height="1.77"/><rect class="cls-2" x="28.42" y="42.53" width="1.77" height="1.77"/><rect class="cls-2" x="26.65" y="42.53" width="1.77" height="1.77"/><rect class="cls-2" x="24.87" y="42.53" width="1.77" height="1.77"/><rect class="cls-2" x="23.1" y="42.53" width="1.77" height="1.77"/><rect class="cls-2" x="21.33" y="42.53" width="1.77" height="1.77"/><rect class="cls-2" x="19.56" y="42.53" width="1.77" height="1.77"/><rect class="cls-2" x="17.79" y="42.53" width="1.77" height="1.77"/><rect class="cls-2" x="16.01" y="42.53" width="1.77" height="1.77"/><rect class="cls-2" x="14.24" y="42.53" width="1.77" height="1.77"/><rect class="cls-2" x="12.47" y="42.53" width="1.77" height="1.77"/><rect class="cls-2" x="10.7" y="42.53" width="1.77" height="1.77"/><rect class="cls-2" x="49.69" y="40.76" width="1.77" height="1.77"/><rect class="cls-2" x="47.91" y="40.76" width="1.77" height="1.77"/><rect class="cls-2" x="46.14" y="40.76" width="1.77" height="1.77"/><rect class="cls-2" x="44.37" y="40.76" width="1.77" height="1.77"/><rect class="cls-2" x="42.6" y="40.76" width="1.77" height="1.77"/><rect class="cls-2" x="37.28" y="40.76" width="1.77" height="1.77"/><rect class="cls-2" x="35.51" y="40.76" width="1.77" height="1.77"/><rect class="cls-2" x="33.74" y="40.76" width="1.77" height="1.77"/><rect class="cls-2" x="31.96" y="40.76" width="1.77" height="1.77"/><rect class="cls-2" x="30.19" y="40.76" width="1.77" height="1.77"/><rect class="cls-2" x="28.42" y="40.76" width="1.77" height="1.77"/><rect class="cls-2" x="26.65" y="40.76" width="1.77" height="1.77"/><rect class="cls-2" x="24.87" y="40.76" width="1.77" height="1.77"/><rect class="cls-2" x="23.1" y="40.76" width="1.77" height="1.77"/><rect class="cls-2" x="21.33" y="40.76" width="1.77" height="1.77"/><rect class="cls-2" x="19.56" y="40.76" width="1.77" height="1.77"/><rect class="cls-2" x="17.79" y="40.76" width="1.77" height="1.77"/><rect class="cls-2" x="16.01" y="40.76" width="1.77" height="1.77"/><rect class="cls-2" x="14.24" y="40.76" width="1.77" height="1.77"/><rect class="cls-2" x="12.47" y="40.76" width="1.77" height="1.77"/><rect class="cls-2" x="10.7" y="40.76" width="1.77" height="1.77"/><rect class="cls-2" x="8.92" y="40.76" width="1.77" height="1.77"/><rect class="cls-2" x="7.15" y="40.76" width="1.77" height="1.77"/><rect class="cls-2" x="49.69" y="38.99" width="1.77" height="1.77"/><rect class="cls-2" x="47.91" y="38.99" width="1.77" height="1.77"/><rect class="cls-2" x="46.14" y="38.99" width="1.77" height="1.77"/><rect class="cls-2" x="44.37" y="38.99" width="1.77" height="1.77"/><rect class="cls-2" x="42.6" y="38.99" width="1.77" height="1.77"/><rect class="cls-2" x="28.42" y="38.99" width="1.77" height="1.77"/><rect class="cls-2" x="26.65" y="38.99" width="1.77" height="1.77"/><rect class="cls-2" x="24.87" y="38.99" width="1.77" height="1.77"/><rect class="cls-2" x="23.1" y="38.99" width="1.77" height="1.77"/><rect class="cls-2" x="21.33" y="38.99" width="1.77" height="1.77"/><rect class="cls-2" x="19.56" y="38.99" width="1.77" height="1.77"/><rect class="cls-2" x="14.24" y="38.99" width="1.77" height="1.77"/><rect class="cls-2" x="12.47" y="38.99" width="1.77" height="1.77"/><rect class="cls-2" x="10.7" y="38.99" width="1.77" height="1.77"/><rect class="cls-2" x="8.92" y="38.99" width="1.77" height="1.77"/><rect class="cls-2" x="7.15" y="38.99" width="1.77" height="1.77"/><rect class="cls-2" x="51.46" y="37.22" width="1.77" height="1.77"/><rect class="cls-2" x="49.69" y="37.22" width="1.77" height="1.77"/><rect class="cls-2" x="47.91" y="37.22" width="1.77" height="1.77"/><rect class="cls-2" x="46.14" y="37.22" width="1.77" height="1.77"/><rect class="cls-2" x="44.37" y="37.22" width="1.77" height="1.77"/><rect class="cls-2" x="42.6" y="37.22" width="1.77" height="1.77"/><rect class="cls-2" x="40.82" y="37.22" width="1.77" height="1.77"/><rect class="cls-2" x="14.24" y="37.22" width="1.77" height="1.77"/><rect class="cls-2" x="12.47" y="37.22" width="1.77" height="1.77"/><rect class="cls-2" x="10.7" y="37.22" width="1.77" height="1.77"/><rect class="cls-2" x="8.92" y="37.22" width="1.77" height="1.77"/><rect class="cls-2" x="7.15" y="37.22" width="1.77" height="1.77"/><rect class="cls-2" x="51.46" y="35.44" width="1.77" height="1.77"/><rect class="cls-2" x="49.69" y="35.44" width="1.77" height="1.77"/><rect class="cls-2" x="47.91" y="35.44" width="1.77" height="1.77"/><rect class="cls-2" x="46.14" y="35.44" width="1.77" height="1.77"/><rect class="cls-2" x="44.37" y="35.44" width="1.77" height="1.77"/><rect class="cls-2" x="42.6" y="35.44" width="1.77" height="1.77"/><rect class="cls-2" x="40.82" y="35.44" width="1.77" height="1.77"/><rect class="cls-2" x="39.05" y="35.44" width="1.77" height="1.77"/><rect class="cls-2" x="37.28" y="35.44" width="1.77" height="1.77"/><rect class="cls-2" x="14.24" y="35.44" width="1.77" height="1.77"/><rect class="cls-2" x="12.47" y="35.44" width="1.77" height="1.77"/><rect class="cls-2" x="10.7" y="35.44" width="1.77" height="1.77"/><rect class="cls-2" x="8.92" y="35.44" width="1.77" height="1.77"/><rect class="cls-2" x="7.15" y="35.44" width="1.77" height="1.77"/><rect class="cls-2" x="5.38" y="35.44" width="1.77" height="1.77"/><rect class="cls-2" x="51.46" y="33.67" width="1.77" height="1.77"/><rect class="cls-2" x="49.69" y="33.67" width="1.77" height="1.77"/><rect class="cls-2" x="47.91" y="33.67" width="1.77" height="1.77"/><rect class="cls-2" x="46.14" y="33.67" width="1.77" height="1.77"/><rect class="cls-2" x="44.37" y="33.67" width="1.77" height="1.77"/><rect class="cls-2" x="42.6" y="33.67" width="1.77" height="1.77"/><rect class="cls-2" x="40.82" y="33.67" width="1.77" height="1.77"/><rect class="cls-2" x="39.05" y="33.67" width="1.77" height="1.77"/><rect class="cls-2" x="37.28" y="33.67" width="1.77" height="1.77"/><rect class="cls-2" x="35.51" y="33.67" width="1.77" height="1.77"/><rect class="cls-2" x="33.74" y="33.67" width="1.77" height="1.77"/><rect class="cls-2" x="31.96" y="33.67" width="1.77" height="1.77"/><rect class="cls-2" x="30.19" y="33.67" width="1.77" height="1.77"/><rect class="cls-2" x="28.42" y="33.67" width="1.77" height="1.77"/><rect class="cls-2" x="26.65" y="33.67" width="1.77" height="1.77"/><rect class="cls-2" x="24.87" y="33.67" width="1.77" height="1.77"/><rect class="cls-2" x="23.1" y="33.67" width="1.77" height="1.77"/><rect class="cls-2" x="21.33" y="33.67" width="1.77" height="1.77"/><rect class="cls-2" x="19.56" y="33.67" width="1.77" height="1.77"/><rect class="cls-2" x="17.79" y="33.67" width="1.77" height="1.77"/><rect class="cls-2" x="16.01" y="33.67" width="1.77" height="1.77"/><rect class="cls-2" x="14.24" y="33.67" width="1.77" height="1.77"/><rect class="cls-2" x="12.47" y="33.67" width="1.77" height="1.77"/><rect class="cls-2" x="10.7" y="33.67" width="1.77" height="1.77"/><rect class="cls-2" x="8.92" y="33.67" width="1.77" height="1.77"/><rect class="cls-2" x="7.15" y="33.67" width="1.77" height="1.77"/><rect class="cls-2" x="5.38" y="33.67" width="1.77" height="1.77"/><rect class="cls-2" x="51.46" y="31.9" width="1.77" height="1.77"/><rect class="cls-2" x="49.69" y="31.9" width="1.77" height="1.77"/><rect class="cls-2" x="47.91" y="31.9" width="1.77" height="1.77"/><rect class="cls-2" x="46.14" y="31.9" width="1.77" height="1.77"/><rect class="cls-2" x="44.37" y="31.9" width="1.77" height="1.77"/><rect class="cls-2" x="39.05" y="31.9" width="1.77" height="1.77"/><rect class="cls-2" x="37.28" y="31.9" width="1.77" height="1.77"/><rect class="cls-2" x="35.51" y="31.9" width="1.77" height="1.77"/><rect class="cls-2" x="33.74" y="31.9" width="1.77" height="1.77"/><rect class="cls-2" x="31.96" y="31.9" width="1.77" height="1.77"/><rect class="cls-2" x="30.19" y="31.9" width="1.77" height="1.77"/><rect class="cls-2" x="28.42" y="31.9" width="1.77" height="1.77"/><rect class="cls-2" x="26.65" y="31.9" width="1.77" height="1.77"/><rect class="cls-2" x="24.87" y="31.9" width="1.77" height="1.77"/><rect class="cls-2" x="23.1" y="31.9" width="1.77" height="1.77"/><rect class="cls-2" x="21.33" y="31.9" width="1.77" height="1.77"/><rect class="cls-2" x="19.56" y="31.9" width="1.77" height="1.77"/><rect class="cls-2" x="17.79" y="31.9" width="1.77" height="1.77"/><rect class="cls-2" x="16.01" y="31.9" width="1.77" height="1.77"/><rect class="cls-2" x="14.24" y="31.9" width="1.77" height="1.77"/><rect class="cls-2" x="12.47" y="31.9" width="1.77" height="1.77"/><rect class="cls-2" x="10.7" y="31.9" width="1.77" height="1.77"/><rect class="cls-2" x="8.92" y="31.9" width="1.77" height="1.77"/><rect class="cls-2" x="7.15" y="31.9" width="1.77" height="1.77"/><rect class="cls-2" x="5.38" y="31.9" width="1.77" height="1.77"/><rect class="cls-2" x="53.23" y="30.13" width="1.77" height="1.77"/><rect class="cls-2" x="51.46" y="30.13" width="1.77" height="1.77"/><rect class="cls-2" x="49.69" y="30.13" width="1.77" height="1.77"/><rect class="cls-2" x="47.91" y="30.13" width="1.77" height="1.77"/><rect class="cls-2" x="46.14" y="30.13" width="1.77" height="1.77"/><rect class="cls-2" x="44.37" y="30.13" width="1.77" height="1.77"/><rect class="cls-2" x="31.96" y="30.13" width="1.77" height="1.77"/><rect class="cls-2" x="30.19" y="30.13" width="1.77" height="1.77"/><rect class="cls-2" x="28.42" y="30.13" width="1.77" height="1.77"/><rect class="cls-2" x="26.65" y="30.13" width="1.77" height="1.77"/><rect class="cls-2" x="24.87" y="30.13" width="1.77" height="1.77"/><rect class="cls-2" x="23.1" y="30.13" width="1.77" height="1.77"/><rect class="cls-2" x="21.33" y="30.13" width="1.77" height="1.77"/><rect class="cls-2" x="19.56" y="30.13" width="1.77" height="1.77"/><rect class="cls-2" x="17.79" y="30.13" width="1.77" height="1.77"/><rect class="cls-2" x="12.47" y="30.13" width="1.77" height="1.77"/><rect class="cls-2" x="10.7" y="30.13" width="1.77" height="1.77"/><rect class="cls-2" x="8.92" y="30.13" width="1.77" height="1.77"/><rect class="cls-2" x="7.15" y="30.13" width="1.77" height="1.77"/><rect class="cls-2" x="5.38" y="30.13" width="1.77" height="1.77"/><rect class="cls-2" x="53.23" y="28.36" width="1.77" height="1.77"/><rect class="cls-2" x="51.46" y="28.36" width="1.77" height="1.77"/><rect class="cls-2" x="49.69" y="28.36" width="1.77" height="1.77"/><rect class="cls-2" x="47.91" y="28.36" width="1.77" height="1.77"/><rect class="cls-2" x="46.14" y="28.36" width="1.77" height="1.77"/><rect class="cls-2" x="44.37" y="28.36" width="1.77" height="1.77"/><rect class="cls-2" x="12.47" y="28.36" width="1.77" height="1.77"/><rect class="cls-2" x="10.7" y="28.36" width="1.77" height="1.77"/><rect class="cls-2" x="8.92" y="28.36" width="1.77" height="1.77"/><rect class="cls-2" x="7.15" y="28.36" width="1.77" height="1.77"/><rect class="cls-2" x="5.38" y="28.36" width="1.77" height="1.77"/><rect class="cls-2" x="3.61" y="28.36" width="1.77" height="1.77"/><rect class="cls-2" x="53.23" y="26.58" width="1.77" height="1.77"/><rect class="cls-2" x="51.46" y="26.58" width="1.77" height="1.77"/><rect class="cls-2" x="49.69" y="26.58" width="1.77" height="1.77"/><rect class="cls-2" x="47.91" y="26.58" width="1.77" height="1.77"/><rect class="cls-2" x="46.14" y="26.58" width="1.77" height="1.77"/><rect class="cls-2" x="44.37" y="26.58" width="1.77" height="1.77"/><rect class="cls-2" x="42.6" y="26.58" width="1.77" height="1.77"/><rect class="cls-2" x="40.82" y="26.58" width="1.77" height="1.77"/><rect class="cls-2" x="12.47" y="26.58" width="1.77" height="1.77"/><rect class="cls-2" x="10.7" y="26.58" width="1.77" height="1.77"/><rect class="cls-2" x="8.92" y="26.58" width="1.77" height="1.77"/><rect class="cls-2" x="7.15" y="26.58" width="1.77" height="1.77"/><rect class="cls-2" x="5.38" y="26.58" width="1.77" height="1.77"/><rect class="cls-2" x="3.61" y="26.58" width="1.77" height="1.77"/><rect class="cls-2" x="53.23" y="24.81" width="1.77" height="1.77"/><rect class="cls-2" x="51.46" y="24.81" width="1.77" height="1.77"/><rect class="cls-2" x="49.69" y="24.81" width="1.77" height="1.77"/><rect class="cls-2" x="47.91" y="24.81" width="1.77" height="1.77"/><rect class="cls-2" x="46.14" y="24.81" width="1.77" height="1.77"/><rect class="cls-2" x="44.37" y="24.81" width="1.77" height="1.77"/><rect class="cls-2" x="42.6" y="24.81" width="1.77" height="1.77"/><rect class="cls-2" x="40.82" y="24.81" width="1.77" height="1.77"/><rect class="cls-2" x="39.05" y="24.81" width="1.77" height="1.77"/><rect class="cls-2" x="37.28" y="24.81" width="1.77" height="1.77"/><rect class="cls-2" x="35.51" y="24.81" width="1.77" height="1.77"/><rect class="cls-2" x="33.74" y="24.81" width="1.77" height="1.77"/><rect class="cls-2" x="17.79" y="24.81" width="1.77" height="1.77"/><rect class="cls-2" x="16.01" y="24.81" width="1.77" height="1.77"/><rect class="cls-2" x="14.24" y="24.81" width="1.77" height="1.77"/><rect class="cls-2" x="12.47" y="24.81" width="1.77" height="1.77"/><rect class="cls-2" x="10.7" y="24.81" width="1.77" height="1.77"/><rect class="cls-2" x="8.92" y="24.81" width="1.77" height="1.77"/><rect class="cls-2" x="7.15" y="24.81" width="1.77" height="1.77"/><rect class="cls-2" x="5.38" y="24.81" width="1.77" height="1.77"/><rect class="cls-2" x="3.61" y="24.81" width="1.77" height="1.77"/><rect class="cls-2" x="53.23" y="23.04" width="1.77" height="1.77"/><rect class="cls-2" x="51.46" y="23.04" width="1.77" height="1.77"/><rect class="cls-2" x="49.69" y="23.04" width="1.77" height="1.77"/><rect class="cls-2" x="47.91" y="23.04" width="1.77" height="1.77"/><rect class="cls-2" x="42.6" y="23.04" width="1.77" height="1.77"/><rect class="cls-2" x="40.82" y="23.04" width="1.77" height="1.77"/><rect class="cls-2" x="39.05" y="23.04" width="1.77" height="1.77"/><rect class="cls-2" x="37.28" y="23.04" width="1.77" height="1.77"/><rect class="cls-2" x="35.51" y="23.04" width="1.77" height="1.77"/><rect class="cls-2" x="33.74" y="23.04" width="1.77" height="1.77"/><rect class="cls-2" x="31.96" y="23.04" width="1.77" height="1.77"/><rect class="cls-2" x="30.19" y="23.04" width="1.77" height="1.77"/><rect class="cls-2" x="28.42" y="23.04" width="1.77" height="1.77"/><rect class="cls-2" x="26.65" y="23.04" width="1.77" height="1.77"/><rect class="cls-2" x="24.87" y="23.04" width="1.77" height="1.77"/><rect class="cls-2" x="23.1" y="23.04" width="1.77" height="1.77"/><rect class="cls-2" x="21.33" y="23.04" width="1.77" height="1.77"/><rect class="cls-2" x="19.56" y="23.04" width="1.77" height="1.77"/><rect class="cls-2" x="17.79" y="23.04" width="1.77" height="1.77"/><rect class="cls-2" x="16.01" y="23.04" width="1.77" height="1.77"/><rect class="cls-2" x="14.24" y="23.04" width="1.77" height="1.77"/><rect class="cls-2" x="12.47" y="23.04" width="1.77" height="1.77"/><rect class="cls-2" x="10.7" y="23.04" width="1.77" height="1.77"/><rect class="cls-2" x="8.92" y="23.04" width="1.77" height="1.77"/><rect class="cls-2" x="7.15" y="23.04" width="1.77" height="1.77"/><rect class="cls-2" x="5.38" y="23.04" width="1.77" height="1.77"/><rect class="cls-2" x="3.61" y="23.04" width="1.77" height="1.77"/><rect class="cls-2" x="53.23" y="21.27" width="1.77" height="1.77"/><rect class="cls-2" x="51.46" y="21.27" width="1.77" height="1.77"/><rect class="cls-2" x="49.69" y="21.27" width="1.77" height="1.77"/><rect class="cls-2" x="39.05" y="21.27" width="1.77" height="1.77"/><rect class="cls-2" x="37.28" y="21.27" width="1.77" height="1.77"/><rect class="cls-2" x="35.51" y="21.27" width="1.77" height="1.77"/><rect class="cls-2" x="33.74" y="21.27" width="1.77" height="1.77"/><rect class="cls-2" x="31.96" y="21.27" width="1.77" height="1.77"/><rect class="cls-2" x="30.19" y="21.27" width="1.77" height="1.77"/><rect class="cls-2" x="28.42" y="21.27" width="1.77" height="1.77"/><rect class="cls-2" x="26.65" y="21.27" width="1.77" height="1.77"/><rect class="cls-2" x="24.87" y="21.27" width="1.77" height="1.77"/><rect class="cls-2" x="23.1" y="21.27" width="1.77" height="1.77"/><rect class="cls-2" x="21.33" y="21.27" width="1.77" height="1.77"/><rect class="cls-2" x="19.56" y="21.27" width="1.77" height="1.77"/><rect class="cls-2" x="17.79" y="21.27" width="1.77" height="1.77"/><rect class="cls-2" x="16.01" y="21.27" width="1.77" height="1.77"/><rect class="cls-2" x="14.24" y="21.27" width="1.77" height="1.77"/><rect class="cls-2" x="12.47" y="21.27" width="1.77" height="1.77"/><rect class="cls-2" x="10.7" y="21.27" width="1.77" height="1.77"/><rect class="cls-2" x="8.92" y="21.27" width="1.77" height="1.77"/><rect class="cls-2" x="7.15" y="21.27" width="1.77" height="1.77"/><rect class="cls-2" x="5.38" y="21.27" width="1.77" height="1.77"/><rect class="cls-2" x="3.61" y="21.27" width="1.77" height="1.77"/><rect class="cls-2" x="53.23" y="19.49" width="1.77" height="1.77"/><rect class="cls-2" x="51.46" y="19.49" width="1.77" height="1.77"/><rect class="cls-2" x="49.69" y="19.49" width="1.77" height="1.77"/><rect class="cls-2" x="33.74" y="19.49" width="1.77" height="1.77"/><rect class="cls-2" x="31.96" y="19.49" width="1.77" height="1.77"/><rect class="cls-2" x="30.19" y="19.49" width="1.77" height="1.77"/><rect class="cls-2" x="28.42" y="19.49" width="1.77" height="1.77"/><rect class="cls-2" x="26.65" y="19.49" width="1.77" height="1.77"/><rect class="cls-2" x="24.87" y="19.49" width="1.77" height="1.77"/><rect class="cls-2" x="23.1" y="19.49" width="1.77" height="1.77"/><rect class="cls-2" x="21.33" y="19.49" width="1.77" height="1.77"/><rect class="cls-2" x="19.56" y="19.49" width="1.77" height="1.77"/><rect class="cls-2" x="17.79" y="19.49" width="1.77" height="1.77"/><rect class="cls-2" x="10.7" y="19.49" width="1.77" height="1.77"/><rect class="cls-2" x="8.92" y="19.49" width="1.77" height="1.77"/><rect class="cls-2" x="7.15" y="19.49" width="1.77" height="1.77"/><rect class="cls-2" x="5.38" y="19.49" width="1.77" height="1.77"/><rect class="cls-2" x="51.46" y="17.72" width="1.77" height="1.77"/><rect class="cls-2" x="49.69" y="17.72" width="1.77" height="1.77"/><rect class="cls-2" x="47.91" y="17.72" width="1.77" height="1.77"/><rect class="cls-2" x="46.14" y="17.72" width="1.77" height="1.77"/><rect class="cls-2" x="10.7" y="17.72" width="1.77" height="1.77"/><rect class="cls-2" x="8.92" y="17.72" width="1.77" height="1.77"/><rect class="cls-2" x="7.15" y="17.72" width="1.77" height="1.77"/><rect class="cls-2" x="5.38" y="17.72" width="1.77" height="1.77"/><rect class="cls-2" x="51.46" y="15.95" width="1.77" height="1.77"/><rect class="cls-2" x="49.69" y="15.95" width="1.77" height="1.77"/><rect class="cls-2" x="47.91" y="15.95" width="1.77" height="1.77"/><rect class="cls-2" x="46.14" y="15.95" width="1.77" height="1.77"/><rect class="cls-2" x="44.37" y="15.95" width="1.77" height="1.77"/><rect class="cls-2" x="42.6" y="15.95" width="1.77" height="1.77"/><rect class="cls-2" x="10.7" y="15.95" width="1.77" height="1.77"/><rect class="cls-2" x="8.92" y="15.95" width="1.77" height="1.77"/><rect class="cls-2" x="7.15" y="15.95" width="1.77" height="1.77"/><rect class="cls-2" x="5.38" y="15.95" width="1.77" height="1.77"/><rect class="cls-2" x="51.46" y="14.18" width="1.77" height="1.77"/><rect class="cls-2" x="49.69" y="14.18" width="1.77" height="1.77"/><rect class="cls-2" x="47.91" y="14.18" width="1.77" height="1.77"/><rect class="cls-2" x="46.14" y="14.18" width="1.77" height="1.77"/><rect class="cls-2" x="44.37" y="14.18" width="1.77" height="1.77"/><rect class="cls-2" x="42.6" y="14.18" width="1.77" height="1.77"/><rect class="cls-2" x="40.82" y="14.18" width="1.77" height="1.77"/><rect class="cls-2" x="39.05" y="14.18" width="1.77" height="1.77"/><rect class="cls-2" x="37.28" y="14.18" width="1.77" height="1.77"/><rect class="cls-2" x="35.51" y="14.18" width="1.77" height="1.77"/><rect class="cls-2" x="14.24" y="14.18" width="1.77" height="1.77"/><rect class="cls-2" x="12.47" y="14.18" width="1.77" height="1.77"/><rect class="cls-2" x="10.7" y="14.18" width="1.77" height="1.77"/><rect class="cls-2" x="8.92" y="14.18" width="1.77" height="1.77"/><rect class="cls-2" x="7.15" y="14.18" width="1.77" height="1.77"/><rect class="cls-2" x="49.69" y="12.41" width="1.77" height="1.77"/><rect class="cls-2" x="47.91" y="12.41" width="1.77" height="1.77"/><rect class="cls-2" x="46.14" y="12.41" width="1.77" height="1.77"/><rect class="cls-2" x="44.37" y="12.41" width="1.77" height="1.77"/><rect class="cls-2" x="42.6" y="12.41" width="1.77" height="1.77"/><rect class="cls-2" x="40.82" y="12.41" width="1.77" height="1.77"/><rect class="cls-2" x="39.05" y="12.41" width="1.77" height="1.77"/><rect class="cls-2" x="37.28" y="12.41" width="1.77" height="1.77"/><rect class="cls-2" x="35.51" y="12.41" width="1.77" height="1.77"/><rect class="cls-2" x="33.74" y="12.41" width="1.77" height="1.77"/><rect class="cls-2" x="31.96" y="12.41" width="1.77" height="1.77"/><rect class="cls-2" x="30.19" y="12.41" width="1.77" height="1.77"/><rect class="cls-2" x="28.42" y="12.41" width="1.77" height="1.77"/><rect class="cls-2" x="26.65" y="12.41" width="1.77" height="1.77"/><rect class="cls-2" x="24.87" y="12.41" width="1.77" height="1.77"/><rect class="cls-2" x="23.1" y="12.41" width="1.77" height="1.77"/><rect class="cls-2" x="21.33" y="12.41" width="1.77" height="1.77"/><rect class="cls-2" x="19.56" y="12.41" width="1.77" height="1.77"/><rect class="cls-2" x="17.79" y="12.41" width="1.77" height="1.77"/><rect class="cls-2" x="16.01" y="12.41" width="1.77" height="1.77"/><rect class="cls-2" x="14.24" y="12.41" width="1.77" height="1.77"/><rect class="cls-2" x="12.47" y="12.41" width="1.77" height="1.77"/><rect class="cls-2" x="10.7" y="12.41" width="1.77" height="1.77"/><rect class="cls-2" x="8.92" y="12.41" width="1.77" height="1.77"/><rect class="cls-2" x="7.15" y="12.41" width="1.77" height="1.77"/><rect class="cls-2" x="49.69" y="10.63" width="1.77" height="1.77"/><rect class="cls-2" x="47.91" y="10.63" width="1.77" height="1.77"/><rect class="cls-2" x="46.14" y="10.63" width="1.77" height="1.77"/><rect class="cls-2" x="44.37" y="10.63" width="1.77" height="1.77"/><rect class="cls-2" x="42.6" y="10.63" width="1.77" height="1.77"/><rect class="cls-2" x="40.82" y="10.63" width="1.77" height="1.77"/><rect class="cls-2" x="39.05" y="10.63" width="1.77" height="1.77"/><rect class="cls-2" x="37.28" y="10.63" width="1.77" height="1.77"/><rect class="cls-2" x="35.51" y="10.63" width="1.77" height="1.77"/><rect class="cls-2" x="33.74" y="10.63" width="1.77" height="1.77"/><rect class="cls-2" x="31.96" y="10.63" width="1.77" height="1.77"/><rect class="cls-2" x="30.19" y="10.63" width="1.77" height="1.77"/><rect class="cls-2" x="28.42" y="10.63" width="1.77" height="1.77"/><rect class="cls-2" x="26.65" y="10.63" width="1.77" height="1.77"/><rect class="cls-2" x="24.87" y="10.63" width="1.77" height="1.77"/><rect class="cls-2" x="23.1" y="10.63" width="1.77" height="1.77"/><rect class="cls-2" x="21.33" y="10.63" width="1.77" height="1.77"/><rect class="cls-2" x="19.56" y="10.63" width="1.77" height="1.77"/><rect class="cls-2" x="17.79" y="10.63" width="1.77" height="1.77"/><rect class="cls-2" x="16.01" y="10.63" width="1.77" height="1.77"/><rect class="cls-2" x="14.24" y="10.63" width="1.77" height="1.77"/><rect class="cls-2" x="12.47" y="10.63" width="1.77" height="1.77"/><rect class="cls-2" x="10.7" y="10.63" width="1.77" height="1.77"/><rect class="cls-2" x="8.92" y="10.63" width="1.77" height="1.77"/><rect class="cls-2" x="47.91" y="8.86" width="1.77" height="1.77"/><rect class="cls-2" x="46.14" y="8.86" width="1.77" height="1.77"/><rect class="cls-2" x="44.37" y="8.86" width="1.77" height="1.77"/><rect class="cls-2" x="42.6" y="8.86" width="1.77" height="1.77"/><rect class="cls-2" x="40.82" y="8.86" width="1.77" height="1.77"/><rect class="cls-2" x="39.05" y="8.86" width="1.77" height="1.77"/><rect class="cls-2" x="37.28" y="8.86" width="1.77" height="1.77"/><rect class="cls-2" x="35.51" y="8.86" width="1.77" height="1.77"/><rect class="cls-2" x="33.74" y="8.86" width="1.77" height="1.77"/><rect class="cls-2" x="31.96" y="8.86" width="1.77" height="1.77"/><rect class="cls-2" x="30.19" y="8.86" width="1.77" height="1.77"/><rect class="cls-2" x="28.42" y="8.86" width="1.77" height="1.77"/><rect class="cls-2" x="26.65" y="8.86" width="1.77" height="1.77"/><rect class="cls-2" x="24.87" y="8.86" width="1.77" height="1.77"/><rect class="cls-2" x="23.1" y="8.86" width="1.77" height="1.77"/><rect class="cls-2" x="21.33" y="8.86" width="1.77" height="1.77"/><rect class="cls-2" x="19.56" y="8.86" width="1.77" height="1.77"/><rect class="cls-2" x="17.79" y="8.86" width="1.77" height="1.77"/><rect class="cls-2" x="16.01" y="8.86" width="1.77" height="1.77"/><rect class="cls-2" x="14.24" y="8.86" width="1.77" height="1.77"/><rect class="cls-2" x="12.47" y="8.86" width="1.77" height="1.77"/><rect class="cls-2" x="10.7" y="8.86" width="1.77" height="1.77"/><rect class="cls-2" x="46.14" y="7.09" width="1.77" height="1.77"/><rect class="cls-2" x="44.37" y="7.09" width="1.77" height="1.77"/><rect class="cls-2" x="42.6" y="7.09" width="1.77" height="1.77"/><rect class="cls-2" x="40.82" y="7.09" width="1.77" height="1.77"/><rect class="cls-2" x="39.05" y="7.09" width="1.77" height="1.77"/><rect class="cls-2" x="37.28" y="7.09" width="1.77" height="1.77"/><rect class="cls-2" x="35.51" y="7.09" width="1.77" height="1.77"/><rect class="cls-2" x="33.74" y="7.09" width="1.77" height="1.77"/><rect class="cls-2" x="31.96" y="7.09" width="1.77" height="1.77"/><rect class="cls-2" x="30.19" y="7.09" width="1.77" height="1.77"/><rect class="cls-2" x="28.42" y="7.09" width="1.77" height="1.77"/><rect class="cls-2" x="26.65" y="7.09" width="1.77" height="1.77"/><rect class="cls-2" x="24.87" y="7.09" width="1.77" height="1.77"/><rect class="cls-2" x="23.1" y="7.09" width="1.77" height="1.77"/><rect class="cls-2" x="21.33" y="7.09" width="1.77" height="1.77"/><rect class="cls-2" x="19.56" y="7.09" width="1.77" height="1.77"/><rect class="cls-2" x="17.79" y="7.09" width="1.77" height="1.77"/><rect class="cls-2" x="16.01" y="7.09" width="1.77" height="1.77"/><rect class="cls-2" x="14.24" y="7.09" width="1.77" height="1.77"/><rect class="cls-2" x="12.47" y="7.09" width="1.77" height="1.77"/><rect class="cls-2" x="44.37" y="5.32" width="1.77" height="1.77"/><rect class="cls-2" x="42.6" y="5.32" width="1.77" height="1.77"/><rect class="cls-2" x="40.82" y="5.32" width="1.77" height="1.77"/><rect class="cls-2" x="39.05" y="5.32" width="1.77" height="1.77"/><rect class="cls-2" x="37.28" y="5.32" width="1.77" height="1.77"/><rect class="cls-2" x="35.51" y="5.32" width="1.77" height="1.77"/><rect class="cls-2" x="33.74" y="5.32" width="1.77" height="1.77"/><rect class="cls-2" x="31.96" y="5.32" width="1.77" height="1.77"/><rect class="cls-2" x="30.19" y="5.32" width="1.77" height="1.77"/><rect class="cls-2" x="28.42" y="5.32" width="1.77" height="1.77"/><rect class="cls-2" x="26.65" y="5.32" width="1.77" height="1.77"/><rect class="cls-2" x="24.87" y="5.32" width="1.77" height="1.77"/><rect class="cls-2" x="23.1" y="5.32" width="1.77" height="1.77"/><rect class="cls-2" x="21.33" y="5.32" width="1.77" height="1.77"/><rect class="cls-2" x="19.56" y="5.32" width="1.77" height="1.77"/><rect class="cls-2" x="17.79" y="5.32" width="1.77" height="1.77"/><rect class="cls-2" x="16.01" y="5.32" width="1.77" height="1.77"/><rect class="cls-2" x="14.24" y="5.32" width="1.77" height="1.77"/><rect class="cls-2" x="42.6" y="3.54" width="1.77" height="1.77"/><rect class="cls-2" x="40.82" y="3.54" width="1.77" height="1.77"/><rect class="cls-2" x="39.05" y="3.54" width="1.77" height="1.77"/><rect class="cls-2" x="37.28" y="3.54" width="1.77" height="1.77"/><rect class="cls-2" x="35.51" y="3.54" width="1.77" height="1.77"/><rect class="cls-2" x="33.74" y="3.54" width="1.77" height="1.77"/><rect class="cls-2" x="31.96" y="3.54" width="1.77" height="1.77"/><rect class="cls-2" x="30.19" y="3.54" width="1.77" height="1.77"/><rect class="cls-2" x="28.42" y="3.54" width="1.77" height="1.77"/><rect class="cls-2" x="26.65" y="3.54" width="1.77" height="1.77"/><rect class="cls-2" x="24.87" y="3.54" width="1.77" height="1.77"/><rect class="cls-2" x="23.1" y="3.54" width="1.77" height="1.77"/><rect class="cls-2" x="21.33" y="3.54" width="1.77" height="1.77"/><rect class="cls-2" x="19.56" y="3.54" width="1.77" height="1.77"/><rect class="cls-2" x="17.79" y="3.54" width="1.77" height="1.77"/><rect class="cls-2" x="16.01" y="3.54" width="1.77" height="1.77"/><rect class="cls-2" x="40.82" y="1.77" width="1.77" height="1.77"/><rect class="cls-2" x="39.05" y="1.77" width="1.77" height="1.77"/><rect class="cls-2" x="37.28" y="1.77" width="1.77" height="1.77"/><rect class="cls-2" x="35.51" y="1.77" width="1.77" height="1.77"/><rect class="cls-2" x="33.74" y="1.77" width="1.77" height="1.77"/><rect class="cls-2" x="31.96" y="1.77" width="1.77" height="1.77"/><rect class="cls-2" x="30.19" y="1.77" width="1.77" height="1.77"/><rect class="cls-2" x="28.42" y="1.77" width="1.77" height="1.77"/><rect class="cls-2" x="26.65" y="1.77" width="1.77" height="1.77"/><rect class="cls-2" x="24.87" y="1.77" width="1.77" height="1.77"/><rect class="cls-2" x="23.1" y="1.77" width="1.77" height="1.77"/><rect class="cls-2" x="21.33" y="1.77" width="1.77" height="1.77"/><rect class="cls-2" x="19.56" y="1.77" width="1.77" height="1.77"/><rect class="cls-2" x="33.74" width="1.77" height="1.77"/><rect class="cls-2" x="31.96" width="1.77" height="1.77"/><rect class="cls-2" x="30.19" width="1.77" height="1.77"/><rect class="cls-2" x="28.42" width="1.77" height="1.77"/><rect class="cls-2" x="26.65" width="1.77" height="1.77"/><rect class="cls-2" x="24.87" width="1.77" height="1.77"/><rect class="cls-2" x="23.1" width="1.77" height="1.77"/></svg>