<svg id="Spotify" xmlns="http://www.w3.org/2000/svg" viewBox="0 0 51.39 75.4"><defs><style>.cls-1{fill:#137b3e;}.cls-2{fill:#157a3d;}</style></defs><path class="cls-1" d="M19.49,80V79h.76v1Zm.87,0V79h.76v1Zm-.87-1.09v-1h.76v1Zm.87,0v-1h.76v1Zm-.87-1.09v-1h.76v1Zm.87,0v-1h.76v1Zm.87,0v-1H22v1Zm.87,0v-1h.77v1Zm-2.61-1.09v-1h.76v1Zm.87,0v-1h.76v1Zm1.74,0v-1h.77v1Zm.88,0v-1h.76v1Zm-3.49-1.09v-1h.76v1Zm.87,0v-1h.76v1Zm1.74,0v-1h.77v1Zm.88,0v-1h.76v1Zm-3.49-1.09v-1h.76v1Zm.87,0v-1h.76v1Zm1.74,0v-1h.77v1Zm.88,0v-1h.76v1Zm-3.49-1.09v-1h.76v1Zm.87,0v-1h.76v1Zm.87,0v-1H22v1Zm.87,0v-1h.77v1Z" transform="translate(-13.07 -4.59)"/><path class="cls-1" d="M24.81,80V79h.77v1Zm.88,0V79h.76v1Zm-.88-1.09v-1h.77v1Zm.88,0v-1h.76v1Zm-.88-1.09v-1h.77v1Zm.88,0v-1h.76v1Zm-.88-1.09v-1h.77v1Zm.88,0v-1h.76v1Zm.87,0v-1h.76v1Zm.87,0v-1h.76v1Zm-2.62-1.09v-1h.77v1Zm.88,0v-1h.76v1Zm1.74,0v-1h.76v1Z" transform="translate(-13.07 -4.59)"/><path class="cls-1" d="M30.11,80V79h.76v1ZM31,80V79h.76v1Zm.87,0V79h.76v1Zm.87,0V79h.77v1ZM29.23,78.9v-1H30v1Zm.88,0v-1h.76v1Zm-.88-1.09v-1H30v1Zm.88,0v-1h.76v1Zm.87,0v-1h.76v1Zm.87,0v-1h.76v1Zm.87,0v-1h.77v1Zm-3.49-1.09v-1H30v1Zm.88,0v-1h.76v1Zm1.74,0v-1h.76v1Zm.87,0v-1h.77v1Zm-2.61-1.09v-1h.76v1Zm.87,0v-1h.76v1Zm.87,0v-1h.76v1Z" transform="translate(-13.07 -4.59)"/><path class="cls-1" d="M34.8,76.72v-1h.76v1Zm.87,0v-1h.76v1Zm.87,0v-1h.76v1Zm.87,0v-1h.77v1Z" transform="translate(-13.07 -4.59)"/><path class="cls-1" d="M38.64,80V79h.76v1Zm.87,0V79h.76v1Zm.87,0V79h.77v1Zm0-1.09v-1h.77v1Zm.88,0v-1H42v1Zm-.88-1.09v-1h.77v1Zm.88,0v-1H42v1Zm-1.75-1.09v-1h.76v1Zm.87,0v-1h.77v1Zm-1.74-1.09v-1h.76v1Zm.87,0v-1h.76v1Zm-.87-1.09v-1h.76v1Zm.87,0v-1h.76v1Zm0-1.09v-1h.76v1Zm.87,0v-1h.77v1Zm.88,0v-1H42v1Z" transform="translate(-13.07 -4.59)"/><path class="cls-1" d="M44,80V79h.77v1Zm.88,0V79h.76v1Zm.87,0V79h.76v1Zm.87,0V79h.76v1ZM43.08,78.9v-1h.76v1Zm.87,0v-1h.77v1Zm1.75,0v-1h.76v1Zm.87,0v-1h.76v1ZM44,77.81v-1h.77v1Zm.88,0v-1h.76v1Zm.87,0v-1h.76v1Zm.87,0v-1h.76v1Zm-.87-1.09v-1h.76v1Zm.87,0v-1h.76v1ZM44,75.63v-1h.77v1Zm.88,0v-1h.76v1Zm.87,0v-1h.76v1Z" transform="translate(-13.07 -4.59)"/><path class="cls-1" d="M50.23,80V79H51v1Zm-.87-1.09v-1h.76v1Zm.87,0v-1H51v1Zm.87,0v-1h.76v1Zm-1.74-1.09v-1h.76v1Zm.87,0v-1H51v1Zm.87,0v-1h.76v1Zm-2.62-1.09v-1h.76v1Zm.88,0v-1h.76v1Zm1.74,0v-1h.76v1Zm.87,0v-1h.77v1Zm-3.49-1.09v-1h.76v1Zm.88,0v-1h.76v1Zm1.74,0v-1h.76v1Zm.87,0v-1h.77v1Z" transform="translate(-13.07 -4.59)"/><path class="cls-1" d="M54.67,80V79h.76v1Zm.87,0V79h.76v1Zm.87,0V79h.76v1Zm.87,0V79H58v1ZM53.79,78.9v-1h.76v1Zm.88,0v-1h.76v1Zm-.88-1.09v-1h.76v1Zm.88,0v-1h.76v1Zm.87,0v-1h.76v1Zm.87,0v-1h.76v1Zm.87,0v-1H58v1Zm-3.49-1.09v-1h.76v1Zm.88,0v-1h.76v1Zm1.74,0v-1h.76v1Zm.87,0v-1H58v1Zm-2.61-1.09v-1h.76v1Zm.87,0v-1h.76v1Zm.87,0v-1h.76v1Z" transform="translate(-13.07 -4.59)"/><rect class="cls-2" x="28.36" y="51.39" width="1.77" height="1.77"/><rect class="cls-2" x="26.58" y="51.39" width="1.77" height="1.77"/><rect class="cls-2" x="24.81" y="51.39" width="1.77" height="1.77"/><rect class="cls-2" x="23.04" y="51.39" width="1.77" height="1.77"/><rect class="cls-2" x="21.27" y="51.39" width="1.77" height="1.77"/><rect class="cls-2" x="35.44" y="49.62" width="1.77" height="1.77"/><rect class="cls-2" x="33.67" y="49.62" width="1.77" height="1.77"/><rect class="cls-2" x="31.9" y="49.62" width="1.77" height="1.77"/><rect class="cls-2" x="30.13" y="49.62" width="1.77" height="1.77"/><rect class="cls-2" x="28.36" y="49.62" width="1.77" height="1.77"/><rect class="cls-2" x="26.58" y="49.62" width="1.77" height="1.77"/><rect class="cls-2" x="24.81" y="49.62" width="1.77" height="1.77"/><rect class="cls-2" x="23.04" y="49.62" width="1.77" height="1.77"/><rect class="cls-2" x="21.27" y="49.62" width="1.77" height="1.77"/><rect class="cls-2" x="19.49" y="49.62" width="1.77" height="1.77"/><rect class="cls-2" x="17.72" y="49.62" width="1.77" height="1.77"/><rect class="cls-2" x="15.95" y="49.62" width="1.77" height="1.77"/><rect class="cls-2" x="38.99" y="47.85" width="1.77" height="1.77"/><rect class="cls-2" x="37.22" y="47.85" width="1.77" height="1.77"/><rect class="cls-2" x="35.44" y="47.85" width="1.77" height="1.77"/><rect class="cls-2" x="33.67" y="47.85" width="1.77" height="1.77"/><rect class="cls-2" x="31.9" y="47.85" width="1.77" height="1.77"/><rect class="cls-2" x="30.13" y="47.85" width="1.77" height="1.77"/><rect class="cls-2" x="28.36" y="47.85" width="1.77" height="1.77"/><rect class="cls-2" x="26.58" y="47.85" width="1.77" height="1.77"/><rect class="cls-2" x="24.81" y="47.85" width="1.77" height="1.77"/><rect class="cls-2" x="23.04" y="47.85" width="1.77" height="1.77"/><rect class="cls-2" x="21.27" y="47.85" width="1.77" height="1.77"/><rect class="cls-2" x="19.49" y="47.85" width="1.77" height="1.77"/><rect class="cls-2" x="17.72" y="47.85" width="1.77" height="1.77"/><rect class="cls-2" x="15.95" y="47.85" width="1.77" height="1.77"/><rect class="cls-2" x="14.18" y="47.85" width="1.77" height="1.77"/><rect class="cls-2" x="40.76" y="46.08" width="1.77" height="1.77"/><rect class="cls-2" x="38.99" y="46.08" width="1.77" height="1.77"/><rect class="cls-2" x="37.22" y="46.08" width="1.77" height="1.77"/><rect class="cls-2" x="35.44" y="46.08" width="1.77" height="1.77"/><rect class="cls-2" x="33.67" y="46.08" width="1.77" height="1.77"/><rect class="cls-2" x="31.9" y="46.08" width="1.77" height="1.77"/><rect class="cls-2" x="30.13" y="46.08" width="1.77" height="1.77"/><rect class="cls-2" x="28.36" y="46.08" width="1.77" height="1.77"/><rect class="cls-2" x="26.58" y="46.08" width="1.77" height="1.77"/><rect class="cls-2" x="24.81" y="46.08" width="1.77" height="1.77"/><rect class="cls-2" x="23.04" y="46.08" width="1.77" height="1.77"/><rect class="cls-2" x="21.27" y="46.08" width="1.77" height="1.77"/><rect class="cls-2" x="19.49" y="46.08" width="1.77" height="1.77"/><rect class="cls-2" x="17.72" y="46.08" width="1.77" height="1.77"/><rect class="cls-2" x="15.95" y="46.08" width="1.77" height="1.77"/><rect class="cls-2" x="14.18" y="46.08" width="1.77" height="1.77"/><rect class="cls-2" x="12.41" y="46.08" width="1.77" height="1.77"/><rect class="cls-2" x="10.63" y="46.08" width="1.77" height="1.77"/><rect class="cls-2" x="42.53" y="44.31" width="1.77" height="1.77"/><rect class="cls-2" x="40.76" y="44.31" width="1.77" height="1.77"/><rect class="cls-2" x="38.99" y="44.31" width="1.77" height="1.77"/><rect class="cls-2" x="37.22" y="44.31" width="1.77" height="1.77"/><rect class="cls-2" x="35.44" y="44.31" width="1.77" height="1.77"/><rect class="cls-2" x="33.67" y="44.31" width="1.77" height="1.77"/><rect class="cls-2" x="31.9" y="44.31" width="1.77" height="1.77"/><rect class="cls-2" x="30.13" y="44.31" width="1.77" height="1.77"/><rect class="cls-2" x="28.36" y="44.31" width="1.77" height="1.77"/><rect class="cls-2" x="26.58" y="44.31" width="1.77" height="1.77"/><rect class="cls-2" x="24.81" y="44.31" width="1.77" height="1.77"/><rect class="cls-2" x="23.04" y="44.31" width="1.77" height="1.77"/><rect class="cls-2" x="21.27" y="44.31" width="1.77" height="1.77"/><rect class="cls-2" x="19.49" y="44.31" width="1.77" height="1.77"/><rect class="cls-2" x="17.72" y="44.31" width="1.77" height="1.77"/><rect class="cls-2" x="15.95" y="44.31" width="1.77" height="1.77"/><rect class="cls-2" x="14.18" y="44.31" width="1.77" height="1.77"/><rect class="cls-2" x="12.41" y="44.31" width="1.77" height="1.77"/><rect class="cls-2" x="10.63" y="44.31" width="1.77" height="1.77"/><rect class="cls-2" x="8.86" y="44.31" width="1.77" height="1.77"/><rect class="cls-2" x="44.31" y="42.53" width="1.77" height="1.77"/><rect class="cls-2" x="42.53" y="42.53" width="1.77" height="1.77"/><rect class="cls-2" x="40.76" y="42.53" width="1.77" height="1.77"/><rect class="cls-2" x="38.99" y="42.53" width="1.77" height="1.77"/><rect class="cls-2" x="37.22" y="42.53" width="1.77" height="1.77"/><rect class="cls-2" x="35.44" y="42.53" width="1.77" height="1.77"/><rect class="cls-2" x="33.67" y="42.53" width="1.77" height="1.77"/><rect class="cls-2" x="31.9" y="42.53" width="1.77" height="1.77"/><rect class="cls-2" x="30.13" y="42.53" width="1.77" height="1.77"/><rect class="cls-2" x="28.36" y="42.53" width="1.77" height="1.77"/><rect class="cls-2" x="26.58" y="42.53" width="1.77" height="1.77"/><rect class="cls-2" x="24.81" y="42.53" width="1.77" height="1.77"/><rect class="cls-2" x="23.04" y="42.53" width="1.77" height="1.77"/><rect class="cls-2" x="21.27" y="42.53" width="1.77" height="1.77"/><rect class="cls-2" x="19.49" y="42.53" width="1.77" height="1.77"/><rect class="cls-2" x="17.72" y="42.53" width="1.77" height="1.77"/><rect class="cls-2" x="15.95" y="42.53" width="1.77" height="1.77"/><rect class="cls-2" x="14.18" y="42.53" width="1.77" height="1.77"/><rect class="cls-2" x="12.41" y="42.53" width="1.77" height="1.77"/><rect class="cls-2" x="10.63" y="42.53" width="1.77" height="1.77"/><rect class="cls-2" x="8.86" y="42.53" width="1.77" height="1.77"/><rect class="cls-2" x="7.09" y="42.53" width="1.77" height="1.77"/><rect class="cls-2" x="46.08" y="40.76" width="1.77" height="1.77"/><rect class="cls-2" x="44.31" y="40.76" width="1.77" height="1.77"/><rect class="cls-2" x="42.53" y="40.76" width="1.77" height="1.77"/><rect class="cls-2" x="40.76" y="40.76" width="1.77" height="1.77"/><rect class="cls-2" x="38.99" y="40.76" width="1.77" height="1.77"/><rect class="cls-2" x="33.67" y="40.76" width="1.77" height="1.77"/><rect class="cls-2" x="31.9" y="40.76" width="1.77" height="1.77"/><rect class="cls-2" x="30.13" y="40.76" width="1.77" height="1.77"/><rect class="cls-2" x="28.36" y="40.76" width="1.77" height="1.77"/><rect class="cls-2" x="26.58" y="40.76" width="1.77" height="1.77"/><rect class="cls-2" x="24.81" y="40.76" width="1.77" height="1.77"/><rect class="cls-2" x="23.04" y="40.76" width="1.77" height="1.77"/><rect class="cls-2" x="21.27" y="40.76" width="1.77" height="1.77"/><rect class="cls-2" x="19.49" y="40.76" width="1.77" height="1.77"/><rect class="cls-2" x="17.72" y="40.76" width="1.77" height="1.77"/><rect class="cls-2" x="15.95" y="40.76" width="1.77" height="1.77"/><rect class="cls-2" x="14.18" y="40.76" width="1.77" height="1.77"/><rect class="cls-2" x="12.41" y="40.76" width="1.77" height="1.77"/><rect class="cls-2" x="10.63" y="40.76" width="1.77" height="1.77"/><rect class="cls-2" x="8.86" y="40.76" width="1.77" height="1.77"/><rect class="cls-2" x="7.09" y="40.76" width="1.77" height="1.77"/><rect class="cls-2" x="5.32" y="40.76" width="1.77" height="1.77"/><rect class="cls-2" x="3.54" y="40.76" width="1.77" height="1.77"/><rect class="cls-2" x="46.08" y="38.99" width="1.77" height="1.77"/><rect class="cls-2" x="44.31" y="38.99" width="1.77" height="1.77"/><rect class="cls-2" x="42.53" y="38.99" width="1.77" height="1.77"/><rect class="cls-2" x="40.76" y="38.99" width="1.77" height="1.77"/><rect class="cls-2" x="38.99" y="38.99" width="1.77" height="1.77"/><rect class="cls-2" x="24.81" y="38.99" width="1.77" height="1.77"/><rect class="cls-2" x="23.04" y="38.99" width="1.77" height="1.77"/><rect class="cls-2" x="21.27" y="38.99" width="1.77" height="1.77"/><rect class="cls-2" x="19.49" y="38.99" width="1.77" height="1.77"/><rect class="cls-2" x="17.72" y="38.99" width="1.77" height="1.77"/><rect class="cls-2" x="15.95" y="38.99" width="1.77" height="1.77"/><rect class="cls-2" x="10.63" y="38.99" width="1.77" height="1.77"/><rect class="cls-2" x="8.86" y="38.99" width="1.77" height="1.77"/><rect class="cls-2" x="7.09" y="38.99" width="1.77" height="1.77"/><rect class="cls-2" x="5.32" y="38.99" width="1.77" height="1.77"/><rect class="cls-2" x="3.54" y="38.99" width="1.77" height="1.77"/><rect class="cls-2" x="47.85" y="37.22" width="1.77" height="1.77"/><rect class="cls-2" x="46.08" y="37.22" width="1.77" height="1.77"/><rect class="cls-2" x="44.31" y="37.22" width="1.77" height="1.77"/><rect class="cls-2" x="42.53" y="37.22" width="1.77" height="1.77"/><rect class="cls-2" x="40.76" y="37.22" width="1.77" height="1.77"/><rect class="cls-2" x="38.99" y="37.22" width="1.77" height="1.77"/><rect class="cls-2" x="37.22" y="37.22" width="1.77" height="1.77"/><rect class="cls-2" x="10.63" y="37.22" width="1.77" height="1.77"/><rect class="cls-2" x="8.86" y="37.22" width="1.77" height="1.77"/><rect class="cls-2" x="7.09" y="37.22" width="1.77" height="1.77"/><rect class="cls-2" x="5.32" y="37.22" width="1.77" height="1.77"/><rect class="cls-2" x="3.54" y="37.22" width="1.77" height="1.77"/><rect class="cls-2" x="47.85" y="35.44" width="1.77" height="1.77"/><rect class="cls-2" x="46.08" y="35.44" width="1.77" height="1.77"/><rect class="cls-2" x="44.31" y="35.44" width="1.77" height="1.77"/><rect class="cls-2" x="42.53" y="35.44" width="1.77" height="1.77"/><rect class="cls-2" x="40.76" y="35.44" width="1.77" height="1.77"/><rect class="cls-2" x="38.99" y="35.44" width="1.77" height="1.77"/><rect class="cls-2" x="37.22" y="35.44" width="1.77" height="1.77"/><rect class="cls-2" x="35.44" y="35.44" width="1.77" height="1.77"/><rect class="cls-2" x="33.67" y="35.44" width="1.77" height="1.77"/><rect class="cls-2" x="10.63" y="35.44" width="1.77" height="1.77"/><rect class="cls-2" x="8.86" y="35.44" width="1.77" height="1.77"/><rect class="cls-2" x="7.09" y="35.44" width="1.77" height="1.77"/><rect class="cls-2" x="5.32" y="35.44" width="1.77" height="1.77"/><rect class="cls-2" x="3.54" y="35.44" width="1.77" height="1.77"/><rect class="cls-2" x="1.77" y="35.44" width="1.77" height="1.77"/><rect class="cls-2" x="47.85" y="33.67" width="1.77" height="1.77"/><rect class="cls-2" x="46.08" y="33.67" width="1.77" height="1.77"/><rect class="cls-2" x="44.31" y="33.67" width="1.77" height="1.77"/><rect class="cls-2" x="42.53" y="33.67" width="1.77" height="1.77"/><rect class="cls-2" x="40.76" y="33.67" width="1.77" height="1.77"/><rect class="cls-2" x="38.99" y="33.67" width="1.77" height="1.77"/><rect class="cls-2" x="37.22" y="33.67" width="1.77" height="1.77"/><rect class="cls-2" x="35.44" y="33.67" width="1.77" height="1.77"/><rect class="cls-2" x="33.67" y="33.67" width="1.77" height="1.77"/><rect class="cls-2" x="31.9" y="33.67" width="1.77" height="1.77"/><rect class="cls-2" x="30.13" y="33.67" width="1.77" height="1.77"/><rect class="cls-2" x="28.36" y="33.67" width="1.77" height="1.77"/><rect class="cls-2" x="26.58" y="33.67" width="1.77" height="1.77"/><rect class="cls-2" x="24.81" y="33.67" width="1.77" height="1.77"/><rect class="cls-2" x="23.04" y="33.67" width="1.77" height="1.77"/><rect class="cls-2" x="21.27" y="33.67" width="1.77" height="1.77"/><rect class="cls-2" x="19.49" y="33.67" width="1.77" height="1.77"/><rect class="cls-2" x="17.72" y="33.67" width="1.77" height="1.77"/><rect class="cls-2" x="15.95" y="33.67" width="1.77" height="1.77"/><rect class="cls-2" x="14.18" y="33.67" width="1.77" height="1.77"/><rect class="cls-2" x="12.41" y="33.67" width="1.77" height="1.77"/><rect class="cls-2" x="10.63" y="33.67" width="1.77" height="1.77"/><rect class="cls-2" x="8.86" y="33.67" width="1.77" height="1.77"/><rect class="cls-2" x="7.09" y="33.67" width="1.77" height="1.77"/><rect class="cls-2" x="5.32" y="33.67" width="1.77" height="1.77"/><rect class="cls-2" x="3.54" y="33.67" width="1.77" height="1.77"/><rect class="cls-2" x="1.77" y="33.67" width="1.77" height="1.77"/><rect class="cls-2" x="47.85" y="31.9" width="1.77" height="1.77"/><rect class="cls-2" x="46.08" y="31.9" width="1.77" height="1.77"/><rect class="cls-2" x="44.31" y="31.9" width="1.77" height="1.77"/><rect class="cls-2" x="42.53" y="31.9" width="1.77" height="1.77"/><rect class="cls-2" x="40.76" y="31.9" width="1.77" height="1.77"/><rect class="cls-2" x="35.44" y="31.9" width="1.77" height="1.77"/><rect class="cls-2" x="33.67" y="31.9" width="1.77" height="1.77"/><rect class="cls-2" x="31.9" y="31.9" width="1.77" height="1.77"/><rect class="cls-2" x="30.13" y="31.9" width="1.77" height="1.77"/><rect class="cls-2" x="28.36" y="31.9" width="1.77" height="1.77"/><rect class="cls-2" x="26.58" y="31.9" width="1.77" height="1.77"/><rect class="cls-2" x="24.81" y="31.9" width="1.77" height="1.77"/><rect class="cls-2" x="23.04" y="31.9" width="1.77" height="1.77"/><rect class="cls-2" x="21.27" y="31.9" width="1.77" height="1.77"/><rect class="cls-2" x="19.49" y="31.9" width="1.77" height="1.77"/><rect class="cls-2" x="17.72" y="31.9" width="1.77" height="1.77"/><rect class="cls-2" x="15.95" y="31.9" width="1.77" height="1.77"/><rect class="cls-2" x="14.18" y="31.9" width="1.77" height="1.77"/><rect class="cls-2" x="12.41" y="31.9" width="1.77" height="1.77"/><rect class="cls-2" x="10.63" y="31.9" width="1.77" height="1.77"/><rect class="cls-2" x="8.86" y="31.9" width="1.77" height="1.77"/><rect class="cls-2" x="7.09" y="31.9" width="1.77" height="1.77"/><rect class="cls-2" x="5.32" y="31.9" width="1.77" height="1.77"/><rect class="cls-2" x="3.54" y="31.9" width="1.77" height="1.77"/><rect class="cls-2" x="1.77" y="31.9" width="1.77" height="1.77"/><rect class="cls-2" x="49.62" y="30.13" width="1.77" height="1.77"/><rect class="cls-2" x="47.85" y="30.13" width="1.77" height="1.77"/><rect class="cls-2" x="46.08" y="30.13" width="1.77" height="1.77"/><rect class="cls-2" x="44.31" y="30.13" width="1.77" height="1.77"/><rect class="cls-2" x="42.53" y="30.13" width="1.77" height="1.77"/><rect class="cls-2" x="40.76" y="30.13" width="1.77" height="1.77"/><rect class="cls-2" x="28.36" y="30.13" width="1.77" height="1.77"/><rect class="cls-2" x="26.58" y="30.13" width="1.77" height="1.77"/><rect class="cls-2" x="24.81" y="30.13" width="1.77" height="1.77"/><rect class="cls-2" x="23.04" y="30.13" width="1.77" height="1.77"/><rect class="cls-2" x="21.27" y="30.13" width="1.77" height="1.77"/><rect class="cls-2" x="19.49" y="30.13" width="1.77" height="1.77"/><rect class="cls-2" x="17.72" y="30.13" width="1.77" height="1.77"/><rect class="cls-2" x="15.95" y="30.13" width="1.77" height="1.77"/><rect class="cls-2" x="14.18" y="30.13" width="1.77" height="1.77"/><rect class="cls-2" x="8.86" y="30.13" width="1.77" height="1.77"/><rect class="cls-2" x="7.09" y="30.13" width="1.77" height="1.77"/><rect class="cls-2" x="5.32" y="30.13" width="1.77" height="1.77"/><rect class="cls-2" x="3.54" y="30.13" width="1.77" height="1.77"/><rect class="cls-2" x="1.77" y="30.13" width="1.77" height="1.77"/><rect class="cls-2" x="49.62" y="28.36" width="1.77" height="1.77"/><rect class="cls-2" x="47.85" y="28.36" width="1.77" height="1.77"/><rect class="cls-2" x="46.08" y="28.36" width="1.77" height="1.77"/><rect class="cls-2" x="44.31" y="28.36" width="1.77" height="1.77"/><rect class="cls-2" x="42.53" y="28.36" width="1.77" height="1.77"/><rect class="cls-2" x="40.76" y="28.36" width="1.77" height="1.77"/><rect class="cls-2" x="8.86" y="28.36" width="1.77" height="1.77"/><rect class="cls-2" x="7.09" y="28.36" width="1.77" height="1.77"/><rect class="cls-2" x="5.32" y="28.36" width="1.77" height="1.77"/><rect class="cls-2" x="3.54" y="28.36" width="1.77" height="1.77"/><rect class="cls-2" x="1.77" y="28.36" width="1.77" height="1.77"/><rect class="cls-2" y="28.36" width="1.77" height="1.77"/><rect class="cls-2" x="49.62" y="26.58" width="1.77" height="1.77"/><rect class="cls-2" x="47.85" y="26.58" width="1.77" height="1.77"/><rect class="cls-2" x="46.08" y="26.58" width="1.77" height="1.77"/><rect class="cls-2" x="44.31" y="26.58" width="1.77" height="1.77"/><rect class="cls-2" x="42.53" y="26.58" width="1.77" height="1.77"/><rect class="cls-2" x="40.76" y="26.58" width="1.77" height="1.77"/><rect class="cls-2" x="38.99" y="26.58" width="1.77" height="1.77"/><rect class="cls-2" x="37.22" y="26.58" width="1.77" height="1.77"/><rect class="cls-2" x="8.86" y="26.58" width="1.77" height="1.77"/><rect class="cls-2" x="7.09" y="26.58" width="1.77" height="1.77"/><rect class="cls-2" x="5.32" y="26.58" width="1.77" height="1.77"/><rect class="cls-2" x="3.54" y="26.58" width="1.77" height="1.77"/><rect class="cls-2" x="1.77" y="26.58" width="1.77" height="1.77"/><rect class="cls-2" y="26.58" width="1.77" height="1.77"/><rect class="cls-2" x="49.62" y="24.81" width="1.77" height="1.77"/><rect class="cls-2" x="47.85" y="24.81" width="1.77" height="1.77"/><rect class="cls-2" x="46.08" y="24.81" width="1.77" height="1.77"/><rect class="cls-2" x="44.31" y="24.81" width="1.77" height="1.77"/><rect class="cls-2" x="42.53" y="24.81" width="1.77" height="1.77"/><rect class="cls-2" x="40.76" y="24.81" width="1.77" height="1.77"/><rect class="cls-2" x="38.99" y="24.81" width="1.77" height="1.77"/><rect class="cls-2" x="37.22" y="24.81" width="1.77" height="1.77"/><rect class="cls-2" x="35.44" y="24.81" width="1.77" height="1.77"/><rect class="cls-2" x="33.67" y="24.81" width="1.77" height="1.77"/><rect class="cls-2" x="31.9" y="24.81" width="1.77" height="1.77"/><rect class="cls-2" x="30.13" y="24.81" width="1.77" height="1.77"/><rect class="cls-2" x="14.18" y="24.81" width="1.77" height="1.77"/><rect class="cls-2" x="12.41" y="24.81" width="1.77" height="1.77"/><rect class="cls-2" x="10.63" y="24.81" width="1.77" height="1.77"/><rect class="cls-2" x="8.86" y="24.81" width="1.77" height="1.77"/><rect class="cls-2" x="7.09" y="24.81" width="1.77" height="1.77"/><rect class="cls-2" x="5.32" y="24.81" width="1.77" height="1.77"/><rect class="cls-2" x="3.54" y="24.81" width="1.77" height="1.77"/><rect class="cls-2" x="1.77" y="24.81" width="1.77" height="1.77"/><rect class="cls-2" y="24.81" width="1.77" height="1.77"/><rect class="cls-2" x="49.62" y="23.04" width="1.77" height="1.77"/><rect class="cls-2" x="47.85" y="23.04" width="1.77" height="1.77"/><rect class="cls-2" x="46.08" y="23.04" width="1.77" height="1.77"/><rect class="cls-2" x="44.31" y="23.04" width="1.77" height="1.77"/><rect class="cls-2" x="38.99" y="23.04" width="1.77" height="1.77"/><rect class="cls-2" x="37.22" y="23.04" width="1.77" height="1.77"/><rect class="cls-2" x="35.44" y="23.04" width="1.77" height="1.77"/><rect class="cls-2" x="33.67" y="23.04" width="1.77" height="1.77"/><rect class="cls-2" x="31.9" y="23.04" width="1.77" height="1.77"/><rect class="cls-2" x="30.13" y="23.04" width="1.77" height="1.77"/><rect class="cls-2" x="28.36" y="23.04" width="1.77" height="1.77"/><rect class="cls-2" x="26.58" y="23.04" width="1.77" height="1.77"/><rect class="cls-2" x="24.81" y="23.04" width="1.77" height="1.77"/><rect class="cls-2" x="23.04" y="23.04" width="1.77" height="1.77"/><rect class="cls-2" x="21.27" y="23.04" width="1.77" height="1.77"/><rect class="cls-2" x="19.49" y="23.04" width="1.77" height="1.77"/><rect class="cls-2" x="17.72" y="23.04" width="1.77" height="1.77"/><rect class="cls-2" x="15.95" y="23.04" width="1.77" height="1.77"/><rect class="cls-2" x="14.18" y="23.04" width="1.77" height="1.77"/><rect class="cls-2" x="12.41" y="23.04" width="1.77" height="1.77"/><rect class="cls-2" x="10.63" y="23.04" width="1.77" height="1.77"/><rect class="cls-2" x="8.86" y="23.04" width="1.77" height="1.77"/><rect class="cls-2" x="7.09" y="23.04" width="1.77" height="1.77"/><rect class="cls-2" x="5.32" y="23.04" width="1.77" height="1.77"/><rect class="cls-2" x="3.54" y="23.04" width="1.77" height="1.77"/><rect class="cls-2" x="1.77" y="23.04" width="1.77" height="1.77"/><rect class="cls-2" y="23.04" width="1.77" height="1.77"/><rect class="cls-2" x="49.62" y="21.27" width="1.77" height="1.77"/><rect class="cls-2" x="47.85" y="21.27" width="1.77" height="1.77"/><rect class="cls-2" x="46.08" y="21.27" width="1.77" height="1.77"/><rect class="cls-2" x="35.44" y="21.27" width="1.77" height="1.77"/><rect class="cls-2" x="33.67" y="21.27" width="1.77" height="1.77"/><rect class="cls-2" x="31.9" y="21.27" width="1.77" height="1.77"/><rect class="cls-2" x="30.13" y="21.27" width="1.77" height="1.77"/><rect class="cls-2" x="28.36" y="21.27" width="1.77" height="1.77"/><rect class="cls-2" x="26.58" y="21.27" width="1.77" height="1.77"/><rect class="cls-2" x="24.81" y="21.27" width="1.77" height="1.77"/><rect class="cls-2" x="23.04" y="21.27" width="1.77" height="1.77"/><rect class="cls-2" x="21.27" y="21.27" width="1.77" height="1.77"/><rect class="cls-2" x="19.49" y="21.27" width="1.77" height="1.77"/><rect class="cls-2" x="17.72" y="21.27" width="1.77" height="1.77"/><rect class="cls-2" x="15.95" y="21.27" width="1.77" height="1.77"/><rect class="cls-2" x="14.18" y="21.27" width="1.77" height="1.77"/><rect class="cls-2" x="12.41" y="21.27" width="1.77" height="1.77"/><rect class="cls-2" x="10.63" y="21.27" width="1.77" height="1.77"/><rect class="cls-2" x="8.86" y="21.27" width="1.77" height="1.77"/><rect class="cls-2" x="7.09" y="21.27" width="1.77" height="1.77"/><rect class="cls-2" x="5.32" y="21.27" width="1.77" height="1.77"/><rect class="cls-2" x="3.54" y="21.27" width="1.77" height="1.77"/><rect class="cls-2" x="1.77" y="21.27" width="1.77" height="1.77"/><rect class="cls-2" y="21.27" width="1.77" height="1.77"/><rect class="cls-2" x="49.62" y="19.49" width="1.77" height="1.77"/><rect class="cls-2" x="47.85" y="19.49" width="1.77" height="1.77"/><rect class="cls-2" x="46.08" y="19.49" width="1.77" height="1.77"/><rect class="cls-2" x="30.13" y="19.49" width="1.77" height="1.77"/><rect class="cls-2" x="28.36" y="19.49" width="1.77" height="1.77"/><rect class="cls-2" x="26.58" y="19.49" width="1.77" height="1.77"/><rect class="cls-2" x="24.81" y="19.49" width="1.77" height="1.77"/><rect class="cls-2" x="23.04" y="19.49" width="1.77" height="1.77"/><rect class="cls-2" x="21.27" y="19.49" width="1.77" height="1.77"/><rect class="cls-2" x="19.49" y="19.49" width="1.77" height="1.77"/><rect class="cls-2" x="17.72" y="19.49" width="1.77" height="1.77"/><rect class="cls-2" x="15.95" y="19.49" width="1.77" height="1.77"/><rect class="cls-2" x="14.18" y="19.49" width="1.77" height="1.77"/><rect class="cls-2" x="7.09" y="19.49" width="1.77" height="1.77"/><rect class="cls-2" x="5.32" y="19.49" width="1.77" height="1.77"/><rect class="cls-2" x="3.54" y="19.49" width="1.77" height="1.77"/><rect class="cls-2" x="1.77" y="19.49" width="1.77" height="1.77"/><rect class="cls-2" x="47.85" y="17.72" width="1.77" height="1.77"/><rect class="cls-2" x="46.08" y="17.72" width="1.77" height="1.77"/><rect class="cls-2" x="44.31" y="17.72" width="1.77" height="1.77"/><rect class="cls-2" x="42.53" y="17.72" width="1.77" height="1.77"/><rect class="cls-2" x="7.09" y="17.72" width="1.77" height="1.77"/><rect class="cls-2" x="5.32" y="17.72" width="1.77" height="1.77"/><rect class="cls-2" x="3.54" y="17.72" width="1.77" height="1.77"/><rect class="cls-2" x="1.77" y="17.72" width="1.77" height="1.77"/><rect class="cls-2" x="47.85" y="15.95" width="1.77" height="1.77"/><rect class="cls-2" x="46.08" y="15.95" width="1.77" height="1.77"/><rect class="cls-2" x="44.31" y="15.95" width="1.77" height="1.77"/><rect class="cls-2" x="42.53" y="15.95" width="1.77" height="1.77"/><rect class="cls-2" x="40.76" y="15.95" width="1.77" height="1.77"/><rect class="cls-2" x="38.99" y="15.95" width="1.77" height="1.77"/><rect class="cls-2" x="7.09" y="15.95" width="1.77" height="1.77"/><rect class="cls-2" x="5.32" y="15.95" width="1.77" height="1.77"/><rect class="cls-2" x="3.54" y="15.95" width="1.77" height="1.77"/><rect class="cls-2" x="1.77" y="15.95" width="1.77" height="1.77"/><rect class="cls-2" x="47.85" y="14.18" width="1.77" height="1.77"/><rect class="cls-2" x="46.08" y="14.18" width="1.77" height="1.77"/><rect class="cls-2" x="44.31" y="14.18" width="1.77" height="1.77"/><rect class="cls-2" x="42.53" y="14.18" width="1.77" height="1.77"/><rect class="cls-2" x="40.76" y="14.18" width="1.77" height="1.77"/><rect class="cls-2" x="38.99" y="14.18" width="1.77" height="1.77"/><rect class="cls-2" x="37.22" y="14.18" width="1.77" height="1.77"/><rect class="cls-2" x="35.44" y="14.18" width="1.77" height="1.77"/><rect class="cls-2" x="33.67" y="14.18" width="1.77" height="1.77"/><rect class="cls-2" x="31.9" y="14.18" width="1.77" height="1.77"/><rect class="cls-2" x="10.63" y="14.18" width="1.77" height="1.77"/><rect class="cls-2" x="8.86" y="14.18" width="1.77" height="1.77"/><rect class="cls-2" x="7.09" y="14.18" width="1.77" height="1.77"/><rect class="cls-2" x="5.32" y="14.18" width="1.77" height="1.77"/><rect class="cls-2" x="3.54" y="14.18" width="1.77" height="1.77"/><rect class="cls-2" x="46.08" y="12.41" width="1.77" height="1.77"/><rect class="cls-2" x="44.31" y="12.41" width="1.77" height="1.77"/><rect class="cls-2" x="42.53" y="12.41" width="1.77" height="1.77"/><rect class="cls-2" x="40.76" y="12.41" width="1.77" height="1.77"/><rect class="cls-2" x="38.99" y="12.41" width="1.77" height="1.77"/><rect class="cls-2" x="37.22" y="12.41" width="1.77" height="1.77"/><rect class="cls-2" x="35.44" y="12.41" width="1.77" height="1.77"/><rect class="cls-2" x="33.67" y="12.41" width="1.77" height="1.77"/><rect class="cls-2" x="31.9" y="12.41" width="1.77" height="1.77"/><rect class="cls-2" x="30.13" y="12.41" width="1.77" height="1.77"/><rect class="cls-2" x="28.36" y="12.41" width="1.77" height="1.77"/><rect class="cls-2" x="26.58" y="12.41" width="1.77" height="1.77"/><rect class="cls-2" x="24.81" y="12.41" width="1.77" height="1.77"/><rect class="cls-2" x="23.04" y="12.41" width="1.77" height="1.77"/><rect class="cls-2" x="21.27" y="12.41" width="1.77" height="1.77"/><rect class="cls-2" x="19.49" y="12.41" width="1.77" height="1.77"/><rect class="cls-2" x="17.72" y="12.41" width="1.77" height="1.77"/><rect class="cls-2" x="15.95" y="12.41" width="1.77" height="1.77"/><rect class="cls-2" x="14.18" y="12.41" width="1.77" height="1.77"/><rect class="cls-2" x="12.41" y="12.41" width="1.77" height="1.77"/><rect class="cls-2" x="10.63" y="12.41" width="1.77" height="1.77"/><rect class="cls-2" x="8.86" y="12.41" width="1.77" height="1.77"/><rect class="cls-2" x="7.09" y="12.41" width="1.77" height="1.77"/><rect class="cls-2" x="5.32" y="12.41" width="1.77" height="1.77"/><rect class="cls-2" x="3.54" y="12.41" width="1.77" height="1.77"/><rect class="cls-2" x="46.08" y="10.63" width="1.77" height="1.77"/><rect class="cls-2" x="44.31" y="10.63" width="1.77" height="1.77"/><rect class="cls-2" x="42.53" y="10.63" width="1.77" height="1.77"/><rect class="cls-2" x="40.76" y="10.63" width="1.77" height="1.77"/><rect class="cls-2" x="38.99" y="10.63" width="1.77" height="1.77"/><rect class="cls-2" x="37.22" y="10.63" width="1.77" height="1.77"/><rect class="cls-2" x="35.44" y="10.63" width="1.77" height="1.77"/><rect class="cls-2" x="33.67" y="10.63" width="1.77" height="1.77"/><rect class="cls-2" x="31.9" y="10.63" width="1.77" height="1.77"/><rect class="cls-2" x="30.13" y="10.63" width="1.77" height="1.77"/><rect class="cls-2" x="28.36" y="10.63" width="1.77" height="1.77"/><rect class="cls-2" x="26.58" y="10.63" width="1.77" height="1.77"/><rect class="cls-2" x="24.81" y="10.63" width="1.77" height="1.77"/><rect class="cls-2" x="23.04" y="10.63" width="1.77" height="1.77"/><rect class="cls-2" x="21.27" y="10.63" width="1.77" height="1.77"/><rect class="cls-2" x="19.49" y="10.63" width="1.77" height="1.77"/><rect class="cls-2" x="17.72" y="10.63" width="1.77" height="1.77"/><rect class="cls-2" x="15.95" y="10.63" width="1.77" height="1.77"/><rect class="cls-2" x="14.18" y="10.63" width="1.77" height="1.77"/><rect class="cls-2" x="12.41" y="10.63" width="1.77" height="1.77"/><rect class="cls-2" x="10.63" y="10.63" width="1.77" height="1.77"/><rect class="cls-2" x="8.86" y="10.63" width="1.77" height="1.77"/><rect class="cls-2" x="7.09" y="10.63" width="1.77" height="1.77"/><rect class="cls-2" x="5.32" y="10.63" width="1.77" height="1.77"/><rect class="cls-2" x="44.31" y="8.86" width="1.77" height="1.77"/><rect class="cls-2" x="42.53" y="8.86" width="1.77" height="1.77"/><rect class="cls-2" x="40.76" y="8.86" width="1.77" height="1.77"/><rect class="cls-2" x="38.99" y="8.86" width="1.77" height="1.77"/><rect class="cls-2" x="37.22" y="8.86" width="1.77" height="1.77"/><rect class="cls-2" x="35.44" y="8.86" width="1.77" height="1.77"/><rect class="cls-2" x="33.67" y="8.86" width="1.77" height="1.77"/><rect class="cls-2" x="31.9" y="8.86" width="1.77" height="1.77"/><rect class="cls-2" x="30.13" y="8.86" width="1.77" height="1.77"/><rect class="cls-2" x="28.36" y="8.86" width="1.77" height="1.77"/><rect class="cls-2" x="26.58" y="8.86" width="1.77" height="1.77"/><rect class="cls-2" x="24.81" y="8.86" width="1.77" height="1.77"/><rect class="cls-2" x="23.04" y="8.86" width="1.77" height="1.77"/><rect class="cls-2" x="21.27" y="8.86" width="1.77" height="1.77"/><rect class="cls-2" x="19.49" y="8.86" width="1.77" height="1.77"/><rect class="cls-2" x="17.72" y="8.86" width="1.77" height="1.77"/><rect class="cls-2" x="15.95" y="8.86" width="1.77" height="1.77"/><rect class="cls-2" x="14.18" y="8.86" width="1.77" height="1.77"/><rect class="cls-2" x="12.41" y="8.86" width="1.77" height="1.77"/><rect class="cls-2" x="10.63" y="8.86" width="1.77" height="1.77"/><rect class="cls-2" x="8.86" y="8.86" width="1.77" height="1.77"/><rect class="cls-2" x="7.09" y="8.86" width="1.77" height="1.77"/><rect class="cls-2" x="42.53" y="7.09" width="1.77" height="1.77"/><rect class="cls-2" x="40.76" y="7.09" width="1.77" height="1.77"/><rect class="cls-2" x="38.99" y="7.09" width="1.77" height="1.77"/><rect class="cls-2" x="37.22" y="7.09" width="1.77" height="1.77"/><rect class="cls-2" x="35.44" y="7.09" width="1.77" height="1.77"/><rect class="cls-2" x="33.67" y="7.09" width="1.77" height="1.77"/><rect class="cls-2" x="31.9" y="7.09" width="1.77" height="1.77"/><rect class="cls-2" x="30.13" y="7.09" width="1.77" height="1.77"/><rect class="cls-2" x="28.36" y="7.09" width="1.77" height="1.77"/><rect class="cls-2" x="26.58" y="7.09" width="1.77" height="1.77"/><rect class="cls-2" x="24.81" y="7.09" width="1.77" height="1.77"/><rect class="cls-2" x="23.04" y="7.09" width="1.77" height="1.77"/><rect class="cls-2" x="21.27" y="7.09" width="1.77" height="1.77"/><rect class="cls-2" x="19.49" y="7.09" width="1.77" height="1.77"/><rect class="cls-2" x="17.72" y="7.09" width="1.77" height="1.77"/><rect class="cls-2" x="15.95" y="7.09" width="1.77" height="1.77"/><rect class="cls-2" x="14.18" y="7.09" width="1.77" height="1.77"/><rect class="cls-2" x="12.41" y="7.09" width="1.77" height="1.77"/><rect class="cls-2" x="10.63" y="7.09" width="1.77" height="1.77"/><rect class="cls-2" x="8.86" y="7.09" width="1.77" height="1.77"/><rect class="cls-2" x="40.76" y="5.32" width="1.77" height="1.77"/><rect class="cls-2" x="38.99" y="5.32" width="1.77" height="1.77"/><rect class="cls-2" x="37.22" y="5.32" width="1.77" height="1.77"/><rect class="cls-2" x="35.44" y="5.32" width="1.77" height="1.77"/><rect class="cls-2" x="33.67" y="5.32" width="1.77" height="1.77"/><rect class="cls-2" x="31.9" y="5.32" width="1.77" height="1.77"/><rect class="cls-2" x="30.13" y="5.32" width="1.77" height="1.77"/><rect class="cls-2" x="28.36" y="5.32" width="1.77" height="1.77"/><rect class="cls-2" x="26.58" y="5.32" width="1.77" height="1.77"/><rect class="cls-2" x="24.81" y="5.32" width="1.77" height="1.77"/><rect class="cls-2" x="23.04" y="5.32" width="1.77" height="1.77"/><rect class="cls-2" x="21.27" y="5.32" width="1.77" height="1.77"/><rect class="cls-2" x="19.49" y="5.32" width="1.77" height="1.77"/><rect class="cls-2" x="17.72" y="5.32" width="1.77" height="1.77"/><rect class="cls-2" x="15.95" y="5.32" width="1.77" height="1.77"/><rect class="cls-2" x="14.18" y="5.32" width="1.77" height="1.77"/><rect class="cls-2" x="12.41" y="5.32" width="1.77" height="1.77"/><rect class="cls-2" x="10.63" y="5.32" width="1.77" height="1.77"/><rect class="cls-2" x="38.99" y="3.54" width="1.77" height="1.77"/><rect class="cls-2" x="37.22" y="3.54" width="1.77" height="1.77"/><rect class="cls-2" x="35.44" y="3.54" width="1.77" height="1.77"/><rect class="cls-2" x="33.67" y="3.54" width="1.77" height="1.77"/><rect class="cls-2" x="31.9" y="3.54" width="1.77" height="1.77"/><rect class="cls-2" x="30.13" y="3.54" width="1.77" height="1.77"/><rect class="cls-2" x="28.36" y="3.54" width="1.77" height="1.77"/><rect class="cls-2" x="26.58" y="3.54" width="1.77" height="1.77"/><rect class="cls-2" x="24.81" y="3.54" width="1.77" height="1.77"/><rect class="cls-2" x="23.04" y="3.54" width="1.77" height="1.77"/><rect class="cls-2" x="21.27" y="3.54" width="1.77" height="1.77"/><rect class="cls-2" x="19.49" y="3.54" width="1.77" height="1.77"/><rect class="cls-2" x="17.72" y="3.54" width="1.77" height="1.77"/><rect class="cls-2" x="15.95" y="3.54" width="1.77" height="1.77"/><rect class="cls-2" x="14.18" y="3.54" width="1.77" height="1.77"/><rect class="cls-2" x="12.41" y="3.54" width="1.77" height="1.77"/><rect class="cls-2" x="37.22" y="1.77" width="1.77" height="1.77"/><rect class="cls-2" x="35.44" y="1.77" width="1.77" height="1.77"/><rect class="cls-2" x="33.67" y="1.77" width="1.77" height="1.77"/><rect class="cls-2" x="31.9" y="1.77" width="1.77" height="1.77"/><rect class="cls-2" x="30.13" y="1.77" width="1.77" height="1.77"/><rect class="cls-2" x="28.36" y="1.77" width="1.77" height="1.77"/><rect class="cls-2" x="26.58" y="1.77" width="1.77" height="1.77"/><rect class="cls-2" x="24.81" y="1.77" width="1.77" height="1.77"/><rect class="cls-2" x="23.04" y="1.77" width="1.77" height="1.77"/><rect class="cls-2" x="21.27" y="1.77" width="1.77" height="1.77"/><rect class="cls-2" x="19.49" y="1.77" width="1.77" height="1.77"/><rect class="cls-2" x="17.72" y="1.77" width="1.77" height="1.77"/><rect class="cls-2" x="15.95" y="1.77" width="1.77" height="1.77"/><rect class="cls-2" x="30.13" width="1.77" height="1.77"/><rect class="cls-2" x="28.36" width="1.77" height="1.77"/><rect class="cls-2" x="26.58" width="1.77" height="1.77"/><rect class="cls-2" x="24.81" width="1.77" height="1.77"/><rect class="cls-2" x="23.04" width="1.77" height="1.77"/><rect class="cls-2" x="21.27" width="1.77" height="1.77"/><rect class="cls-2" x="19.49" width="1.77" height="1.77"/></svg>