<svg id="Text_Cue" data-name="Text Cue" xmlns="http://www.w3.org/2000/svg" viewBox="0 0 63.47 72.44"><defs><style>.cls-1{fill:#137b3e;}.cls-2{fill:#157a3d;}</style></defs><path class="cls-1" d="M20,80V78.82h.92V80ZM21,80V78.82H22V80ZM20,78.68V77.51h.92v1.17Zm1.05,0V77.51H22v1.17ZM20,77.36V76.19h.92v1.17Zm1.05,0V76.19H22v1.17ZM20,76.05V74.87h.92v1.18Zm1.05,0V74.87H22v1.18ZM20,74.73V73.55h.92v1.18Zm1.05,0V73.55H22v1.18ZM20,73.41V72.24h.92v1.17Zm1.05,0V72.24H22v1.17ZM17.88,72.1V70.92h.92V72.1Zm1.05,0V70.92h.92V72.1Zm1.06,0V70.92h.92V72.1Zm1.05,0V70.92H22V72.1Zm1.05,0V70.92H23V72.1Zm1.06,0V70.92h.92V72.1Z" transform="translate(-7.03 -7.56)"/><path class="cls-1" d="M24.51,80V78.82h.92V80Zm1.06,0V78.82h.92V80Zm1.05,0V78.82h.92V80Zm1.06,0V78.82h.92V80Zm-4.22-1.32V77.51h.92v1.17Zm1.05,0V77.51h.92v1.17Zm-1.05-1.32V76.19h.92v1.17Zm1.05,0V76.19h.92v1.17Zm1.06,0V76.19h.92v1.17Zm1.05,0V76.19h.92v1.17Zm1.06,0V76.19h.92v1.17Zm-4.22-1.31V74.87h.92v1.18Zm1.05,0V74.87h.92v1.18Zm2.11,0V74.87h.92v1.18Zm1.06,0V74.87h.92v1.18Zm-3.17-1.32V73.55h.92v1.18Zm1.06,0V73.55h.92v1.18Zm1.05,0V73.55h.92v1.18Z" transform="translate(-7.03 -7.56)"/><path class="cls-1" d="M30,80V78.82h.92V80ZM31,80V78.82h.92V80Zm2.11,0V78.82h.92V80Zm1.06,0V78.82h.92V80ZM30,78.68V77.51h.92v1.17Zm1.05,0V77.51h.92v1.17Zm1.06,0V77.51H33v1.17Zm1.05,0V77.51h.92v1.17Zm1.06,0V77.51h.92v1.17ZM31,77.36V76.19h.92v1.17Zm1.06,0V76.19H33v1.17Zm1.05,0V76.19h.92v1.17ZM30,76.05V74.87h.92v1.18Zm1.05,0V74.87h.92v1.18Zm1.06,0V74.87H33v1.18Zm1.05,0V74.87h.92v1.18Zm1.06,0V74.87h.92v1.18ZM30,74.73V73.55h.92v1.18Zm1.05,0V73.55h.92v1.18Zm2.11,0V73.55h.92v1.18Zm1.06,0V73.55h.92v1.18Z" transform="translate(-7.03 -7.56)"/><path class="cls-1" d="M37.68,80V78.82h.92V80Zm1,0V78.82h.92V80Zm-2.11-1.32V77.51h.92v1.17Zm1.06,0V77.51h.92v1.17Zm-1.06-1.32V76.19h.92v1.17Zm1.06,0V76.19h.92v1.17Zm-1.06-1.31V74.87h.92v1.18Zm1.06,0V74.87h.92v1.18Zm-1.06-1.32V73.55h.92v1.18Zm1.06,0V73.55h.92v1.18Zm1,0V73.55h.92v1.18Zm-2.11-1.32V72.24h.92v1.17Zm1.06,0V72.24h.92v1.17ZM36.62,72.1V70.92h.92V72.1Zm1.06,0V70.92h.92V72.1Z" transform="translate(-7.03 -7.56)"/><path class="cls-1" d="M43.57,80V78.82h.92V80Zm1.06,0V78.82h.92V80Zm1,0V78.82h.92V80Zm1,0V78.82h.92V80Zm-4.21-1.32V77.51h.92v1.17Zm1,0V77.51h.92v1.17Zm-1-1.32V76.19h.92v1.17Zm1,0V76.19h.92v1.17Zm-1-1.31V74.87h.92v1.18Zm1,0V74.87h.92v1.18Zm-1-1.32V73.55h.92v1.18Zm1,0V73.55h.92v1.18Zm-1-1.32V72.24h.92v1.17Zm1,0V72.24h.92v1.17Zm0-1.31V70.92h.92V72.1Zm1.06,0V70.92h.92V72.1Zm1,0V70.92h.92V72.1Zm1,0V70.92h.92V72.1Z" transform="translate(-7.03 -7.56)"/><path class="cls-1" d="M48.93,80V78.82h.92V80ZM50,80V78.82h.92V80Zm1,0V78.82H52V80Zm1.05,0V78.82H53V80Zm-4.21-1.32V77.51h.92v1.17Zm1,0V77.51h.92v1.17Zm2.11,0V77.51H52v1.17Zm1.05,0V77.51H53v1.17Zm-4.21-1.32V76.19h.92v1.17Zm1,0V76.19h.92v1.17Zm2.11,0V76.19H52v1.17Zm1.05,0V76.19H53v1.17Zm-4.21-1.31V74.87h.92v1.18Zm1,0V74.87h.92v1.18Zm2.11,0V74.87H52v1.18Zm1.05,0V74.87H53v1.18Zm-4.21-1.32V73.55h.92v1.18Zm1,0V73.55h.92v1.18Zm2.11,0V73.55H52v1.18Zm1.05,0V73.55H53v1.18Z" transform="translate(-7.03 -7.56)"/><path class="cls-1" d="M55.57,80V78.82h.92V80Zm1.06,0V78.82h.92V80Zm1,0V78.82h.92V80Zm1,0V78.82h.92V80Zm-4.21-1.32V77.51h.92v1.17Zm1,0V77.51h.92v1.17Zm-1-1.32V76.19h.92v1.17Zm1,0V76.19h.92v1.17Zm1.06,0V76.19h.92v1.17Zm1,0V76.19h.92v1.17Zm1,0V76.19h.92v1.17Zm-4.21-1.31V74.87h.92v1.18Zm1,0V74.87h.92v1.18Zm2.11,0V74.87h.92v1.18Zm1,0V74.87h.92v1.18Zm-3.16-1.32V73.55h.92v1.18Zm1.06,0V73.55h.92v1.18Zm1,0V73.55h.92v1.18Z" transform="translate(-7.03 -7.56)"/><rect class="cls-2" x="59.24" y="38.81" width="2.12" height="1.39"/><rect class="cls-2" x="57.12" y="38.81" width="2.12" height="1.39"/><rect class="cls-2" x="55.01" y="38.81" width="2.12" height="1.39"/><rect class="cls-2" x="52.89" y="38.81" width="2.12" height="1.39"/><rect class="cls-2" x="50.78" y="38.81" width="2.12" height="1.39"/><rect class="cls-2" x="48.66" y="38.81" width="2.12" height="1.39"/><rect class="cls-2" x="46.54" y="38.81" width="2.12" height="1.39"/><rect class="cls-2" x="44.43" y="38.81" width="2.12" height="1.39"/><rect class="cls-2" x="42.31" y="38.81" width="2.12" height="1.39"/><rect class="cls-2" x="40.2" y="38.81" width="2.12" height="1.39"/><rect class="cls-2" x="38.08" y="38.81" width="2.12" height="1.39"/><rect class="cls-2" x="35.97" y="38.81" width="2.12" height="1.39"/><rect class="cls-2" x="33.85" y="38.81" width="2.12" height="1.39"/><rect class="cls-2" x="31.73" y="38.81" width="2.12" height="1.39"/><rect class="cls-2" x="29.62" y="38.81" width="2.12" height="1.39"/><rect class="cls-2" x="27.5" y="38.81" width="2.12" height="1.39"/><rect class="cls-2" x="25.39" y="38.81" width="2.12" height="1.39"/><rect class="cls-2" x="23.27" y="38.81" width="2.12" height="1.39"/><rect class="cls-2" x="21.16" y="38.81" width="2.12" height="1.39"/><rect class="cls-2" x="19.04" y="38.81" width="2.12" height="1.39"/><rect class="cls-2" x="16.93" y="38.81" width="2.12" height="1.39"/><rect class="cls-2" x="14.81" y="38.81" width="2.12" height="1.39"/><rect class="cls-2" x="12.69" y="38.81" width="2.12" height="1.39"/><rect class="cls-2" x="10.58" y="38.81" width="2.12" height="1.39"/><rect class="cls-2" x="8.46" y="38.81" width="2.12" height="1.39"/><rect class="cls-2" x="6.35" y="38.81" width="2.12" height="1.39"/><rect class="cls-2" x="4.23" y="38.81" width="2.12" height="1.39"/><rect class="cls-2" x="2.12" y="38.81" width="2.12" height="1.39"/><rect class="cls-2" x="59.24" y="37.43" width="2.12" height="1.39"/><rect class="cls-2" x="57.12" y="37.43" width="2.12" height="1.39"/><rect class="cls-2" x="55.01" y="37.43" width="2.12" height="1.39"/><rect class="cls-2" x="52.89" y="37.43" width="2.12" height="1.39"/><rect class="cls-2" x="50.78" y="37.43" width="2.12" height="1.39"/><rect class="cls-2" x="48.66" y="37.43" width="2.12" height="1.39"/><rect class="cls-2" x="46.54" y="37.43" width="2.12" height="1.39"/><rect class="cls-2" x="44.43" y="37.43" width="2.12" height="1.39"/><rect class="cls-2" x="42.31" y="37.43" width="2.12" height="1.39"/><rect class="cls-2" x="40.2" y="37.43" width="2.12" height="1.39"/><rect class="cls-2" x="38.08" y="37.43" width="2.12" height="1.39"/><rect class="cls-2" x="35.97" y="37.43" width="2.12" height="1.39"/><rect class="cls-2" x="33.85" y="37.43" width="2.12" height="1.39"/><rect class="cls-2" x="31.73" y="37.43" width="2.12" height="1.39"/><rect class="cls-2" x="29.62" y="37.43" width="2.12" height="1.39"/><rect class="cls-2" x="27.5" y="37.43" width="2.12" height="1.39"/><rect class="cls-2" x="25.39" y="37.43" width="2.12" height="1.39"/><rect class="cls-2" x="23.27" y="37.43" width="2.12" height="1.39"/><rect class="cls-2" x="21.16" y="37.43" width="2.12" height="1.39"/><rect class="cls-2" x="19.04" y="37.43" width="2.12" height="1.39"/><rect class="cls-2" x="16.93" y="37.43" width="2.12" height="1.39"/><rect class="cls-2" x="14.81" y="37.43" width="2.12" height="1.39"/><rect class="cls-2" x="12.69" y="37.43" width="2.12" height="1.39"/><rect class="cls-2" x="10.58" y="37.43" width="2.12" height="1.39"/><rect class="cls-2" x="8.46" y="37.43" width="2.12" height="1.39"/><rect class="cls-2" x="6.35" y="37.43" width="2.12" height="1.39"/><rect class="cls-2" x="4.23" y="37.43" width="2.12" height="1.39"/><rect class="cls-2" x="2.12" y="37.43" width="2.12" height="1.39"/><rect class="cls-2" x="61.35" y="36.04" width="2.12" height="1.39"/><rect class="cls-2" x="59.24" y="36.04" width="2.12" height="1.39"/><rect class="cls-2" x="57.12" y="36.04" width="2.12" height="1.39"/><rect class="cls-2" x="55.01" y="36.04" width="2.12" height="1.39"/><rect class="cls-2" x="52.89" y="36.04" width="2.12" height="1.39"/><rect class="cls-2" x="50.78" y="36.04" width="2.12" height="1.39"/><rect class="cls-2" x="48.66" y="36.04" width="2.12" height="1.39"/><rect class="cls-2" x="46.54" y="36.04" width="2.12" height="1.39"/><rect class="cls-2" x="44.43" y="36.04" width="2.12" height="1.39"/><rect class="cls-2" x="42.31" y="36.04" width="2.12" height="1.39"/><rect class="cls-2" x="40.2" y="36.04" width="2.12" height="1.39"/><rect class="cls-2" x="38.08" y="36.04" width="2.12" height="1.39"/><rect class="cls-2" x="35.97" y="36.04" width="2.12" height="1.39"/><rect class="cls-2" x="33.85" y="36.04" width="2.12" height="1.39"/><rect class="cls-2" x="31.73" y="36.04" width="2.12" height="1.39"/><rect class="cls-2" x="29.62" y="36.04" width="2.12" height="1.39"/><rect class="cls-2" x="27.5" y="36.04" width="2.12" height="1.39"/><rect class="cls-2" x="25.39" y="36.04" width="2.12" height="1.39"/><rect class="cls-2" x="23.27" y="36.04" width="2.12" height="1.39"/><rect class="cls-2" x="21.16" y="36.04" width="2.12" height="1.39"/><rect class="cls-2" x="19.04" y="36.04" width="2.12" height="1.39"/><rect class="cls-2" x="16.93" y="36.04" width="2.12" height="1.39"/><rect class="cls-2" x="14.81" y="36.04" width="2.12" height="1.39"/><rect class="cls-2" x="12.69" y="36.04" width="2.12" height="1.39"/><rect class="cls-2" x="10.58" y="36.04" width="2.12" height="1.39"/><rect class="cls-2" x="8.46" y="36.04" width="2.12" height="1.39"/><rect class="cls-2" x="6.35" y="36.04" width="2.12" height="1.39"/><rect class="cls-2" x="4.23" y="36.04" width="2.12" height="1.39"/><rect class="cls-2" x="2.12" y="36.04" width="2.12" height="1.39"/><rect class="cls-2" y="36.04" width="2.12" height="1.39"/><rect class="cls-2" x="61.35" y="34.65" width="2.12" height="1.39"/><rect class="cls-2" x="59.24" y="34.65" width="2.12" height="1.39"/><rect class="cls-2" x="57.12" y="34.65" width="2.12" height="1.39"/><rect class="cls-2" x="55.01" y="34.65" width="2.12" height="1.39"/><rect class="cls-2" x="6.35" y="34.65" width="2.12" height="1.39"/><rect class="cls-2" x="4.23" y="34.65" width="2.12" height="1.39"/><rect class="cls-2" x="2.12" y="34.65" width="2.12" height="1.39"/><rect class="cls-2" y="34.65" width="2.12" height="1.39"/><rect class="cls-2" x="61.35" y="33.27" width="2.12" height="1.39"/><rect class="cls-2" x="59.24" y="33.27" width="2.12" height="1.39"/><rect class="cls-2" x="57.12" y="33.27" width="2.12" height="1.39"/><rect class="cls-2" x="55.01" y="33.27" width="2.12" height="1.39"/><rect class="cls-2" x="52.89" y="33.27" width="2.12" height="1.39"/><rect class="cls-2" x="8.46" y="33.27" width="2.12" height="1.39"/><rect class="cls-2" x="6.35" y="33.27" width="2.12" height="1.39"/><rect class="cls-2" x="4.23" y="33.27" width="2.12" height="1.39"/><rect class="cls-2" x="2.12" y="33.27" width="2.12" height="1.39"/><rect class="cls-2" y="33.27" width="2.12" height="1.39"/><rect class="cls-2" x="61.35" y="31.88" width="2.12" height="1.39"/><rect class="cls-2" x="59.24" y="31.88" width="2.12" height="1.39"/><rect class="cls-2" x="57.12" y="31.88" width="2.12" height="1.39"/><rect class="cls-2" x="55.01" y="31.88" width="2.12" height="1.39"/><rect class="cls-2" x="52.89" y="31.88" width="2.12" height="1.39"/><rect class="cls-2" x="8.46" y="31.88" width="2.12" height="1.39"/><rect class="cls-2" x="6.35" y="31.88" width="2.12" height="1.39"/><rect class="cls-2" x="2.12" y="31.88" width="2.12" height="1.39"/><rect class="cls-2" y="31.88" width="2.12" height="1.39"/><rect class="cls-2" x="61.35" y="30.49" width="2.12" height="1.39"/><rect class="cls-2" x="59.24" y="30.49" width="2.12" height="1.39"/><rect class="cls-2" x="55.01" y="30.49" width="2.12" height="1.39"/><rect class="cls-2" x="52.89" y="30.49" width="2.12" height="1.39"/><rect class="cls-2" x="50.78" y="30.49" width="2.12" height="1.39"/><rect class="cls-2" x="10.58" y="30.49" width="2.12" height="1.39"/><rect class="cls-2" x="8.46" y="30.49" width="2.12" height="1.39"/><rect class="cls-2" x="6.35" y="30.49" width="2.12" height="1.39"/><rect class="cls-2" x="2.12" y="30.49" width="2.12" height="1.39"/><rect class="cls-2" y="30.49" width="2.12" height="1.39"/><rect class="cls-2" x="61.35" y="29.11" width="2.12" height="1.39"/><rect class="cls-2" x="59.24" y="29.11" width="2.12" height="1.39"/><rect class="cls-2" x="52.89" y="29.11" width="2.12" height="1.39"/><rect class="cls-2" x="50.78" y="29.11" width="2.12" height="1.39"/><rect class="cls-2" x="48.66" y="29.11" width="2.12" height="1.39"/><rect class="cls-2" x="12.69" y="29.11" width="2.12" height="1.39"/><rect class="cls-2" x="10.58" y="29.11" width="2.12" height="1.39"/><rect class="cls-2" x="8.46" y="29.11" width="2.12" height="1.39"/><rect class="cls-2" x="2.12" y="29.11" width="2.12" height="1.39"/><rect class="cls-2" y="29.11" width="2.12" height="1.39"/><rect class="cls-2" x="61.35" y="27.72" width="2.12" height="1.39"/><rect class="cls-2" x="59.24" y="27.72" width="2.12" height="1.39"/><rect class="cls-2" x="50.78" y="27.72" width="2.12" height="1.39"/><rect class="cls-2" x="48.66" y="27.72" width="2.12" height="1.39"/><rect class="cls-2" x="46.54" y="27.72" width="2.12" height="1.39"/><rect class="cls-2" x="31.73" y="27.72" width="2.12" height="1.39"/><rect class="cls-2" x="29.62" y="27.72" width="2.12" height="1.39"/><rect class="cls-2" x="12.69" y="27.72" width="2.12" height="1.39"/><rect class="cls-2" x="10.58" y="27.72" width="2.12" height="1.39"/><rect class="cls-2" x="2.12" y="27.72" width="2.12" height="1.39"/><rect class="cls-2" y="27.72" width="2.12" height="1.39"/><rect class="cls-2" x="61.35" y="26.34" width="2.12" height="1.39"/><rect class="cls-2" x="59.24" y="26.34" width="2.12" height="1.39"/><rect class="cls-2" x="48.66" y="26.34" width="2.12" height="1.39"/><rect class="cls-2" x="46.54" y="26.34" width="2.12" height="1.39"/><rect class="cls-2" x="35.97" y="26.34" width="2.12" height="1.39"/><rect class="cls-2" x="33.85" y="26.34" width="2.12" height="1.39"/><rect class="cls-2" x="31.73" y="26.34" width="2.12" height="1.39"/><rect class="cls-2" x="29.62" y="26.34" width="2.12" height="1.39"/><rect class="cls-2" x="27.5" y="26.34" width="2.12" height="1.39"/><rect class="cls-2" x="25.39" y="26.34" width="2.12" height="1.39"/><rect class="cls-2" x="14.81" y="26.34" width="2.12" height="1.39"/><rect class="cls-2" x="12.69" y="26.34" width="2.12" height="1.39"/><rect class="cls-2" x="10.58" y="26.34" width="2.12" height="1.39"/><rect class="cls-2" x="2.12" y="26.34" width="2.12" height="1.39"/><rect class="cls-2" y="26.34" width="2.12" height="1.39"/><rect class="cls-2" x="61.35" y="24.95" width="2.12" height="1.39"/><rect class="cls-2" x="59.24" y="24.95" width="2.12" height="1.39"/><rect class="cls-2" x="48.66" y="24.95" width="2.12" height="1.39"/><rect class="cls-2" x="46.54" y="24.95" width="2.12" height="1.39"/><rect class="cls-2" x="44.43" y="24.95" width="2.12" height="1.39"/><rect class="cls-2" x="38.08" y="24.95" width="2.12" height="1.39"/><rect class="cls-2" x="35.97" y="24.95" width="2.12" height="1.39"/><rect class="cls-2" x="33.85" y="24.95" width="2.12" height="1.39"/><rect class="cls-2" x="31.73" y="24.95" width="2.12" height="1.39"/><rect class="cls-2" x="29.62" y="24.95" width="2.12" height="1.39"/><rect class="cls-2" x="27.5" y="24.95" width="2.12" height="1.39"/><rect class="cls-2" x="25.39" y="24.95" width="2.12" height="1.39"/><rect class="cls-2" x="23.27" y="24.95" width="2.12" height="1.39"/><rect class="cls-2" x="16.93" y="24.95" width="2.12" height="1.39"/><rect class="cls-2" x="14.81" y="24.95" width="2.12" height="1.39"/><rect class="cls-2" x="12.69" y="24.95" width="2.12" height="1.39"/><rect class="cls-2" x="2.12" y="24.95" width="2.12" height="1.39"/><rect class="cls-2" y="24.95" width="2.12" height="1.39"/><rect class="cls-2" x="61.35" y="23.56" width="2.12" height="1.39"/><rect class="cls-2" x="59.24" y="23.56" width="2.12" height="1.39"/><rect class="cls-2" x="46.54" y="23.56" width="2.12" height="1.39"/><rect class="cls-2" x="44.43" y="23.56" width="2.12" height="1.39"/><rect class="cls-2" x="42.31" y="23.56" width="2.12" height="1.39"/><rect class="cls-2" x="38.08" y="23.56" width="2.12" height="1.39"/><rect class="cls-2" x="35.97" y="23.56" width="2.12" height="1.39"/><rect class="cls-2" x="33.85" y="23.56" width="2.12" height="1.39"/><rect class="cls-2" x="27.5" y="23.56" width="2.12" height="1.39"/><rect class="cls-2" x="25.39" y="23.56" width="2.12" height="1.39"/><rect class="cls-2" x="23.27" y="23.56" width="2.12" height="1.39"/><rect class="cls-2" x="16.93" y="23.56" width="2.12" height="1.39"/><rect class="cls-2" x="14.81" y="23.56" width="2.12" height="1.39"/><rect class="cls-2" x="2.12" y="23.56" width="2.12" height="1.39"/><rect class="cls-2" y="23.56" width="2.12" height="1.39"/><rect class="cls-2" x="61.35" y="22.18" width="2.12" height="1.39"/><rect class="cls-2" x="59.24" y="22.18" width="2.12" height="1.39"/><rect class="cls-2" x="44.43" y="22.18" width="2.12" height="1.39"/><rect class="cls-2" x="42.31" y="22.18" width="2.12" height="1.39"/><rect class="cls-2" x="40.2" y="22.18" width="2.12" height="1.39"/><rect class="cls-2" x="38.08" y="22.18" width="2.12" height="1.39"/><rect class="cls-2" x="35.97" y="22.18" width="2.12" height="1.39"/><rect class="cls-2" x="25.39" y="22.18" width="2.12" height="1.39"/><rect class="cls-2" x="23.27" y="22.18" width="2.12" height="1.39"/><rect class="cls-2" x="21.16" y="22.18" width="2.12" height="1.39"/><rect class="cls-2" x="19.04" y="22.18" width="2.12" height="1.39"/><rect class="cls-2" x="16.93" y="22.18" width="2.12" height="1.39"/><rect class="cls-2" x="2.12" y="22.18" width="2.12" height="1.39"/><rect class="cls-2" y="22.18" width="2.12" height="1.39"/><rect class="cls-2" x="61.35" y="20.79" width="2.12" height="1.39"/><rect class="cls-2" x="59.24" y="20.79" width="2.12" height="1.39"/><rect class="cls-2" x="44.43" y="20.79" width="2.12" height="1.39"/><rect class="cls-2" x="42.31" y="20.79" width="2.12" height="1.39"/><rect class="cls-2" x="40.2" y="20.79" width="2.12" height="1.39"/><rect class="cls-2" x="38.08" y="20.79" width="2.12" height="1.39"/><rect class="cls-2" x="23.27" y="20.79" width="2.12" height="1.39"/><rect class="cls-2" x="21.16" y="20.79" width="2.12" height="1.39"/><rect class="cls-2" x="19.04" y="20.79" width="2.12" height="1.39"/><rect class="cls-2" x="16.93" y="20.79" width="2.12" height="1.39"/><rect class="cls-2" x="2.12" y="20.79" width="2.12" height="1.39"/><rect class="cls-2" y="20.79" width="2.12" height="1.39"/><rect class="cls-2" x="61.35" y="19.41" width="2.12" height="1.39"/><rect class="cls-2" x="59.24" y="19.41" width="2.12" height="1.39"/><rect class="cls-2" x="42.31" y="19.41" width="2.12" height="1.39"/><rect class="cls-2" x="40.2" y="19.41" width="2.12" height="1.39"/><rect class="cls-2" x="21.16" y="19.41" width="2.12" height="1.39"/><rect class="cls-2" x="19.04" y="19.41" width="2.12" height="1.39"/><rect class="cls-2" x="16.93" y="19.41" width="2.12" height="1.39"/><rect class="cls-2" x="2.12" y="19.41" width="2.12" height="1.39"/><rect class="cls-2" y="19.41" width="2.12" height="1.39"/><rect class="cls-2" x="61.35" y="18.02" width="2.12" height="1.39"/><rect class="cls-2" x="59.24" y="18.02" width="2.12" height="1.39"/><rect class="cls-2" x="44.43" y="18.02" width="2.12" height="1.39"/><rect class="cls-2" x="42.31" y="18.02" width="2.12" height="1.39"/><rect class="cls-2" x="40.2" y="18.02" width="2.12" height="1.39"/><rect class="cls-2" x="19.04" y="18.02" width="2.12" height="1.39"/><rect class="cls-2" x="16.93" y="18.02" width="2.12" height="1.39"/><rect class="cls-2" x="2.12" y="18.02" width="2.12" height="1.39"/><rect class="cls-2" y="18.02" width="2.12" height="1.39"/><rect class="cls-2" x="61.35" y="16.63" width="2.12" height="1.39"/><rect class="cls-2" x="59.24" y="16.63" width="2.12" height="1.39"/><rect class="cls-2" x="46.54" y="16.63" width="2.12" height="1.39"/><rect class="cls-2" x="44.43" y="16.63" width="2.12" height="1.39"/><rect class="cls-2" x="42.31" y="16.63" width="2.12" height="1.39"/><rect class="cls-2" x="19.04" y="16.63" width="2.12" height="1.39"/><rect class="cls-2" x="16.93" y="16.63" width="2.12" height="1.39"/><rect class="cls-2" x="14.81" y="16.63" width="2.12" height="1.39"/><rect class="cls-2" x="2.12" y="16.63" width="2.12" height="1.39"/><rect class="cls-2" y="16.63" width="2.12" height="1.39"/><rect class="cls-2" x="61.35" y="15.25" width="2.12" height="1.39"/><rect class="cls-2" x="59.24" y="15.25" width="2.12" height="1.39"/><rect class="cls-2" x="48.66" y="15.25" width="2.12" height="1.39"/><rect class="cls-2" x="46.54" y="15.25" width="2.12" height="1.39"/><rect class="cls-2" x="44.43" y="15.25" width="2.12" height="1.39"/><rect class="cls-2" x="16.93" y="15.25" width="2.12" height="1.39"/><rect class="cls-2" x="14.81" y="15.25" width="2.12" height="1.39"/><rect class="cls-2" x="12.69" y="15.25" width="2.12" height="1.39"/><rect class="cls-2" x="2.12" y="15.25" width="2.12" height="1.39"/><rect class="cls-2" y="15.25" width="2.12" height="1.39"/><rect class="cls-2" x="61.35" y="13.86" width="2.12" height="1.39"/><rect class="cls-2" x="59.24" y="13.86" width="2.12" height="1.39"/><rect class="cls-2" x="48.66" y="13.86" width="2.12" height="1.39"/><rect class="cls-2" x="46.54" y="13.86" width="2.12" height="1.39"/><rect class="cls-2" x="44.43" y="13.86" width="2.12" height="1.39"/><rect class="cls-2" x="14.81" y="13.86" width="2.12" height="1.39"/><rect class="cls-2" x="12.69" y="13.86" width="2.12" height="1.39"/><rect class="cls-2" x="2.12" y="13.86" width="2.12" height="1.39"/><rect class="cls-2" y="13.86" width="2.12" height="1.39"/><rect class="cls-2" x="61.35" y="12.48" width="2.12" height="1.39"/><rect class="cls-2" x="59.24" y="12.48" width="2.12" height="1.39"/><rect class="cls-2" x="50.78" y="12.48" width="2.12" height="1.39"/><rect class="cls-2" x="48.66" y="12.48" width="2.12" height="1.39"/><rect class="cls-2" x="46.54" y="12.48" width="2.12" height="1.39"/><rect class="cls-2" x="14.81" y="12.48" width="2.12" height="1.39"/><rect class="cls-2" x="12.69" y="12.48" width="2.12" height="1.39"/><rect class="cls-2" x="10.58" y="12.48" width="2.12" height="1.39"/><rect class="cls-2" x="2.12" y="12.48" width="2.12" height="1.39"/><rect class="cls-2" y="12.48" width="2.12" height="1.39"/><rect class="cls-2" x="61.35" y="11.09" width="2.12" height="1.39"/><rect class="cls-2" x="59.24" y="11.09" width="2.12" height="1.39"/><rect class="cls-2" x="52.89" y="11.09" width="2.12" height="1.39"/><rect class="cls-2" x="50.78" y="11.09" width="2.12" height="1.39"/><rect class="cls-2" x="48.66" y="11.09" width="2.12" height="1.39"/><rect class="cls-2" x="12.69" y="11.09" width="2.12" height="1.39"/><rect class="cls-2" x="10.58" y="11.09" width="2.12" height="1.39"/><rect class="cls-2" x="8.46" y="11.09" width="2.12" height="1.39"/><rect class="cls-2" x="2.12" y="11.09" width="2.12" height="1.39"/><rect class="cls-2" y="11.09" width="2.12" height="1.39"/><rect class="cls-2" x="61.35" y="9.7" width="2.12" height="1.39"/><rect class="cls-2" x="59.24" y="9.7" width="2.12" height="1.39"/><rect class="cls-2" x="52.89" y="9.7" width="2.12" height="1.39"/><rect class="cls-2" x="50.78" y="9.7" width="2.12" height="1.39"/><rect class="cls-2" x="48.66" y="9.7" width="2.12" height="1.39"/><rect class="cls-2" x="10.58" y="9.7" width="2.12" height="1.39"/><rect class="cls-2" x="8.46" y="9.7" width="2.12" height="1.39"/><rect class="cls-2" x="2.12" y="9.7" width="2.12" height="1.39"/><rect class="cls-2" y="9.7" width="2.12" height="1.39"/><rect class="cls-2" x="61.35" y="8.32" width="2.12" height="1.39"/><rect class="cls-2" x="59.24" y="8.32" width="2.12" height="1.39"/><rect class="cls-2" x="55.01" y="8.32" width="2.12" height="1.39"/><rect class="cls-2" x="52.89" y="8.32" width="2.12" height="1.39"/><rect class="cls-2" x="50.78" y="8.32" width="2.12" height="1.39"/><rect class="cls-2" x="10.58" y="8.32" width="2.12" height="1.39"/><rect class="cls-2" x="8.46" y="8.32" width="2.12" height="1.39"/><rect class="cls-2" x="6.35" y="8.32" width="2.12" height="1.39"/><rect class="cls-2" x="2.12" y="8.32" width="2.12" height="1.39"/><rect class="cls-2" y="8.32" width="2.12" height="1.39"/><rect class="cls-2" x="61.35" y="6.93" width="2.12" height="1.39"/><rect class="cls-2" x="59.24" y="6.93" width="2.12" height="1.39"/><rect class="cls-2" x="57.12" y="6.93" width="2.12" height="1.39"/><rect class="cls-2" x="55.01" y="6.93" width="2.12" height="1.39"/><rect class="cls-2" x="52.89" y="6.93" width="2.12" height="1.39"/><rect class="cls-2" x="8.46" y="6.93" width="2.12" height="1.39"/><rect class="cls-2" x="6.35" y="6.93" width="2.12" height="1.39"/><rect class="cls-2" x="4.23" y="6.93" width="2.12" height="1.39"/><rect class="cls-2" x="2.12" y="6.93" width="2.12" height="1.39"/><rect class="cls-2" y="6.93" width="2.12" height="1.39"/><rect class="cls-2" x="61.35" y="5.54" width="2.12" height="1.39"/><rect class="cls-2" x="59.24" y="5.54" width="2.12" height="1.39"/><rect class="cls-2" x="57.12" y="5.54" width="2.12" height="1.39"/><rect class="cls-2" x="55.01" y="5.54" width="2.12" height="1.39"/><rect class="cls-2" x="6.35" y="5.54" width="2.12" height="1.39"/><rect class="cls-2" x="4.23" y="5.54" width="2.12" height="1.39"/><rect class="cls-2" x="2.12" y="5.54" width="2.12" height="1.39"/><rect class="cls-2" y="5.54" width="2.12" height="1.39"/><rect class="cls-2" x="61.35" y="4.16" width="2.12" height="1.39"/><rect class="cls-2" x="59.24" y="4.16" width="2.12" height="1.39"/><rect class="cls-2" x="57.12" y="4.16" width="2.12" height="1.39"/><rect class="cls-2" x="55.01" y="4.16" width="2.12" height="1.39"/><rect class="cls-2" x="6.35" y="4.16" width="2.12" height="1.39"/><rect class="cls-2" x="4.23" y="4.16" width="2.12" height="1.39"/><rect class="cls-2" x="2.12" y="4.16" width="2.12" height="1.39"/><rect class="cls-2" y="4.16" width="2.12" height="1.39"/><rect class="cls-2" x="59.24" y="2.77" width="2.12" height="1.39"/><rect class="cls-2" x="57.12" y="2.77" width="2.12" height="1.39"/><rect class="cls-2" x="55.01" y="2.77" width="2.12" height="1.39"/><rect class="cls-2" x="52.89" y="2.77" width="2.12" height="1.39"/><rect class="cls-2" x="50.78" y="2.77" width="2.12" height="1.39"/><rect class="cls-2" x="48.66" y="2.77" width="2.12" height="1.39"/><rect class="cls-2" x="46.54" y="2.77" width="2.12" height="1.39"/><rect class="cls-2" x="44.43" y="2.77" width="2.12" height="1.39"/><rect class="cls-2" x="42.31" y="2.77" width="2.12" height="1.39"/><rect class="cls-2" x="40.2" y="2.77" width="2.12" height="1.39"/><rect class="cls-2" x="38.08" y="2.77" width="2.12" height="1.39"/><rect class="cls-2" x="35.97" y="2.77" width="2.12" height="1.39"/><rect class="cls-2" x="33.85" y="2.77" width="2.12" height="1.39"/><rect class="cls-2" x="31.73" y="2.77" width="2.12" height="1.39"/><rect class="cls-2" x="29.62" y="2.77" width="2.12" height="1.39"/><rect class="cls-2" x="27.5" y="2.77" width="2.12" height="1.39"/><rect class="cls-2" x="25.39" y="2.77" width="2.12" height="1.39"/><rect class="cls-2" x="23.27" y="2.77" width="2.12" height="1.39"/><rect class="cls-2" x="21.16" y="2.77" width="2.12" height="1.39"/><rect class="cls-2" x="19.04" y="2.77" width="2.12" height="1.39"/><rect class="cls-2" x="16.93" y="2.77" width="2.12" height="1.39"/><rect class="cls-2" x="14.81" y="2.77" width="2.12" height="1.39"/><rect class="cls-2" x="12.69" y="2.77" width="2.12" height="1.39"/><rect class="cls-2" x="10.58" y="2.77" width="2.12" height="1.39"/><rect class="cls-2" x="8.46" y="2.77" width="2.12" height="1.39"/><rect class="cls-2" x="6.35" y="2.77" width="2.12" height="1.39"/><rect class="cls-2" x="4.23" y="2.77" width="2.12" height="1.39"/><rect class="cls-2" x="2.12" y="2.77" width="2.12" height="1.39"/><rect class="cls-2" x="59.24" y="1.39" width="2.12" height="1.39"/><rect class="cls-2" x="57.12" y="1.39" width="2.12" height="1.39"/><rect class="cls-2" x="55.01" y="1.39" width="2.12" height="1.39"/><rect class="cls-2" x="52.89" y="1.39" width="2.12" height="1.39"/><rect class="cls-2" x="50.78" y="1.39" width="2.12" height="1.39"/><rect class="cls-2" x="48.66" y="1.39" width="2.12" height="1.39"/><rect class="cls-2" x="46.54" y="1.39" width="2.12" height="1.39"/><rect class="cls-2" x="44.43" y="1.39" width="2.12" height="1.39"/><rect class="cls-2" x="42.31" y="1.39" width="2.12" height="1.39"/><rect class="cls-2" x="40.2" y="1.39" width="2.12" height="1.39"/><rect class="cls-2" x="38.08" y="1.39" width="2.12" height="1.39"/><rect class="cls-2" x="35.97" y="1.39" width="2.12" height="1.39"/><rect class="cls-2" x="33.85" y="1.39" width="2.12" height="1.39"/><rect class="cls-2" x="31.73" y="1.39" width="2.12" height="1.39"/><rect class="cls-2" x="29.62" y="1.39" width="2.12" height="1.39"/><rect class="cls-2" x="27.5" y="1.39" width="2.12" height="1.39"/><rect class="cls-2" x="25.39" y="1.39" width="2.12" height="1.39"/><rect class="cls-2" x="23.27" y="1.39" width="2.12" height="1.39"/><rect class="cls-2" x="21.16" y="1.39" width="2.12" height="1.39"/><rect class="cls-2" x="19.04" y="1.39" width="2.12" height="1.39"/><rect class="cls-2" x="16.93" y="1.39" width="2.12" height="1.39"/><rect class="cls-2" x="14.81" y="1.39" width="2.12" height="1.39"/><rect class="cls-2" x="12.69" y="1.39" width="2.12" height="1.39"/><rect class="cls-2" x="10.58" y="1.39" width="2.12" height="1.39"/><rect class="cls-2" x="8.46" y="1.39" width="2.12" height="1.39"/><rect class="cls-2" x="6.35" y="1.39" width="2.12" height="1.39"/><rect class="cls-2" x="4.23" y="1.39" width="2.12" height="1.39"/><rect class="cls-2" x="2.12" y="1.39" width="2.12" height="1.39"/><rect class="cls-2" x="57.12" width="2.12" height="1.39"/><rect class="cls-2" x="55.01" width="2.12" height="1.39"/><rect class="cls-2" x="52.89" width="2.12" height="1.39"/><rect class="cls-2" x="50.78" width="2.12" height="1.39"/><rect class="cls-2" x="48.66" width="2.12" height="1.39"/><rect class="cls-2" x="46.54" width="2.12" height="1.39"/><rect class="cls-2" x="44.43" width="2.12" height="1.39"/><rect class="cls-2" x="42.31" width="2.12" height="1.39"/><rect class="cls-2" x="40.2" width="2.12" height="1.39"/><rect class="cls-2" x="38.08" width="2.12" height="1.39"/><rect class="cls-2" x="35.97" width="2.12" height="1.39"/><rect class="cls-2" x="33.85" width="2.12" height="1.39"/><rect class="cls-2" x="31.73" width="2.12" height="1.39"/><rect class="cls-2" x="29.62" width="2.12" height="1.39"/><rect class="cls-2" x="27.5" width="2.12" height="1.39"/><rect class="cls-2" x="25.39" width="2.12" height="1.39"/><rect class="cls-2" x="23.27" width="2.12" height="1.39"/><rect class="cls-2" x="21.16" width="2.12" height="1.39"/><rect class="cls-2" x="19.04" width="2.12" height="1.39"/><rect class="cls-2" x="16.93" width="2.12" height="1.39"/><rect class="cls-2" x="14.81" width="2.12" height="1.39"/><rect class="cls-2" x="12.69" width="2.12" height="1.39"/><rect class="cls-2" x="10.58" width="2.12" height="1.39"/><rect class="cls-2" x="8.46" width="2.12" height="1.39"/><rect class="cls-2" x="6.35" width="2.12" height="1.39"/><rect class="cls-2" x="4.23" width="2.12" height="1.39"/></svg>