<svg id="Layer_1" data-name="Layer 1" xmlns="http://www.w3.org/2000/svg" viewBox="0 0 34.59 7.52"><defs><style>.cls-1{fill:#26763b;}</style></defs><path class="cls-1" d="M1.75,7.52v-1h.76v1Zm.87,0v-1h.76v1ZM1.75,6.43v-1h.76v1Zm.87,0v-1h.76v1ZM1.75,5.34v-1h.76v1Zm.87,0v-1h.76v1ZM1.75,4.25v-1h.76v1Zm.87,0v-1h.76v1Zm-.87-1.1v-1h.76v1Zm.87,0v-1h.76v1ZM1.75,2.06v-1h.76v1Zm.87,0v-1h.76v1ZM0,1V0H.76V1ZM.87,1V0h.76V1Zm.88,0V0h.76V1Zm.87,0V0h.76V1Zm.87,0V0h.76V1Zm.87,0V0h.77V1Z"/><path class="cls-1" d="M5.49,7.52v-1h.77v1Zm.88,0v-1h.76v1Zm.87,0v-1H8v1Zm.87,0v-1h.76v1ZM4.62,6.43v-1h.76v1Zm.87,0v-1h.77v1ZM4.62,5.34v-1h.76v1Zm.87,0v-1h.77v1Zm.88,0v-1h.76v1Zm.87,0v-1H8v1Zm.87,0v-1h.76v1ZM4.62,4.25v-1h.76v1Zm.87,0v-1h.77v1Zm1.75,0v-1H8v1Zm.87,0v-1h.76v1ZM5.49,3.15v-1h.77v1Zm.88,0v-1h.76v1Zm.87,0v-1H8v1Z"/><path class="cls-1" d="M10,7.52v-1h.76v1Zm.87,0v-1h.77v1Zm1.75,0v-1h.76v1Zm.87,0v-1h.76v1ZM10,6.43v-1h.76v1Zm.87,0v-1h.77v1Zm.88,0v-1h.76v1Zm.87,0v-1h.76v1Zm.87,0v-1h.76v1ZM10.88,5.34v-1h.77v1Zm.88,0v-1h.76v1Zm.87,0v-1h.76v1ZM10,4.25v-1h.76v1Zm.87,0v-1h.77v1Zm.88,0v-1h.76v1Zm.87,0v-1h.76v1Zm.87,0v-1h.76v1ZM10,3.15v-1h.76v1Zm.87,0v-1h.77v1Zm1.75,0v-1h.76v1Zm.87,0v-1h.76v1Z"/><path class="cls-1" d="M16.39,7.52v-1h.76v1Zm.88,0v-1H18v1ZM15.52,6.43v-1h.76v1Zm.87,0v-1h.76v1Zm-.87-1.09v-1h.76v1Zm.87,0v-1h.76v1Zm-.87-1.09v-1h.76v1Zm.87,0v-1h.76v1Zm-.87-1.1v-1h.76v1Zm.87,0v-1h.76v1Zm.88,0v-1H18v1ZM15.52,2.06v-1h.76v1Zm.87,0v-1h.76v1ZM15.52,1V0h.76V1Zm.87,0V0h.76V1Z"/><path class="cls-1" d="M21.28,7.52v-1H22v1Zm.87,0v-1h.76v1Zm.87,0v-1h.76v1Zm.87,0v-1h.77v1ZM20.4,6.43v-1h.77v1Zm.88,0v-1H22v1ZM20.4,5.34v-1h.77v1Zm.88,0v-1H22v1ZM20.4,4.25v-1h.77v1Zm.88,0v-1H22v1Zm-.88-1.1v-1h.77v1Zm.88,0v-1H22v1ZM20.4,2.06v-1h.77v1Zm.88,0v-1H22v1Zm0-1.09V0H22V1Zm.87,0V0h.76V1ZM23,1V0h.76V1Zm.87,0V0h.77V1Z"/><path class="cls-1" d="M25.71,7.52v-1h.76v1Zm.88,0v-1h.76v1Zm.87,0v-1h.76v1Zm.87,0v-1h.76v1ZM24.84,6.43v-1h.76v1Zm.87,0v-1h.76v1Zm1.75,0v-1h.76v1Zm.87,0v-1h.76v1ZM24.84,5.34v-1h.76v1Zm.87,0v-1h.76v1Zm1.75,0v-1h.76v1Zm.87,0v-1h.76v1ZM24.84,4.25v-1h.76v1Zm.87,0v-1h.76v1Zm1.75,0v-1h.76v1Zm.87,0v-1h.76v1Zm-3.49-1.1v-1h.76v1Zm.87,0v-1h.76v1Zm1.75,0v-1h.76v1Zm.87,0v-1h.76v1Z"/><path class="cls-1" d="M31.21,7.52v-1H32v1Zm.87,0v-1h.77v1Zm.88,0v-1h.76v1Zm.87,0v-1h.76v1ZM30.34,6.43v-1h.76v1Zm.87,0v-1H32v1Zm-.87-1.09v-1h.76v1Zm.87,0v-1H32v1Zm.87,0v-1h.77v1Zm.88,0v-1h.76v1Zm.87,0v-1h.76v1ZM30.34,4.25v-1h.76v1Zm.87,0v-1H32v1Zm1.75,0v-1h.76v1Zm.87,0v-1h.76v1Zm-2.62-1.1v-1H32v1Zm.87,0v-1h.77v1Zm.88,0v-1h.76v1Z"/></svg>