<svg id="Text_Cue" data-name="Text Cue" xmlns="http://www.w3.org/2000/svg" viewBox="0 0 63.47 72.16"><defs><style>.cls-1{fill:#137b3e;}.cls-2{fill:#157a3d;}</style></defs><path class="cls-1" d="M15.13,79.72V78.24h1.16v1.48Zm1.33,0V78.24h1.15v1.48Zm-1.33-1.66V76.58h1.16v1.48Zm1.33,0V76.58h1.15v1.48ZM15.13,76.4V74.92h1.16V76.4Zm1.33,0V74.92h1.15V76.4Zm-1.33-1.66V73.27h1.16v1.47Zm1.33,0V73.27h1.15v1.47Zm-1.33-1.65V71.61h1.16v1.48Zm1.33,0V71.61h1.15v1.48Zm-1.33-1.66V70h1.16v1.48Zm1.33,0V70h1.15v1.48Zm-4-1.66V68.29h1.15v1.48Zm1.32,0V68.29H15v1.48Zm1.33,0V68.29h1.16v1.48Zm1.33,0V68.29h1.15v1.48Zm1.32,0V68.29h1.16v1.48Zm1.33,0V68.29h1.16v1.48Z" transform="translate(-7.03 -7.56)"/><path class="cls-1" d="M20.83,79.72V78.24H22v1.48Zm1.32,0V78.24h1.16v1.48Zm1.33,0V78.24h1.16v1.48Zm1.33,0V78.24H26v1.48ZM19.5,78.06V76.58h1.16v1.48Zm1.33,0V76.58H22v1.48ZM19.5,76.4V74.92h1.16V76.4Zm1.33,0V74.92H22V76.4Zm1.32,0V74.92h1.16V76.4Zm1.33,0V74.92h1.16V76.4Zm1.33,0V74.92H26V76.4ZM19.5,74.74V73.27h1.16v1.47Zm1.33,0V73.27H22v1.47Zm2.65,0V73.27h1.16v1.47Zm1.33,0V73.27H26v1.47Zm-4-1.65V71.61H22v1.48Zm1.32,0V71.61h1.16v1.48Zm1.33,0V71.61h1.16v1.48Z" transform="translate(-7.03 -7.56)"/><path class="cls-1" d="M27.69,79.72V78.24h1.16v1.48Zm1.33,0V78.24h1.16v1.48Zm2.65,0V78.24h1.16v1.48Zm1.33,0V78.24h1.16v1.48Zm-5.31-1.66V76.58h1.16v1.48Zm1.33,0V76.58h1.16v1.48Zm1.33,0V76.58h1.16v1.48Zm1.32,0V76.58h1.16v1.48Zm1.33,0V76.58h1.16v1.48ZM29,76.4V74.92h1.16V76.4Zm1.33,0V74.92h1.16V76.4Zm1.32,0V74.92h1.16V76.4Zm-4-1.66V73.27h1.16v1.47Zm1.33,0V73.27h1.16v1.47Zm1.33,0V73.27h1.16v1.47Zm1.32,0V73.27h1.16v1.47Zm1.33,0V73.27h1.16v1.47Zm-5.31-1.65V71.61h1.16v1.48Zm1.33,0V71.61h1.16v1.48Zm2.65,0V71.61h1.16v1.48Zm1.33,0V71.61h1.16v1.48Z" transform="translate(-7.03 -7.56)"/><path class="cls-1" d="M37.39,79.72V78.24h1.16v1.48Zm1.33,0V78.24h1.16v1.48Zm-2.65-1.66V76.58h1.16v1.48Zm1.32,0V76.58h1.16v1.48ZM36.07,76.4V74.92h1.16V76.4Zm1.32,0V74.92h1.16V76.4Zm-1.32-1.66V73.27h1.16v1.47Zm1.32,0V73.27h1.16v1.47Zm-1.32-1.65V71.61h1.16v1.48Zm1.32,0V71.61h1.16v1.48Zm1.33,0V71.61h1.16v1.48Zm-2.65-1.66V70h1.16v1.48Zm1.32,0V70h1.16v1.48Zm-1.32-1.66V68.29h1.16v1.48Zm1.32,0V68.29h1.16v1.48Z" transform="translate(-7.03 -7.56)"/><path class="cls-1" d="M44.82,79.72V78.24H46v1.48Zm1.32,0V78.24H47.3v1.48Zm1.33,0V78.24h1.16v1.48Zm1.33,0V78.24H50v1.48Zm-5.31-1.66V76.58h1.16v1.48Zm1.33,0V76.58H46v1.48ZM43.49,76.4V74.92h1.16V76.4Zm1.33,0V74.92H46V76.4Zm-1.33-1.66V73.27h1.16v1.47Zm1.33,0V73.27H46v1.47Zm-1.33-1.65V71.61h1.16v1.48Zm1.33,0V71.61H46v1.48Zm-1.33-1.66V70h1.16v1.48Zm1.33,0V70H46v1.48Zm0-1.66V68.29H46v1.48Zm1.32,0V68.29H47.3v1.48Zm1.33,0V68.29h1.16v1.48Zm1.33,0V68.29H50v1.48Z" transform="translate(-7.03 -7.56)"/><path class="cls-1" d="M51.56,79.72V78.24h1.16v1.48Zm1.33,0V78.24h1.16v1.48Zm1.32,0V78.24h1.16v1.48Zm1.33,0V78.24H56.7v1.48Zm-5.31-1.66V76.58h1.16v1.48Zm1.33,0V76.58h1.16v1.48Zm2.65,0V76.58h1.16v1.48Zm1.33,0V76.58H56.7v1.48ZM50.23,76.4V74.92h1.16V76.4Zm1.33,0V74.92h1.16V76.4Zm2.65,0V74.92h1.16V76.4Zm1.33,0V74.92H56.7V76.4Zm-5.31-1.66V73.27h1.16v1.47Zm1.33,0V73.27h1.16v1.47Zm2.65,0V73.27h1.16v1.47Zm1.33,0V73.27H56.7v1.47Zm-5.31-1.65V71.61h1.16v1.48Zm1.33,0V71.61h1.16v1.48Zm2.65,0V71.61h1.16v1.48Zm1.33,0V71.61H56.7v1.48Z" transform="translate(-7.03 -7.56)"/><path class="cls-1" d="M59.92,79.72V78.24h1.16v1.48Zm1.32,0V78.24H62.4v1.48Zm1.33,0V78.24h1.16v1.48Zm1.33,0V78.24h1.16v1.48Zm-5.31-1.66V76.58h1.16v1.48Zm1.33,0V76.58h1.16v1.48ZM58.59,76.4V74.92h1.16V76.4Zm1.33,0V74.92h1.16V76.4Zm1.32,0V74.92H62.4V76.4Zm1.33,0V74.92h1.16V76.4Zm1.33,0V74.92h1.16V76.4Zm-5.31-1.66V73.27h1.16v1.47Zm1.33,0V73.27h1.16v1.47Zm2.65,0V73.27h1.16v1.47Zm1.33,0V73.27h1.16v1.47Zm-4-1.65V71.61h1.16v1.48Zm1.32,0V71.61H62.4v1.48Zm1.33,0V71.61h1.16v1.48Z" transform="translate(-7.03 -7.56)"/><rect class="cls-2" x="59.24" y="38.81" width="2.12" height="1.39"/><rect class="cls-2" x="57.12" y="38.81" width="2.12" height="1.39"/><rect class="cls-2" x="55.01" y="38.81" width="2.12" height="1.39"/><rect class="cls-2" x="52.89" y="38.81" width="2.12" height="1.39"/><rect class="cls-2" x="50.78" y="38.81" width="2.12" height="1.39"/><rect class="cls-2" x="48.66" y="38.81" width="2.12" height="1.39"/><rect class="cls-2" x="46.54" y="38.81" width="2.12" height="1.39"/><rect class="cls-2" x="44.43" y="38.81" width="2.12" height="1.39"/><rect class="cls-2" x="42.31" y="38.81" width="2.12" height="1.39"/><rect class="cls-2" x="40.2" y="38.81" width="2.12" height="1.39"/><rect class="cls-2" x="38.08" y="38.81" width="2.12" height="1.39"/><rect class="cls-2" x="35.97" y="38.81" width="2.12" height="1.39"/><rect class="cls-2" x="33.85" y="38.81" width="2.12" height="1.39"/><rect class="cls-2" x="31.73" y="38.81" width="2.12" height="1.39"/><rect class="cls-2" x="29.62" y="38.81" width="2.12" height="1.39"/><rect class="cls-2" x="27.5" y="38.81" width="2.12" height="1.39"/><rect class="cls-2" x="25.39" y="38.81" width="2.12" height="1.39"/><rect class="cls-2" x="23.27" y="38.81" width="2.12" height="1.39"/><rect class="cls-2" x="21.16" y="38.81" width="2.12" height="1.39"/><rect class="cls-2" x="19.04" y="38.81" width="2.12" height="1.39"/><rect class="cls-2" x="16.93" y="38.81" width="2.12" height="1.39"/><rect class="cls-2" x="14.81" y="38.81" width="2.12" height="1.39"/><rect class="cls-2" x="12.69" y="38.81" width="2.12" height="1.39"/><rect class="cls-2" x="10.58" y="38.81" width="2.12" height="1.39"/><rect class="cls-2" x="8.46" y="38.81" width="2.12" height="1.39"/><rect class="cls-2" x="6.35" y="38.81" width="2.12" height="1.39"/><rect class="cls-2" x="4.23" y="38.81" width="2.12" height="1.39"/><rect class="cls-2" x="2.12" y="38.81" width="2.12" height="1.39"/><rect class="cls-2" x="59.24" y="37.43" width="2.12" height="1.39"/><rect class="cls-2" x="57.12" y="37.43" width="2.12" height="1.39"/><rect class="cls-2" x="55.01" y="37.43" width="2.12" height="1.39"/><rect class="cls-2" x="52.89" y="37.43" width="2.12" height="1.39"/><rect class="cls-2" x="50.78" y="37.43" width="2.12" height="1.39"/><rect class="cls-2" x="48.66" y="37.43" width="2.12" height="1.39"/><rect class="cls-2" x="46.54" y="37.43" width="2.12" height="1.39"/><rect class="cls-2" x="44.43" y="37.43" width="2.12" height="1.39"/><rect class="cls-2" x="42.31" y="37.43" width="2.12" height="1.39"/><rect class="cls-2" x="40.2" y="37.43" width="2.12" height="1.39"/><rect class="cls-2" x="38.08" y="37.43" width="2.12" height="1.39"/><rect class="cls-2" x="35.97" y="37.43" width="2.12" height="1.39"/><rect class="cls-2" x="33.85" y="37.43" width="2.12" height="1.39"/><rect class="cls-2" x="31.73" y="37.43" width="2.12" height="1.39"/><rect class="cls-2" x="29.62" y="37.43" width="2.12" height="1.39"/><rect class="cls-2" x="27.5" y="37.43" width="2.12" height="1.39"/><rect class="cls-2" x="25.39" y="37.43" width="2.12" height="1.39"/><rect class="cls-2" x="23.27" y="37.43" width="2.12" height="1.39"/><rect class="cls-2" x="21.16" y="37.43" width="2.12" height="1.39"/><rect class="cls-2" x="19.04" y="37.43" width="2.12" height="1.39"/><rect class="cls-2" x="16.93" y="37.43" width="2.12" height="1.39"/><rect class="cls-2" x="14.81" y="37.43" width="2.12" height="1.39"/><rect class="cls-2" x="12.69" y="37.43" width="2.12" height="1.39"/><rect class="cls-2" x="10.58" y="37.43" width="2.12" height="1.39"/><rect class="cls-2" x="8.46" y="37.43" width="2.12" height="1.39"/><rect class="cls-2" x="6.35" y="37.43" width="2.12" height="1.39"/><rect class="cls-2" x="4.23" y="37.43" width="2.12" height="1.39"/><rect class="cls-2" x="2.12" y="37.43" width="2.12" height="1.39"/><rect class="cls-2" x="61.35" y="36.04" width="2.12" height="1.39"/><rect class="cls-2" x="59.24" y="36.04" width="2.12" height="1.39"/><rect class="cls-2" x="57.12" y="36.04" width="2.12" height="1.39"/><rect class="cls-2" x="55.01" y="36.04" width="2.12" height="1.39"/><rect class="cls-2" x="52.89" y="36.04" width="2.12" height="1.39"/><rect class="cls-2" x="50.78" y="36.04" width="2.12" height="1.39"/><rect class="cls-2" x="48.66" y="36.04" width="2.12" height="1.39"/><rect class="cls-2" x="46.54" y="36.04" width="2.12" height="1.39"/><rect class="cls-2" x="44.43" y="36.04" width="2.12" height="1.39"/><rect class="cls-2" x="42.31" y="36.04" width="2.12" height="1.39"/><rect class="cls-2" x="40.2" y="36.04" width="2.12" height="1.39"/><rect class="cls-2" x="38.08" y="36.04" width="2.12" height="1.39"/><rect class="cls-2" x="35.97" y="36.04" width="2.12" height="1.39"/><rect class="cls-2" x="33.85" y="36.04" width="2.12" height="1.39"/><rect class="cls-2" x="31.73" y="36.04" width="2.12" height="1.39"/><rect class="cls-2" x="29.62" y="36.04" width="2.12" height="1.39"/><rect class="cls-2" x="27.5" y="36.04" width="2.12" height="1.39"/><rect class="cls-2" x="25.39" y="36.04" width="2.12" height="1.39"/><rect class="cls-2" x="23.27" y="36.04" width="2.12" height="1.39"/><rect class="cls-2" x="21.16" y="36.04" width="2.12" height="1.39"/><rect class="cls-2" x="19.04" y="36.04" width="2.12" height="1.39"/><rect class="cls-2" x="16.93" y="36.04" width="2.12" height="1.39"/><rect class="cls-2" x="14.81" y="36.04" width="2.12" height="1.39"/><rect class="cls-2" x="12.69" y="36.04" width="2.12" height="1.39"/><rect class="cls-2" x="10.58" y="36.04" width="2.12" height="1.39"/><rect class="cls-2" x="8.46" y="36.04" width="2.12" height="1.39"/><rect class="cls-2" x="6.35" y="36.04" width="2.12" height="1.39"/><rect class="cls-2" x="4.23" y="36.04" width="2.12" height="1.39"/><rect class="cls-2" x="2.12" y="36.04" width="2.12" height="1.39"/><rect class="cls-2" y="36.04" width="2.12" height="1.39"/><rect class="cls-2" x="61.35" y="34.65" width="2.12" height="1.39"/><rect class="cls-2" x="59.24" y="34.65" width="2.12" height="1.39"/><rect class="cls-2" x="57.12" y="34.65" width="2.12" height="1.39"/><rect class="cls-2" x="55.01" y="34.65" width="2.12" height="1.39"/><rect class="cls-2" x="6.35" y="34.65" width="2.12" height="1.39"/><rect class="cls-2" x="4.23" y="34.65" width="2.12" height="1.39"/><rect class="cls-2" x="2.12" y="34.65" width="2.12" height="1.39"/><rect class="cls-2" y="34.65" width="2.12" height="1.39"/><rect class="cls-2" x="61.35" y="33.27" width="2.12" height="1.39"/><rect class="cls-2" x="59.24" y="33.27" width="2.12" height="1.39"/><rect class="cls-2" x="57.12" y="33.27" width="2.12" height="1.39"/><rect class="cls-2" x="55.01" y="33.27" width="2.12" height="1.39"/><rect class="cls-2" x="52.89" y="33.27" width="2.12" height="1.39"/><rect class="cls-2" x="8.46" y="33.27" width="2.12" height="1.39"/><rect class="cls-2" x="6.35" y="33.27" width="2.12" height="1.39"/><rect class="cls-2" x="4.23" y="33.27" width="2.12" height="1.39"/><rect class="cls-2" x="2.12" y="33.27" width="2.12" height="1.39"/><rect class="cls-2" y="33.27" width="2.12" height="1.39"/><rect class="cls-2" x="61.35" y="31.88" width="2.12" height="1.39"/><rect class="cls-2" x="59.24" y="31.88" width="2.12" height="1.39"/><rect class="cls-2" x="57.12" y="31.88" width="2.12" height="1.39"/><rect class="cls-2" x="55.01" y="31.88" width="2.12" height="1.39"/><rect class="cls-2" x="52.89" y="31.88" width="2.12" height="1.39"/><rect class="cls-2" x="8.46" y="31.88" width="2.12" height="1.39"/><rect class="cls-2" x="6.35" y="31.88" width="2.12" height="1.39"/><rect class="cls-2" x="2.12" y="31.88" width="2.12" height="1.39"/><rect class="cls-2" y="31.88" width="2.12" height="1.39"/><rect class="cls-2" x="61.35" y="30.49" width="2.12" height="1.39"/><rect class="cls-2" x="59.24" y="30.49" width="2.12" height="1.39"/><rect class="cls-2" x="55.01" y="30.49" width="2.12" height="1.39"/><rect class="cls-2" x="52.89" y="30.49" width="2.12" height="1.39"/><rect class="cls-2" x="50.78" y="30.49" width="2.12" height="1.39"/><rect class="cls-2" x="10.58" y="30.49" width="2.12" height="1.39"/><rect class="cls-2" x="8.46" y="30.49" width="2.12" height="1.39"/><rect class="cls-2" x="6.35" y="30.49" width="2.12" height="1.39"/><rect class="cls-2" x="2.12" y="30.49" width="2.12" height="1.39"/><rect class="cls-2" y="30.49" width="2.12" height="1.39"/><rect class="cls-2" x="61.35" y="29.11" width="2.12" height="1.39"/><rect class="cls-2" x="59.24" y="29.11" width="2.12" height="1.39"/><rect class="cls-2" x="52.89" y="29.11" width="2.12" height="1.39"/><rect class="cls-2" x="50.78" y="29.11" width="2.12" height="1.39"/><rect class="cls-2" x="48.66" y="29.11" width="2.12" height="1.39"/><rect class="cls-2" x="12.69" y="29.11" width="2.12" height="1.39"/><rect class="cls-2" x="10.58" y="29.11" width="2.12" height="1.39"/><rect class="cls-2" x="8.46" y="29.11" width="2.12" height="1.39"/><rect class="cls-2" x="2.12" y="29.11" width="2.12" height="1.39"/><rect class="cls-2" y="29.11" width="2.12" height="1.39"/><rect class="cls-2" x="61.35" y="27.72" width="2.12" height="1.39"/><rect class="cls-2" x="59.24" y="27.72" width="2.12" height="1.39"/><rect class="cls-2" x="50.78" y="27.72" width="2.12" height="1.39"/><rect class="cls-2" x="48.66" y="27.72" width="2.12" height="1.39"/><rect class="cls-2" x="46.54" y="27.72" width="2.12" height="1.39"/><rect class="cls-2" x="31.73" y="27.72" width="2.12" height="1.39"/><rect class="cls-2" x="29.62" y="27.72" width="2.12" height="1.39"/><rect class="cls-2" x="12.69" y="27.72" width="2.12" height="1.39"/><rect class="cls-2" x="10.58" y="27.72" width="2.12" height="1.39"/><rect class="cls-2" x="2.12" y="27.72" width="2.12" height="1.39"/><rect class="cls-2" y="27.72" width="2.12" height="1.39"/><rect class="cls-2" x="61.35" y="26.34" width="2.12" height="1.39"/><rect class="cls-2" x="59.24" y="26.34" width="2.12" height="1.39"/><rect class="cls-2" x="48.66" y="26.34" width="2.12" height="1.39"/><rect class="cls-2" x="46.54" y="26.34" width="2.12" height="1.39"/><rect class="cls-2" x="35.97" y="26.34" width="2.12" height="1.39"/><rect class="cls-2" x="33.85" y="26.34" width="2.12" height="1.39"/><rect class="cls-2" x="31.73" y="26.34" width="2.12" height="1.39"/><rect class="cls-2" x="29.62" y="26.34" width="2.12" height="1.39"/><rect class="cls-2" x="27.5" y="26.34" width="2.12" height="1.39"/><rect class="cls-2" x="25.39" y="26.34" width="2.12" height="1.39"/><rect class="cls-2" x="14.81" y="26.34" width="2.12" height="1.39"/><rect class="cls-2" x="12.69" y="26.34" width="2.12" height="1.39"/><rect class="cls-2" x="10.58" y="26.34" width="2.12" height="1.39"/><rect class="cls-2" x="2.12" y="26.34" width="2.12" height="1.39"/><rect class="cls-2" y="26.34" width="2.12" height="1.39"/><rect class="cls-2" x="61.35" y="24.95" width="2.12" height="1.39"/><rect class="cls-2" x="59.24" y="24.95" width="2.12" height="1.39"/><rect class="cls-2" x="48.66" y="24.95" width="2.12" height="1.39"/><rect class="cls-2" x="46.54" y="24.95" width="2.12" height="1.39"/><rect class="cls-2" x="44.43" y="24.95" width="2.12" height="1.39"/><rect class="cls-2" x="38.08" y="24.95" width="2.12" height="1.39"/><rect class="cls-2" x="35.97" y="24.95" width="2.12" height="1.39"/><rect class="cls-2" x="33.85" y="24.95" width="2.12" height="1.39"/><rect class="cls-2" x="31.73" y="24.95" width="2.12" height="1.39"/><rect class="cls-2" x="29.62" y="24.95" width="2.12" height="1.39"/><rect class="cls-2" x="27.5" y="24.95" width="2.12" height="1.39"/><rect class="cls-2" x="25.39" y="24.95" width="2.12" height="1.39"/><rect class="cls-2" x="23.27" y="24.95" width="2.12" height="1.39"/><rect class="cls-2" x="16.93" y="24.95" width="2.12" height="1.39"/><rect class="cls-2" x="14.81" y="24.95" width="2.12" height="1.39"/><rect class="cls-2" x="12.69" y="24.95" width="2.12" height="1.39"/><rect class="cls-2" x="2.12" y="24.95" width="2.12" height="1.39"/><rect class="cls-2" y="24.95" width="2.12" height="1.39"/><rect class="cls-2" x="61.35" y="23.56" width="2.12" height="1.39"/><rect class="cls-2" x="59.24" y="23.56" width="2.12" height="1.39"/><rect class="cls-2" x="46.54" y="23.56" width="2.12" height="1.39"/><rect class="cls-2" x="44.43" y="23.56" width="2.12" height="1.39"/><rect class="cls-2" x="42.31" y="23.56" width="2.12" height="1.39"/><rect class="cls-2" x="38.08" y="23.56" width="2.12" height="1.39"/><rect class="cls-2" x="35.97" y="23.56" width="2.12" height="1.39"/><rect class="cls-2" x="33.85" y="23.56" width="2.12" height="1.39"/><rect class="cls-2" x="27.5" y="23.56" width="2.12" height="1.39"/><rect class="cls-2" x="25.39" y="23.56" width="2.12" height="1.39"/><rect class="cls-2" x="23.27" y="23.56" width="2.12" height="1.39"/><rect class="cls-2" x="16.93" y="23.56" width="2.12" height="1.39"/><rect class="cls-2" x="14.81" y="23.56" width="2.12" height="1.39"/><rect class="cls-2" x="2.12" y="23.56" width="2.12" height="1.39"/><rect class="cls-2" y="23.56" width="2.12" height="1.39"/><rect class="cls-2" x="61.35" y="22.18" width="2.12" height="1.39"/><rect class="cls-2" x="59.24" y="22.18" width="2.12" height="1.39"/><rect class="cls-2" x="44.43" y="22.18" width="2.12" height="1.39"/><rect class="cls-2" x="42.31" y="22.18" width="2.12" height="1.39"/><rect class="cls-2" x="40.2" y="22.18" width="2.12" height="1.39"/><rect class="cls-2" x="38.08" y="22.18" width="2.12" height="1.39"/><rect class="cls-2" x="35.97" y="22.18" width="2.12" height="1.39"/><rect class="cls-2" x="25.39" y="22.18" width="2.12" height="1.39"/><rect class="cls-2" x="23.27" y="22.18" width="2.12" height="1.39"/><rect class="cls-2" x="21.16" y="22.18" width="2.12" height="1.39"/><rect class="cls-2" x="19.04" y="22.18" width="2.12" height="1.39"/><rect class="cls-2" x="16.93" y="22.18" width="2.12" height="1.39"/><rect class="cls-2" x="2.12" y="22.18" width="2.12" height="1.39"/><rect class="cls-2" y="22.18" width="2.12" height="1.39"/><rect class="cls-2" x="61.35" y="20.79" width="2.12" height="1.39"/><rect class="cls-2" x="59.24" y="20.79" width="2.12" height="1.39"/><rect class="cls-2" x="44.43" y="20.79" width="2.12" height="1.39"/><rect class="cls-2" x="42.31" y="20.79" width="2.12" height="1.39"/><rect class="cls-2" x="40.2" y="20.79" width="2.12" height="1.39"/><rect class="cls-2" x="38.08" y="20.79" width="2.12" height="1.39"/><rect class="cls-2" x="23.27" y="20.79" width="2.12" height="1.39"/><rect class="cls-2" x="21.16" y="20.79" width="2.12" height="1.39"/><rect class="cls-2" x="19.04" y="20.79" width="2.12" height="1.39"/><rect class="cls-2" x="16.93" y="20.79" width="2.12" height="1.39"/><rect class="cls-2" x="2.12" y="20.79" width="2.12" height="1.39"/><rect class="cls-2" y="20.79" width="2.12" height="1.39"/><rect class="cls-2" x="61.35" y="19.41" width="2.12" height="1.39"/><rect class="cls-2" x="59.24" y="19.41" width="2.12" height="1.39"/><rect class="cls-2" x="42.31" y="19.41" width="2.12" height="1.39"/><rect class="cls-2" x="40.2" y="19.41" width="2.12" height="1.39"/><rect class="cls-2" x="21.16" y="19.41" width="2.12" height="1.39"/><rect class="cls-2" x="19.04" y="19.41" width="2.12" height="1.39"/><rect class="cls-2" x="16.93" y="19.41" width="2.12" height="1.39"/><rect class="cls-2" x="2.12" y="19.41" width="2.12" height="1.39"/><rect class="cls-2" y="19.41" width="2.12" height="1.39"/><rect class="cls-2" x="61.35" y="18.02" width="2.12" height="1.39"/><rect class="cls-2" x="59.24" y="18.02" width="2.12" height="1.39"/><rect class="cls-2" x="44.43" y="18.02" width="2.12" height="1.39"/><rect class="cls-2" x="42.31" y="18.02" width="2.12" height="1.39"/><rect class="cls-2" x="40.2" y="18.02" width="2.12" height="1.39"/><rect class="cls-2" x="19.04" y="18.02" width="2.12" height="1.39"/><rect class="cls-2" x="16.93" y="18.02" width="2.12" height="1.39"/><rect class="cls-2" x="2.12" y="18.02" width="2.12" height="1.39"/><rect class="cls-2" y="18.02" width="2.12" height="1.39"/><rect class="cls-2" x="61.35" y="16.63" width="2.12" height="1.39"/><rect class="cls-2" x="59.24" y="16.63" width="2.12" height="1.39"/><rect class="cls-2" x="46.54" y="16.63" width="2.12" height="1.39"/><rect class="cls-2" x="44.43" y="16.63" width="2.12" height="1.39"/><rect class="cls-2" x="42.31" y="16.63" width="2.12" height="1.39"/><rect class="cls-2" x="19.04" y="16.63" width="2.12" height="1.39"/><rect class="cls-2" x="16.93" y="16.63" width="2.12" height="1.39"/><rect class="cls-2" x="14.81" y="16.63" width="2.12" height="1.39"/><rect class="cls-2" x="2.12" y="16.63" width="2.12" height="1.39"/><rect class="cls-2" y="16.63" width="2.12" height="1.39"/><rect class="cls-2" x="61.35" y="15.25" width="2.12" height="1.39"/><rect class="cls-2" x="59.24" y="15.25" width="2.12" height="1.39"/><rect class="cls-2" x="48.66" y="15.25" width="2.12" height="1.39"/><rect class="cls-2" x="46.54" y="15.25" width="2.12" height="1.39"/><rect class="cls-2" x="44.43" y="15.25" width="2.12" height="1.39"/><rect class="cls-2" x="16.93" y="15.25" width="2.12" height="1.39"/><rect class="cls-2" x="14.81" y="15.25" width="2.12" height="1.39"/><rect class="cls-2" x="12.69" y="15.25" width="2.12" height="1.39"/><rect class="cls-2" x="2.12" y="15.25" width="2.12" height="1.39"/><rect class="cls-2" y="15.25" width="2.12" height="1.39"/><rect class="cls-2" x="61.35" y="13.86" width="2.12" height="1.39"/><rect class="cls-2" x="59.24" y="13.86" width="2.12" height="1.39"/><rect class="cls-2" x="48.66" y="13.86" width="2.12" height="1.39"/><rect class="cls-2" x="46.54" y="13.86" width="2.12" height="1.39"/><rect class="cls-2" x="44.43" y="13.86" width="2.12" height="1.39"/><rect class="cls-2" x="14.81" y="13.86" width="2.12" height="1.39"/><rect class="cls-2" x="12.69" y="13.86" width="2.12" height="1.39"/><rect class="cls-2" x="2.12" y="13.86" width="2.12" height="1.39"/><rect class="cls-2" y="13.86" width="2.12" height="1.39"/><rect class="cls-2" x="61.35" y="12.48" width="2.12" height="1.39"/><rect class="cls-2" x="59.24" y="12.48" width="2.12" height="1.39"/><rect class="cls-2" x="50.78" y="12.48" width="2.12" height="1.39"/><rect class="cls-2" x="48.66" y="12.48" width="2.12" height="1.39"/><rect class="cls-2" x="46.54" y="12.48" width="2.12" height="1.39"/><rect class="cls-2" x="14.81" y="12.48" width="2.12" height="1.39"/><rect class="cls-2" x="12.69" y="12.48" width="2.12" height="1.39"/><rect class="cls-2" x="10.58" y="12.48" width="2.12" height="1.39"/><rect class="cls-2" x="2.12" y="12.48" width="2.12" height="1.39"/><rect class="cls-2" y="12.48" width="2.12" height="1.39"/><rect class="cls-2" x="61.35" y="11.09" width="2.12" height="1.39"/><rect class="cls-2" x="59.24" y="11.09" width="2.12" height="1.39"/><rect class="cls-2" x="52.89" y="11.09" width="2.12" height="1.39"/><rect class="cls-2" x="50.78" y="11.09" width="2.12" height="1.39"/><rect class="cls-2" x="48.66" y="11.09" width="2.12" height="1.39"/><rect class="cls-2" x="12.69" y="11.09" width="2.12" height="1.39"/><rect class="cls-2" x="10.58" y="11.09" width="2.12" height="1.39"/><rect class="cls-2" x="8.46" y="11.09" width="2.12" height="1.39"/><rect class="cls-2" x="2.12" y="11.09" width="2.12" height="1.39"/><rect class="cls-2" y="11.09" width="2.12" height="1.39"/><rect class="cls-2" x="61.35" y="9.7" width="2.12" height="1.39"/><rect class="cls-2" x="59.24" y="9.7" width="2.12" height="1.39"/><rect class="cls-2" x="52.89" y="9.7" width="2.12" height="1.39"/><rect class="cls-2" x="50.78" y="9.7" width="2.12" height="1.39"/><rect class="cls-2" x="48.66" y="9.7" width="2.12" height="1.39"/><rect class="cls-2" x="10.58" y="9.7" width="2.12" height="1.39"/><rect class="cls-2" x="8.46" y="9.7" width="2.12" height="1.39"/><rect class="cls-2" x="2.12" y="9.7" width="2.12" height="1.39"/><rect class="cls-2" y="9.7" width="2.12" height="1.39"/><rect class="cls-2" x="61.35" y="8.32" width="2.12" height="1.39"/><rect class="cls-2" x="59.24" y="8.32" width="2.12" height="1.39"/><rect class="cls-2" x="55.01" y="8.32" width="2.12" height="1.39"/><rect class="cls-2" x="52.89" y="8.32" width="2.12" height="1.39"/><rect class="cls-2" x="50.78" y="8.32" width="2.12" height="1.39"/><rect class="cls-2" x="10.58" y="8.32" width="2.12" height="1.39"/><rect class="cls-2" x="8.46" y="8.32" width="2.12" height="1.39"/><rect class="cls-2" x="6.35" y="8.32" width="2.12" height="1.39"/><rect class="cls-2" x="2.12" y="8.32" width="2.12" height="1.39"/><rect class="cls-2" y="8.32" width="2.12" height="1.39"/><rect class="cls-2" x="61.35" y="6.93" width="2.12" height="1.39"/><rect class="cls-2" x="59.24" y="6.93" width="2.12" height="1.39"/><rect class="cls-2" x="57.12" y="6.93" width="2.12" height="1.39"/><rect class="cls-2" x="55.01" y="6.93" width="2.12" height="1.39"/><rect class="cls-2" x="52.89" y="6.93" width="2.12" height="1.39"/><rect class="cls-2" x="8.46" y="6.93" width="2.12" height="1.39"/><rect class="cls-2" x="6.35" y="6.93" width="2.12" height="1.39"/><rect class="cls-2" x="4.23" y="6.93" width="2.12" height="1.39"/><rect class="cls-2" x="2.12" y="6.93" width="2.12" height="1.39"/><rect class="cls-2" y="6.93" width="2.12" height="1.39"/><rect class="cls-2" x="61.35" y="5.54" width="2.12" height="1.39"/><rect class="cls-2" x="59.24" y="5.54" width="2.12" height="1.39"/><rect class="cls-2" x="57.12" y="5.54" width="2.12" height="1.39"/><rect class="cls-2" x="55.01" y="5.54" width="2.12" height="1.39"/><rect class="cls-2" x="6.35" y="5.54" width="2.12" height="1.39"/><rect class="cls-2" x="4.23" y="5.54" width="2.12" height="1.39"/><rect class="cls-2" x="2.12" y="5.54" width="2.12" height="1.39"/><rect class="cls-2" y="5.54" width="2.12" height="1.39"/><rect class="cls-2" x="61.35" y="4.16" width="2.12" height="1.39"/><rect class="cls-2" x="59.24" y="4.16" width="2.12" height="1.39"/><rect class="cls-2" x="57.12" y="4.16" width="2.12" height="1.39"/><rect class="cls-2" x="55.01" y="4.16" width="2.12" height="1.39"/><rect class="cls-2" x="6.35" y="4.16" width="2.12" height="1.39"/><rect class="cls-2" x="4.23" y="4.16" width="2.12" height="1.39"/><rect class="cls-2" x="2.12" y="4.16" width="2.12" height="1.39"/><rect class="cls-2" y="4.16" width="2.12" height="1.39"/><rect class="cls-2" x="59.24" y="2.77" width="2.12" height="1.39"/><rect class="cls-2" x="57.12" y="2.77" width="2.12" height="1.39"/><rect class="cls-2" x="55.01" y="2.77" width="2.12" height="1.39"/><rect class="cls-2" x="52.89" y="2.77" width="2.12" height="1.39"/><rect class="cls-2" x="50.78" y="2.77" width="2.12" height="1.39"/><rect class="cls-2" x="48.66" y="2.77" width="2.12" height="1.39"/><rect class="cls-2" x="46.54" y="2.77" width="2.12" height="1.39"/><rect class="cls-2" x="44.43" y="2.77" width="2.12" height="1.39"/><rect class="cls-2" x="42.31" y="2.77" width="2.12" height="1.39"/><rect class="cls-2" x="40.2" y="2.77" width="2.12" height="1.39"/><rect class="cls-2" x="38.08" y="2.77" width="2.12" height="1.39"/><rect class="cls-2" x="35.97" y="2.77" width="2.12" height="1.39"/><rect class="cls-2" x="33.85" y="2.77" width="2.12" height="1.39"/><rect class="cls-2" x="31.73" y="2.77" width="2.12" height="1.39"/><rect class="cls-2" x="29.62" y="2.77" width="2.12" height="1.39"/><rect class="cls-2" x="27.5" y="2.77" width="2.12" height="1.39"/><rect class="cls-2" x="25.39" y="2.77" width="2.12" height="1.39"/><rect class="cls-2" x="23.27" y="2.77" width="2.12" height="1.39"/><rect class="cls-2" x="21.16" y="2.77" width="2.12" height="1.39"/><rect class="cls-2" x="19.04" y="2.77" width="2.12" height="1.39"/><rect class="cls-2" x="16.93" y="2.77" width="2.12" height="1.39"/><rect class="cls-2" x="14.81" y="2.77" width="2.12" height="1.39"/><rect class="cls-2" x="12.69" y="2.77" width="2.12" height="1.39"/><rect class="cls-2" x="10.58" y="2.77" width="2.12" height="1.39"/><rect class="cls-2" x="8.46" y="2.77" width="2.12" height="1.39"/><rect class="cls-2" x="6.35" y="2.77" width="2.12" height="1.39"/><rect class="cls-2" x="4.23" y="2.77" width="2.12" height="1.39"/><rect class="cls-2" x="2.12" y="2.77" width="2.12" height="1.39"/><rect class="cls-2" x="59.24" y="1.39" width="2.12" height="1.39"/><rect class="cls-2" x="57.12" y="1.39" width="2.12" height="1.39"/><rect class="cls-2" x="55.01" y="1.39" width="2.12" height="1.39"/><rect class="cls-2" x="52.89" y="1.39" width="2.12" height="1.39"/><rect class="cls-2" x="50.78" y="1.39" width="2.12" height="1.39"/><rect class="cls-2" x="48.66" y="1.39" width="2.12" height="1.39"/><rect class="cls-2" x="46.54" y="1.39" width="2.12" height="1.39"/><rect class="cls-2" x="44.43" y="1.39" width="2.12" height="1.39"/><rect class="cls-2" x="42.31" y="1.39" width="2.12" height="1.39"/><rect class="cls-2" x="40.2" y="1.39" width="2.12" height="1.39"/><rect class="cls-2" x="38.08" y="1.39" width="2.12" height="1.39"/><rect class="cls-2" x="35.97" y="1.39" width="2.12" height="1.39"/><rect class="cls-2" x="33.85" y="1.39" width="2.12" height="1.39"/><rect class="cls-2" x="31.73" y="1.39" width="2.12" height="1.39"/><rect class="cls-2" x="29.62" y="1.39" width="2.12" height="1.39"/><rect class="cls-2" x="27.5" y="1.39" width="2.12" height="1.39"/><rect class="cls-2" x="25.39" y="1.39" width="2.12" height="1.39"/><rect class="cls-2" x="23.27" y="1.39" width="2.12" height="1.39"/><rect class="cls-2" x="21.16" y="1.39" width="2.12" height="1.39"/><rect class="cls-2" x="19.04" y="1.39" width="2.12" height="1.39"/><rect class="cls-2" x="16.93" y="1.39" width="2.12" height="1.39"/><rect class="cls-2" x="14.81" y="1.39" width="2.12" height="1.39"/><rect class="cls-2" x="12.69" y="1.39" width="2.12" height="1.39"/><rect class="cls-2" x="10.58" y="1.39" width="2.12" height="1.39"/><rect class="cls-2" x="8.46" y="1.39" width="2.12" height="1.39"/><rect class="cls-2" x="6.35" y="1.39" width="2.12" height="1.39"/><rect class="cls-2" x="4.23" y="1.39" width="2.12" height="1.39"/><rect class="cls-2" x="2.12" y="1.39" width="2.12" height="1.39"/><rect class="cls-2" x="57.12" width="2.12" height="1.39"/><rect class="cls-2" x="55.01" width="2.12" height="1.39"/><rect class="cls-2" x="52.89" width="2.12" height="1.39"/><rect class="cls-2" x="50.78" width="2.12" height="1.39"/><rect class="cls-2" x="48.66" width="2.12" height="1.39"/><rect class="cls-2" x="46.54" width="2.12" height="1.39"/><rect class="cls-2" x="44.43" width="2.12" height="1.39"/><rect class="cls-2" x="42.31" width="2.12" height="1.39"/><rect class="cls-2" x="40.2" width="2.12" height="1.39"/><rect class="cls-2" x="38.08" width="2.12" height="1.39"/><rect class="cls-2" x="35.97" width="2.12" height="1.39"/><rect class="cls-2" x="33.85" width="2.12" height="1.39"/><rect class="cls-2" x="31.73" width="2.12" height="1.39"/><rect class="cls-2" x="29.62" width="2.12" height="1.39"/><rect class="cls-2" x="27.5" width="2.12" height="1.39"/><rect class="cls-2" x="25.39" width="2.12" height="1.39"/><rect class="cls-2" x="23.27" width="2.12" height="1.39"/><rect class="cls-2" x="21.16" width="2.12" height="1.39"/><rect class="cls-2" x="19.04" width="2.12" height="1.39"/><rect class="cls-2" x="16.93" width="2.12" height="1.39"/><rect class="cls-2" x="14.81" width="2.12" height="1.39"/><rect class="cls-2" x="12.69" width="2.12" height="1.39"/><rect class="cls-2" x="10.58" width="2.12" height="1.39"/><rect class="cls-2" x="8.46" width="2.12" height="1.39"/><rect class="cls-2" x="6.35" width="2.12" height="1.39"/><rect class="cls-2" x="4.23" width="2.12" height="1.39"/></svg>