<svg id="Layer_1" data-name="Layer 1" xmlns="http://www.w3.org/2000/svg" viewBox="0 0 69 44.47"><defs><style>.cls-1{fill:#0e7900;}</style></defs><rect class="cls-1" x="64.4" y="42.93" width="2.3" height="1.53"/><rect class="cls-1" x="62.1" y="42.93" width="2.3" height="1.53"/><rect class="cls-1" x="59.8" y="42.93" width="2.3" height="1.53"/><rect class="cls-1" x="57.5" y="42.93" width="2.3" height="1.53"/><rect class="cls-1" x="55.2" y="42.93" width="2.3" height="1.53"/><rect class="cls-1" x="52.9" y="42.93" width="2.3" height="1.53"/><rect class="cls-1" x="50.6" y="42.93" width="2.3" height="1.53"/><rect class="cls-1" x="48.3" y="42.93" width="2.3" height="1.53"/><rect class="cls-1" x="46" y="42.93" width="2.3" height="1.53"/><rect class="cls-1" x="43.7" y="42.93" width="2.3" height="1.53"/><rect class="cls-1" x="41.4" y="42.93" width="2.3" height="1.53"/><rect class="cls-1" x="39.1" y="42.93" width="2.3" height="1.53"/><rect class="cls-1" x="36.8" y="42.93" width="2.3" height="1.53"/><rect class="cls-1" x="34.5" y="42.93" width="2.3" height="1.53"/><rect class="cls-1" x="32.2" y="42.93" width="2.3" height="1.53"/><rect class="cls-1" x="29.9" y="42.93" width="2.3" height="1.53"/><rect class="cls-1" x="27.6" y="42.93" width="2.3" height="1.53"/><rect class="cls-1" x="25.3" y="42.93" width="2.3" height="1.53"/><rect class="cls-1" x="23" y="42.93" width="2.3" height="1.53"/><rect class="cls-1" x="20.7" y="42.93" width="2.3" height="1.53"/><rect class="cls-1" x="18.4" y="42.93" width="2.3" height="1.53"/><rect class="cls-1" x="16.1" y="42.93" width="2.3" height="1.53"/><rect class="cls-1" x="13.8" y="42.93" width="2.3" height="1.53"/><rect class="cls-1" x="11.5" y="42.93" width="2.3" height="1.53"/><rect class="cls-1" x="9.2" y="42.93" width="2.3" height="1.53"/><rect class="cls-1" x="6.9" y="42.93" width="2.3" height="1.53"/><rect class="cls-1" x="4.6" y="42.93" width="2.3" height="1.53"/><rect class="cls-1" x="2.3" y="42.93" width="2.3" height="1.53"/><rect class="cls-1" x="64.4" y="41.4" width="2.3" height="1.53"/><rect class="cls-1" x="62.1" y="41.4" width="2.3" height="1.53"/><rect class="cls-1" x="59.8" y="41.4" width="2.3" height="1.53"/><rect class="cls-1" x="57.5" y="41.4" width="2.3" height="1.53"/><rect class="cls-1" x="55.2" y="41.4" width="2.3" height="1.53"/><rect class="cls-1" x="52.9" y="41.4" width="2.3" height="1.53"/><rect class="cls-1" x="50.6" y="41.4" width="2.3" height="1.53"/><rect class="cls-1" x="48.3" y="41.4" width="2.3" height="1.53"/><rect class="cls-1" x="46" y="41.4" width="2.3" height="1.53"/><rect class="cls-1" x="43.7" y="41.4" width="2.3" height="1.53"/><rect class="cls-1" x="41.4" y="41.4" width="2.3" height="1.53"/><rect class="cls-1" x="39.1" y="41.4" width="2.3" height="1.53"/><rect class="cls-1" x="36.8" y="41.4" width="2.3" height="1.53"/><rect class="cls-1" x="34.5" y="41.4" width="2.3" height="1.53"/><rect class="cls-1" x="32.2" y="41.4" width="2.3" height="1.53"/><rect class="cls-1" x="29.9" y="41.4" width="2.3" height="1.53"/><rect class="cls-1" x="27.6" y="41.4" width="2.3" height="1.53"/><rect class="cls-1" x="25.3" y="41.4" width="2.3" height="1.53"/><rect class="cls-1" x="23" y="41.4" width="2.3" height="1.53"/><rect class="cls-1" x="20.7" y="41.4" width="2.3" height="1.53"/><rect class="cls-1" x="18.4" y="41.4" width="2.3" height="1.53"/><rect class="cls-1" x="16.1" y="41.4" width="2.3" height="1.53"/><rect class="cls-1" x="13.8" y="41.4" width="2.3" height="1.53"/><rect class="cls-1" x="11.5" y="41.4" width="2.3" height="1.53"/><rect class="cls-1" x="9.2" y="41.4" width="2.3" height="1.53"/><rect class="cls-1" x="6.9" y="41.4" width="2.3" height="1.53"/><rect class="cls-1" x="4.6" y="41.4" width="2.3" height="1.53"/><rect class="cls-1" x="2.3" y="41.4" width="2.3" height="1.53"/><rect class="cls-1" x="66.7" y="39.87" width="2.3" height="1.53"/><rect class="cls-1" x="64.4" y="39.87" width="2.3" height="1.53"/><rect class="cls-1" x="62.1" y="39.87" width="2.3" height="1.53"/><rect class="cls-1" x="59.8" y="39.87" width="2.3" height="1.53"/><rect class="cls-1" x="57.5" y="39.87" width="2.3" height="1.53"/><rect class="cls-1" x="55.2" y="39.87" width="2.3" height="1.53"/><rect class="cls-1" x="52.9" y="39.87" width="2.3" height="1.53"/><rect class="cls-1" x="50.6" y="39.87" width="2.3" height="1.53"/><rect class="cls-1" x="48.3" y="39.87" width="2.3" height="1.53"/><rect class="cls-1" x="46" y="39.87" width="2.3" height="1.53"/><rect class="cls-1" x="43.7" y="39.87" width="2.3" height="1.53"/><rect class="cls-1" x="41.4" y="39.87" width="2.3" height="1.53"/><rect class="cls-1" x="39.1" y="39.87" width="2.3" height="1.53"/><rect class="cls-1" x="36.8" y="39.87" width="2.3" height="1.53"/><rect class="cls-1" x="34.5" y="39.87" width="2.3" height="1.53"/><rect class="cls-1" x="32.2" y="39.87" width="2.3" height="1.53"/><rect class="cls-1" x="29.9" y="39.87" width="2.3" height="1.53"/><rect class="cls-1" x="27.6" y="39.87" width="2.3" height="1.53"/><rect class="cls-1" x="25.3" y="39.87" width="2.3" height="1.53"/><rect class="cls-1" x="23" y="39.87" width="2.3" height="1.53"/><rect class="cls-1" x="20.7" y="39.87" width="2.3" height="1.53"/><rect class="cls-1" x="18.4" y="39.87" width="2.3" height="1.53"/><rect class="cls-1" x="16.1" y="39.87" width="2.3" height="1.53"/><rect class="cls-1" x="13.8" y="39.87" width="2.3" height="1.53"/><rect class="cls-1" x="11.5" y="39.87" width="2.3" height="1.53"/><rect class="cls-1" x="9.2" y="39.87" width="2.3" height="1.53"/><rect class="cls-1" x="6.9" y="39.87" width="2.3" height="1.53"/><rect class="cls-1" x="4.6" y="39.87" width="2.3" height="1.53"/><rect class="cls-1" x="2.3" y="39.87" width="2.3" height="1.53"/><rect class="cls-1" y="39.87" width="2.3" height="1.53"/><rect class="cls-1" x="66.7" y="38.33" width="2.3" height="1.53"/><rect class="cls-1" x="64.4" y="38.33" width="2.3" height="1.53"/><rect class="cls-1" x="62.1" y="38.33" width="2.3" height="1.53"/><rect class="cls-1" x="59.8" y="38.33" width="2.3" height="1.53"/><rect class="cls-1" x="6.9" y="38.33" width="2.3" height="1.53"/><rect class="cls-1" x="4.6" y="38.33" width="2.3" height="1.53"/><rect class="cls-1" x="2.3" y="38.33" width="2.3" height="1.53"/><rect class="cls-1" y="38.33" width="2.3" height="1.53"/><rect class="cls-1" x="66.7" y="36.8" width="2.3" height="1.53"/><rect class="cls-1" x="64.4" y="36.8" width="2.3" height="1.53"/><rect class="cls-1" x="62.1" y="36.8" width="2.3" height="1.53"/><rect class="cls-1" x="59.8" y="36.8" width="2.3" height="1.53"/><rect class="cls-1" x="57.5" y="36.8" width="2.3" height="1.53"/><rect class="cls-1" x="9.2" y="36.8" width="2.3" height="1.53"/><rect class="cls-1" x="6.9" y="36.8" width="2.3" height="1.53"/><rect class="cls-1" x="4.6" y="36.8" width="2.3" height="1.53"/><rect class="cls-1" x="2.3" y="36.8" width="2.3" height="1.53"/><rect class="cls-1" y="36.8" width="2.3" height="1.53"/><rect class="cls-1" x="66.7" y="35.27" width="2.3" height="1.53"/><rect class="cls-1" x="64.4" y="35.27" width="2.3" height="1.53"/><rect class="cls-1" x="62.1" y="35.27" width="2.3" height="1.53"/><rect class="cls-1" x="59.8" y="35.27" width="2.3" height="1.53"/><rect class="cls-1" x="57.5" y="35.27" width="2.3" height="1.53"/><rect class="cls-1" x="9.2" y="35.27" width="2.3" height="1.53"/><rect class="cls-1" x="6.9" y="35.27" width="2.3" height="1.53"/><rect class="cls-1" x="2.3" y="35.27" width="2.3" height="1.53"/><rect class="cls-1" y="35.27" width="2.3" height="1.53"/><rect class="cls-1" x="66.7" y="33.73" width="2.3" height="1.53"/><rect class="cls-1" x="64.4" y="33.73" width="2.3" height="1.53"/><rect class="cls-1" x="59.8" y="33.73" width="2.3" height="1.53"/><rect class="cls-1" x="57.5" y="33.73" width="2.3" height="1.53"/><rect class="cls-1" x="55.2" y="33.73" width="2.3" height="1.53"/><rect class="cls-1" x="11.5" y="33.73" width="2.3" height="1.53"/><rect class="cls-1" x="9.2" y="33.73" width="2.3" height="1.53"/><rect class="cls-1" x="6.9" y="33.73" width="2.3" height="1.53"/><rect class="cls-1" x="2.3" y="33.73" width="2.3" height="1.53"/><rect class="cls-1" y="33.73" width="2.3" height="1.53"/><rect class="cls-1" x="66.7" y="32.2" width="2.3" height="1.53"/><rect class="cls-1" x="64.4" y="32.2" width="2.3" height="1.53"/><rect class="cls-1" x="57.5" y="32.2" width="2.3" height="1.53"/><rect class="cls-1" x="55.2" y="32.2" width="2.3" height="1.53"/><rect class="cls-1" x="52.9" y="32.2" width="2.3" height="1.53"/><rect class="cls-1" x="13.8" y="32.2" width="2.3" height="1.53"/><rect class="cls-1" x="11.5" y="32.2" width="2.3" height="1.53"/><rect class="cls-1" x="9.2" y="32.2" width="2.3" height="1.53"/><rect class="cls-1" x="2.3" y="32.2" width="2.3" height="1.53"/><rect class="cls-1" y="32.2" width="2.3" height="1.53"/><rect class="cls-1" x="66.7" y="30.67" width="2.3" height="1.53"/><rect class="cls-1" x="64.4" y="30.67" width="2.3" height="1.53"/><rect class="cls-1" x="55.2" y="30.67" width="2.3" height="1.53"/><rect class="cls-1" x="52.9" y="30.67" width="2.3" height="1.53"/><rect class="cls-1" x="50.6" y="30.67" width="2.3" height="1.53"/><rect class="cls-1" x="34.5" y="30.67" width="2.3" height="1.53"/><rect class="cls-1" x="32.2" y="30.67" width="2.3" height="1.53"/><rect class="cls-1" x="13.8" y="30.67" width="2.3" height="1.53"/><rect class="cls-1" x="11.5" y="30.67" width="2.3" height="1.53"/><rect class="cls-1" x="2.3" y="30.67" width="2.3" height="1.53"/><rect class="cls-1" y="30.67" width="2.3" height="1.53"/><rect class="cls-1" x="66.7" y="29.13" width="2.3" height="1.53"/><rect class="cls-1" x="64.4" y="29.13" width="2.3" height="1.53"/><rect class="cls-1" x="52.9" y="29.13" width="2.3" height="1.53"/><rect class="cls-1" x="50.6" y="29.13" width="2.3" height="1.53"/><rect class="cls-1" x="39.1" y="29.13" width="2.3" height="1.53"/><rect class="cls-1" x="36.8" y="29.13" width="2.3" height="1.53"/><rect class="cls-1" x="34.5" y="29.13" width="2.3" height="1.53"/><rect class="cls-1" x="32.2" y="29.13" width="2.3" height="1.53"/><rect class="cls-1" x="29.9" y="29.13" width="2.3" height="1.53"/><rect class="cls-1" x="27.6" y="29.13" width="2.3" height="1.53"/><rect class="cls-1" x="16.1" y="29.13" width="2.3" height="1.53"/><rect class="cls-1" x="13.8" y="29.13" width="2.3" height="1.53"/><rect class="cls-1" x="11.5" y="29.13" width="2.3" height="1.53"/><rect class="cls-1" x="2.3" y="29.13" width="2.3" height="1.53"/><rect class="cls-1" y="29.13" width="2.3" height="1.53"/><rect class="cls-1" x="66.7" y="27.6" width="2.3" height="1.53"/><rect class="cls-1" x="64.4" y="27.6" width="2.3" height="1.53"/><rect class="cls-1" x="52.9" y="27.6" width="2.3" height="1.53"/><rect class="cls-1" x="50.6" y="27.6" width="2.3" height="1.53"/><rect class="cls-1" x="48.3" y="27.6" width="2.3" height="1.53"/><rect class="cls-1" x="41.4" y="27.6" width="2.3" height="1.53"/><rect class="cls-1" x="39.1" y="27.6" width="2.3" height="1.53"/><rect class="cls-1" x="36.8" y="27.6" width="2.3" height="1.53"/><rect class="cls-1" x="34.5" y="27.6" width="2.3" height="1.53"/><rect class="cls-1" x="32.2" y="27.6" width="2.3" height="1.53"/><rect class="cls-1" x="29.9" y="27.6" width="2.3" height="1.53"/><rect class="cls-1" x="27.6" y="27.6" width="2.3" height="1.53"/><rect class="cls-1" x="25.3" y="27.6" width="2.3" height="1.53"/><rect class="cls-1" x="18.4" y="27.6" width="2.3" height="1.53"/><rect class="cls-1" x="16.1" y="27.6" width="2.3" height="1.53"/><rect class="cls-1" x="13.8" y="27.6" width="2.3" height="1.53"/><rect class="cls-1" x="2.3" y="27.6" width="2.3" height="1.53"/><rect class="cls-1" y="27.6" width="2.3" height="1.53"/><rect class="cls-1" x="66.7" y="26.07" width="2.3" height="1.53"/><rect class="cls-1" x="64.4" y="26.07" width="2.3" height="1.53"/><rect class="cls-1" x="50.6" y="26.07" width="2.3" height="1.53"/><rect class="cls-1" x="48.3" y="26.07" width="2.3" height="1.53"/><rect class="cls-1" x="46" y="26.07" width="2.3" height="1.53"/><rect class="cls-1" x="41.4" y="26.07" width="2.3" height="1.53"/><rect class="cls-1" x="39.1" y="26.07" width="2.3" height="1.53"/><rect class="cls-1" x="36.8" y="26.07" width="2.3" height="1.53"/><rect class="cls-1" x="29.9" y="26.07" width="2.3" height="1.53"/><rect class="cls-1" x="27.6" y="26.07" width="2.3" height="1.53"/><rect class="cls-1" x="25.3" y="26.07" width="2.3" height="1.53"/><rect class="cls-1" x="18.4" y="26.07" width="2.3" height="1.53"/><rect class="cls-1" x="16.1" y="26.07" width="2.3" height="1.53"/><rect class="cls-1" x="2.3" y="26.07" width="2.3" height="1.53"/><rect class="cls-1" y="26.07" width="2.3" height="1.53"/><rect class="cls-1" x="66.7" y="24.53" width="2.3" height="1.53"/><rect class="cls-1" x="64.4" y="24.53" width="2.3" height="1.53"/><rect class="cls-1" x="48.3" y="24.53" width="2.3" height="1.53"/><rect class="cls-1" x="46" y="24.53" width="2.3" height="1.53"/><rect class="cls-1" x="43.7" y="24.53" width="2.3" height="1.53"/><rect class="cls-1" x="41.4" y="24.53" width="2.3" height="1.53"/><rect class="cls-1" x="39.1" y="24.53" width="2.3" height="1.53"/><rect class="cls-1" x="27.6" y="24.53" width="2.3" height="1.53"/><rect class="cls-1" x="25.3" y="24.53" width="2.3" height="1.53"/><rect class="cls-1" x="23" y="24.53" width="2.3" height="1.53"/><rect class="cls-1" x="20.7" y="24.53" width="2.3" height="1.53"/><rect class="cls-1" x="18.4" y="24.53" width="2.3" height="1.53"/><rect class="cls-1" x="2.3" y="24.53" width="2.3" height="1.53"/><rect class="cls-1" y="24.53" width="2.3" height="1.53"/><rect class="cls-1" x="66.7" y="23" width="2.3" height="1.53"/><rect class="cls-1" x="64.4" y="23" width="2.3" height="1.53"/><rect class="cls-1" x="48.3" y="23" width="2.3" height="1.53"/><rect class="cls-1" x="46" y="23" width="2.3" height="1.53"/><rect class="cls-1" x="43.7" y="23" width="2.3" height="1.53"/><rect class="cls-1" x="41.4" y="23" width="2.3" height="1.53"/><rect class="cls-1" x="25.3" y="23" width="2.3" height="1.53"/><rect class="cls-1" x="23" y="23" width="2.3" height="1.53"/><rect class="cls-1" x="20.7" y="23" width="2.3" height="1.53"/><rect class="cls-1" x="18.4" y="23" width="2.3" height="1.53"/><rect class="cls-1" x="2.3" y="23" width="2.3" height="1.53"/><rect class="cls-1" y="23" width="2.3" height="1.53"/><rect class="cls-1" x="66.7" y="21.47" width="2.3" height="1.53"/><rect class="cls-1" x="64.4" y="21.47" width="2.3" height="1.53"/><rect class="cls-1" x="46" y="21.47" width="2.3" height="1.53"/><rect class="cls-1" x="43.7" y="21.47" width="2.3" height="1.53"/><rect class="cls-1" x="23" y="21.47" width="2.3" height="1.53"/><rect class="cls-1" x="20.7" y="21.47" width="2.3" height="1.53"/><rect class="cls-1" x="18.4" y="21.47" width="2.3" height="1.53"/><rect class="cls-1" x="2.3" y="21.47" width="2.3" height="1.53"/><rect class="cls-1" y="21.47" width="2.3" height="1.53"/><rect class="cls-1" x="66.7" y="19.93" width="2.3" height="1.53"/><rect class="cls-1" x="64.4" y="19.93" width="2.3" height="1.53"/><rect class="cls-1" x="48.3" y="19.93" width="2.3" height="1.53"/><rect class="cls-1" x="46" y="19.93" width="2.3" height="1.53"/><rect class="cls-1" x="43.7" y="19.93" width="2.3" height="1.53"/><rect class="cls-1" x="20.7" y="19.93" width="2.3" height="1.53"/><rect class="cls-1" x="18.4" y="19.93" width="2.3" height="1.53"/><rect class="cls-1" x="2.3" y="19.93" width="2.3" height="1.53"/><rect class="cls-1" y="19.93" width="2.3" height="1.53"/><rect class="cls-1" x="66.7" y="18.4" width="2.3" height="1.53"/><rect class="cls-1" x="64.4" y="18.4" width="2.3" height="1.53"/><rect class="cls-1" x="50.6" y="18.4" width="2.3" height="1.53"/><rect class="cls-1" x="48.3" y="18.4" width="2.3" height="1.53"/><rect class="cls-1" x="46" y="18.4" width="2.3" height="1.53"/><rect class="cls-1" x="20.7" y="18.4" width="2.3" height="1.53"/><rect class="cls-1" x="18.4" y="18.4" width="2.3" height="1.53"/><rect class="cls-1" x="16.1" y="18.4" width="2.3" height="1.53"/><rect class="cls-1" x="2.3" y="18.4" width="2.3" height="1.53"/><rect class="cls-1" y="18.4" width="2.3" height="1.53"/><rect class="cls-1" x="66.7" y="16.87" width="2.3" height="1.53"/><rect class="cls-1" x="64.4" y="16.87" width="2.3" height="1.53"/><rect class="cls-1" x="52.9" y="16.87" width="2.3" height="1.53"/><rect class="cls-1" x="50.6" y="16.87" width="2.3" height="1.53"/><rect class="cls-1" x="48.3" y="16.87" width="2.3" height="1.53"/><rect class="cls-1" x="18.4" y="16.87" width="2.3" height="1.53"/><rect class="cls-1" x="16.1" y="16.87" width="2.3" height="1.53"/><rect class="cls-1" x="13.8" y="16.87" width="2.3" height="1.53"/><rect class="cls-1" x="2.3" y="16.87" width="2.3" height="1.53"/><rect class="cls-1" y="16.87" width="2.3" height="1.53"/><rect class="cls-1" x="66.7" y="15.33" width="2.3" height="1.53"/><rect class="cls-1" x="64.4" y="15.33" width="2.3" height="1.53"/><rect class="cls-1" x="52.9" y="15.33" width="2.3" height="1.53"/><rect class="cls-1" x="50.6" y="15.33" width="2.3" height="1.53"/><rect class="cls-1" x="48.3" y="15.33" width="2.3" height="1.53"/><rect class="cls-1" x="16.1" y="15.33" width="2.3" height="1.53"/><rect class="cls-1" x="13.8" y="15.33" width="2.3" height="1.53"/><rect class="cls-1" x="2.3" y="15.33" width="2.3" height="1.53"/><rect class="cls-1" y="15.33" width="2.3" height="1.53"/><rect class="cls-1" x="66.7" y="13.8" width="2.3" height="1.53"/><rect class="cls-1" x="64.4" y="13.8" width="2.3" height="1.53"/><rect class="cls-1" x="55.2" y="13.8" width="2.3" height="1.53"/><rect class="cls-1" x="52.9" y="13.8" width="2.3" height="1.53"/><rect class="cls-1" x="50.6" y="13.8" width="2.3" height="1.53"/><rect class="cls-1" x="16.1" y="13.8" width="2.3" height="1.53"/><rect class="cls-1" x="13.8" y="13.8" width="2.3" height="1.53"/><rect class="cls-1" x="11.5" y="13.8" width="2.3" height="1.53"/><rect class="cls-1" x="2.3" y="13.8" width="2.3" height="1.53"/><rect class="cls-1" y="13.8" width="2.3" height="1.53"/><rect class="cls-1" x="66.7" y="12.27" width="2.3" height="1.53"/><rect class="cls-1" x="64.4" y="12.27" width="2.3" height="1.53"/><rect class="cls-1" x="57.5" y="12.27" width="2.3" height="1.53"/><rect class="cls-1" x="55.2" y="12.27" width="2.3" height="1.53"/><rect class="cls-1" x="52.9" y="12.27" width="2.3" height="1.53"/><rect class="cls-1" x="13.8" y="12.27" width="2.3" height="1.53"/><rect class="cls-1" x="11.5" y="12.27" width="2.3" height="1.53"/><rect class="cls-1" x="9.2" y="12.27" width="2.3" height="1.53"/><rect class="cls-1" x="2.3" y="12.27" width="2.3" height="1.53"/><rect class="cls-1" y="12.27" width="2.3" height="1.53"/><rect class="cls-1" x="66.7" y="10.73" width="2.3" height="1.53"/><rect class="cls-1" x="64.4" y="10.73" width="2.3" height="1.53"/><rect class="cls-1" x="57.5" y="10.73" width="2.3" height="1.53"/><rect class="cls-1" x="55.2" y="10.73" width="2.3" height="1.53"/><rect class="cls-1" x="52.9" y="10.73" width="2.3" height="1.53"/><rect class="cls-1" x="11.5" y="10.73" width="2.3" height="1.53"/><rect class="cls-1" x="9.2" y="10.73" width="2.3" height="1.53"/><rect class="cls-1" x="2.3" y="10.73" width="2.3" height="1.53"/><rect class="cls-1" y="10.73" width="2.3" height="1.53"/><rect class="cls-1" x="66.7" y="9.2" width="2.3" height="1.53"/><rect class="cls-1" x="64.4" y="9.2" width="2.3" height="1.53"/><rect class="cls-1" x="59.8" y="9.2" width="2.3" height="1.53"/><rect class="cls-1" x="57.5" y="9.2" width="2.3" height="1.53"/><rect class="cls-1" x="55.2" y="9.2" width="2.3" height="1.53"/><rect class="cls-1" x="11.5" y="9.2" width="2.3" height="1.53"/><rect class="cls-1" x="9.2" y="9.2" width="2.3" height="1.53"/><rect class="cls-1" x="6.9" y="9.2" width="2.3" height="1.53"/><rect class="cls-1" x="2.3" y="9.2" width="2.3" height="1.53"/><rect class="cls-1" y="9.2" width="2.3" height="1.53"/><rect class="cls-1" x="66.7" y="7.67" width="2.3" height="1.53"/><rect class="cls-1" x="64.4" y="7.67" width="2.3" height="1.53"/><rect class="cls-1" x="62.1" y="7.67" width="2.3" height="1.53"/><rect class="cls-1" x="59.8" y="7.67" width="2.3" height="1.53"/><rect class="cls-1" x="57.5" y="7.67" width="2.3" height="1.53"/><rect class="cls-1" x="9.2" y="7.67" width="2.3" height="1.53"/><rect class="cls-1" x="6.9" y="7.67" width="2.3" height="1.53"/><rect class="cls-1" x="4.6" y="7.67" width="2.3" height="1.53"/><rect class="cls-1" x="2.3" y="7.67" width="2.3" height="1.53"/><rect class="cls-1" y="7.67" width="2.3" height="1.53"/><rect class="cls-1" x="66.7" y="6.13" width="2.3" height="1.53"/><rect class="cls-1" x="64.4" y="6.13" width="2.3" height="1.53"/><rect class="cls-1" x="62.1" y="6.13" width="2.3" height="1.53"/><rect class="cls-1" x="59.8" y="6.13" width="2.3" height="1.53"/><rect class="cls-1" x="6.9" y="6.13" width="2.3" height="1.53"/><rect class="cls-1" x="4.6" y="6.13" width="2.3" height="1.53"/><rect class="cls-1" x="2.3" y="6.13" width="2.3" height="1.53"/><rect class="cls-1" y="6.13" width="2.3" height="1.53"/><rect class="cls-1" x="66.7" y="4.6" width="2.3" height="1.53"/><rect class="cls-1" x="64.4" y="4.6" width="2.3" height="1.53"/><rect class="cls-1" x="62.1" y="4.6" width="2.3" height="1.53"/><rect class="cls-1" x="59.8" y="4.6" width="2.3" height="1.53"/><rect class="cls-1" x="6.9" y="4.6" width="2.3" height="1.53"/><rect class="cls-1" x="4.6" y="4.6" width="2.3" height="1.53"/><rect class="cls-1" x="2.3" y="4.6" width="2.3" height="1.53"/><rect class="cls-1" y="4.6" width="2.3" height="1.53"/><rect class="cls-1" x="64.4" y="3.07" width="2.3" height="1.53"/><rect class="cls-1" x="62.1" y="3.07" width="2.3" height="1.53"/><rect class="cls-1" x="59.8" y="3.07" width="2.3" height="1.53"/><rect class="cls-1" x="57.5" y="3.07" width="2.3" height="1.53"/><rect class="cls-1" x="55.2" y="3.07" width="2.3" height="1.53"/><rect class="cls-1" x="52.9" y="3.07" width="2.3" height="1.53"/><rect class="cls-1" x="50.6" y="3.07" width="2.3" height="1.53"/><rect class="cls-1" x="48.3" y="3.07" width="2.3" height="1.53"/><rect class="cls-1" x="46" y="3.07" width="2.3" height="1.53"/><rect class="cls-1" x="43.7" y="3.07" width="2.3" height="1.53"/><rect class="cls-1" x="41.4" y="3.07" width="2.3" height="1.53"/><rect class="cls-1" x="39.1" y="3.07" width="2.3" height="1.53"/><rect class="cls-1" x="36.8" y="3.07" width="2.3" height="1.53"/><rect class="cls-1" x="34.5" y="3.07" width="2.3" height="1.53"/><rect class="cls-1" x="32.2" y="3.07" width="2.3" height="1.53"/><rect class="cls-1" x="29.9" y="3.07" width="2.3" height="1.53"/><rect class="cls-1" x="27.6" y="3.07" width="2.3" height="1.53"/><rect class="cls-1" x="25.3" y="3.07" width="2.3" height="1.53"/><rect class="cls-1" x="23" y="3.07" width="2.3" height="1.53"/><rect class="cls-1" x="20.7" y="3.07" width="2.3" height="1.53"/><rect class="cls-1" x="18.4" y="3.07" width="2.3" height="1.53"/><rect class="cls-1" x="16.1" y="3.07" width="2.3" height="1.53"/><rect class="cls-1" x="13.8" y="3.07" width="2.3" height="1.53"/><rect class="cls-1" x="11.5" y="3.07" width="2.3" height="1.53"/><rect class="cls-1" x="9.2" y="3.07" width="2.3" height="1.53"/><rect class="cls-1" x="6.9" y="3.07" width="2.3" height="1.53"/><rect class="cls-1" x="4.6" y="3.07" width="2.3" height="1.53"/><rect class="cls-1" x="2.3" y="3.07" width="2.3" height="1.53"/><rect class="cls-1" x="64.4" y="1.53" width="2.3" height="1.53"/><rect class="cls-1" x="62.1" y="1.53" width="2.3" height="1.53"/><rect class="cls-1" x="59.8" y="1.53" width="2.3" height="1.53"/><rect class="cls-1" x="57.5" y="1.53" width="2.3" height="1.53"/><rect class="cls-1" x="55.2" y="1.53" width="2.3" height="1.53"/><rect class="cls-1" x="52.9" y="1.53" width="2.3" height="1.53"/><rect class="cls-1" x="50.6" y="1.53" width="2.3" height="1.53"/><rect class="cls-1" x="48.3" y="1.53" width="2.3" height="1.53"/><rect class="cls-1" x="46" y="1.53" width="2.3" height="1.53"/><rect class="cls-1" x="43.7" y="1.53" width="2.3" height="1.53"/><rect class="cls-1" x="41.4" y="1.53" width="2.3" height="1.53"/><rect class="cls-1" x="39.1" y="1.53" width="2.3" height="1.53"/><rect class="cls-1" x="36.8" y="1.53" width="2.3" height="1.53"/><rect class="cls-1" x="34.5" y="1.53" width="2.3" height="1.53"/><rect class="cls-1" x="32.2" y="1.53" width="2.3" height="1.53"/><rect class="cls-1" x="29.9" y="1.53" width="2.3" height="1.53"/><rect class="cls-1" x="27.6" y="1.53" width="2.3" height="1.53"/><rect class="cls-1" x="25.3" y="1.53" width="2.3" height="1.53"/><rect class="cls-1" x="23" y="1.53" width="2.3" height="1.53"/><rect class="cls-1" x="20.7" y="1.53" width="2.3" height="1.53"/><rect class="cls-1" x="18.4" y="1.53" width="2.3" height="1.53"/><rect class="cls-1" x="16.1" y="1.53" width="2.3" height="1.53"/><rect class="cls-1" x="13.8" y="1.53" width="2.3" height="1.53"/><rect class="cls-1" x="11.5" y="1.53" width="2.3" height="1.53"/><rect class="cls-1" x="9.2" y="1.53" width="2.3" height="1.53"/><rect class="cls-1" x="6.9" y="1.53" width="2.3" height="1.53"/><rect class="cls-1" x="4.6" y="1.53" width="2.3" height="1.53"/><rect class="cls-1" x="2.3" y="1.53" width="2.3" height="1.53"/><rect class="cls-1" x="62.1" width="2.3" height="1.53"/><rect class="cls-1" x="59.8" width="2.3" height="1.53"/><rect class="cls-1" x="57.5" width="2.3" height="1.53"/><rect class="cls-1" x="55.2" width="2.3" height="1.53"/><rect class="cls-1" x="52.9" width="2.3" height="1.53"/><rect class="cls-1" x="50.6" width="2.3" height="1.53"/><rect class="cls-1" x="48.3" width="2.3" height="1.53"/><rect class="cls-1" x="46" width="2.3" height="1.53"/><rect class="cls-1" x="43.7" width="2.3" height="1.53"/><rect class="cls-1" x="41.4" width="2.3" height="1.53"/><rect class="cls-1" x="39.1" width="2.3" height="1.53"/><rect class="cls-1" x="36.8" width="2.3" height="1.53"/><rect class="cls-1" x="34.5" width="2.3" height="1.53"/><rect class="cls-1" x="32.2" width="2.3" height="1.53"/><rect class="cls-1" x="29.9" width="2.3" height="1.53"/><rect class="cls-1" x="27.6" width="2.3" height="1.53"/><rect class="cls-1" x="25.3" width="2.3" height="1.53"/><rect class="cls-1" x="23" width="2.3" height="1.53"/><rect class="cls-1" x="20.7" width="2.3" height="1.53"/><rect class="cls-1" x="18.4" width="2.3" height="1.53"/><rect class="cls-1" x="16.1" width="2.3" height="1.53"/><rect class="cls-1" x="13.8" width="2.3" height="1.53"/><rect class="cls-1" x="11.5" width="2.3" height="1.53"/><rect class="cls-1" x="9.2" width="2.3" height="1.53"/><rect class="cls-1" x="6.9" width="2.3" height="1.53"/><rect class="cls-1" x="4.6" width="2.3" height="1.53"/></svg>